<?xml version='1.0' encoding='ASCII'?>
<svg width="22942" height="5876" preserveAspectRatio="xMinYMin slice" viewBox="25 -4858 22942 5876" version="1.1" xmlns="http://www.w3.org/2000/svg">
  <path d="M25,0 h415 c82,0 148,67 148,150 c0,76 -41,144 -129,199 c-11,-12 -22,-23 -29,-49 c-77,-5 -139,-71 -139,-150 c0,-18 3,-34 8,-50 h-122 c-24,0 -55,13 -68,40 l-84,-140 Z M440,100 c-28,0 -50,22 -50,50 c0,28 22,50 50,50 c28,0 50,-22 50,-50 c0,-28 -22,-50 -50,-50 Z" fill="#000000" transform="matrix(1,0,0,-1,202.5,-3840)"/>
  <path d="M-85,-150 c66,-94 285,-87 285,90 v60 h120 v100 h-120 v200 l-100,-22 v-348 c0,-57 -32,-121 -185,-80 Z" fill="#000000" transform="matrix(1,0,0,-1,815.5,-3840)"/>
  <path d="M-20,0 h620 l60,100 h-244 c-96,0 -195,79 -265,190 l-56,-107 c16,-26 50,-67 78,-83 h-193 v-100 Z" fill="#000000" transform="matrix(1,0,0,-1,1115.5,-3840)"/>
  <path d="M-435,165 c8,-3 36,-11 62,-11 c50,0 108,26 108,146 v500 l-100,-22 v-502 c0,-58 -4,-102 -70,-111 Z" fill="#000000" transform="matrix(1,0,0,-1,1800.5,-3840)"/>
  <path d="M220,58 c-25,-12 -95,-25 -95,22 v720 l-100,-22 v-698 c0,-120 174,-97 195,-22 Z" fill="#000000" transform="matrix(1,0,0,-1,1800.5,-3840)"/>
  <path d="" fill="#000000" transform="matrix(1,0,0,-1,2020.5,-3840)"/>
  <path d="M-85,-150 c66,-94 285,-87 285,90 v60 h120 v100 h-120 v200 l-100,-22 v-348 c0,-57 -32,-121 -185,-80 Z" fill="#000000" transform="matrix(1,0,0,-1,2150.5,-3840)"/>
  <path d="M95,-50 c0,-83 68,-150 150,-150 c82,0 149,67 149,150 v50 h113 v100 h-113 v246 c-25,-48 -100,-47 -139,-46 c-4,0 -7,0 -10,0 c-82,0 -150,-67 -150,-150 v-50 h-115 v-100 h115 v-50 Z M245,-100 c-28,0 -50,22 -50,50 c0,28 22,50 50,50 c28,0 50,-22 50,-50 c0,-28 -22,-50 -50,-50 Z M245,100 c-28,0 -50,22 -50,50 c0,28 22,50 50,50 c28,0 50,-22 50,-50 c0,-28 -22,-50 -50,-50 Z" fill="#000000" transform="matrix(1,0,0,-1,2450.5,-3840)"/>
  <path d="M58,-58 c32,0 58,26 58,58 c0,32 -26,58 -58,58 c-32,0 -58,-26 -58,-58 c0,-32 26,-58 58,-58 Z M231,-58 c32,0 58,26 58,58 c0,32 -26,58 -58,58 c-32,0 -58,-26 -58,-58 c0,-32 26,-58 58,-58 Z M145,92 c32,0 58,26 58,58 c0,32 -26,58 -58,58 c-32,0 -58,-26 -58,-58 c0,-32 26,-58 58,-58 Z" fill="#000000" transform="matrix(1,0,0,-1,3137.5,-4390)"/>
  <path d="M-20,0 h580 c0,0 40,-2 40,23 v277 l-100,-22 v-178 h-100 v200 l-100,-22 v-178 h-100 v200 l-100,-22 v-178 h-120 v-100 Z" fill="#000000" transform="matrix(1,0,0,-1,2937.5,-3840)"/>
  <path d="M0,0 h240 l30,50 h-79 c-24,0 -56,2 -56,39 c0,0 0,0 0,1 c0,8 0,38 32,47 c19,5 52,-5 60,-9 c-13,31 -45,40 -63,40 c-52,0 -74,-29 -85,-69 c-4,-18 -6,-29 -6,-49 h-43 l-30,-50 Z" fill="#000000" transform="matrix(1,0,0,-1,3517.5,-4690)"/>
  <path d="M125,100 v700 l-100,-22 v-628 l100,-50 Z" fill="#000000" transform="matrix(1,0,0,-1,3562.5,-3840)"/>
  <path d="M175,-200 c82,0 149,67 149,150 c0,38 -14,73 -38,100 c24,26 39,61 39,100 v628 l-100,22 v-650 c0,-28 -22,-50 -50,-50 c-28,0 -50,22 -50,50 h-100 c0,-38 15,-73 38,-100 c-23,-27 -38,-62 -38,-100 c0,-83 68,-150 150,-150 Z M175,-100 c-28,0 -50,22 -50,50 c0,28 22,50 50,50 c28,0 50,-22 50,-50 c0,-28 -22,-50 -50,-50 Z" fill="#000000" transform="matrix(1,0,0,-1,3562.5,-3840)"/>
  <path d="M220,58 c-25,-12 -95,-25 -95,22 v720 l-100,-22 v-698 c0,-120 174,-97 195,-22 Z" fill="#000000" transform="matrix(1,0,0,-1,3912.5,-3840)"/>
  <path d="" fill="#000000" transform="matrix(1,0,0,-1,4132.5,-3840)"/>
  <path d="M58,-58 c32,0 58,26 58,58 c0,32 -26,58 -58,58 c-32,0 -58,-26 -58,-58 c0,-32 26,-58 58,-58 Z M231,-58 c32,0 58,26 58,58 c0,32 -26,58 -58,58 c-32,0 -58,-26 -58,-58 c0,-32 26,-58 58,-58 Z" fill="#000000" transform="matrix(1,0,0,-1,4357.5,-3540)"/>
  <path d="M25,-200 h482 l-258,452 c-37,65 -23,131 26,158 l237,-410 h188 v100 h-130 l-282,491 c0,-52 -24,-68 -65,-98 c-81,-60 -143,-148 -61,-290 l174,-303 h-159 c-24,0 -55,13 -68,40 l-84,-140 Z" fill="#000000" transform="matrix(1,0,0,-1,4262.5,-3840)"/>
  <path d="M58,-58 c32,0 58,26 58,58 c0,32 -26,58 -58,58 c-32,0 -58,-26 -58,-58 c0,-32 26,-58 58,-58 Z" fill="#000000" transform="matrix(1,0,0,-1,5134.5,-4440)"/>
  <path d="M-20,0 h380 c0,0 40,-2 40,23 v277 c0,83 -67,150 -149,150 c-82,0 -150,-67 -150,-150 c0,-83 68,-150 150,-150 c17,0 34,3 49,8 v-58 h-320 v-100 Z M251,250 c-28,0 -50,22 -50,50 c0,28 22,50 50,50 c28,0 50,-22 50,-50 c0,-28 -22,-50 -50,-50 Z" fill="#000000" transform="matrix(1,0,0,-1,4942.5,-3840)"/>
  <path d="" fill="#000000" transform="matrix(1,0,0,-1,5367.5,-3840)"/>
  <path d="M58,-58 c32,0 58,26 58,58 c0,32 -26,58 -58,58 c-32,0 -58,-26 -58,-58 c0,-32 26,-58 58,-58 Z M231,-58 c32,0 58,26 58,58 c0,32 -26,58 -58,58 c-32,0 -58,-26 -58,-58 c0,-32 26,-58 58,-58 Z" fill="#000000" transform="matrix(1,0,0,-1,5592.5,-3540)"/>
  <path d="M25,-200 h482 l-258,452 c-37,65 -23,131 26,158 l237,-410 h188 v100 h-130 l-282,491 c0,-52 -24,-68 -65,-98 c-81,-60 -143,-148 -61,-290 l174,-303 h-159 c-24,0 -55,13 -68,40 l-84,-140 Z" fill="#000000" transform="matrix(1,0,0,-1,5497.5,-3840)"/>
  <path d="M-20,0 h265 c82,1 148,67 148,150 c0,83 -67,150 -149,150 c-82,0 -150,-67 -150,-150 c0,-18 3,-34 9,-50 h-123 v-100 Z M244,100 c-28,0 -50,22 -50,50 c0,28 22,50 50,50 c28,0 50,-22 50,-50 c0,-28 -22,-50 -50,-50 Z" fill="#000000" transform="matrix(1,0,0,-1,6177.5,-3840)"/>
  <path d="M25,0 h780 c0,0 40,-2 40,23 c0,8 0,17 0,26 c1,115 3,251 -190,251 h-430 l52,113 l-10,7 l-132,-220 h520 c75,0 91,-44 90,-100 h-660 l-60,-100 Z" fill="#000000" transform="matrix(1,0,0,-1,6595.5,-3840)"/>
  <path d="" fill="#000000" transform="matrix(1,0,0,-1,7465.5,-3840)"/>
  <path d="M85,200 h590 c75,0 91,-44 90,-100 h-680 l-60,-100 h800 c0,0 2,0 4,0 h156 v100 h-120 c-2,101 -26,200 -190,200 h-490 v500 l-100,-22 v-578 Z" fill="#000000" transform="matrix(1,0,0,-1,7595.5,-3840)"/>
  <path d="M58,-58 c32,0 58,26 58,58 c0,32 -26,58 -58,58 c-32,0 -58,-26 -58,-58 c0,-32 26,-58 58,-58 Z" fill="#000000" transform="matrix(1,0,0,-1,8752.5,-4440)"/>
  <path d="M-20,0 h380 c0,0 2,0 4,0 h156 v100 h-120 v200 c0,83 -67,150 -149,150 c-82,0 -150,-67 -150,-150 c0,-83 68,-150 150,-150 c17,0 34,3 49,8 v-58 h-320 v-100 Z M251,250 c-28,0 -50,22 -50,50 c0,28 22,50 50,50 c28,0 50,-22 50,-50 c0,-28 -22,-50 -50,-50 Z" fill="#000000" transform="matrix(1,0,0,-1,8560.5,-3840)"/>
  <path d="M-20,0 h580 c0,0 40,-2 40,23 v277 l-100,-22 v-178 h-100 v200 l-100,-22 v-178 h-100 v200 l-100,-22 v-178 h-120 v-100 Z" fill="#000000" transform="matrix(1,0,0,-1,9060.5,-3840)"/>
  <path d="" fill="#000000" transform="matrix(1,0,0,-1,9685.5,-3840)"/>
  <path d="M345,40 c0,-111 -27,-183 -129,-183 c-124,0 -161,67 -161,143 c0,39 18,86 56,90 c18,2 30,-2 49,-13 c6,23 -8,48 -29,58 c19,25 23,47 20,72 c-63,-40 -126,-119 -126,-207 c0,-62 28,-200 191,-200 c151,0 228,87 229,200 h120 v100 h-120 v700 l-100,-22 v-738 Z" fill="#000000" transform="matrix(1,0,0,-1,9815.5,-3840)"/>
  <path d="M-20,0 h620 l60,100 h-244 c-96,0 -195,79 -265,190 l-56,-107 c16,-26 50,-67 78,-83 h-193 v-100 Z" fill="#000000" transform="matrix(1,0,0,-1,10360.5,-3840)"/>
  <path d="M0,0 h240 l30,50 h-79 c-24,0 -56,2 -56,39 c0,0 0,0 0,1 c0,8 0,38 32,47 c19,5 52,-5 60,-9 c-13,31 -45,40 -63,40 c-52,0 -74,-29 -85,-69 c-4,-18 -6,-29 -6,-49 h-43 l-30,-50 Z" fill="#000000" transform="matrix(1,0,0,-1,11050.5,-4690)"/>
  <path d="M313,72 c-109,-54 -188,-19 -188,28 v700 l-100,-22 v-678 c0,-138 221,-135 288,-28 Z" fill="#000000" transform="matrix(1,0,0,-1,11045.5,-3840)"/>
  <path d="" fill="#000000" transform="matrix(1,0,0,-1,11358.5,-3840)"/>
  <path d="" fill="#000000" transform="matrix(1,0,0,-1,11488.5,-3840)"/>
  <path d="" fill="#000000" transform="matrix(1,0,0,-1,11618.5,-3840)"/>
  <path d="M-50,-181 c55,-54 175,-9 175,81 v108 c15,-5 32,-8 49,-8 h265 v100 h-125 c5,16 8,32 8,50 c0,67 -43,124 -103,143 c-14,5 -34,17 -45,57 c-10,-40 -29,-52 -43,-56 c-61,-19 -106,-76 -106,-144 v-250 c0,-64 -69,-81 -75,-81 Z M174,100 c-28,0 -50,22 -50,50 c0,28 22,50 50,50 c28,0 50,-22 50,-50 c0,-28 -22,-50 -50,-50 Z" fill="#000000" transform="matrix(1,0,0,-1,11748.5,-3840)"/>
  <path d="M-20,0 h180 c0,0 2,0 4,0 h156 v100 h-120 v700 l-100,-22 v-678 h-120 v-100 Z" fill="#000000" transform="matrix(1,0,0,-1,12167.5,-3840)"/>
  <path d="M-20,0 h340 v100 h-340 v-100 Z" fill="#000000" transform="matrix(1,0,0,-1,12467.5,-3840)"/>
  <path d="M-20,100 v-100 h500 v100 h-192 l171,300 h-459 l170,-300 h-190 Z M229,198 l-58,102 h116 l-58,-102 Z" fill="#000000" transform="matrix(1,0,0,-1,12767.5,-3840)"/>
  <path d="M-20,0 h180 c0,0 40,-2 40,23 v777 l-100,-22 v-678 h-120 v-100 Z" fill="#000000" transform="matrix(1,0,0,-1,13227.5,-3840)"/>
  <path d="M313,72 c-109,-54 -188,-19 -188,28 v700 l-100,-22 v-678 c0,-138 221,-135 288,-28 Z" fill="#000000" transform="matrix(1,0,0,-1,13452.5,-3840)"/>
  <path d="" fill="#000000" transform="matrix(1,0,0,-1,13765.5,-3840)"/>
  <path d="M39,-132 c66,-94 285,-87 285,90 v388 c-25,-48 -100,-47 -139,-46 c-4,0 -7,0 -10,0 c-82,0 -150,-67 -150,-150 c0,-83 68,-150 150,-150 c17,0 34,3 49,8 v-60 c0,-57 -32,-121 -185,-80 Z M175,100 c-28,0 -50,22 -50,50 c0,28 22,50 50,50 c28,0 50,-22 50,-50 c0,-28 -22,-50 -50,-50 Z" fill="#000000" transform="matrix(1,0,0,-1,13895.5,-3840)"/>
  <path d="" fill="#000000" transform="matrix(1,0,0,-1,14244.5,-3840)"/>
  <path d="M58,-58 c32,0 58,26 58,58 c0,32 -26,58 -58,58 c-32,0 -58,-26 -58,-58 c0,-32 26,-58 58,-58 Z" fill="#000000" transform="matrix(1,0,0,-1,14546.5,-4240)"/>
  <path d="M221,-204 c133,0 214,96 214,209 c0,117 -48,195 -98,257 l-52,-104 c20,-24 61,-81 65,-138 c5,-71 -32,-156 -134,-156 c-114,0 -161,67 -161,136 c0,39 18,86 56,90 c18,2 30,-2 49,-13 c6,23 -8,48 -29,58 c19,25 23,47 20,72 c-63,-40 -126,-119 -126,-207 c0,-62 39,-204 196,-204 Z" fill="#000000" transform="matrix(1,0,0,-1,14374.5,-3840)"/>
  <path d="M65,0 h180 v100 h-120 v700 l-100,-22 v-755 c0,-25 40,-23 40,-23 Z" fill="#000000" transform="matrix(1,0,0,-1,14834.5,-3840)"/>
  <path d="M-20,0 h340 v100 h-340 v-100 Z" fill="#000000" transform="matrix(1,0,0,-1,15059.5,-3840)"/>
  <path d="M-20,0 h340 v100 h-340 v-100 Z" fill="#000000" transform="matrix(1,0,0,-1,15359.5,-3840)"/>
  <path d="M58,-58 c32,0 58,26 58,58 c0,32 -26,58 -58,58 c-32,0 -58,-26 -58,-58 c0,-32 26,-58 58,-58 Z" fill="#000000" transform="matrix(1,0,0,-1,15684.5,-3690)"/>
  <path d="M-20,0 h180 c0,0 2,0 4,0 h156 v100 h-120 v200 l-100,-22 v-178 h-120 v-100 Z" fill="#000000" transform="matrix(1,0,0,-1,15659.5,-3840)"/>
  <path d="M-20,0 h180 c0,0 40,-2 40,23 v777 l-100,-22 v-678 h-120 v-100 Z" fill="#000000" transform="matrix(1,0,0,-1,15959.5,-3840)"/>
  <path d="M313,72 c-109,-54 -188,-19 -188,28 v700 l-100,-22 v-678 c0,-138 221,-135 288,-28 Z" fill="#000000" transform="matrix(1,0,0,-1,16184.5,-3840)"/>
  <path d="" fill="#000000" transform="matrix(1,0,0,-1,16497.5,-3840)"/>
  <path d="M58,-58 c32,0 58,26 58,58 c0,32 -26,58 -58,58 c-32,0 -58,-26 -58,-58 c0,-32 26,-58 58,-58 Z" fill="#000000" transform="matrix(1,0,0,-1,16799.5,-4240)"/>
  <path d="M221,-204 c131,0 212,93 214,204 h75 v100 h-87 c-17,67 -51,119 -86,162 l-52,-104 c20,-24 61,-81 65,-138 c5,-71 -32,-156 -134,-156 c-114,0 -161,67 -161,136 c0,39 18,86 56,90 c18,2 30,-2 49,-13 c6,23 -8,48 -29,58 c19,25 23,47 20,72 c-63,-40 -126,-119 -126,-207 c0,-62 39,-204 196,-204 Z" fill="#000000" transform="matrix(1,0,0,-1,16627.5,-3840)"/>
  <path d="M58,-58 c32,0 58,26 58,58 c0,32 -26,58 -58,58 c-32,0 -58,-26 -58,-58 c0,-32 26,-58 58,-58 Z M231,-58 c32,0 58,26 58,58 c0,32 -26,58 -58,58 c-32,0 -58,-26 -58,-58 c0,-32 26,-58 58,-58 Z" fill="#000000" transform="matrix(1,0,0,-1,17055.5,-3690)"/>
  <path d="M-20,0 h180 c0,0 2,0 4,0 h156 v100 h-120 v270 l-100,-22 v-248 h-120 v-100 Z" fill="#000000" transform="matrix(1,0,0,-1,17117.5,-3840)"/>
  <path d="M58,-58 c32,0 58,26 58,58 c0,32 -26,58 -58,58 c-32,0 -58,-26 -58,-58 c0,-32 26,-58 58,-58 Z" fill="#000000" transform="matrix(1,0,0,-1,17442.5,-3690)"/>
  <path d="M-20,0 h180 c0,0 40,-2 40,23 v277 l-100,-22 v-178 h-120 v-100 Z" fill="#000000" transform="matrix(1,0,0,-1,17417.5,-3840)"/>
  <path d="" fill="#000000" transform="matrix(1,0,0,-1,17642.5,-3840)"/>
  <path d="M132,-200 c76,-23 192,-2 238,53 c-64,-22 -244,-33 -244,75 c0,41 46,72 72,72 h82 l60,100 h-132 c-41,0 -89,33 -89,84 c0,33 28,65 61,70 c28,5 64,-5 93,-30 c-22,49 -65,76 -114,76 c-115,0 -189,-173 -89,-258 c-24,-24 -46,-52 -46,-101 c0,-73 51,-123 108,-141 Z" fill="#000000" transform="matrix(1,0,0,-1,17772.5,-3840)"/>
  <path d="M65,0 h180 v100 h-120 v700 l-100,-22 v-755 c0,-25 40,-23 40,-23 Z" fill="#000000" transform="matrix(1,0,0,-1,18142.5,-3840)"/>
  <path d="M-20,0 h340 v100 h-340 v-100 Z" fill="#000000" transform="matrix(1,0,0,-1,18367.5,-3840)"/>
  <path d="M-20,0 h340 v100 h-340 v-100 Z" fill="#000000" transform="matrix(1,0,0,-1,18667.5,-3840)"/>
  <path d="M58,-58 c32,0 58,26 58,58 c0,32 -26,58 -58,58 c-32,0 -58,-26 -58,-58 c0,-32 26,-58 58,-58 Z M231,-58 c32,0 58,26 58,58 c0,32 -26,58 -58,58 c-32,0 -58,-26 -58,-58 c0,-32 26,-58 58,-58 Z" fill="#000000" transform="matrix(1,0,0,-1,19072.5,-4440)"/>
  <path d="M-20,0 h380 c0,0 2,0 4,0 h156 v100 h-120 v200 c0,83 -67,150 -149,150 c-82,0 -150,-67 -150,-150 c0,-83 68,-150 150,-150 c17,0 34,3 49,8 v-58 h-320 v-100 Z M251,250 c-28,0 -50,22 -50,50 c0,28 22,50 50,50 c28,0 50,-22 50,-50 c0,-28 -22,-50 -50,-50 Z" fill="#000000" transform="matrix(1,0,0,-1,18967.5,-3840)"/>
  <path d="M-20,0 h180 c0,0 40,-2 40,23 v777 l-100,-22 v-678 h-120 v-100 Z" fill="#000000" transform="matrix(1,0,0,-1,19467.5,-3840)"/>
  <path d="M313,72 c-109,-54 -188,-19 -188,28 v700 l-100,-22 v-678 c0,-138 221,-135 288,-28 Z" fill="#000000" transform="matrix(1,0,0,-1,19692.5,-3840)"/>
  <path d="" fill="#000000" transform="matrix(1,0,0,-1,20005.5,-3840)"/>
  <path d="M25,0 h408 l-144,252 c-37,65 -23,131 26,158 l237,-410 h188 v100 h-130 l-282,491 c0,-52 -24,-68 -65,-98 c-81,-60 -142,-148 -61,-290 l59,-103 h-84 c-24,0 -55,13 -68,40 l-84,-140 Z" fill="#000000" transform="matrix(1,0,0,-1,20135.5,-3840)"/>
  <path d="M-20,0 h180 c0,0 2,0 4,0 h156 v100 h-120 v700 l-100,-22 v-678 h-120 v-100 Z" fill="#000000" transform="matrix(1,0,0,-1,20855.5,-3840)"/>
  <path d="M-20,0 h470 l60,100 h-240 c-40,0 -64,26 -83,46 c-12,12 -15,37 -8,54 c14,33 54,65 134,102 l-7,9 c-162,-52 -212,-103 -228,-128 c-12,-18 -10,-67 18,-83 h-116 v-100 Z" fill="#000000" transform="matrix(1,0,0,-1,21155.5,-3840)"/>
  <path d="" fill="#000000" transform="matrix(1,0,0,-1,21690.5,-3840)"/>
  <path d="M-50,-181 c55,-54 175,-9 175,81 v108 c15,-5 32,-8 49,-8 h265 v100 h-125 c5,16 8,32 8,50 c0,67 -43,124 -103,143 c-14,5 -34,17 -45,57 c-10,-40 -29,-52 -43,-56 c-61,-19 -106,-76 -106,-144 v-250 c0,-64 -69,-81 -75,-81 Z M174,100 c-28,0 -50,22 -50,50 c0,28 22,50 50,50 c28,0 50,-22 50,-50 c0,-28 -22,-50 -50,-50 Z" fill="#000000" transform="matrix(1,0,0,-1,21820.5,-3840)"/>
  <path d="M58,-58 c32,0 58,26 58,58 c0,32 -26,58 -58,58 c-32,0 -58,-26 -58,-58 c0,-32 26,-58 58,-58 Z M231,-58 c32,0 58,26 58,58 c0,32 -26,58 -58,58 c-32,0 -58,-26 -58,-58 c0,-32 26,-58 58,-58 Z" fill="#000000" transform="matrix(1,0,0,-1,22177.5,-3690)"/>
  <path d="M-20,0 h180 c0,0 40,-2 40,23 v277 l-100,-22 v-178 h-120 v-100 Z" fill="#000000" transform="matrix(1,0,0,-1,22239.5,-3840)"/>
  <path d="M-85,-150 c66,-94 285,-87 285,90 v360 l-100,-22 v-348 c0,-57 -32,-121 -185,-80 Z" fill="#000000" transform="matrix(1,0,0,-1,22564.5,-3840)"/>
  <path d="M25,0 h408 c85,0 155,70 155,157 c0,82 -43,150 -138,208 c-10,-11 -26,-27 -33,-52 c-75,-8 -141,-73 -141,-156 c0,-15 2,-30 6,-44 h-97 c-24,0 -55,13 -68,40 l-92,-153 Z M433,113 c-25,0 -44,19 -44,44 c0,24 19,43 44,43 c24,0 43,-19 43,-43 c0,-25 -19,-44 -43,-44 Z" fill="#000000" transform="matrix(1,0,0,-1,136,-2340)"/>
  <path d="M-85,-150 c66,-94 285,-87 285,90 v60 h120 v113 h-120 v200 l-113,-25 v-355 c0,-60 -31,-121 -172,-83 Z" fill="#000000" transform="matrix(1,0,0,-1,749,-2340)"/>
  <path d="M-20,0 h620 l60,113 h-254 c-85,0 -187,83 -258,194 l-59,-114 c16,-28 45,-63 69,-80 h-178 v-113 Z" fill="#000000" transform="matrix(1,0,0,-1,1049,-2340)"/>
  <path d="M-435,165 c10,-4 41,-12 69,-12 c54,0 114,27 114,147 v500 l-113,-25 v-499 c0,-58 -4,-102 -70,-111 Z" fill="#000000" transform="matrix(1,0,0,-1,1734,-2340)"/>
  <path d="M233,58 c-25,-12 -95,-25 -95,29 v713 l-113,-25 v-688 c0,-130 187,-104 208,-29 Z" fill="#000000" transform="matrix(1,0,0,-1,1734,-2340)"/>
  <path d="" fill="#000000" transform="matrix(1,0,0,-1,1967,-2340)"/>
  <path d="M-85,-150 c66,-94 285,-87 285,90 v60 h120 v113 h-120 v200 l-113,-25 v-355 c0,-60 -31,-121 -172,-83 Z" fill="#000000" transform="matrix(1,0,0,-1,2097,-2340)"/>
  <path d="M81,-47 c0,-86 72,-156 157,-156 c86,0 156,70 156,156 v47 h113 v113 h-113 v253 c-26,-50 -113,-49 -151,-49 c-2,0 -3,0 -5,0 c-85,0 -157,-71 -157,-157 v-47 h-101 v-113 h101 v-47 Z M238,-90 c-24,0 -43,19 -43,43 c0,25 19,44 43,44 c25,0 43,-19 43,-44 c0,-24 -18,-43 -43,-43 Z M238,117 c-24,0 -43,19 -43,43 c0,24 19,43 43,43 c25,0 43,-19 43,-43 c0,-24 -18,-43 -43,-43 Z" fill="#000000" transform="matrix(1,0,0,-1,2397,-2340)"/>
  <path d="M58,-58 c32,0 58,26 58,58 c0,32 -26,58 -58,58 c-32,0 -58,-26 -58,-58 c0,-32 26,-58 58,-58 Z M231,-58 c32,0 58,26 58,58 c0,32 -26,58 -58,58 c-32,0 -58,-26 -58,-58 c0,-32 26,-58 58,-58 Z M145,92 c32,0 58,26 58,58 c0,32 -26,58 -58,58 c-32,0 -58,-26 -58,-58 c0,-32 26,-58 58,-58 Z" fill="#000000" transform="matrix(1,0,0,-1,3084,-2903)"/>
  <path d="M-20,0 h580 c0,0 40,-2 40,23 v290 l-113,-25 v-175 h-87 v200 l-113,-25 v-175 h-87 v200 l-113,-25 v-175 h-107 v-113 Z" fill="#000000" transform="matrix(1,0,0,-1,2884,-2340)"/>
  <path d="M0,0 h240 l30,50 h-79 c-24,0 -56,2 -56,39 c0,0 0,0 0,1 c0,8 0,38 32,47 c19,5 52,-5 60,-9 c-13,31 -45,40 -63,40 c-52,0 -74,-29 -85,-69 c-4,-18 -6,-29 -6,-49 h-43 l-30,-50 Z" fill="#000000" transform="matrix(1,0,0,-1,3464,-3190)"/>
  <path d="M138,93 v707 l-113,-25 v-625 l113,-57 Z" fill="#000000" transform="matrix(1,0,0,-1,3509,-2340)"/>
  <path d="M182,-207 c86,0 156,70 156,157 c0,38 -14,73 -36,100 c23,27 36,62 36,100 v625 l-113,25 v-650 c0,-24 -19,-43 -43,-43 c-24,0 -44,19 -44,43 h-113 c0,-38 14,-73 37,-100 c-23,-27 -37,-62 -37,-100 c0,-86 71,-157 157,-157 Z M182,-93 c-24,0 -44,19 -44,43 c0,24 20,43 44,43 c24,0 43,-19 43,-43 c0,-24 -19,-43 -43,-43 Z" fill="#000000" transform="matrix(1,0,0,-1,3509,-2340)"/>
  <path d="M233,58 c-25,-12 -95,-25 -95,29 v713 l-113,-25 v-688 c0,-130 187,-104 208,-29 Z" fill="#000000" transform="matrix(1,0,0,-1,3872,-2340)"/>
  <path d="" fill="#000000" transform="matrix(1,0,0,-1,4105,-2340)"/>
  <path d="M58,-58 c32,0 58,26 58,58 c0,32 -26,58 -58,58 c-32,0 -58,-26 -58,-58 c0,-32 26,-58 58,-58 Z M231,-58 c32,0 58,26 58,58 c0,32 -26,58 -58,58 c-32,0 -58,-26 -58,-58 c0,-32 26,-58 58,-58 Z" fill="#000000" transform="matrix(1,0,0,-1,4330,-2040)"/>
  <path d="M25,-200 h496 l-262,459 c-29,51 -20,105 16,128 l223,-387 h202 v113 h-138 l-274,478 c0,-52 -24,-68 -65,-98 c-81,-60 -143,-148 -61,-290 l166,-290 h-143 c-24,0 -55,13 -68,40 l-92,-153 Z" fill="#000000" transform="matrix(1,0,0,-1,4235,-2340)"/>
  <path d="M58,-58 c32,0 58,26 58,58 c0,32 -26,58 -58,58 c-32,0 -58,-26 -58,-58 c0,-32 26,-58 58,-58 Z" fill="#000000" transform="matrix(1,0,0,-1,5100,-2940)"/>
  <path d="M-20,0 h380 c0,0 40,-2 40,23 v290 c0,87 -70,157 -156,157 c-85,0 -157,-70 -157,-157 c0,-86 72,-156 157,-156 c15,0 29,2 43,6 v-50 h-307 v-113 Z M244,270 c-24,0 -43,19 -43,43 c0,25 19,44 43,44 c25,0 43,-19 43,-44 c0,-24 -18,-43 -43,-43 Z" fill="#000000" transform="matrix(1,0,0,-1,4915,-2340)"/>
  <path d="" fill="#000000" transform="matrix(1,0,0,-1,5340,-2340)"/>
  <path d="M58,-58 c32,0 58,26 58,58 c0,32 -26,58 -58,58 c-32,0 -58,-26 -58,-58 c0,-32 26,-58 58,-58 Z M231,-58 c32,0 58,26 58,58 c0,32 -26,58 -58,58 c-32,0 -58,-26 -58,-58 c0,-32 26,-58 58,-58 Z" fill="#000000" transform="matrix(1,0,0,-1,5565,-2040)"/>
  <path d="M25,-200 h496 l-262,459 c-29,51 -20,105 16,128 l223,-387 h202 v113 h-138 l-274,478 c0,-52 -24,-68 -65,-98 c-81,-60 -143,-148 -61,-290 l166,-290 h-143 c-24,0 -55,13 -68,40 l-92,-153 Z" fill="#000000" transform="matrix(1,0,0,-1,5470,-2340)"/>
  <path d="M-20,0 h259 c85,1 154,71 154,157 c0,86 -70,156 -156,156 c-85,0 -157,-70 -157,-156 c0,-15 2,-30 7,-44 h-107 v-113 Z M237,113 c-24,0 -43,19 -43,44 c0,24 19,43 43,43 c25,0 43,-19 43,-43 c0,-25 -18,-44 -43,-44 Z" fill="#000000" transform="matrix(1,0,0,-1,6150,-2340)"/>
  <path d="M25,0 h780 c0,0 40,-2 40,23 c0,8 0,16 0,24 c1,118 3,266 -203,266 h-409 l52,113 l-10,7 l-140,-233 h507 c75,0 91,-37 90,-87 h-639 l-68,-113 Z" fill="#000000" transform="matrix(1,0,0,-1,6568,-2340)"/>
  <path d="" fill="#000000" transform="matrix(1,0,0,-1,7438,-2340)"/>
  <path d="M93,200 h569 c75,0 91,-37 90,-87 h-659 l-68,-113 h800 c0,0 2,0 4,0 h156 v113 h-120 c-5,101 -35,200 -203,200 h-456 v487 l-113,-25 v-575 Z" fill="#000000" transform="matrix(1,0,0,-1,7568,-2340)"/>
  <path d="M58,-58 c32,0 58,26 58,58 c0,32 -26,58 -58,58 c-32,0 -58,-26 -58,-58 c0,-32 26,-58 58,-58 Z" fill="#000000" transform="matrix(1,0,0,-1,8718,-2940)"/>
  <path d="M-20,0 h380 c0,0 2,0 4,0 h156 v113 h-120 v200 c0,87 -70,157 -156,157 c-85,0 -157,-70 -157,-157 c0,-86 72,-156 157,-156 c15,0 29,2 43,6 v-50 h-307 v-113 Z M244,270 c-24,0 -43,19 -43,43 c0,25 19,44 43,44 c25,0 43,-19 43,-44 c0,-24 -18,-43 -43,-43 Z" fill="#000000" transform="matrix(1,0,0,-1,8533,-2340)"/>
  <path d="M-20,0 h580 c0,0 40,-2 40,23 v290 l-113,-25 v-175 h-87 v200 l-113,-25 v-175 h-87 v200 l-113,-25 v-175 h-107 v-113 Z" fill="#000000" transform="matrix(1,0,0,-1,9033,-2340)"/>
  <path d="" fill="#000000" transform="matrix(1,0,0,-1,9658,-2340)"/>
  <path d="M332,40 c0,-111 -28,-183 -122,-183 c-107,0 -151,66 -151,143 c0,37 16,74 48,81 c18,6 33,3 53,-11 c6,23 -8,55 -29,65 c19,25 23,47 20,72 c-63,-40 -126,-119 -126,-207 c0,-62 28,-200 191,-200 c151,0 228,87 229,200 h120 v113 h-120 v687 l-113,-25 v-735 Z" fill="#000000" transform="matrix(1,0,0,-1,9788,-2340)"/>
  <path d="M-20,0 h620 l60,113 h-254 c-85,0 -187,83 -258,194 l-59,-114 c16,-28 45,-63 69,-80 h-178 v-113 Z" fill="#000000" transform="matrix(1,0,0,-1,10333,-2340)"/>
  <path d="M0,0 h240 l30,50 h-79 c-24,0 -56,2 -56,39 c0,0 0,0 0,1 c0,8 0,38 32,47 c19,5 52,-5 60,-9 c-13,31 -45,40 -63,40 c-52,0 -74,-29 -85,-69 c-4,-18 -6,-29 -6,-49 h-43 l-30,-50 Z" fill="#000000" transform="matrix(1,0,0,-1,11030,-3190)"/>
  <path d="M326,72 c-109,-54 -188,-12 -188,41 v687 l-113,-25 v-668 c0,-146 234,-142 301,-35 Z" fill="#000000" transform="matrix(1,0,0,-1,11018,-2340)"/>
  <path d="" fill="#000000" transform="matrix(1,0,0,-1,11344,-2340)"/>
  <path d="" fill="#000000" transform="matrix(1,0,0,-1,11474,-2340)"/>
  <path d="" fill="#000000" transform="matrix(1,0,0,-1,11604,-2340)"/>
  <path d="M-50,-181 c55,-54 188,-12 188,88 v99 c14,-4 28,-6 43,-6 c1,0 1,0 1,0 h257 v113 h-109 c4,14 6,29 6,44 c0,69 -45,129 -108,149 c-17,6 -34,17 -47,60 c-12,-43 -28,-54 -45,-59 c-64,-20 -111,-80 -111,-150 v-250 c0,-71 -69,-88 -75,-88 Z M181,113 c-24,0 -43,19 -43,44 c0,24 19,43 43,43 c25,0 43,-19 43,-43 c0,-25 -18,-44 -43,-44 Z" fill="#000000" transform="matrix(1,0,0,-1,11734,-2340)"/>
  <path d="M-20,0 h180 c0,0 2,0 4,0 h156 v113 h-120 v687 l-113,-25 v-662 h-107 v-113 Z" fill="#000000" transform="matrix(1,0,0,-1,12153,-2340)"/>
  <path d="M-20,0 h340 v113 h-340 v-113 Z" fill="#000000" transform="matrix(1,0,0,-1,12453,-2340)"/>
  <path d="M-20,113 v-113 h522 v113 h-185 l164,287 h-482 l163,-287 h-182 Z M240,205 l-47,82 h93 l-46,-82 Z" fill="#000000" transform="matrix(1,0,0,-1,12753,-2340)"/>
  <path d="M-20,0 h180 c0,0 40,-2 40,23 v777 l-113,-25 v-662 h-107 v-113 Z" fill="#000000" transform="matrix(1,0,0,-1,13235,-2340)"/>
  <path d="M326,72 c-109,-54 -188,-12 -188,41 v687 l-113,-25 v-668 c0,-146 234,-142 301,-35 Z" fill="#000000" transform="matrix(1,0,0,-1,13460,-2340)"/>
  <path d="" fill="#000000" transform="matrix(1,0,0,-1,13786,-2340)"/>
  <path d="M46,-132 c66,-94 292,-87 292,97 v398 c-26,-50 -113,-50 -151,-50 c-2,0 -3,0 -5,0 c-86,0 -157,-70 -157,-156 c0,-87 71,-157 157,-157 c15,0 29,2 42,6 v-58 c0,-46 -25,-121 -178,-80 Z M182,113 c-24,0 -44,19 -44,44 c0,24 20,43 44,43 c24,0 43,-19 43,-43 c0,-25 -19,-44 -43,-44 Z" fill="#000000" transform="matrix(1,0,0,-1,13916,-2340)"/>
  <path d="" fill="#000000" transform="matrix(1,0,0,-1,14279,-2340)"/>
  <path d="M58,-58 c32,0 58,26 58,58 c0,32 -26,58 -58,58 c-32,0 -58,-26 -58,-58 c0,-32 26,-58 58,-58 Z" fill="#000000" transform="matrix(1,0,0,-1,14581,-2740)"/>
  <path d="M222,-204 c123,0 213,88 213,209 c0,117 -48,195 -98,257 l-57,-115 c20,-26 54,-79 57,-132 c3,-77 -43,-149 -132,-149 c-96,0 -146,58 -146,134 c0,40 20,82 55,85 c16,1 29,-3 46,-14 c6,22 -8,54 -29,64 c18,24 23,47 20,72 c-63,-40 -126,-119 -126,-207 c0,-87 59,-204 197,-204 Z" fill="#000000" transform="matrix(1,0,0,-1,14409,-2340)"/>
  <path d="M65,0 h180 v113 h-107 v687 l-113,-25 v-752 c0,-25 40,-23 40,-23 Z" fill="#000000" transform="matrix(1,0,0,-1,14869,-2340)"/>
  <path d="M-20,0 h340 v113 h-340 v-113 Z" fill="#000000" transform="matrix(1,0,0,-1,15094,-2340)"/>
  <path d="M-20,0 h340 v113 h-340 v-113 Z" fill="#000000" transform="matrix(1,0,0,-1,15394,-2340)"/>
  <path d="M58,-58 c32,0 58,26 58,58 c0,32 -26,58 -58,58 c-32,0 -58,-26 -58,-58 c0,-32 26,-58 58,-58 Z" fill="#000000" transform="matrix(1,0,0,-1,15719,-2190)"/>
  <path d="M-20,0 h180 c0,0 2,0 4,0 h156 v113 h-120 v200 l-113,-25 v-175 h-107 v-113 Z" fill="#000000" transform="matrix(1,0,0,-1,15694,-2340)"/>
  <path d="M-20,0 h180 c0,0 40,-2 40,23 v777 l-113,-25 v-662 h-107 v-113 Z" fill="#000000" transform="matrix(1,0,0,-1,15994,-2340)"/>
  <path d="M326,72 c-109,-54 -188,-12 -188,41 v687 l-113,-25 v-668 c0,-146 234,-142 301,-35 Z" fill="#000000" transform="matrix(1,0,0,-1,16219,-2340)"/>
  <path d="" fill="#000000" transform="matrix(1,0,0,-1,16545,-2340)"/>
  <path d="M58,-58 c32,0 58,26 58,58 c0,32 -26,58 -58,58 c-32,0 -58,-26 -58,-58 c0,-32 26,-58 58,-58 Z" fill="#000000" transform="matrix(1,0,0,-1,16847,-2740)"/>
  <path d="M222,-204 c122,0 211,86 213,204 h75 v113 h-90 c-18,61 -50,108 -83,149 l-57,-115 c20,-26 54,-79 57,-132 c3,-77 -43,-149 -132,-149 c-96,0 -146,58 -146,134 c0,40 20,82 55,85 c16,1 29,-3 46,-14 c6,22 -8,54 -29,64 c18,24 23,47 20,72 c-63,-40 -126,-119 -126,-207 c0,-87 59,-204 197,-204 Z" fill="#000000" transform="matrix(1,0,0,-1,16675,-2340)"/>
  <path d="M58,-58 c32,0 58,26 58,58 c0,32 -26,58 -58,58 c-32,0 -58,-26 -58,-58 c0,-32 26,-58 58,-58 Z M231,-58 c32,0 58,26 58,58 c0,32 -26,58 -58,58 c-32,0 -58,-26 -58,-58 c0,-32 26,-58 58,-58 Z" fill="#000000" transform="matrix(1,0,0,-1,17103,-2190)"/>
  <path d="M-20,0 h180 c0,0 2,0 4,0 h156 v113 h-120 v270 l-113,-25 v-245 h-107 v-113 Z" fill="#000000" transform="matrix(1,0,0,-1,17165,-2340)"/>
  <path d="M58,-58 c32,0 58,26 58,58 c0,32 -26,58 -58,58 c-32,0 -58,-26 -58,-58 c0,-32 26,-58 58,-58 Z" fill="#000000" transform="matrix(1,0,0,-1,17490,-2190)"/>
  <path d="M-20,0 h180 c0,0 40,-2 40,23 v290 l-113,-25 v-175 h-107 v-113 Z" fill="#000000" transform="matrix(1,0,0,-1,17465,-2340)"/>
  <path d="" fill="#000000" transform="matrix(1,0,0,-1,17690,-2340)"/>
  <path d="M135,-200 c76,-23 195,-2 241,53 c-64,-22 -237,-33 -237,75 c0,44 46,72 72,72 h75 l60,113 h-122 c-49,0 -92,32 -92,78 c0,29 26,59 55,63 c27,5 62,-5 92,-30 c-16,45 -58,83 -114,83 c-122,0 -195,-174 -95,-261 c-23,-26 -43,-56 -43,-105 c0,-73 51,-123 108,-141 Z" fill="#000000" transform="matrix(1,0,0,-1,17820,-2340)"/>
  <path d="M65,0 h180 v113 h-107 v687 l-113,-25 v-752 c0,-25 40,-23 40,-23 Z" fill="#000000" transform="matrix(1,0,0,-1,18196,-2340)"/>
  <path d="M-20,0 h340 v113 h-340 v-113 Z" fill="#000000" transform="matrix(1,0,0,-1,18421,-2340)"/>
  <path d="M-20,0 h340 v113 h-340 v-113 Z" fill="#000000" transform="matrix(1,0,0,-1,18721,-2340)"/>
  <path d="M58,-58 c32,0 58,26 58,58 c0,32 -26,58 -58,58 c-32,0 -58,-26 -58,-58 c0,-32 26,-58 58,-58 Z M231,-58 c32,0 58,26 58,58 c0,32 -26,58 -58,58 c-32,0 -58,-26 -58,-58 c0,-32 26,-58 58,-58 Z" fill="#000000" transform="matrix(1,0,0,-1,19119,-2940)"/>
  <path d="M-20,0 h380 c0,0 2,0 4,0 h156 v113 h-120 v200 c0,87 -70,157 -156,157 c-85,0 -157,-70 -157,-157 c0,-86 72,-156 157,-156 c15,0 29,2 43,6 v-50 h-307 v-113 Z M244,270 c-24,0 -43,19 -43,43 c0,25 19,44 43,44 c25,0 43,-19 43,-44 c0,-24 -18,-43 -43,-43 Z" fill="#000000" transform="matrix(1,0,0,-1,19021,-2340)"/>
  <path d="M-20,0 h180 c0,0 40,-2 40,23 v777 l-113,-25 v-662 h-107 v-113 Z" fill="#000000" transform="matrix(1,0,0,-1,19521,-2340)"/>
  <path d="M326,72 c-109,-54 -188,-12 -188,41 v687 l-113,-25 v-668 c0,-146 234,-142 301,-35 Z" fill="#000000" transform="matrix(1,0,0,-1,19746,-2340)"/>
  <path d="" fill="#000000" transform="matrix(1,0,0,-1,20072,-2340)"/>
  <path d="M25,0 h422 l-148,259 c-29,51 -20,105 16,128 l223,-387 h202 v113 h-138 l-274,478 c0,-52 -24,-68 -65,-98 c-81,-60 -142,-148 -61,-290 l51,-90 h-68 c-24,0 -55,13 -68,40 l-92,-153 Z" fill="#000000" transform="matrix(1,0,0,-1,20202,-2340)"/>
  <path d="M-20,0 h180 c0,0 2,0 4,0 h156 v113 h-120 v687 l-113,-25 v-662 h-107 v-113 Z" fill="#000000" transform="matrix(1,0,0,-1,20922,-2340)"/>
  <path d="M-27,0 h477 l60,113 h-240 c-37,0 -59,24 -78,46 c-12,12 -14,36 -7,52 c15,30 53,62 138,102 l-7,9 c-164,-46 -222,-88 -244,-122 c-14,-22 -11,-68 11,-87 h-110 v-113 Z" fill="#000000" transform="matrix(1,0,0,-1,21222,-2340)"/>
  <path d="" fill="#000000" transform="matrix(1,0,0,-1,21757,-2340)"/>
  <path d="M-50,-181 c55,-54 188,-12 188,88 v99 c14,-4 28,-6 43,-6 c1,0 1,0 1,0 h257 v113 h-109 c4,14 6,29 6,44 c0,69 -45,129 -108,149 c-17,6 -34,17 -47,60 c-12,-43 -28,-54 -45,-59 c-64,-20 -111,-80 -111,-150 v-250 c0,-71 -69,-88 -75,-88 Z M181,113 c-24,0 -43,19 -43,44 c0,24 19,43 43,43 c25,0 43,-19 43,-43 c0,-25 -18,-44 -43,-44 Z" fill="#000000" transform="matrix(1,0,0,-1,21887,-2340)"/>
  <path d="M58,-58 c32,0 58,26 58,58 c0,32 -26,58 -58,58 c-32,0 -58,-26 -58,-58 c0,-32 26,-58 58,-58 Z M231,-58 c32,0 58,26 58,58 c0,32 -26,58 -58,58 c-32,0 -58,-26 -58,-58 c0,-32 26,-58 58,-58 Z" fill="#000000" transform="matrix(1,0,0,-1,22244,-2190)"/>
  <path d="M-20,0 h180 c0,0 40,-2 40,23 v290 l-113,-25 v-175 h-107 v-113 Z" fill="#000000" transform="matrix(1,0,0,-1,22306,-2340)"/>
  <path d="M-85,-150 c66,-94 285,-87 285,90 v373 l-113,-25 v-355 c0,-60 -31,-121 -172,-83 Z" fill="#000000" transform="matrix(1,0,0,-1,22631,-2340)"/>
  <path d="M25,0 h400 c90,0 163,73 163,163 c0,88 -45,156 -147,219 c-10,-11 -30,-33 -37,-57 c-73,-9 -142,-73 -142,-162 c0,-12 1,-25 4,-36 h-73 c-24,0 -55,13 -68,40 l-100,-167 Z M425,127 c-20,0 -37,16 -37,36 c0,21 17,37 37,37 c21,0 36,-16 36,-37 c0,-20 -15,-36 -36,-36 Z" fill="#000000" transform="matrix(1,0,0,-1,66.5,-840)"/>
  <path d="M-85,-150 c66,-94 285,-87 285,90 v60 h120 v127 h-120 v200 l-127,-28 v-362 c0,-64 -28,-121 -158,-87 Z" fill="#000000" transform="matrix(1,0,0,-1,679.5,-840)"/>
  <path d="M-20,0 h620 l60,127 h-264 c-74,0 -178,85 -251,198 l-63,-121 c18,-30 40,-61 61,-77 h-163 v-127 Z" fill="#000000" transform="matrix(1,0,0,-1,979.5,-840)"/>
  <path d="M-435,165 c13,-4 45,-12 75,-12 c58,0 122,27 122,147 v500 l-127,-28 v-496 c0,-58 -4,-102 -70,-111 Z" fill="#000000" transform="matrix(1,0,0,-1,1664.5,-840)"/>
  <path d="M247,58 c-25,-12 -95,-25 -95,35 v707 l-127,-28 v-679 c0,-140 201,-110 222,-35 Z" fill="#000000" transform="matrix(1,0,0,-1,1664.5,-840)"/>
  <path d="" fill="#000000" transform="matrix(1,0,0,-1,1911.5,-840)"/>
  <path d="M-85,-150 c66,-94 285,-87 285,90 v60 h120 v127 h-120 v200 l-127,-28 v-362 c0,-64 -28,-121 -158,-87 Z" fill="#000000" transform="matrix(1,0,0,-1,2041.5,-840)"/>
  <path d="M68,-43 c0,-90 74,-164 164,-164 c89,0 162,73 162,164 v43 h113 v127 h-113 v259 c-27,-52 -127,-53 -162,-53 c-90,0 -164,-73 -164,-163 v-43 h-88 v-127 h88 v-43 Z M232,133 c-21,0 -38,16 -38,37 c0,21 17,37 38,37 c20,0 36,-16 36,-37 c0,-21 -16,-37 -36,-37 Z M232,-80 c-21,0 -38,16 -38,37 c0,20 17,36 38,36 c20,0 36,-16 36,-36 c0,-21 -16,-37 -36,-37 Z" fill="#000000" transform="matrix(1,0,0,-1,2341.5,-840)"/>
  <path d="M58,-58 c32,0 58,26 58,58 c0,32 -26,58 -58,58 c-32,0 -58,-26 -58,-58 c0,-32 26,-58 58,-58 Z M231,-58 c32,0 58,26 58,58 c0,32 -26,58 -58,58 c-32,0 -58,-26 -58,-58 c0,-32 26,-58 58,-58 Z M145,92 c32,0 58,26 58,58 c0,32 -26,58 -58,58 c-32,0 -58,-26 -58,-58 c0,-32 26,-58 58,-58 Z" fill="#000000" transform="matrix(1,0,0,-1,3028.5,-1417)"/>
  <path d="M-20,0 h580 c0,0 40,-2 40,23 v304 l-127,-28 v-172 h-73 v200 l-127,-28 v-172 h-73 v200 l-127,-28 v-172 h-93 v-127 Z" fill="#000000" transform="matrix(1,0,0,-1,2828.5,-840)"/>
  <path d="M0,0 h240 l30,50 h-79 c-24,0 -56,2 -56,39 c0,0 0,0 0,1 c0,8 0,38 32,47 c19,5 52,-5 60,-9 c-13,31 -45,40 -63,40 c-52,0 -74,-29 -85,-69 c-4,-18 -6,-29 -6,-49 h-43 l-30,-50 Z" fill="#000000" transform="matrix(1,0,0,-1,3408.5,-1690)"/>
  <path d="M152,87 v713 l-127,-28 v-622 l127,-63 Z" fill="#000000" transform="matrix(1,0,0,-1,3453.5,-840)"/>
  <path d="M189,-213 c89,0 162,73 162,163 c0,38 -12,72 -34,100 c22,28 35,62 35,100 v622 l-127,28 v-650 c0,-21 -15,-37 -36,-37 c-21,0 -37,16 -37,37 h-127 c0,-38 13,-72 35,-100 c-22,-28 -35,-62 -35,-100 c0,-90 75,-163 164,-163 Z M189,-87 c-21,0 -37,16 -37,37 c0,21 16,37 37,37 c21,0 36,-16 36,-37 c0,-21 -15,-37 -36,-37 Z" fill="#000000" transform="matrix(1,0,0,-1,3453.5,-840)"/>
  <path d="M247,58 c-25,-12 -95,-25 -95,35 v707 l-127,-28 v-679 c0,-140 201,-110 222,-35 Z" fill="#000000" transform="matrix(1,0,0,-1,3830.5,-840)"/>
  <path d="" fill="#000000" transform="matrix(1,0,0,-1,4077.5,-840)"/>
  <path d="M58,-58 c32,0 58,26 58,58 c0,32 -26,58 -58,58 c-32,0 -58,-26 -58,-58 c0,-32 26,-58 58,-58 Z M231,-58 c32,0 58,26 58,58 c0,32 -26,58 -58,58 c-32,0 -58,-26 -58,-58 c0,-32 26,-58 58,-58 Z" fill="#000000" transform="matrix(1,0,0,-1,4302.5,-540)"/>
  <path d="M25,-200 h509 l-265,465 c-22,38 -16,79 5,98 l211,-363 h215 v127 h-146 l-266,464 c0,-52 -24,-68 -65,-98 c-81,-60 -142,-148 -61,-290 l158,-276 h-127 c-24,0 -55,13 -68,40 l-100,-167 Z" fill="#000000" transform="matrix(1,0,0,-1,4207.5,-840)"/>
  <path d="M58,-58 c32,0 58,26 58,58 c0,32 -26,58 -58,58 c-32,0 -58,-26 -58,-58 c0,-32 26,-58 58,-58 Z" fill="#000000" transform="matrix(1,0,0,-1,5066.5,-1440)"/>
  <path d="M-20,0 h380 c0,0 40,-2 40,23 v304 c0,90 -73,163 -162,163 c-90,0 -164,-74 -164,-163 c0,-90 74,-164 164,-164 c12,0 24,2 35,4 v-40 h-293 v-127 Z M238,290 c-21,0 -38,16 -38,37 c0,20 17,36 38,36 c20,0 36,-16 36,-36 c0,-21 -16,-37 -36,-37 Z" fill="#000000" transform="matrix(1,0,0,-1,4887.5,-840)"/>
  <path d="" fill="#000000" transform="matrix(1,0,0,-1,5312.5,-840)"/>
  <path d="M58,-58 c32,0 58,26 58,58 c0,32 -26,58 -58,58 c-32,0 -58,-26 -58,-58 c0,-32 26,-58 58,-58 Z M231,-58 c32,0 58,26 58,58 c0,32 -26,58 -58,58 c-32,0 -58,-26 -58,-58 c0,-32 26,-58 58,-58 Z" fill="#000000" transform="matrix(1,0,0,-1,5537.5,-540)"/>
  <path d="M25,-200 h509 l-265,465 c-22,38 -16,79 5,98 l211,-363 h215 v127 h-146 l-266,464 c0,-52 -24,-68 -65,-98 c-81,-60 -142,-148 -61,-290 l158,-276 h-127 c-24,0 -55,13 -68,40 l-100,-167 Z" fill="#000000" transform="matrix(1,0,0,-1,5442.5,-840)"/>
  <path d="M-20,0 h253 c88,1 160,74 160,163 c0,91 -73,164 -162,164 c-90,0 -164,-74 -164,-164 c0,-12 1,-25 4,-36 h-91 v-127 Z M231,127 c-21,0 -38,16 -38,36 c0,21 17,37 38,37 c20,0 36,-16 36,-37 c0,-20 -16,-36 -36,-36 Z" fill="#000000" transform="matrix(1,0,0,-1,6122.5,-840)"/>
  <path d="M25,0 h780 c0,0 40,-2 40,23 c0,7 0,15 0,23 c1,119 3,281 -217,281 h-387 l52,113 l-10,7 l-148,-247 h493 c75,0 91,-31 90,-73 h-617 l-76,-127 Z" fill="#000000" transform="matrix(1,0,0,-1,6540.5,-840)"/>
  <path d="" fill="#000000" transform="matrix(1,0,0,-1,7410.5,-840)"/>
  <path d="M101,200 h547 c75,0 91,-31 90,-73 h-637 l-76,-127 h800 c0,0 2,0 4,0 h156 v127 h-121 c-7,100 -44,200 -216,200 h-420 v473 l-127,-28 v-572 Z" fill="#000000" transform="matrix(1,0,0,-1,7540.5,-840)"/>
  <path d="M58,-58 c32,0 58,26 58,58 c0,32 -26,58 -58,58 c-32,0 -58,-26 -58,-58 c0,-32 26,-58 58,-58 Z" fill="#000000" transform="matrix(1,0,0,-1,8684.5,-1440)"/>
  <path d="M-20,0 h380 c0,0 2,0 4,0 h156 v127 h-120 v200 c0,90 -73,163 -162,163 c-90,0 -164,-74 -164,-163 c0,-90 74,-164 164,-164 c12,0 24,2 35,4 v-40 h-293 v-127 Z M238,290 c-21,0 -38,16 -38,37 c0,20 17,36 38,36 c20,0 36,-16 36,-36 c0,-21 -16,-37 -36,-37 Z" fill="#000000" transform="matrix(1,0,0,-1,8505.5,-840)"/>
  <path d="M-20,0 h580 c0,0 40,-2 40,23 v304 l-127,-28 v-172 h-73 v200 l-127,-28 v-172 h-73 v200 l-127,-28 v-172 h-93 v-127 Z" fill="#000000" transform="matrix(1,0,0,-1,9005.5,-840)"/>
  <path d="" fill="#000000" transform="matrix(1,0,0,-1,9630.5,-840)"/>
  <path d="M318,40 c0,-111 -28,-183 -114,-183 c-89,0 -142,65 -142,142 c0,37 15,64 40,74 c18,8 38,8 58,-9 c6,23 -8,61 -29,71 c19,25 23,47 20,72 c-63,-40 -126,-119 -126,-207 c0,-62 28,-200 191,-200 c151,0 228,87 229,200 h120 v127 h-120 v673 l-127,-28 v-732 Z" fill="#000000" transform="matrix(1,0,0,-1,9760.5,-840)"/>
  <path d="M-20,0 h620 l60,127 h-264 c-74,0 -178,85 -251,198 l-63,-121 c18,-30 40,-61 61,-77 h-163 v-127 Z" fill="#000000" transform="matrix(1,0,0,-1,10305.5,-840)"/>
  <path d="M0,0 h240 l30,50 h-79 c-24,0 -56,2 -56,39 c0,0 0,0 0,1 c0,8 0,38 32,47 c19,5 52,-5 60,-9 c-13,31 -45,40 -63,40 c-52,0 -74,-29 -85,-69 c-4,-18 -6,-29 -6,-49 h-43 l-30,-50 Z" fill="#000000" transform="matrix(1,0,0,-1,11008.5,-1690)"/>
  <path d="M340,72 c-109,-54 -188,-6 -188,55 v673 l-127,-28 v-659 c0,-152 248,-148 315,-41 Z" fill="#000000" transform="matrix(1,0,0,-1,10990.5,-840)"/>
  <path d="" fill="#000000" transform="matrix(1,0,0,-1,11330.5,-840)"/>
  <path d="" fill="#000000" transform="matrix(1,0,0,-1,11460.5,-840)"/>
  <path d="" fill="#000000" transform="matrix(1,0,0,-1,11590.5,-840)"/>
  <path d="M-50,-181 c55,-54 202,-16 202,94 v91 c12,-3 24,-4 37,-4 c0,0 1,0 2,0 h248 v127 h-92 c2,11 4,24 4,36 c0,72 -47,135 -113,156 c-21,8 -35,16 -50,64 c-13,-47 -27,-58 -46,-63 c-68,-21 -117,-84 -117,-156 v-251 c0,-77 -69,-94 -75,-94 Z M189,127 c-21,0 -38,16 -38,36 c0,21 17,37 38,37 c20,0 36,-16 36,-37 c0,-20 -16,-36 -36,-36 Z" fill="#000000" transform="matrix(1,0,0,-1,11720.5,-840)"/>
  <path d="M-20,0 h180 c0,0 2,0 4,0 h156 v127 h-120 v673 l-127,-28 v-645 h-93 v-127 Z" fill="#000000" transform="matrix(1,0,0,-1,12139.5,-840)"/>
  <path d="M-20,0 h340 v127 h-340 v-127 Z" fill="#000000" transform="matrix(1,0,0,-1,12439.5,-840)"/>
  <path d="M-20,127 v-127 h543 v127 h-176 l155,273 h-504 l155,-273 h-173 Z M250,212 l-35,61 h70 l-35,-61 Z" fill="#000000" transform="matrix(1,0,0,-1,12739.5,-840)"/>
  <path d="M-20,0 h180 c0,0 40,-2 40,23 v777 l-127,-28 v-645 h-93 v-127 Z" fill="#000000" transform="matrix(1,0,0,-1,13242.5,-840)"/>
  <path d="M340,72 c-109,-54 -188,-6 -188,55 v673 l-127,-28 v-659 c0,-152 248,-148 315,-41 Z" fill="#000000" transform="matrix(1,0,0,-1,13467.5,-840)"/>
  <path d="" fill="#000000" transform="matrix(1,0,0,-1,13807.5,-840)"/>
  <path d="M53,-132 c66,-94 298,-88 298,103 v408 c-27,-52 -127,-52 -162,-52 c-89,0 -164,-74 -164,-164 c0,-89 75,-163 164,-163 c12,0 24,1 36,4 v-56 c0,-34 -19,-121 -172,-80 Z M189,127 c-21,0 -37,16 -37,36 c0,21 16,37 37,37 c21,0 36,-16 36,-37 c0,-20 -15,-36 -36,-36 Z" fill="#000000" transform="matrix(1,0,0,-1,13937.5,-840)"/>
  <path d="" fill="#000000" transform="matrix(1,0,0,-1,14313.5,-840)"/>
  <path d="M58,-58 c32,0 58,26 58,58 c0,32 -26,58 -58,58 c-32,0 -58,-26 -58,-58 c0,-32 26,-58 58,-58 Z" fill="#000000" transform="matrix(1,0,0,-1,14615.5,-1240)"/>
  <path d="M222,-204 c115,0 213,80 213,209 c0,117 -48,195 -98,257 l-63,-125 c20,-29 49,-79 50,-126 c2,-85 -53,-144 -129,-144 c-78,0 -133,51 -133,133 c0,40 22,78 55,79 c15,1 27,-4 43,-15 c5,21 -7,60 -29,71 c17,22 23,46 20,72 c-63,-40 -126,-119 -126,-207 c0,-113 78,-204 197,-204 Z" fill="#000000" transform="matrix(1,0,0,-1,14443.5,-840)"/>
  <path d="M65,0 h180 v127 h-93 v673 l-127,-28 v-749 c0,-25 40,-23 40,-23 Z" fill="#000000" transform="matrix(1,0,0,-1,14903.5,-840)"/>
  <path d="M-20,0 h340 v127 h-340 v-127 Z" fill="#000000" transform="matrix(1,0,0,-1,15128.5,-840)"/>
  <path d="M-20,0 h340 v127 h-340 v-127 Z" fill="#000000" transform="matrix(1,0,0,-1,15428.5,-840)"/>
  <path d="M58,-58 c32,0 58,26 58,58 c0,32 -26,58 -58,58 c-32,0 -58,-26 -58,-58 c0,-32 26,-58 58,-58 Z" fill="#000000" transform="matrix(1,0,0,-1,15753.5,-690)"/>
  <path d="M-20,0 h180 c0,0 2,0 4,0 h156 v127 h-120 v200 l-127,-28 v-172 h-93 v-127 Z" fill="#000000" transform="matrix(1,0,0,-1,15728.5,-840)"/>
  <path d="M-20,0 h180 c0,0 40,-2 40,23 v777 l-127,-28 v-645 h-93 v-127 Z" fill="#000000" transform="matrix(1,0,0,-1,16028.5,-840)"/>
  <path d="M340,72 c-109,-54 -188,-6 -188,55 v673 l-127,-28 v-659 c0,-152 248,-148 315,-41 Z" fill="#000000" transform="matrix(1,0,0,-1,16253.5,-840)"/>
  <path d="" fill="#000000" transform="matrix(1,0,0,-1,16593.5,-840)"/>
  <path d="M58,-58 c32,0 58,26 58,58 c0,32 -26,58 -58,58 c-32,0 -58,-26 -58,-58 c0,-32 26,-58 58,-58 Z" fill="#000000" transform="matrix(1,0,0,-1,16895.5,-1240)"/>
  <path d="M222,-204 c113,0 210,78 213,204 h75 v127 h-95 c-18,54 -48,97 -78,135 l-63,-125 c20,-29 49,-79 50,-126 c2,-85 -53,-144 -129,-144 c-78,0 -133,51 -133,133 c0,40 22,78 55,79 c15,1 27,-4 43,-15 c5,21 -7,60 -29,71 c17,22 23,46 20,72 c-63,-40 -126,-119 -126,-207 c0,-113 78,-204 197,-204 Z" fill="#000000" transform="matrix(1,0,0,-1,16723.5,-840)"/>
  <path d="M58,-58 c32,0 58,26 58,58 c0,32 -26,58 -58,58 c-32,0 -58,-26 -58,-58 c0,-32 26,-58 58,-58 Z M231,-58 c32,0 58,26 58,58 c0,32 -26,58 -58,58 c-32,0 -58,-26 -58,-58 c0,-32 26,-58 58,-58 Z" fill="#000000" transform="matrix(1,0,0,-1,17151.5,-690)"/>
  <path d="M-20,0 h180 c0,0 2,0 4,0 h156 v127 h-120 v270 l-127,-28 v-242 h-93 v-127 Z" fill="#000000" transform="matrix(1,0,0,-1,17213.5,-840)"/>
  <path d="M58,-58 c32,0 58,26 58,58 c0,32 -26,58 -58,58 c-32,0 -58,-26 -58,-58 c0,-32 26,-58 58,-58 Z" fill="#000000" transform="matrix(1,0,0,-1,17538.5,-690)"/>
  <path d="M-20,0 h180 c0,0 40,-2 40,23 v304 l-127,-28 v-172 h-93 v-127 Z" fill="#000000" transform="matrix(1,0,0,-1,17513.5,-840)"/>
  <path d="" fill="#000000" transform="matrix(1,0,0,-1,17738.5,-840)"/>
  <path d="M139,-200 c76,-24 198,-2 244,53 c-64,-22 -231,-33 -231,75 c0,48 46,72 71,72 h70 l60,127 h-113 c-58,0 -95,31 -95,70 c0,27 23,53 50,57 c26,5 59,-5 91,-30 c-11,40 -53,89 -114,89 c-130,0 -202,-173 -102,-264 c-22,-28 -39,-59 -39,-108 c0,-73 51,-123 108,-141 Z" fill="#000000" transform="matrix(1,0,0,-1,17868.5,-840)"/>
  <path d="M65,0 h180 v127 h-93 v673 l-127,-28 v-749 c0,-25 40,-23 40,-23 Z" fill="#000000" transform="matrix(1,0,0,-1,18251.5,-840)"/>
  <path d="M-20,0 h340 v127 h-340 v-127 Z" fill="#000000" transform="matrix(1,0,0,-1,18476.5,-840)"/>
  <path d="M-20,0 h340 v127 h-340 v-127 Z" fill="#000000" transform="matrix(1,0,0,-1,18776.5,-840)"/>
  <path d="M58,-58 c32,0 58,26 58,58 c0,32 -26,58 -58,58 c-32,0 -58,-26 -58,-58 c0,-32 26,-58 58,-58 Z M231,-58 c32,0 58,26 58,58 c0,32 -26,58 -58,58 c-32,0 -58,-26 -58,-58 c0,-32 26,-58 58,-58 Z" fill="#000000" transform="matrix(1,0,0,-1,19168.5,-1440)"/>
  <path d="M-20,0 h380 c0,0 2,0 4,0 h156 v127 h-120 v200 c0,90 -73,163 -162,163 c-90,0 -164,-74 -164,-163 c0,-90 74,-164 164,-164 c12,0 24,2 35,4 v-40 h-293 v-127 Z M238,290 c-21,0 -38,16 -38,37 c0,20 17,36 38,36 c20,0 36,-16 36,-36 c0,-21 -16,-37 -36,-37 Z" fill="#000000" transform="matrix(1,0,0,-1,19076.5,-840)"/>
  <path d="M-20,0 h180 c0,0 40,-2 40,23 v777 l-127,-28 v-645 h-93 v-127 Z" fill="#000000" transform="matrix(1,0,0,-1,19576.5,-840)"/>
  <path d="M340,72 c-109,-54 -188,-6 -188,55 v673 l-127,-28 v-659 c0,-152 248,-148 315,-41 Z" fill="#000000" transform="matrix(1,0,0,-1,19801.5,-840)"/>
  <path d="" fill="#000000" transform="matrix(1,0,0,-1,20141.5,-840)"/>
  <path d="M25,0 h435 l-151,265 c-22,38 -16,79 5,98 l211,-363 h215 v127 h-146 l-266,464 c0,-52 -24,-68 -65,-98 c-81,-60 -142,-148 -61,-290 l44,-76 h-53 c-24,0 -55,13 -68,40 l-100,-167 Z" fill="#000000" transform="matrix(1,0,0,-1,20271.5,-840)"/>
  <path d="M-20,0 h180 c0,0 2,0 4,0 h156 v127 h-120 v673 l-127,-28 v-645 h-93 v-127 Z" fill="#000000" transform="matrix(1,0,0,-1,20991.5,-840)"/>
  <path d="M-33,0 h484 l59,127 h-240 c-34,0 -54,22 -74,44 c-10,13 -13,36 -5,50 c15,29 52,61 143,102 l-7,9 c-168,-39 -232,-71 -260,-115 c-18,-27 -12,-68 3,-90 h-103 v-127 Z" fill="#000000" transform="matrix(1,0,0,-1,21291.5,-840)"/>
  <path d="" fill="#000000" transform="matrix(1,0,0,-1,21826.5,-840)"/>
  <path d="M-50,-181 c55,-54 202,-16 202,94 v91 c12,-3 24,-4 37,-4 c0,0 1,0 2,0 h248 v127 h-92 c2,11 4,24 4,36 c0,72 -47,135 -113,156 c-21,8 -35,16 -50,64 c-13,-47 -27,-58 -46,-63 c-68,-21 -117,-84 -117,-156 v-251 c0,-77 -69,-94 -75,-94 Z M189,127 c-21,0 -38,16 -38,36 c0,21 17,37 38,37 c20,0 36,-16 36,-37 c0,-20 -16,-36 -36,-36 Z" fill="#000000" transform="matrix(1,0,0,-1,21956.5,-840)"/>
  <path d="M58,-58 c32,0 58,26 58,58 c0,32 -26,58 -58,58 c-32,0 -58,-26 -58,-58 c0,-32 26,-58 58,-58 Z M231,-58 c32,0 58,26 58,58 c0,32 -26,58 -58,58 c-32,0 -58,-26 -58,-58 c0,-32 26,-58 58,-58 Z" fill="#000000" transform="matrix(1,0,0,-1,22313.5,-690)"/>
  <path d="M-20,0 h180 c0,0 40,-2 40,23 v304 l-127,-28 v-172 h-93 v-127 Z" fill="#000000" transform="matrix(1,0,0,-1,22375.5,-840)"/>
  <path d="M-85,-150 c66,-94 285,-87 285,90 v387 l-127,-28 v-362 c0,-64 -28,-121 -158,-87 Z" fill="#000000" transform="matrix(1,0,0,-1,22700.5,-840)"/>
  <path d="M25,0 h393 c93,0 170,76 170,170 c0,94 -47,162 -156,228 c-9,-10 -34,-37 -41,-60 c-71,-12 -144,-75 -144,-168 c0,-10 1,-20 3,-30 h-49 c-24,0 -55,13 -68,40 l-108,-180 Z M418,140 c-17,0 -31,13 -31,30 c0,17 14,30 31,30 c17,0 29,-13 29,-30 c0,-17 -12,-30 -29,-30 Z" fill="#000000" transform="matrix(1,0,0,-1,0,660)"/>
  <path d="M-85,-150 c66,-94 285,-87 285,90 v60 h120 v140 h-120 v200 l-140,-31 v-369 c0,-67 -27,-121 -145,-90 Z" fill="#000000" transform="matrix(1,0,0,-1,613,660)"/>
  <path d="M-20,0 h620 l60,140 h-274 c-63,0 -170,89 -244,202 l-66,-128 c18,-32 35,-57 52,-74 h-148 v-140 Z" fill="#000000" transform="matrix(1,0,0,-1,913,660)"/>
  <path d="M-435,165 c15,-5 50,-13 82,-13 c62,0 128,28 128,148 v500 l-140,-31 v-493 c0,-58 -4,-102 -70,-111 Z" fill="#000000" transform="matrix(1,0,0,-1,1598,660)"/>
  <path d="M260,58 c-25,-12 -95,-25 -95,42 v700 l-140,-31 v-669 c0,-150 214,-117 235,-42 Z" fill="#000000" transform="matrix(1,0,0,-1,1598,660)"/>
  <path d="" fill="#000000" transform="matrix(1,0,0,-1,1858,660)"/>
  <path d="M-85,-150 c66,-94 285,-87 285,90 v60 h120 v140 h-120 v200 l-140,-31 v-369 c0,-67 -27,-121 -145,-90 Z" fill="#000000" transform="matrix(1,0,0,-1,1988,660)"/>
  <path d="M54,-40 c0,-93 78,-170 171,-170 c93,0 169,76 169,170 v40 h113 v140 h-113 v266 c-27,-52 -134,-56 -169,-56 c-93,0 -171,-77 -171,-170 v-40 h-74 v-140 h74 v-40 Z M225,-70 c-17,0 -31,13 -31,30 c0,17 14,30 31,30 c17,0 29,-13 29,-30 c0,-17 -12,-30 -29,-30 Z M225,150 c-17,0 -31,13 -31,30 c0,17 14,30 31,30 c17,0 29,-13 29,-30 c0,-17 -12,-30 -29,-30 Z" fill="#000000" transform="matrix(1,0,0,-1,2288,660)"/>
  <path d="M58,-58 c32,0 58,26 58,58 c0,32 -26,58 -58,58 c-32,0 -58,-26 -58,-58 c0,-32 26,-58 58,-58 Z M231,-58 c32,0 58,26 58,58 c0,32 -26,58 -58,58 c-32,0 -58,-26 -58,-58 c0,-32 26,-58 58,-58 Z M145,92 c32,0 58,26 58,58 c0,32 -26,58 -58,58 c-32,0 -58,-26 -58,-58 c0,-32 26,-58 58,-58 Z" fill="#000000" transform="matrix(1,0,0,-1,2975,70)"/>
  <path d="M-20,0 h580 c0,0 40,-2 40,23 v317 l-140,-31 v-169 h-60 v200 l-140,-31 v-169 h-60 v200 l-140,-31 v-169 h-80 v-140 Z" fill="#000000" transform="matrix(1,0,0,-1,2775,660)"/>
  <path d="M0,0 h240 l30,50 h-79 c-24,0 -56,2 -56,39 c0,0 0,0 0,1 c0,8 0,38 32,47 c19,5 52,-5 60,-9 c-13,31 -45,40 -63,40 c-52,0 -74,-29 -85,-69 c-4,-18 -6,-29 -6,-49 h-43 l-30,-50 Z" fill="#000000" transform="matrix(1,0,0,-1,3355,-190)"/>
  <path d="M165,80 v720 l-140,-31 v-619 l140,-70 Z" fill="#000000" transform="matrix(1,0,0,-1,3400,660)"/>
  <path d="M196,-220 c93,0 169,76 169,170 c0,37 -12,72 -32,100 c20,28 32,63 32,100 v619 l-140,31 v-650 c0,-17 -12,-30 -29,-30 c-17,0 -31,13 -31,30 h-140 c0,-37 12,-72 33,-100 c-21,-28 -33,-63 -33,-100 c0,-93 78,-170 171,-170 Z M196,-80 c-17,0 -31,13 -31,30 c0,17 14,30 31,30 c17,0 29,-13 29,-30 c0,-17 -12,-30 -29,-30 Z" fill="#000000" transform="matrix(1,0,0,-1,3400,660)"/>
  <path d="M260,58 c-25,-12 -95,-25 -95,42 v700 l-140,-31 v-669 c0,-150 214,-117 235,-42 Z" fill="#000000" transform="matrix(1,0,0,-1,3790,660)"/>
  <path d="" fill="#000000" transform="matrix(1,0,0,-1,4050,660)"/>
  <path d="M58,-58 c32,0 58,26 58,58 c0,32 -26,58 -58,58 c-32,0 -58,-26 -58,-58 c0,-32 26,-58 58,-58 Z M231,-58 c32,0 58,26 58,58 c0,32 -26,58 -58,58 c-32,0 -58,-26 -58,-58 c0,-32 26,-58 58,-58 Z" fill="#000000" transform="matrix(1,0,0,-1,4275,960)"/>
  <path d="M25,-200 h523 l-269,472 c-14,24 -13,53 -5,68 l197,-340 h229 v140 h-153 l-259,451 c0,-52 -24,-68 -65,-98 c-81,-60 -142,-148 -61,-290 l151,-263 h-112 c-24,0 -55,13 -68,40 l-108,-180 Z" fill="#000000" transform="matrix(1,0,0,-1,4180,660)"/>
  <path d="M58,-58 c32,0 58,26 58,58 c0,32 -26,58 -58,58 c-32,0 -58,-26 -58,-58 c0,-32 26,-58 58,-58 Z" fill="#000000" transform="matrix(1,0,0,-1,5032,60)"/>
  <path d="M-20,0 h380 c0,0 40,-2 40,23 v317 c0,94 -76,170 -169,170 c-93,0 -171,-77 -171,-170 c0,-93 78,-170 171,-170 c10,0 20,1 29,3 v-33 h-280 v-140 Z M231,310 c-17,0 -31,13 -31,30 c0,17 14,30 31,30 c17,0 29,-13 29,-30 c0,-17 -12,-30 -29,-30 Z" fill="#000000" transform="matrix(1,0,0,-1,4860,660)"/>
  <path d="" fill="#000000" transform="matrix(1,0,0,-1,5285,660)"/>
  <path d="M58,-58 c32,0 58,26 58,58 c0,32 -26,58 -58,58 c-32,0 -58,-26 -58,-58 c0,-32 26,-58 58,-58 Z M231,-58 c32,0 58,26 58,58 c0,32 -26,58 -58,58 c-32,0 -58,-26 -58,-58 c0,-32 26,-58 58,-58 Z" fill="#000000" transform="matrix(1,0,0,-1,5510,960)"/>
  <path d="M25,-200 h523 l-269,472 c-14,24 -13,53 -5,68 l197,-340 h229 v140 h-153 l-259,451 c0,-52 -24,-68 -65,-98 c-81,-60 -142,-148 -61,-290 l151,-263 h-112 c-24,0 -55,13 -68,40 l-108,-180 Z" fill="#000000" transform="matrix(1,0,0,-1,5415,660)"/>
  <path d="M-20,0 h247 c92,2 166,77 166,170 c0,94 -76,170 -169,170 c-93,0 -171,-77 -171,-170 c0,-10 1,-20 3,-30 h-76 v-140 Z M224,140 c-17,0 -31,13 -31,30 c0,17 14,30 31,30 c17,0 29,-13 29,-30 c0,-17 -12,-30 -29,-30 Z" fill="#000000" transform="matrix(1,0,0,-1,6095,660)"/>
  <path d="M25,0 h780 c0,0 40,-2 40,23 c0,7 0,14 0,22 c1,120 2,295 -230,295 h-366 l52,113 l-10,7 l-156,-260 h480 c75,0 91,-24 90,-60 h-596 l-84,-140 Z" fill="#000000" transform="matrix(1,0,0,-1,6513,660)"/>
  <path d="" fill="#000000" transform="matrix(1,0,0,-1,7383,660)"/>
  <path d="M109,200 h526 c75,0 91,-24 90,-60 h-616 l-84,-140 h800 c0,0 2,0 4,0 h156 v140 h-123 c-9,101 -52,200 -227,200 h-386 v460 l-140,-31 v-569 Z" fill="#000000" transform="matrix(1,0,0,-1,7513,660)"/>
  <path d="M58,-58 c32,0 58,26 58,58 c0,32 -26,58 -58,58 c-32,0 -58,-26 -58,-58 c0,-32 26,-58 58,-58 Z" fill="#000000" transform="matrix(1,0,0,-1,8650,60)"/>
  <path d="M-20,0 h380 c0,0 2,0 4,0 h156 v140 h-120 v200 c0,94 -76,170 -169,170 c-93,0 -171,-77 -171,-170 c0,-93 78,-170 171,-170 c10,0 20,1 29,3 v-33 h-280 v-140 Z M231,310 c-17,0 -31,13 -31,30 c0,17 14,30 31,30 c17,0 29,-13 29,-30 c0,-17 -12,-30 -29,-30 Z" fill="#000000" transform="matrix(1,0,0,-1,8478,660)"/>
  <path d="M-20,0 h580 c0,0 40,-2 40,23 v317 l-140,-31 v-169 h-60 v200 l-140,-31 v-169 h-60 v200 l-140,-31 v-169 h-80 v-140 Z" fill="#000000" transform="matrix(1,0,0,-1,8978,660)"/>
  <path d="" fill="#000000" transform="matrix(1,0,0,-1,9603,660)"/>
  <path d="M305,40 c0,-111 -29,-183 -107,-183 c-72,0 -132,64 -132,142 c0,35 13,52 32,65 c18,12 41,13 62,-7 c6,23 -8,68 -29,78 c19,25 23,47 20,72 c-63,-40 -126,-119 -126,-207 c0,-62 28,-200 191,-200 c151,0 228,87 229,200 h120 v140 h-120 v660 l-140,-31 v-729 Z" fill="#000000" transform="matrix(1,0,0,-1,9733,660)"/>
  <path d="M-20,0 h620 l60,140 h-274 c-63,0 -170,89 -244,202 l-66,-128 c18,-32 35,-57 52,-74 h-148 v-140 Z" fill="#000000" transform="matrix(1,0,0,-1,10278,660)"/>
  <path d="M0,0 h240 l30,50 h-79 c-24,0 -56,2 -56,39 c0,0 0,0 0,1 c0,8 0,38 32,47 c19,5 52,-5 60,-9 c-13,31 -45,40 -63,40 c-52,0 -74,-29 -85,-69 c-4,-18 -6,-29 -6,-49 h-43 l-30,-50 Z" fill="#000000" transform="matrix(1,0,0,-1,10988,-190)"/>
  <path d="M353,72 c-109,-54 -188,1 -188,68 v660 l-140,-31 v-649 c0,-160 261,-155 328,-48 Z" fill="#000000" transform="matrix(1,0,0,-1,10963,660)"/>
  <path d="" fill="#000000" transform="matrix(1,0,0,-1,11316,660)"/>
  <path d="" fill="#000000" transform="matrix(1,0,0,-1,11446,660)"/>
  <path d="" fill="#000000" transform="matrix(1,0,0,-1,11576,660)"/>
  <path d="M-50,-181 c55,-54 215,-19 215,101 v83 c10,-2 20,-3 31,-3 c1,0 2,0 3,0 h240 v140 h-77 c2,10 3,20 3,30 c0,74 -49,140 -118,162 c-24,9 -35,16 -52,67 c-15,-50 -26,-60 -48,-66 c-71,-22 -122,-87 -122,-162 v-251 c0,-84 -69,-101 -75,-101 Z M196,140 c-17,0 -31,13 -31,30 c0,17 14,30 31,30 c17,0 29,-13 29,-30 c0,-17 -12,-30 -29,-30 Z" fill="#000000" transform="matrix(1,0,0,-1,11706,660)"/>
  <path d="M-20,0 h180 c0,0 2,0 4,0 h156 v140 h-120 v660 l-140,-31 v-629 h-80 v-140 Z" fill="#000000" transform="matrix(1,0,0,-1,12125,660)"/>
  <path d="M-20,0 h340 v140 h-340 v-140 Z" fill="#000000" transform="matrix(1,0,0,-1,12425,660)"/>
  <path d="M-20,140 v-140 h565 v140 h-169 l148,260 h-527 l148,-260 h-165 Z M260,218 l-24,42 h48 l-24,-42 Z" fill="#000000" transform="matrix(1,0,0,-1,12725,660)"/>
  <path d="M-20,0 h180 c0,0 40,-2 40,23 v777 l-140,-31 v-629 h-80 v-140 Z" fill="#000000" transform="matrix(1,0,0,-1,13250,660)"/>
  <path d="M353,72 c-109,-54 -188,1 -188,68 v660 l-140,-31 v-649 c0,-160 261,-155 328,-48 Z" fill="#000000" transform="matrix(1,0,0,-1,13475,660)"/>
  <path d="" fill="#000000" transform="matrix(1,0,0,-1,13828,660)"/>
  <path d="M60,-132 c66,-94 305,-88 305,110 v418 c-27,-52 -134,-56 -169,-56 c-93,0 -171,-77 -171,-170 c0,-93 78,-170 171,-170 c10,0 20,1 29,3 v-55 c0,-23 -12,-121 -165,-80 Z M196,140 c-17,0 -31,13 -31,30 c0,17 14,30 31,30 c17,0 29,-13 29,-30 c0,-17 -12,-30 -29,-30 Z" fill="#000000" transform="matrix(1,0,0,-1,13958,660)"/>
  <path d="" fill="#000000" transform="matrix(1,0,0,-1,14348,660)"/>
  <path d="M58,-58 c32,0 58,26 58,58 c0,32 -26,58 -58,58 c-32,0 -58,-26 -58,-58 c0,-32 26,-58 58,-58 Z" fill="#000000" transform="matrix(1,0,0,-1,14650,260)"/>
  <path d="M223,-204 c105,0 212,72 212,209 c0,117 -48,195 -98,257 l-68,-136 c20,-31 42,-77 42,-120 c0,-91 -64,-137 -127,-137 c-60,0 -118,42 -118,131 c0,41 24,74 54,74 c13,0 26,-5 40,-16 c5,20 -7,66 -29,77 c16,21 23,46 20,72 c-63,-40 -126,-119 -126,-207 c0,-138 98,-204 198,-204 Z" fill="#000000" transform="matrix(1,0,0,-1,14478,660)"/>
  <path d="M65,0 h180 v140 h-80 v660 l-140,-31 v-746 c0,-25 40,-23 40,-23 Z" fill="#000000" transform="matrix(1,0,0,-1,14938,660)"/>
  <path d="M-20,0 h340 v140 h-340 v-140 Z" fill="#000000" transform="matrix(1,0,0,-1,15163,660)"/>
  <path d="M-20,0 h340 v140 h-340 v-140 Z" fill="#000000" transform="matrix(1,0,0,-1,15463,660)"/>
  <path d="M58,-58 c32,0 58,26 58,58 c0,32 -26,58 -58,58 c-32,0 -58,-26 -58,-58 c0,-32 26,-58 58,-58 Z" fill="#000000" transform="matrix(1,0,0,-1,15788,810)"/>
  <path d="M-20,0 h180 c0,0 2,0 4,0 h156 v140 h-120 v200 l-140,-31 v-169 h-80 v-140 Z" fill="#000000" transform="matrix(1,0,0,-1,15763,660)"/>
  <path d="M-20,0 h180 c0,0 40,-2 40,23 v777 l-140,-31 v-629 h-80 v-140 Z" fill="#000000" transform="matrix(1,0,0,-1,16063,660)"/>
  <path d="M353,72 c-109,-54 -188,1 -188,68 v660 l-140,-31 v-649 c0,-160 261,-155 328,-48 Z" fill="#000000" transform="matrix(1,0,0,-1,16288,660)"/>
  <path d="" fill="#000000" transform="matrix(1,0,0,-1,16641,660)"/>
  <path d="M58,-58 c32,0 58,26 58,58 c0,32 -26,58 -58,58 c-32,0 -58,-26 -58,-58 c0,-32 26,-58 58,-58 Z" fill="#000000" transform="matrix(1,0,0,-1,16943,260)"/>
  <path d="M223,-204 c104,0 209,70 212,204 h75 v140 h-99 c-19,48 -46,88 -74,122 l-68,-136 c20,-31 42,-77 42,-120 c0,-91 -64,-137 -127,-137 c-60,0 -118,42 -118,131 c0,41 24,74 54,74 c13,0 26,-5 40,-16 c5,20 -7,66 -29,77 c16,21 23,46 20,72 c-63,-40 -126,-119 -126,-207 c0,-138 98,-204 198,-204 Z" fill="#000000" transform="matrix(1,0,0,-1,16771,660)"/>
  <path d="M58,-58 c32,0 58,26 58,58 c0,32 -26,58 -58,58 c-32,0 -58,-26 -58,-58 c0,-32 26,-58 58,-58 Z M231,-58 c32,0 58,26 58,58 c0,32 -26,58 -58,58 c-32,0 -58,-26 -58,-58 c0,-32 26,-58 58,-58 Z" fill="#000000" transform="matrix(1,0,0,-1,17199,810)"/>
  <path d="M-20,0 h180 c0,0 2,0 4,0 h156 v140 h-120 v270 l-140,-31 v-239 h-80 v-140 Z" fill="#000000" transform="matrix(1,0,0,-1,17261,660)"/>
  <path d="M58,-58 c32,0 58,26 58,58 c0,32 -26,58 -58,58 c-32,0 -58,-26 -58,-58 c0,-32 26,-58 58,-58 Z" fill="#000000" transform="matrix(1,0,0,-1,17586,810)"/>
  <path d="M-20,0 h180 c0,0 40,-2 40,23 v317 l-140,-31 v-169 h-80 v-140 Z" fill="#000000" transform="matrix(1,0,0,-1,17561,660)"/>
  <path d="" fill="#000000" transform="matrix(1,0,0,-1,17786,660)"/>
  <path d="M142,-200 c76,-24 201,-2 247,53 c-64,-22 -224,-33 -224,75 c0,51 46,72 71,72 h63 l60,140 h-103 c-66,0 -98,30 -98,64 c0,23 21,47 44,50 c25,5 57,-5 90,-30 c-5,36 -46,96 -114,96 c-137,0 -208,-174 -108,-267 c-21,-30 -36,-63 -36,-112 c0,-73 51,-123 108,-141 Z" fill="#000000" transform="matrix(1,0,0,-1,17916,660)"/>
  <path d="M65,0 h180 v140 h-80 v660 l-140,-31 v-746 c0,-25 40,-23 40,-23 Z" fill="#000000" transform="matrix(1,0,0,-1,18305,660)"/>
  <path d="M-20,0 h340 v140 h-340 v-140 Z" fill="#000000" transform="matrix(1,0,0,-1,18530,660)"/>
  <path d="M-20,0 h340 v140 h-340 v-140 Z" fill="#000000" transform="matrix(1,0,0,-1,18830,660)"/>
  <path d="M58,-58 c32,0 58,26 58,58 c0,32 -26,58 -58,58 c-32,0 -58,-26 -58,-58 c0,-32 26,-58 58,-58 Z M231,-58 c32,0 58,26 58,58 c0,32 -26,58 -58,58 c-32,0 -58,-26 -58,-58 c0,-32 26,-58 58,-58 Z" fill="#000000" transform="matrix(1,0,0,-1,19215,60)"/>
  <path d="M-20,0 h380 c0,0 2,0 4,0 h156 v140 h-120 v200 c0,94 -76,170 -169,170 c-93,0 -171,-77 -171,-170 c0,-93 78,-170 171,-170 c10,0 20,1 29,3 v-33 h-280 v-140 Z M231,310 c-17,0 -31,13 -31,30 c0,17 14,30 31,30 c17,0 29,-13 29,-30 c0,-17 -12,-30 -29,-30 Z" fill="#000000" transform="matrix(1,0,0,-1,19130,660)"/>
  <path d="M-20,0 h180 c0,0 40,-2 40,23 v777 l-140,-31 v-629 h-80 v-140 Z" fill="#000000" transform="matrix(1,0,0,-1,19630,660)"/>
  <path d="M353,72 c-109,-54 -188,1 -188,68 v660 l-140,-31 v-649 c0,-160 261,-155 328,-48 Z" fill="#000000" transform="matrix(1,0,0,-1,19855,660)"/>
  <path d="" fill="#000000" transform="matrix(1,0,0,-1,20208,660)"/>
  <path d="M25,0 h449 l-155,272 c-14,24 -13,53 -5,68 l197,-340 h229 v140 h-153 l-259,451 c0,-52 -24,-68 -65,-98 c-81,-60 -142,-148 -61,-290 l36,-63 h-37 c-24,0 -55,13 -68,40 l-108,-180 Z" fill="#000000" transform="matrix(1,0,0,-1,20338,660)"/>
  <path d="M-20,0 h180 c0,0 2,0 4,0 h156 v140 h-120 v660 l-140,-31 v-629 h-80 v-140 Z" fill="#000000" transform="matrix(1,0,0,-1,21058,660)"/>
  <path d="M-40,0 h491 l59,140 h-240 c-31,0 -49,20 -69,44 c-10,13 -12,35 -4,48 c16,26 51,58 147,102 l-7,9 c-170,-33 -242,-56 -276,-109 c-20,-31 -13,-69 -4,-94 h-97 v-140 Z" fill="#000000" transform="matrix(1,0,0,-1,21358,660)"/>
  <path d="" fill="#000000" transform="matrix(1,0,0,-1,21893,660)"/>
  <path d="M-50,-181 c55,-54 215,-19 215,101 v83 c10,-2 20,-3 31,-3 c1,0 2,0 3,0 h240 v140 h-77 c2,10 3,20 3,30 c0,74 -49,140 -118,162 c-24,9 -35,16 -52,67 c-15,-50 -26,-60 -48,-66 c-71,-22 -122,-87 -122,-162 v-251 c0,-84 -69,-101 -75,-101 Z M196,140 c-17,0 -31,13 -31,30 c0,17 14,30 31,30 c17,0 29,-13 29,-30 c0,-17 -12,-30 -29,-30 Z" fill="#000000" transform="matrix(1,0,0,-1,22023,660)"/>
  <path d="M58,-58 c32,0 58,26 58,58 c0,32 -26,58 -58,58 c-32,0 -58,-26 -58,-58 c0,-32 26,-58 58,-58 Z M231,-58 c32,0 58,26 58,58 c0,32 -26,58 -58,58 c-32,0 -58,-26 -58,-58 c0,-32 26,-58 58,-58 Z" fill="#000000" transform="matrix(1,0,0,-1,22380,810)"/>
  <path d="M-20,0 h180 c0,0 40,-2 40,23 v317 l-140,-31 v-169 h-80 v-140 Z" fill="#000000" transform="matrix(1,0,0,-1,22442,660)"/>
  <path d="M-85,-150 c66,-94 285,-87 285,90 v400 l-140,-31 v-369 c0,-67 -27,-121 -145,-90 Z" fill="#000000" transform="matrix(1,0,0,-1,22767,660)"/>
</svg>
