<?xml version='1.0' encoding='ASCII'?>
<svg width="23142" height="6004" preserveAspectRatio="xMinYMin slice" viewBox="-75 -358 23142 6004" version="1.1" xmlns="http://www.w3.org/2000/svg">
  <path d="M25,0 h393 l-60,140 h-157 c-24,0 -55,13 -68,40 l-108,-180 Z M418,0 c93,0 170,76 170,170 c0,94 -47,162 -156,228 c-9,-10 -34,-37 -41,-60 c-71,-12 -144,-75 -144,-168 c0,-93 78,-170 171,-170 Z M418,140 c-17,0 -31,13 -31,30 c0,17 14,30 31,30 c17,0 29,-13 29,-30 c0,-17 -12,-30 -29,-30 Z" fill="#000000" transform="matrix(1,0,0,-1,-50,5188)"/>
  <path d="M174,0 h146 v140 h-146 v-140 Z M-85,-150 c66,-94 285,-87 285,90 v400 l-140,-31 v-369 c0,-67 -27,-121 -145,-90 Z" fill="#000000" transform="matrix(1,0,0,-1,563,5188)"/>
  <path d="M-20,0 h620 l60,140 h-274 c-63,0 -170,89 -244,202 l-66,-128 c18,-32 35,-57 52,-74 h-148 v-140 Z" fill="#000000" transform="matrix(1,0,0,-1,863,5188)"/>
  <path d="M-435,165 c15,-5 50,-13 82,-13 c62,0 128,28 128,148 v500 l-140,-31 v-493 c0,-58 -4,-102 -70,-111 Z" fill="#000000" transform="matrix(1,0,0,-1,1548,5188)"/>
  <path d="M260,58 c-25,-12 -95,-25 -95,42 v700 l-140,-31 v-669 c0,-150 214,-117 235,-42 Z" fill="#000000" transform="matrix(1,0,0,-1,1548,5188)"/>
  <path d="" fill="#000000" transform="matrix(1,0,0,-1,1808,5188)"/>
  <path d="M174,0 h146 v140 h-146 v-140 Z M-85,-150 c66,-94 285,-87 285,90 v400 l-140,-31 v-369 c0,-67 -27,-121 -145,-90 Z" fill="#000000" transform="matrix(1,0,0,-1,1938,5188)"/>
  <path d="M245,0 h262 v140 h-197 l-65,-140 Z M54,-40 h14 v220 h-14 v-220 Z M-20,0 h265 l-65,140 h-200 v-140 Z M350,-40 h44 v220 h-44 v-220 Z M225,-210 c93,0 169,76 169,170 c0,94 -76,170 -169,170 c-93,0 -171,-77 -171,-170 c0,-93 78,-170 171,-170 Z M225,-70 c-17,0 -31,13 -31,30 c0,17 14,30 31,30 c17,0 29,-13 29,-30 c0,-17 -12,-30 -29,-30 Z M394,180 v226 c-27,-52 -134,-56 -169,-56 l169,-170 Z M225,10 c93,0 169,76 169,170 c0,94 -76,170 -169,170 c-93,0 -171,-77 -171,-170 c0,-93 78,-170 171,-170 Z M225,150 c-17,0 -31,13 -31,30 c0,17 14,30 31,30 c17,0 29,-13 29,-30 c0,-17 -12,-30 -29,-30 Z" fill="#000000" transform="matrix(1,0,0,-1,2238,5188)"/>
  <path d="M145,92 c32,0 58,26 58,58 c0,32 -26,58 -58,58 c-32,0 -58,-26 -58,-58 c0,-32 26,-58 58,-58 Z M231,-58 c32,0 58,26 58,58 c0,32 -26,58 -58,58 c-32,0 -58,-26 -58,-58 c0,-32 26,-58 58,-58 Z M58,-58 c32,0 58,26 58,58 c0,32 -26,58 -58,58 c-32,0 -58,-26 -58,-58 c0,-32 26,-58 58,-58 Z" fill="#000000" transform="matrix(1,0,0,-1,2925,4598)"/>
  <path d="M-20,0 h580 c0,0 40,-2 40,23 v317 l-140,-31 v-169 h-60 v200 l-140,-31 v-169 h-60 v200 l-140,-31 v-169 h-80 v-140 Z" fill="#000000" transform="matrix(1,0,0,-1,2725,5188)"/>
  <path d="M73,9 h151 l-1,41 h-26 c-25,0 -62,-1 -62,39 c0,7 -1,39 32,48 c19,5 52,-5 60,-9 c-13,31 -45,40 -63,40 c-52,0 -74,-29 -85,-69 c-5,-20 -6,-32 -6,-57 v-33 Z M0,0 h240 l30,50 h-240 l-30,-50 Z" fill="#000000" transform="matrix(1,0,0,-1,3305,4338)"/>
  <path d="M165,80 v720 l-140,-31 v-619 l140,-70 Z" fill="#000000" transform="matrix(1,0,0,-1,3350,5188)"/>
  <path d="M196,-20 c93,0 169,76 169,170 h-140 c0,-17 -12,-30 -29,-30 c-17,0 -31,13 -31,30 h-140 c0,-93 78,-170 171,-170 Z M225,100 l140,50 v619 l-140,31 v-700 Z M196,-220 c93,0 169,76 169,170 c0,94 -76,170 -169,170 c-93,0 -171,-77 -171,-170 c0,-93 78,-170 171,-170 Z M196,-80 c-17,0 -31,13 -31,30 c0,17 14,30 31,30 c17,0 29,-13 29,-30 c0,-17 -12,-30 -29,-30 Z" fill="#000000" transform="matrix(1,0,0,-1,3350,5188)"/>
  <path d="M260,58 c-25,-12 -95,-25 -95,42 v700 l-140,-31 v-669 c0,-150 214,-117 235,-42 Z" fill="#000000" transform="matrix(1,0,0,-1,3740,5188)"/>
  <path d="" fill="#000000" transform="matrix(1,0,0,-1,4000,5188)"/>
  <path d="M231,-58 c32,0 58,26 58,58 c0,32 -26,58 -58,58 c-32,0 -58,-26 -58,-58 c0,-32 26,-58 58,-58 Z M58,-58 c32,0 58,26 58,58 c0,32 -26,58 -58,58 c-32,0 -58,-26 -58,-58 c0,-32 26,-58 58,-58 Z" fill="#000000" transform="matrix(1,0,0,-1,4225,5488)"/>
  <path d="M393,-200 h155 l-269,472 c-14,24 -13,53 -5,68 l197,-340 h156 l-339,591 c0,-52 -24,-68 -65,-98 c-81,-60 -142,-148 -61,-290 l231,-403 Z M534,0 h166 v140 h-166 v-140 Z M25,-200 h393 l-60,140 h-157 c-24,0 -55,13 -68,40 l-108,-180 Z" fill="#000000" transform="matrix(1,0,0,-1,4130,5188)"/>
  <path d="M58,-58 c32,0 58,26 58,58 c0,32 -26,58 -58,58 c-32,0 -58,-26 -58,-58 c0,-32 26,-58 58,-58 Z" fill="#000000" transform="matrix(1,0,0,-1,4982,4588)"/>
  <path d="M-20,0 h380 c0,0 40,-2 40,23 v317 l-140,-72 v-128 h-280 v-140 Z M231,170 c93,0 169,76 169,170 c0,94 -76,170 -169,170 c-93,0 -171,-77 -171,-170 c0,-93 78,-170 171,-170 Z M231,310 c-17,0 -31,13 -31,30 c0,17 14,30 31,30 c17,0 29,-13 29,-30 c0,-17 -12,-30 -29,-30 Z" fill="#000000" transform="matrix(1,0,0,-1,4810,5188)"/>
  <path d="" fill="#000000" transform="matrix(1,0,0,-1,5235,5188)"/>
  <path d="M231,-58 c32,0 58,26 58,58 c0,32 -26,58 -58,58 c-32,0 -58,-26 -58,-58 c0,-32 26,-58 58,-58 Z M58,-58 c32,0 58,26 58,58 c0,32 -26,58 -58,58 c-32,0 -58,-26 -58,-58 c0,-32 26,-58 58,-58 Z" fill="#000000" transform="matrix(1,0,0,-1,5460,5488)"/>
  <path d="M393,-200 h155 l-269,472 c-14,24 -13,53 -5,68 l197,-340 h156 l-339,591 c0,-52 -24,-68 -65,-98 c-81,-60 -142,-148 -61,-290 l231,-403 Z M534,0 h166 v140 h-166 v-140 Z M25,-200 h393 l-60,140 h-157 c-24,0 -55,13 -68,40 l-108,-180 Z" fill="#000000" transform="matrix(1,0,0,-1,5365,5188)"/>
  <path d="M-20,0 h247 l-47,140 h-200 v-140 Z M224,0 c93,0 169,76 169,170 c0,94 -76,170 -169,170 c-93,0 -171,-77 -171,-170 c0,-93 78,-170 171,-170 Z M224,140 c-17,0 -31,13 -31,30 c0,17 14,30 31,30 c17,0 29,-13 29,-30 c0,-17 -12,-30 -29,-30 Z" fill="#000000" transform="matrix(1,0,0,-1,6045,5188)"/>
  <path d="M25,0 h780 c0,0 40,-2 40,23 c0,120 17,317 -230,317 h-366 l52,113 l-10,7 l-156,-260 h480 c75,0 91,-24 90,-60 h-596 l-84,-140 Z" fill="#000000" transform="matrix(1,0,0,-1,6463,5188)"/>
  <path d="" fill="#000000" transform="matrix(1,0,0,-1,7333,5188)"/>
  <path d="M109,200 h140 v600 l-140,-31 v-569 Z M789,0 h196 v140 h-196 v-140 Z M25,0 h800 c0,0 40,-2 40,23 c0,120 17,317 -230,317 h-525 v-140 h525 c75,0 91,-24 90,-60 h-616 l-84,-140 Z" fill="#000000" transform="matrix(1,0,0,-1,7463,5188)"/>
  <path d="M58,-58 c32,0 58,26 58,58 c0,32 -26,58 -58,58 c-32,0 -58,-26 -58,-58 c0,-32 26,-58 58,-58 Z" fill="#000000" transform="matrix(1,0,0,-1,8600,4588)"/>
  <path d="M340,0 h180 v140 h-180 v-140 Z M-20,0 h380 c0,0 40,-2 40,23 v317 l-140,-72 v-128 h-280 v-140 Z M231,170 c93,0 169,76 169,170 c0,94 -76,170 -169,170 c-93,0 -171,-77 -171,-170 c0,-93 78,-170 171,-170 Z M231,310 c-17,0 -31,13 -31,30 c0,17 14,30 31,30 c17,0 29,-13 29,-30 c0,-17 -12,-30 -29,-30 Z" fill="#000000" transform="matrix(1,0,0,-1,8428,5188)"/>
  <path d="M-20,0 h580 c0,0 40,-2 40,23 v317 l-140,-31 v-169 h-60 v200 l-140,-31 v-169 h-60 v200 l-140,-31 v-169 h-80 v-140 Z" fill="#000000" transform="matrix(1,0,0,-1,8928,5188)"/>
  <path d="" fill="#000000" transform="matrix(1,0,0,-1,9553,5188)"/>
  <path d="M395,0 h170 v140 h-170 v-140 Z M305,40 l140,-40 v800 l-140,-31 v-729 Z M216,-200 c151,0 228,87 229,200 v340 l-140,-31 v-269 c0,-111 -29,-183 -107,-183 c-72,0 -132,64 -132,142 c0,35 13,52 32,65 c18,12 41,13 62,-7 c6,23 -8,68 -29,78 c19,25 23,47 20,72 c-63,-40 -126,-119 -126,-207 c0,-62 28,-200 191,-200 Z" fill="#000000" transform="matrix(1,0,0,-1,9683,5188)"/>
  <path d="M-20,0 h620 l60,140 h-274 c-63,0 -170,89 -244,202 l-66,-128 c18,-32 35,-57 52,-74 h-148 v-140 Z" fill="#000000" transform="matrix(1,0,0,-1,10228,5188)"/>
  <path d="M73,9 h151 l-1,41 h-26 c-25,0 -62,-1 -62,39 c0,7 -1,39 32,48 c19,5 52,-5 60,-9 c-13,31 -45,40 -63,40 c-52,0 -74,-29 -85,-69 c-5,-20 -6,-32 -6,-57 v-33 Z M0,0 h240 l30,50 h-240 l-30,-50 Z" fill="#000000" transform="matrix(1,0,0,-1,10938,4338)"/>
  <path d="M353,72 c-109,-54 -188,1 -188,68 v660 l-140,-31 v-649 c0,-160 261,-155 328,-48 Z" fill="#000000" transform="matrix(1,0,0,-1,10913,5188)"/>
  <path d="" fill="#000000" transform="matrix(1,0,0,-1,11266,5188)"/>
  <path d="" fill="#000000" transform="matrix(1,0,0,-1,11396,5188)"/>
  <path d="" fill="#000000" transform="matrix(1,0,0,-1,11526,5188)"/>
  <path d="M-50,-181 c55,-54 215,-19 215,101 v172 l-140,79 v-251 c0,-84 -69,-101 -75,-101 Z M199,0 h240 v140 h-200 l-40,-140 Z M196,0 c93,0 169,76 169,170 c0,74 -49,140 -118,162 c-24,9 -35,16 -52,67 c-15,-50 -26,-60 -48,-66 c-71,-22 -122,-88 -122,-163 c0,-94 78,-170 171,-170 Z M196,140 c-17,0 -31,13 -31,30 c0,17 14,30 31,30 c17,0 29,-13 29,-30 c0,-17 -12,-30 -29,-30 Z" fill="#000000" transform="matrix(1,0,0,-1,11656,5188)"/>
  <path d="M100,0 h220 v140 h-220 v-140 Z M-20,0 h180 c0,0 40,-2 40,23 v777 l-140,-31 v-629 h-80 v-140 Z" fill="#000000" transform="matrix(1,0,0,-1,12075,5188)"/>
  <path d="M-20,0 h340 v140 h-340 v-140 Z" fill="#000000" transform="matrix(1,0,0,-1,12375,5188)"/>
  <path d="M-20,140 v-140 h565 v140 h-565 Z M306,299 l-98,-173 l122,-67 l194,341 h-527 l194,-341 l122,67 l-99,173 l-23,-39 h138 l-23,39 Z" fill="#000000" transform="matrix(1,0,0,-1,12675,5188)"/>
  <path d="M-20,0 h180 c0,0 40,-2 40,23 v777 l-140,-31 v-629 h-80 v-140 Z" fill="#000000" transform="matrix(1,0,0,-1,13200,5188)"/>
  <path d="M353,72 c-109,-54 -188,1 -188,68 v660 l-140,-31 v-649 c0,-160 261,-155 328,-48 Z" fill="#000000" transform="matrix(1,0,0,-1,13425,5188)"/>
  <path d="" fill="#000000" transform="matrix(1,0,0,-1,13778,5188)"/>
  <path d="M60,-132 c66,-94 305,-88 305,110 v192 l-140,-42 v-180 c0,-23 -12,-121 -165,-80 Z M365,170 v226 c-27,-52 -134,-56 -169,-56 l169,-170 Z M196,0 c93,0 169,76 169,170 c0,94 -76,170 -169,170 c-93,0 -171,-77 -171,-170 c0,-93 78,-170 171,-170 Z M196,140 c-17,0 -31,13 -31,30 c0,17 14,30 31,30 c17,0 29,-13 29,-30 c0,-17 -12,-30 -29,-30 Z" fill="#000000" transform="matrix(1,0,0,-1,13908,5188)"/>
  <path d="" fill="#000000" transform="matrix(1,0,0,-1,14298,5188)"/>
  <path d="M58,-58 c32,0 58,26 58,58 c0,32 -26,58 -58,58 c-32,0 -58,-26 -58,-58 c0,-32 26,-58 58,-58 Z" fill="#000000" transform="matrix(1,0,0,-1,14600,4788)"/>
  <path d="M223,-204 c105,0 212,72 212,209 c0,117 -48,195 -98,257 l-68,-136 c20,-31 42,-77 42,-120 c0,-91 -64,-137 -127,-137 c-60,0 -118,42 -118,131 c0,41 24,74 54,74 c13,0 26,-5 40,-16 c5,20 -7,66 -29,77 c16,21 23,46 20,72 c-63,-40 -126,-119 -126,-207 c0,-138 98,-204 198,-204 Z" fill="#000000" transform="matrix(1,0,0,-1,14428,5188)"/>
  <path d="M65,0 h180 v140 h-80 v660 l-140,-31 v-746 c0,-25 40,-23 40,-23 Z" fill="#000000" transform="matrix(1,0,0,-1,14888,5188)"/>
  <path d="M-20,0 h340 v140 h-340 v-140 Z" fill="#000000" transform="matrix(1,0,0,-1,15113,5188)"/>
  <path d="M-20,0 h340 v140 h-340 v-140 Z" fill="#000000" transform="matrix(1,0,0,-1,15413,5188)"/>
  <path d="M58,-58 c32,0 58,26 58,58 c0,32 -26,58 -58,58 c-32,0 -58,-26 -58,-58 c0,-32 26,-58 58,-58 Z" fill="#000000" transform="matrix(1,0,0,-1,15738,5338)"/>
  <path d="M100,0 h220 v140 h-220 v-140 Z M-20,0 h180 c0,0 40,-2 40,23 v317 l-140,-31 v-169 h-80 v-140 Z" fill="#000000" transform="matrix(1,0,0,-1,15713,5188)"/>
  <path d="M-20,0 h180 c0,0 40,-2 40,23 v777 l-140,-31 v-629 h-80 v-140 Z" fill="#000000" transform="matrix(1,0,0,-1,16013,5188)"/>
  <path d="M353,72 c-109,-54 -188,1 -188,68 v660 l-140,-31 v-649 c0,-160 261,-155 328,-48 Z" fill="#000000" transform="matrix(1,0,0,-1,16238,5188)"/>
  <path d="" fill="#000000" transform="matrix(1,0,0,-1,16591,5188)"/>
  <path d="M58,-58 c32,0 58,26 58,58 c0,32 -26,58 -58,58 c-32,0 -58,-26 -58,-58 c0,-32 26,-58 58,-58 Z" fill="#000000" transform="matrix(1,0,0,-1,16893,4788)"/>
  <path d="M364,0 h146 v140 h-146 v-140 Z M223,-204 c105,0 212,72 212,209 c0,117 -48,195 -98,257 l-68,-136 c20,-31 42,-77 42,-120 c0,-91 -64,-137 -127,-137 c-60,0 -118,42 -118,131 c0,41 24,74 54,74 c13,0 26,-5 40,-16 c5,20 -7,66 -29,77 c16,21 23,46 20,72 c-63,-40 -126,-119 -126,-207 c0,-138 98,-204 198,-204 Z" fill="#000000" transform="matrix(1,0,0,-1,16721,5188)"/>
  <path d="M231,-58 c32,0 58,26 58,58 c0,32 -26,58 -58,58 c-32,0 -58,-26 -58,-58 c0,-32 26,-58 58,-58 Z M58,-58 c32,0 58,26 58,58 c0,32 -26,58 -58,58 c-32,0 -58,-26 -58,-58 c0,-32 26,-58 58,-58 Z" fill="#000000" transform="matrix(1,0,0,-1,17149,5338)"/>
  <path d="M100,0 h220 v140 h-220 v-140 Z M60,210 h140 v200 l-140,-31 v-169 Z M-20,0 h180 c0,0 40,-2 40,23 v317 l-140,-31 v-169 h-80 v-140 Z" fill="#000000" transform="matrix(1,0,0,-1,17211,5188)"/>
  <path d="M58,-58 c32,0 58,26 58,58 c0,32 -26,58 -58,58 c-32,0 -58,-26 -58,-58 c0,-32 26,-58 58,-58 Z" fill="#000000" transform="matrix(1,0,0,-1,17536,5338)"/>
  <path d="M-20,0 h180 c0,0 40,-2 40,23 v317 l-140,-31 v-169 h-80 v-140 Z" fill="#000000" transform="matrix(1,0,0,-1,17511,5188)"/>
  <path d="" fill="#000000" transform="matrix(1,0,0,-1,17736,5188)"/>
  <path d="M142,-200 c76,-24 201,-2 247,53 c-64,-22 -224,-33 -224,75 c0,51 46,72 71,72 h63 l60,140 h-103 c-66,0 -98,30 -98,64 c0,23 21,47 44,50 c25,5 57,-5 90,-30 c-5,36 -46,96 -114,96 c-137,0 -208,-174 -108,-267 c-21,-30 -36,-63 -36,-112 c0,-73 51,-123 108,-141 Z" fill="#000000" transform="matrix(1,0,0,-1,17866,5188)"/>
  <path d="M65,0 h180 v140 h-80 v660 l-140,-31 v-746 c0,-25 40,-23 40,-23 Z" fill="#000000" transform="matrix(1,0,0,-1,18255,5188)"/>
  <path d="M-20,0 h340 v140 h-340 v-140 Z" fill="#000000" transform="matrix(1,0,0,-1,18480,5188)"/>
  <path d="M-20,0 h340 v140 h-340 v-140 Z" fill="#000000" transform="matrix(1,0,0,-1,18780,5188)"/>
  <path d="M231,-58 c32,0 58,26 58,58 c0,32 -26,58 -58,58 c-32,0 -58,-26 -58,-58 c0,-32 26,-58 58,-58 Z M58,-58 c32,0 58,26 58,58 c0,32 -26,58 -58,58 c-32,0 -58,-26 -58,-58 c0,-32 26,-58 58,-58 Z" fill="#000000" transform="matrix(1,0,0,-1,19165,4588)"/>
  <path d="M340,0 h180 v140 h-180 v-140 Z M-20,0 h380 c0,0 40,-2 40,23 v317 l-140,-72 v-128 h-280 v-140 Z M231,170 c93,0 169,76 169,170 c0,94 -76,170 -169,170 c-93,0 -171,-77 -171,-170 c0,-93 78,-170 171,-170 Z M231,310 c-17,0 -31,13 -31,30 c0,17 14,30 31,30 c17,0 29,-13 29,-30 c0,-17 -12,-30 -29,-30 Z" fill="#000000" transform="matrix(1,0,0,-1,19080,5188)"/>
  <path d="M-20,0 h180 c0,0 40,-2 40,23 v777 l-140,-31 v-629 h-80 v-140 Z" fill="#000000" transform="matrix(1,0,0,-1,19580,5188)"/>
  <path d="M353,72 c-109,-54 -188,1 -188,68 v660 l-140,-31 v-649 c0,-160 261,-155 328,-48 Z" fill="#000000" transform="matrix(1,0,0,-1,19805,5188)"/>
  <path d="" fill="#000000" transform="matrix(1,0,0,-1,20158,5188)"/>
  <path d="M318,0 h156 l-155,272 c-14,24 -13,53 -5,68 l197,-340 h156 l-339,591 c0,-52 -24,-68 -65,-98 c-81,-60 -142,-148 -61,-290 l116,-203 Z M25,0 h353 l-60,140 h-117 c-24,0 -55,13 -68,40 l-108,-180 Z M574,0 h166 v140 h-166 v-140 Z" fill="#000000" transform="matrix(1,0,0,-1,20288,5188)"/>
  <path d="M100,0 h220 v140 h-220 v-140 Z M-20,0 h180 c0,0 40,-2 40,23 v777 l-140,-31 v-629 h-80 v-140 Z" fill="#000000" transform="matrix(1,0,0,-1,21008,5188)"/>
  <path d="M-40,0 h491 l59,140 h-240 c-31,0 -49,20 -69,44 c-10,13 -12,35 -4,48 c16,26 51,58 147,102 l-7,9 c-170,-33 -242,-56 -276,-109 c-20,-31 -13,-69 -4,-94 h-97 v-140 Z" fill="#000000" transform="matrix(1,0,0,-1,21308,5188)"/>
  <path d="" fill="#000000" transform="matrix(1,0,0,-1,21843,5188)"/>
  <path d="M-50,-181 c55,-54 215,-19 215,101 v172 l-140,79 v-251 c0,-84 -69,-101 -75,-101 Z M199,0 h240 v140 h-200 l-40,-140 Z M196,0 c93,0 169,76 169,170 c0,74 -49,140 -118,162 c-24,9 -35,16 -52,67 c-15,-50 -26,-60 -48,-66 c-71,-22 -122,-88 -122,-163 c0,-94 78,-170 171,-170 Z M196,140 c-17,0 -31,13 -31,30 c0,17 14,30 31,30 c17,0 29,-13 29,-30 c0,-17 -12,-30 -29,-30 Z" fill="#000000" transform="matrix(1,0,0,-1,21973,5188)"/>
  <path d="M231,-58 c32,0 58,26 58,58 c0,32 -26,58 -58,58 c-32,0 -58,-26 -58,-58 c0,-32 26,-58 58,-58 Z M58,-58 c32,0 58,26 58,58 c0,32 -26,58 -58,58 c-32,0 -58,-26 -58,-58 c0,-32 26,-58 58,-58 Z" fill="#000000" transform="matrix(1,0,0,-1,22330,5338)"/>
  <path d="M-20,0 h180 c0,0 40,-2 40,23 v317 l-140,-31 v-169 h-80 v-140 Z" fill="#000000" transform="matrix(1,0,0,-1,22392,5188)"/>
  <path d="M-85,-150 c66,-94 285,-87 285,90 v400 l-140,-31 v-369 c0,-67 -27,-121 -145,-90 Z" fill="#000000" transform="matrix(1,0,0,-1,22717,5188)"/>
  <path d="M25,0 h400.3329 l-60,126.6675 h-172.3324 c-24,0 -55,13 -68,40 l-100.0005,-166.6675 Z M425.3329,0 c89.3336,0 162.6671,73.0002 162.6671,163.3337 c0,88.0004 -45.0001,156.0004 -147.0005,218.3339 c-9.6666,-10.6666 -30.0002,-32.3336 -37.0002,-56.3336 c-72.9999,-9.6668 -142.3334,-73.6667 -142.3334,-162.0004 c0,-89.6669 74.3336,-163.3337 163.6671,-163.3337 Z M425.3329,126.6675 c-20.6664,0 -37.3329,15.9998 -37.3329,36.6663 c0,20.6664 16.6665,36.6663 37.3329,36.6663 c20.6664,0 35.9996,-15.9998 35.9996,-36.6663 c0,-20.6664 -15.3331,-36.6663 -35.9996,-36.6663 Z" fill="#000000" transform="matrix(1,0,0,-1,16.5,3712)"/>
  <path d="M174,0 h146 v126.6675 h-146 v-126.6675 Z M-85,-150 c66,-94 285,-87 285,90 v386.6675 l-126.6675,-28.0002 v-362.0004 c0,-63.6669 -28.6666,-121 -158.3325,-86.6669 Z" fill="#000000" transform="matrix(1,0,0,-1,629.5,3712)"/>
  <path d="M-20,0 h620 l60,126.6675 h-264.0006 c-73.9993,0 -178.3328,85.6669 -250.9996,198.0002 l-62.6669,-121.0004 c17.3334,-30.0001 39.9997,-60.3331 60.6661,-76.9998 h-162.9991 v-126.6675 Z" fill="#000000" transform="matrix(1,0,0,-1,929.5,3712)"/>
  <path d="M-435,165 c12.6668,-4.3334 45.3336,-12.3334 75.3337,-12.3334 c58.0002,0 121.3337,27.3334 121.3337,147.3334 v500 l-126.6675,-28.0002 v-495.9998 c0,-58 -4,-102 -70,-111 Z" fill="#000000" transform="matrix(1,0,0,-1,1614.5,3712)"/>
  <path d="M246.6675,58 c-25,-12 -95,-25 -95,35.3337 v706.6663 l-126.6675,-28.0002 v-678.6661 c0,-140.0006 200.6675,-110.3337 221.6675,-35.3337 Z" fill="#000000" transform="matrix(1,0,0,-1,1614.5,3712)"/>
  <path d="" fill="#000000" transform="matrix(1,0,0,-1,1861.5,3712)"/>
  <path d="M174,0 h146 v126.6675 h-146 v-126.6675 Z M-85,-150 c66,-94 285,-87 285,90 v386.6675 l-126.6675,-28.0002 v-362.0004 c0,-63.6669 -28.6666,-121 -158.3325,-86.6669 Z" fill="#000000" transform="matrix(1,0,0,-1,1991.5,3712)"/>
  <path d="M245,0 h262 v126.6675 h-197 l-65,-126.6675 Z M67.6658,-43.3331 h14 v213.3337 h-14 v-213.3337 Z M-20,0 h265 l-65,126.6675 h-200 v-126.6675 Z M350,-43.3331 h44 v213.3337 h-44 v-213.3337 Z M231.6663,-206.6669 c89.3336,0 162.3337,73.0002 162.3337,163.3337 c0,90.3336 -73.0002,163.3337 -162.3337,163.3337 c-89.3336,0 -164.0004,-73.6669 -164.0004,-163.3337 c0,-89.6669 74.6669,-163.3337 164.0004,-163.3337 Z M231.6663,-79.9994 c-20.6664,0 -37.3329,15.9998 -37.3329,36.6663 c0,20.6664 16.6665,36.6663 37.3329,36.6663 c20.6664,0 35.9996,-15.9998 35.9996,-36.6663 c0,-20.6664 -15.3331,-36.6663 -35.9996,-36.6663 Z M394,170.0006 v216.0006 c-27,-52 -127.3337,-52.6669 -162.3337,-52.6669 l162.3337,-163.3337 Z M231.6663,6.6669 c89.3336,0 162.3337,73.0002 162.3337,163.3337 c0,90.3336 -73.0002,163.3337 -162.3337,163.3337 c-89.3336,0 -164.0004,-73.6669 -164.0004,-163.3337 c0,-89.6669 74.6669,-163.3337 164.0004,-163.3337 Z M231.6663,133.3344 c-20.6664,0 -37.3329,15.9998 -37.3329,36.6663 c0,20.6664 16.6665,36.6663 37.3329,36.6663 c20.6664,0 35.9996,-15.9998 35.9996,-36.6663 c0,-20.6664 -15.3331,-36.6663 -35.9996,-36.6663 Z" fill="#000000" transform="matrix(1,0,0,-1,2291.5,3712)"/>
  <path d="M145,92 c32,0 58,26 58,58 c0,32 -26,58 -58,58 c-32,0 -58,-26 -58,-58 c0,-32 26,-58 58,-58 Z M231,-58 c32,0 58,26 58,58 c0,32 -26,58 -58,58 c-32,0 -58,-26 -58,-58 c0,-32 26,-58 58,-58 Z M58,-58 c32,0 58,26 58,58 c0,32 -26,58 -58,58 c-32,0 -58,-26 -58,-58 c0,-32 26,-58 58,-58 Z" fill="#000000" transform="matrix(1,0,0,-1,2978.5,3135)"/>
  <path d="M-20,0 h580 c0,0 40,-2 40,23 v303.6675 l-126.6675,-28.0002 v-171.9998 h-73.3325 v200 l-126.6675,-28.0002 v-171.9998 h-73.3325 v200 l-126.6675,-28.0002 v-171.9998 h-93.3325 v-126.6675 Z" fill="#000000" transform="matrix(1,0,0,-1,2778.5,3712)"/>
  <path d="M73,9 h151 l-1,41 h-26 c-25,0 -62,-1 -62,39 c0,7 -1,39 32,48 c19,5 52,-5 60,-9 c-13,31 -45,40 -63,40 c-52,0 -74,-29 -85,-69 c-5,-20 -6,-32 -6,-57 v-33 Z M0,0 h240 l30,50 h-240 l-30,-50 Z" fill="#000000" transform="matrix(1,0,0,-1,3358.5,2862)"/>
  <path d="M151.6675,86.6663 v713.3337 l-126.6675,-28.0002 v-621.9998 l126.6675,-63.3337 Z" fill="#000000" transform="matrix(1,0,0,-1,3403.5,3712)"/>
  <path d="M189.0004,-13.3337 c89.3336,0 162.6671,73.0002 162.6671,163.3337 h-126.6675 c0,-20.6664 -15.3331,-36.6663 -35.9996,-36.6663 c-20.6664,0 -37.3329,15.9998 -37.3329,36.6663 h-126.6675 c0,-89.6669 74.6669,-163.3337 164.0004,-163.3337 Z M225,100 l126.6675,50 v621.9998 l-126.6675,28.0002 v-700 Z M189.0004,-213.3337 c89.3336,0 162.3337,73.0002 162.3337,163.3337 c0,90.3336 -73.0002,163.3337 -162.3337,163.3337 c-89.3336,0 -164.0004,-73.6669 -164.0004,-163.3337 c0,-89.6669 74.6669,-163.3337 164.0004,-163.3337 Z M189.0004,-86.6663 c-20.6664,0 -37.3329,15.9998 -37.3329,36.6663 c0,20.6664 16.6665,36.6663 37.3329,36.6663 c20.6664,0 35.9996,-15.9998 35.9996,-36.6663 c0,-20.6664 -15.3331,-36.6663 -35.9996,-36.6663 Z" fill="#000000" transform="matrix(1,0,0,-1,3403.5,3712)"/>
  <path d="M246.6675,58 c-25,-12 -95,-25 -95,35.3337 v706.6663 l-126.6675,-28.0002 v-678.6661 c0,-140.0006 200.6675,-110.3337 221.6675,-35.3337 Z" fill="#000000" transform="matrix(1,0,0,-1,3780.5,3712)"/>
  <path d="" fill="#000000" transform="matrix(1,0,0,-1,4027.5,3712)"/>
  <path d="M231,-58 c32,0 58,26 58,58 c0,32 -26,58 -58,58 c-32,0 -58,-26 -58,-58 c0,-32 26,-58 58,-58 Z M58,-58 c32,0 58,26 58,58 c0,32 -26,58 -58,58 c-32,0 -58,-26 -58,-58 c0,-32 26,-58 58,-58 Z" fill="#000000" transform="matrix(1,0,0,-1,4252.5,4012)"/>
  <path d="M393,-200 h141.3342 l-265.3336,465.3337 c-21.6662,37.6658 -16.3331,78.9984 5.3327,97.9982 l210.3325,-363.3319 h142.3342 l-339,591 c0,-52 -24,-68 -65,-98 c-81,-60 -142.3333,-148 -61,-290 l231,-403 Z M537.3331,0 h162.6669 v126.6675 h-162.6669 v-126.6675 Z M25,-200 h400.3329 l-60,126.6675 h-172.3324 c-24,0 -55,13 -68,40 l-100.0005,-166.6675 Z" fill="#000000" transform="matrix(1,0,0,-1,4157.5,3712)"/>
  <path d="M58,-58 c32,0 58,26 58,58 c0,32 -26,58 -58,58 c-32,0 -58,-26 -58,-58 c0,-32 26,-58 58,-58 Z" fill="#000000" transform="matrix(1,0,0,-1,5016.5,3112)"/>
  <path d="M-20,0 h380 c0,0 40,-2 40,23 v303.6675 l-126.6675,-72 v-128 h-293.3325 v-126.6675 Z M237.6663,163.3337 c89.3336,0 162.3337,73.0002 162.3337,163.3337 c0,90.3336 -73.0002,163.3337 -162.3337,163.3337 c-89.3336,0 -164.0004,-73.6669 -164.0004,-163.3337 c0,-89.6669 74.6669,-163.3337 164.0004,-163.3337 Z M237.6663,290.0012 c-20.6664,0 -37.3329,15.9998 -37.3329,36.6663 c0,20.6664 16.6665,36.6663 37.3329,36.6663 c20.6664,0 35.9996,-15.9998 35.9996,-36.6663 c0,-20.6664 -15.3331,-36.6663 -35.9996,-36.6663 Z" fill="#000000" transform="matrix(1,0,0,-1,4837.5,3712)"/>
  <path d="" fill="#000000" transform="matrix(1,0,0,-1,5262.5,3712)"/>
  <path d="M231,-58 c32,0 58,26 58,58 c0,32 -26,58 -58,58 c-32,0 -58,-26 -58,-58 c0,-32 26,-58 58,-58 Z M58,-58 c32,0 58,26 58,58 c0,32 -26,58 -58,58 c-32,0 -58,-26 -58,-58 c0,-32 26,-58 58,-58 Z" fill="#000000" transform="matrix(1,0,0,-1,5487.5,4012)"/>
  <path d="M393,-200 h141.3342 l-265.3336,465.3337 c-21.6662,37.6658 -16.3331,78.9984 5.3327,97.9982 l210.3325,-363.3319 h142.3342 l-339,591 c0,-52 -24,-68 -65,-98 c-81,-60 -142.3333,-148 -61,-290 l231,-403 Z M537.3331,0 h162.6669 v126.6675 h-162.6669 v-126.6675 Z M25,-200 h400.3329 l-60,126.6675 h-172.3324 c-24,0 -55,13 -68,40 l-100.0005,-166.6675 Z" fill="#000000" transform="matrix(1,0,0,-1,5392.5,3712)"/>
  <path d="M-20,0 h252.9996 l-52.9996,126.6675 h-200 v-126.6675 Z M230.6663,0 c89.3336,0 162.3337,73.0002 162.3337,163.3337 c0,90.3336 -73.0002,163.3337 -162.3337,163.3337 c-89.3336,0 -164.0004,-73.6669 -164.0004,-163.3337 c0,-89.6669 74.6669,-163.3337 164.0004,-163.3337 Z M230.6663,126.6675 c-20.6664,0 -37.3329,15.9998 -37.3329,36.6663 c0,20.6664 16.6665,36.6663 37.3329,36.6663 c20.6664,0 35.9996,-15.9998 35.9996,-36.6663 c0,-20.6664 -15.3331,-36.6663 -35.9996,-36.6663 Z" fill="#000000" transform="matrix(1,0,0,-1,6072.5,3712)"/>
  <path d="M25,0 h780 c0,0 40,-2 40,23 c0,120 17,303.6675 -216.6675,303.6675 h-387.332 l52,113 l-10,7 l-148.0005,-246.6675 h493.3325 c75,0 91,-30.6663 90,-73.3325 h-617.332 l-76.0005,-126.6675 Z" fill="#000000" transform="matrix(1,0,0,-1,6490.5,3712)"/>
  <path d="" fill="#000000" transform="matrix(1,0,0,-1,7360.5,3712)"/>
  <path d="M101.0005,200 h126.6675 v600 l-126.6675,-28.0002 v-571.9998 Z M789,0 h196 v126.6675 h-196 v-126.6675 Z M25,0 h800 c0,0 40,-2 40,23 c0,120 17,303.6675 -216.6675,303.6675 h-538.3325 v-126.6675 h538.3325 c75,0 91,-30.6663 90,-73.3325 h-637.332 l-76.0005,-126.6675 Z" fill="#000000" transform="matrix(1,0,0,-1,7490.5,3712)"/>
  <path d="M58,-58 c32,0 58,26 58,58 c0,32 -26,58 -58,58 c-32,0 -58,-26 -58,-58 c0,-32 26,-58 58,-58 Z" fill="#000000" transform="matrix(1,0,0,-1,8634.5,3112)"/>
  <path d="M340,0 h180 v126.6675 h-180 v-126.6675 Z M-20,0 h380 c0,0 40,-2 40,23 v303.6675 l-126.6675,-72 v-128 h-293.3325 v-126.6675 Z M237.6663,163.3337 c89.3336,0 162.3337,73.0002 162.3337,163.3337 c0,90.3336 -73.0002,163.3337 -162.3337,163.3337 c-89.3336,0 -164.0004,-73.6669 -164.0004,-163.3337 c0,-89.6669 74.6669,-163.3337 164.0004,-163.3337 Z M237.6663,290.0012 c-20.6664,0 -37.3329,15.9998 -37.3329,36.6663 c0,20.6664 16.6665,36.6663 37.3329,36.6663 c20.6664,0 35.9996,-15.9998 35.9996,-36.6663 c0,-20.6664 -15.3331,-36.6663 -35.9996,-36.6663 Z" fill="#000000" transform="matrix(1,0,0,-1,8455.5,3712)"/>
  <path d="M-20,0 h580 c0,0 40,-2 40,23 v303.6675 l-126.6675,-28.0002 v-171.9998 h-73.3325 v200 l-126.6675,-28.0002 v-171.9998 h-73.3325 v200 l-126.6675,-28.0002 v-171.9998 h-93.3325 v-126.6675 Z" fill="#000000" transform="matrix(1,0,0,-1,8955.5,3712)"/>
  <path d="" fill="#000000" transform="matrix(1,0,0,-1,9580.5,3712)"/>
  <path d="M395,0 h170 v126.6675 h-170 v-126.6675 Z M318.3325,40 l126.6675,-40 v800 l-126.6675,-28.0002 v-731.9998 Z M216,-200 c151,0 228,87 229,200 v326.6675 l-126.6675,-28.0002 v-258.6673 c0,-111 -28.3334,-183 -114.3329,-183 c-89.3323,0 -141.6661,64.9999 -141.6661,142.3333 c0,36.3333 14.6666,63.3326 39.9995,73.3328 c18,8.6669 37.3336,8.0003 57.6669,-8.9999 c6,23 -8,61.3337 -29,71.3337 c19,25 23,47 20,72 c-63,-40 -126,-119 -126,-207 c0,-62 28,-200 191,-200 Z" fill="#000000" transform="matrix(1,0,0,-1,9710.5,3712)"/>
  <path d="M-20,0 h620 l60,126.6675 h-264.0006 c-73.9993,0 -178.3328,85.6669 -250.9996,198.0002 l-62.6669,-121.0004 c17.3334,-30.0001 39.9997,-60.3331 60.6661,-76.9998 h-162.9991 v-126.6675 Z" fill="#000000" transform="matrix(1,0,0,-1,10255.5,3712)"/>
  <path d="M73,9 h151 l-1,41 h-26 c-25,0 -62,-1 -62,39 c0,7 -1,39 32,48 c19,5 52,-5 60,-9 c-13,31 -45,40 -63,40 c-52,0 -74,-29 -85,-69 c-5,-20 -6,-32 -6,-57 v-33 Z M0,0 h240 l30,50 h-240 l-30,-50 Z" fill="#000000" transform="matrix(1,0,0,-1,10958.5,2862)"/>
  <path d="M339.6675,72 c-109,-54 -188,-5.6663 -188,54.6675 v673.3325 l-126.6675,-28.0002 v-658.6661 c0,-152.6671 247.6675,-148.3337 314.6675,-41.3337 Z" fill="#000000" transform="matrix(1,0,0,-1,10940.5,3712)"/>
  <path d="" fill="#000000" transform="matrix(1,0,0,-1,11280.5,3712)"/>
  <path d="" fill="#000000" transform="matrix(1,0,0,-1,11410.5,3712)"/>
  <path d="" fill="#000000" transform="matrix(1,0,0,-1,11540.5,3712)"/>
  <path d="M-50,-181 c55,-54 201.6675,-15.6669 201.6675,94.3337 v178.6663 l-126.6675,72.0004 v-250.6667 c0,-77.3337 -69,-94.3337 -75,-94.3337 Z M190.6672,0 h248.3328 v126.6675 h-200 l-48.3328,-126.6675 Z M188.6671,0 c89.3336,0 162.0004,73.0002 162.0004,163.3337 c0,71.6668 -47.0001,134.667 -113.0003,155.6671 c-20.6669,7.6667 -34.6667,16.3333 -49.6668,63.6669 c-13.3334,-46.6669 -26.9999,-57.3335 -46.3334,-62.6669 c-67.6669,-21.0001 -116.667,-84.0002 -116.667,-156.6671 c0,-90.3336 74.3336,-163.3337 163.6671,-163.3337 Z M188.6671,126.6675 c-20.6664,0 -37.3329,15.9998 -37.3329,36.6663 c0,20.6664 16.6665,36.6663 37.3329,36.6663 c20.6664,0 35.9996,-15.9998 35.9996,-36.6663 c0,-20.6664 -15.3331,-36.6663 -35.9996,-36.6663 Z" fill="#000000" transform="matrix(1,0,0,-1,11670.5,3712)"/>
  <path d="M100,0 h220 v126.6675 h-220 v-126.6675 Z M-20,0 h180 c0,0 40,-2 40,23 v777 l-126.6675,-28.0002 v-645.3323 h-93.3325 v-126.6675 Z" fill="#000000" transform="matrix(1,0,0,-1,12089.5,3712)"/>
  <path d="M-20,0 h340 v126.6675 h-340 v-126.6675 Z" fill="#000000" transform="matrix(1,0,0,-1,12389.5,3712)"/>
  <path d="M-20,126.6675 v-126.6675 h543.3347 v126.6675 h-543.3347 Z M306.9999,312.3325 l-114.999,-202.9982 l110.0007,-61.3337 l200.3329,351.9993 h-504.3347 l199.9996,-351.9993 l110.334,61.3337 l-115.999,202.9982 l-23,-39 h160.6653 l-23,39 Z" fill="#000000" transform="matrix(1,0,0,-1,12689.5,3712)"/>
  <path d="M-20,0 h180 c0,0 40,-2 40,23 v777 l-126.6675,-28.0002 v-645.3323 h-93.3325 v-126.6675 Z" fill="#000000" transform="matrix(1,0,0,-1,13192.5,3712)"/>
  <path d="M339.6675,72 c-109,-54 -188,-5.6663 -188,54.6675 v673.3325 l-126.6675,-28.0002 v-658.6661 c0,-152.6671 247.6675,-148.3337 314.6675,-41.3337 Z" fill="#000000" transform="matrix(1,0,0,-1,13417.5,3712)"/>
  <path d="" fill="#000000" transform="matrix(1,0,0,-1,13757.5,3712)"/>
  <path d="M53.0004,-132 c66,-94 298.3337,-87.6667 298.3337,103.3337 v192 l-126.6675,-35.3337 v-180 c0,-34.3326 -18.6663,-121 -171.6663,-80 Z M351.3342,163.3337 v216.0006 c-27,-52 -127.3337,-52.6669 -162.3337,-52.6669 l162.3337,-163.3337 Z M189.0004,0 c89.3336,0 162.3337,73.0002 162.3337,163.3337 c0,90.3336 -73.0002,163.3337 -162.3337,163.3337 c-89.3336,0 -164.0004,-73.6669 -164.0004,-163.3337 c0,-89.6669 74.6669,-163.3337 164.0004,-163.3337 Z M189.0004,126.6675 c-20.6664,0 -37.3329,15.9998 -37.3329,36.6663 c0,20.6664 16.6665,36.6663 37.3329,36.6663 c20.6664,0 35.9996,-15.9998 35.9996,-36.6663 c0,-20.6664 -15.3331,-36.6663 -35.9996,-36.6663 Z" fill="#000000" transform="matrix(1,0,0,-1,13887.5,3712)"/>
  <path d="" fill="#000000" transform="matrix(1,0,0,-1,14263.5,3712)"/>
  <path d="M58,-58 c32,0 58,26 58,58 c0,32 -26,58 -58,58 c-32,0 -58,-26 -58,-58 c0,-32 26,-58 58,-58 Z" fill="#000000" transform="matrix(1,0,0,-1,14565.5,3312)"/>
  <path d="M222.3334,-204 c114.3328,0 212.6666,79.9995 212.6666,209 c0,117 -48,195 -98,257 l-62.667,-125.334 c20,-28.6668 48.3329,-78.3333 49.6662,-125.9996 c1.6666,-84.3337 -53.334,-143.3329 -129.3332,-143.3329 c-77.9989,0 -132.3325,50.3328 -132.3325,132.6666 c0,40.3334 22.0001,77.9998 54.6666,79.333 c14.6666,0.6666 27.3333,-4.0001 42.9998,-15.0001 c5.3333,20.9999 -7.3333,60.0004 -29,70.6671 c16.9999,22.3333 23,46.3333 20,72 c-63,-40 -126,-119 -126,-207 c0,-112.6682 78.3345,-204 197.3334,-204 Z" fill="#000000" transform="matrix(1,0,0,-1,14393.5,3712)"/>
  <path d="M65,0 h180 v126.6675 h-93.3325 v673.3325 l-126.6675,-28.0002 v-748.9998 c0,-25 40,-23 40,-23 Z" fill="#000000" transform="matrix(1,0,0,-1,14853.5,3712)"/>
  <path d="M-20,0 h340 v126.6675 h-340 v-126.6675 Z" fill="#000000" transform="matrix(1,0,0,-1,15078.5,3712)"/>
  <path d="M-20,0 h340 v126.6675 h-340 v-126.6675 Z" fill="#000000" transform="matrix(1,0,0,-1,15378.5,3712)"/>
  <path d="M58,-58 c32,0 58,26 58,58 c0,32 -26,58 -58,58 c-32,0 -58,-26 -58,-58 c0,-32 26,-58 58,-58 Z" fill="#000000" transform="matrix(1,0,0,-1,15703.5,3862)"/>
  <path d="M100,0 h220 v126.6675 h-220 v-126.6675 Z M-20,0 h180 c0,0 40,-2 40,23 v303.6675 l-126.6675,-28.0002 v-171.9998 h-93.3325 v-126.6675 Z" fill="#000000" transform="matrix(1,0,0,-1,15678.5,3712)"/>
  <path d="M-20,0 h180 c0,0 40,-2 40,23 v777 l-126.6675,-28.0002 v-645.3323 h-93.3325 v-126.6675 Z" fill="#000000" transform="matrix(1,0,0,-1,15978.5,3712)"/>
  <path d="M339.6675,72 c-109,-54 -188,-5.6663 -188,54.6675 v673.3325 l-126.6675,-28.0002 v-658.6661 c0,-152.6671 247.6675,-148.3337 314.6675,-41.3337 Z" fill="#000000" transform="matrix(1,0,0,-1,16203.5,3712)"/>
  <path d="" fill="#000000" transform="matrix(1,0,0,-1,16543.5,3712)"/>
  <path d="M58,-58 c32,0 58,26 58,58 c0,32 -26,58 -58,58 c-32,0 -58,-26 -58,-58 c0,-32 26,-58 58,-58 Z" fill="#000000" transform="matrix(1,0,0,-1,16845.5,3312)"/>
  <path d="M364,0 h146 v126.6675 h-146 v-126.6675 Z M222.3334,-204 c114.3328,0 212.6666,79.9995 212.6666,209 c0,117 -48,195 -98,257 l-62.667,-125.334 c20,-28.6668 48.3329,-78.3333 49.6662,-125.9996 c1.6666,-84.3337 -53.334,-143.3329 -129.3332,-143.3329 c-77.9989,0 -132.3325,50.3328 -132.3325,132.6666 c0,40.3334 22.0001,77.9998 54.6666,79.333 c14.6666,0.6666 27.3333,-4.0001 42.9998,-15.0001 c5.3333,20.9999 -7.3333,60.0004 -29,70.6671 c16.9999,22.3333 23,46.3333 20,72 c-63,-40 -126,-119 -126,-207 c0,-112.6682 78.3345,-204 197.3334,-204 Z" fill="#000000" transform="matrix(1,0,0,-1,16673.5,3712)"/>
  <path d="M231,-58 c32,0 58,26 58,58 c0,32 -26,58 -58,58 c-32,0 -58,-26 -58,-58 c0,-32 26,-58 58,-58 Z M58,-58 c32,0 58,26 58,58 c0,32 -26,58 -58,58 c-32,0 -58,-26 -58,-58 c0,-32 26,-58 58,-58 Z" fill="#000000" transform="matrix(1,0,0,-1,17101.5,3862)"/>
  <path d="M100,0 h220 v126.6675 h-220 v-126.6675 Z M73.3325,210 h126.6675 v186.6675 l-126.6675,-28.0002 v-158.6673 Z M-20,0 h180 c0,0 40,-2 40,23 v303.6675 l-126.6675,-28.0002 v-171.9998 h-93.3325 v-126.6675 Z" fill="#000000" transform="matrix(1,0,0,-1,17163.5,3712)"/>
  <path d="M58,-58 c32,0 58,26 58,58 c0,32 -26,58 -58,58 c-32,0 -58,-26 -58,-58 c0,-32 26,-58 58,-58 Z" fill="#000000" transform="matrix(1,0,0,-1,17488.5,3862)"/>
  <path d="M-20,0 h180 c0,0 40,-2 40,23 v303.6675 l-126.6675,-28.0002 v-171.9998 h-93.3325 v-126.6675 Z" fill="#000000" transform="matrix(1,0,0,-1,17463.5,3712)"/>
  <path d="" fill="#000000" transform="matrix(1,0,0,-1,17688.5,3712)"/>
  <path d="M138.6669,-200 c76,-23.6667 198.0002,-2 244.0002,53 c-64,-22 -230.6663,-33 -230.6663,75 c0,47.6669 46,72 71.3333,72 h69.3329 l60,126.6675 h-112.6661 c-57.6672,0 -95.0002,30.9999 -95.0002,70.6663 c0,26.3331 23.3332,52.9996 49.6663,56.6663 c25.9999,5 59.3332,-5 90.9999,-30 c-10.6663,40.3331 -52.3329,89.3337 -114,89.3337 c-129.6671,0 -201.6671,-173.6667 -101.6671,-264.0002 c-21.9999,-28.0001 -39.3331,-59.3336 -39.3331,-108.3336 c0,-73 51,-123 108,-141 Z" fill="#000000" transform="matrix(1,0,0,-1,17818.5,3712)"/>
  <path d="M65,0 h180 v126.6675 h-93.3325 v673.3325 l-126.6675,-28.0002 v-748.9998 c0,-25 40,-23 40,-23 Z" fill="#000000" transform="matrix(1,0,0,-1,18201.5,3712)"/>
  <path d="M-20,0 h340 v126.6675 h-340 v-126.6675 Z" fill="#000000" transform="matrix(1,0,0,-1,18426.5,3712)"/>
  <path d="M-20,0 h340 v126.6675 h-340 v-126.6675 Z" fill="#000000" transform="matrix(1,0,0,-1,18726.5,3712)"/>
  <path d="M231,-58 c32,0 58,26 58,58 c0,32 -26,58 -58,58 c-32,0 -58,-26 -58,-58 c0,-32 26,-58 58,-58 Z M58,-58 c32,0 58,26 58,58 c0,32 -26,58 -58,58 c-32,0 -58,-26 -58,-58 c0,-32 26,-58 58,-58 Z" fill="#000000" transform="matrix(1,0,0,-1,19118.5,3112)"/>
  <path d="M340,0 h180 v126.6675 h-180 v-126.6675 Z M-20,0 h380 c0,0 40,-2 40,23 v303.6675 l-126.6675,-72 v-128 h-293.3325 v-126.6675 Z M237.6663,163.3337 c89.3336,0 162.3337,73.0002 162.3337,163.3337 c0,90.3336 -73.0002,163.3337 -162.3337,163.3337 c-89.3336,0 -164.0004,-73.6669 -164.0004,-163.3337 c0,-89.6669 74.6669,-163.3337 164.0004,-163.3337 Z M237.6663,290.0012 c-20.6664,0 -37.3329,15.9998 -37.3329,36.6663 c0,20.6664 16.6665,36.6663 37.3329,36.6663 c20.6664,0 35.9996,-15.9998 35.9996,-36.6663 c0,-20.6664 -15.3331,-36.6663 -35.9996,-36.6663 Z" fill="#000000" transform="matrix(1,0,0,-1,19026.5,3712)"/>
  <path d="M-20,0 h180 c0,0 40,-2 40,23 v777 l-126.6675,-28.0002 v-645.3323 h-93.3325 v-126.6675 Z" fill="#000000" transform="matrix(1,0,0,-1,19526.5,3712)"/>
  <path d="M339.6675,72 c-109,-54 -188,-5.6663 -188,54.6675 v673.3325 l-126.6675,-28.0002 v-658.6661 c0,-152.6671 247.6675,-148.3337 314.6675,-41.3337 Z" fill="#000000" transform="matrix(1,0,0,-1,19751.5,3712)"/>
  <path d="" fill="#000000" transform="matrix(1,0,0,-1,20091.5,3712)"/>
  <path d="M318,0 h142.3342 l-151.3336,265.3337 c-21.6662,37.6658 -16.3331,78.9984 5.3327,97.9982 l210.3325,-363.3319 h142.3342 l-339,591 c0,-52 -24,-68 -65,-98 c-81,-60 -142,-148 -61,-290 l116,-203 Z M25,0 h353.6666 l-59.3334,126.6675 h-126.3328 c-24,0 -55,13 -68,40 l-100.0005,-166.6675 Z M577.3331,0 h162.6669 v126.6675 h-162.6669 v-126.6675 Z" fill="#000000" transform="matrix(1,0,0,-1,20221.5,3712)"/>
  <path d="M100,0 h220 v126.6675 h-220 v-126.6675 Z M-20,0 h180 c0,0 40,-2 40,23 v777 l-126.6675,-28.0002 v-645.3323 h-93.3325 v-126.6675 Z" fill="#000000" transform="matrix(1,0,0,-1,20941.5,3712)"/>
  <path d="M-33.3337,0 h484.0004 l59.3333,126.6675 h-240 c-33.9998,0 -53.9997,21.9999 -73.6664,44.6666 c-10.6666,12.6667 -12.9999,35.6666 -5.3333,49.9999 c15.3334,28.3332 51.9999,60.3332 142.6669,102 l-7,9 c-167.3335,-39.3329 -232.0006,-71.6657 -260.001,-115.3329 c-17.3335,-26.6669 -12.0001,-68.3334 3.3329,-90.3336 h-103.3329 v-126.6675 Z" fill="#000000" transform="matrix(1,0,0,-1,21241.5,3712)"/>
  <path d="" fill="#000000" transform="matrix(1,0,0,-1,21776.5,3712)"/>
  <path d="M-50,-181 c55,-54 201.6675,-15.6669 201.6675,94.3337 v178.6663 l-126.6675,72.0004 v-250.6667 c0,-77.3337 -69,-94.3337 -75,-94.3337 Z M190.6672,0 h248.3328 v126.6675 h-200 l-48.3328,-126.6675 Z M188.6671,0 c89.3336,0 162.0004,73.0002 162.0004,163.3337 c0,71.6668 -47.0001,134.667 -113.0003,155.6671 c-20.6669,7.6667 -34.6667,16.3333 -49.6668,63.6669 c-13.3334,-46.6669 -26.9999,-57.3335 -46.3334,-62.6669 c-67.6669,-21.0001 -116.667,-84.0002 -116.667,-156.6671 c0,-90.3336 74.3336,-163.3337 163.6671,-163.3337 Z M188.6671,126.6675 c-20.6664,0 -37.3329,15.9998 -37.3329,36.6663 c0,20.6664 16.6665,36.6663 37.3329,36.6663 c20.6664,0 35.9996,-15.9998 35.9996,-36.6663 c0,-20.6664 -15.3331,-36.6663 -35.9996,-36.6663 Z" fill="#000000" transform="matrix(1,0,0,-1,21906.5,3712)"/>
  <path d="M231,-58 c32,0 58,26 58,58 c0,32 -26,58 -58,58 c-32,0 -58,-26 -58,-58 c0,-32 26,-58 58,-58 Z M58,-58 c32,0 58,26 58,58 c0,32 -26,58 -58,58 c-32,0 -58,-26 -58,-58 c0,-32 26,-58 58,-58 Z" fill="#000000" transform="matrix(1,0,0,-1,22263.5,3862)"/>
  <path d="M-20,0 h180 c0,0 40,-2 40,23 v303.6675 l-126.6675,-28.0002 v-171.9998 h-93.3325 v-126.6675 Z" fill="#000000" transform="matrix(1,0,0,-1,22325.5,3712)"/>
  <path d="M-85,-150 c66,-94 285,-87 285,90 v386.6675 l-126.6675,-28.0002 v-362.0004 c0,-63.6669 -28.6666,-121 -158.3325,-86.6669 Z" fill="#000000" transform="matrix(1,0,0,-1,22650.5,3712)"/>
  <path d="M25,0 h407.6671 l-60,113.3325 h-187.6676 c-24,0 -55,13 -68,40 l-91.9995,-153.3325 Z M432.6671,0 c85.6664,0 155.3329,69.9998 155.3329,156.6663 c0,81.9996 -42.9999,149.9996 -137.9995,208.6661 c-10.3334,-11.3334 -25.9998,-27.6664 -32.9998,-52.6664 c-75.0001,-7.3332 -140.6666,-72.3333 -140.6666,-155.9996 c0,-86.3331 70.6664,-156.6663 156.3329,-156.6663 Z M432.6671,113.3325 c-24.3336,0 -43.6671,19.0002 -43.6671,43.3337 c0,24.3336 19.3335,43.3337 43.6671,43.3337 c24.3336,0 43.0004,-19.0002 43.0004,-43.3337 c0,-24.3336 -18.6669,-43.3337 -43.0004,-43.3337 Z" fill="#000000" transform="matrix(1,0,0,-1,86,2236)"/>
  <path d="M174,0 h146 v113.3325 h-146 v-113.3325 Z M-85,-150 c66,-94 285,-87 285,90 v373.3325 l-113.3325,-24.9998 v-354.9996 c0,-60.3331 -30.3334,-121 -171.6675,-83.3331 Z" fill="#000000" transform="matrix(1,0,0,-1,699,2236)"/>
  <path d="M-20,0 h620 l60,113.3325 h-253.9994 c-85.0007,0 -186.6672,82.3331 -258.0004,193.9998 l-59.3331,-113.9996 c16.6666,-27.9999 45.0003,-63.6669 69.3339,-80.0002 h-178.0009 v-113.3325 Z" fill="#000000" transform="matrix(1,0,0,-1,999,2236)"/>
  <path d="M-435,165 c10.3332,-3.6666 40.6664,-11.6666 68.6663,-11.6666 c53.9998,0 114.6663,26.6666 114.6663,146.6666 v500 l-113.3325,-24.9998 v-499.0002 c0,-58 -4,-102 -70,-111 Z" fill="#000000" transform="matrix(1,0,0,-1,1684,2236)"/>
  <path d="M233.3325,58 c-25,-12 -95,-25 -95,28.6663 v713.3337 l-113.3325,-24.9998 v-688.3339 c0,-129.9994 187.3325,-103.6663 208.3325,-28.6663 Z" fill="#000000" transform="matrix(1,0,0,-1,1684,2236)"/>
  <path d="" fill="#000000" transform="matrix(1,0,0,-1,1917,2236)"/>
  <path d="M174,0 h146 v113.3325 h-146 v-113.3325 Z M-85,-150 c66,-94 285,-87 285,90 v373.3325 l-113.3325,-24.9998 v-354.9996 c0,-60.3331 -30.3334,-121 -171.6675,-83.3331 Z" fill="#000000" transform="matrix(1,0,0,-1,2047,2236)"/>
  <path d="M245,0 h262 v113.3325 h-197 l-65,-113.3325 Z M81.3342,-46.6669 h14 v206.6663 h-14 v-206.6663 Z M-20,0 h265 l-65,113.3325 h-200 v-113.3325 Z M350,-46.6669 h44 v206.6663 h-44 v-206.6663 Z M238.3337,-203.3331 c85.6664,0 155.6663,69.9998 155.6663,156.6663 c0,86.6664 -69.9998,156.6663 -155.6663,156.6663 c-85.6664,0 -156.9996,-70.3331 -156.9996,-156.6663 c0,-86.3331 71.3331,-156.6663 156.9996,-156.6663 Z M238.3337,-90.0006 c-24.3336,0 -43.6671,19.0002 -43.6671,43.3337 c0,24.3336 19.3335,43.3337 43.6671,43.3337 c24.3336,0 43.0004,-19.0002 43.0004,-43.3337 c0,-24.3336 -18.6669,-43.3337 -43.0004,-43.3337 Z M394,159.9994 v205.9994 c-27,-52 -120.6663,-49.3331 -155.6663,-49.3331 l155.6663,-156.6663 Z M238.3337,3.3331 c85.6664,0 155.6663,69.9998 155.6663,156.6663 c0,86.6664 -69.9998,156.6663 -155.6663,156.6663 c-85.6664,0 -156.9996,-70.3331 -156.9996,-156.6663 c0,-86.3331 71.3331,-156.6663 156.9996,-156.6663 Z M238.3337,116.6656 c-24.3336,0 -43.6671,19.0002 -43.6671,43.3337 c0,24.3336 19.3335,43.3337 43.6671,43.3337 c24.3336,0 43.0004,-19.0002 43.0004,-43.3337 c0,-24.3336 -18.6669,-43.3337 -43.0004,-43.3337 Z" fill="#000000" transform="matrix(1,0,0,-1,2347,2236)"/>
  <path d="M145,92 c32,0 58,26 58,58 c0,32 -26,58 -58,58 c-32,0 -58,-26 -58,-58 c0,-32 26,-58 58,-58 Z M231,-58 c32,0 58,26 58,58 c0,32 -26,58 -58,58 c-32,0 -58,-26 -58,-58 c0,-32 26,-58 58,-58 Z M58,-58 c32,0 58,26 58,58 c0,32 -26,58 -58,58 c-32,0 -58,-26 -58,-58 c0,-32 26,-58 58,-58 Z" fill="#000000" transform="matrix(1,0,0,-1,3034,1673)"/>
  <path d="M-20,0 h580 c0,0 40,-2 40,23 v290.3325 l-113.3325,-24.9998 v-175.0002 h-86.6675 v200 l-113.3325,-24.9998 v-175.0002 h-86.6675 v200 l-113.3325,-24.9998 v-175.0002 h-106.6675 v-113.3325 Z" fill="#000000" transform="matrix(1,0,0,-1,2834,2236)"/>
  <path d="M73,9 h151 l-1,41 h-26 c-25,0 -62,-1 -62,39 c0,7 -1,39 32,48 c19,5 52,-5 60,-9 c-13,31 -45,40 -63,40 c-52,0 -74,-29 -85,-69 c-5,-20 -6,-32 -6,-57 v-33 Z M0,0 h240 l30,50 h-240 l-30,-50 Z" fill="#000000" transform="matrix(1,0,0,-1,3414,1386)"/>
  <path d="M138.3325,93.3337 v706.6663 l-113.3325,-24.9998 v-625.0002 l113.3325,-56.6663 Z" fill="#000000" transform="matrix(1,0,0,-1,3459,2236)"/>
  <path d="M181.9996,-6.6663 c85.6664,0 156.3329,69.9998 156.3329,156.6663 h-113.3325 c0,-24.3336 -18.6669,-43.3337 -43.0004,-43.3337 c-24.3336,0 -43.6671,19.0002 -43.6671,43.3337 h-113.3325 c0,-86.3331 71.3331,-156.6663 156.9996,-156.6663 Z M225,100 l113.3325,50 v625.0002 l-113.3325,24.9998 v-700 Z M181.9996,-206.6663 c85.6664,0 155.6663,69.9998 155.6663,156.6663 c0,86.6664 -69.9998,156.6663 -155.6663,156.6663 c-85.6664,0 -156.9996,-70.3331 -156.9996,-156.6663 c0,-86.3331 71.3331,-156.6663 156.9996,-156.6663 Z M181.9996,-93.3337 c-24.3336,0 -43.6671,19.0002 -43.6671,43.3337 c0,24.3336 19.3335,43.3337 43.6671,43.3337 c24.3336,0 43.0004,-19.0002 43.0004,-43.3337 c0,-24.3336 -18.6669,-43.3337 -43.0004,-43.3337 Z" fill="#000000" transform="matrix(1,0,0,-1,3459,2236)"/>
  <path d="M233.3325,58 c-25,-12 -95,-25 -95,28.6663 v713.3337 l-113.3325,-24.9998 v-688.3339 c0,-129.9994 187.3325,-103.6663 208.3325,-28.6663 Z" fill="#000000" transform="matrix(1,0,0,-1,3822,2236)"/>
  <path d="" fill="#000000" transform="matrix(1,0,0,-1,4055,2236)"/>
  <path d="M231,-58 c32,0 58,26 58,58 c0,32 -26,58 -58,58 c-32,0 -58,-26 -58,-58 c0,-32 26,-58 58,-58 Z M58,-58 c32,0 58,26 58,58 c0,32 -26,58 -58,58 c-32,0 -58,-26 -58,-58 c0,-32 26,-58 58,-58 Z" fill="#000000" transform="matrix(1,0,0,-1,4280,2536)"/>
  <path d="M393,-200 h127.6658 l-261.6664,458.6663 c-29.3338,51.3342 -19.6669,105.0016 15.6673,128.0018 l223.6675,-386.6681 h128.6658 l-339,591 c0,-52 -24,-68 -65,-98 c-81,-60 -142.6667,-148 -61,-290 l231,-403 Z M540.6669,0 h159.3331 v113.3325 h-159.3331 v-113.3325 Z M25,-200 h407.6671 l-60,113.3325 h-187.6676 c-24,0 -55,13 -68,40 l-91.9995,-153.3325 Z" fill="#000000" transform="matrix(1,0,0,-1,4185,2236)"/>
  <path d="M58,-58 c32,0 58,26 58,58 c0,32 -26,58 -58,58 c-32,0 -58,-26 -58,-58 c0,-32 26,-58 58,-58 Z" fill="#000000" transform="matrix(1,0,0,-1,5050,1636)"/>
  <path d="M-20,0 h380 c0,0 40,-2 40,23 v290.3325 l-113.3325,-72 v-128 h-306.6675 v-113.3325 Z M244.3337,156.6663 c85.6664,0 155.6663,69.9998 155.6663,156.6663 c0,86.6664 -69.9998,156.6663 -155.6663,156.6663 c-85.6664,0 -156.9996,-70.3331 -156.9996,-156.6663 c0,-86.3331 71.3331,-156.6663 156.9996,-156.6663 Z M244.3337,269.9988 c-24.3336,0 -43.6671,19.0002 -43.6671,43.3337 c0,24.3336 19.3335,43.3337 43.6671,43.3337 c24.3336,0 43.0004,-19.0002 43.0004,-43.3337 c0,-24.3336 -18.6669,-43.3337 -43.0004,-43.3337 Z" fill="#000000" transform="matrix(1,0,0,-1,4865,2236)"/>
  <path d="" fill="#000000" transform="matrix(1,0,0,-1,5290,2236)"/>
  <path d="M231,-58 c32,0 58,26 58,58 c0,32 -26,58 -58,58 c-32,0 -58,-26 -58,-58 c0,-32 26,-58 58,-58 Z M58,-58 c32,0 58,26 58,58 c0,32 -26,58 -58,58 c-32,0 -58,-26 -58,-58 c0,-32 26,-58 58,-58 Z" fill="#000000" transform="matrix(1,0,0,-1,5515,2536)"/>
  <path d="M393,-200 h127.6658 l-261.6664,458.6663 c-29.3338,51.3342 -19.6669,105.0016 15.6673,128.0018 l223.6675,-386.6681 h128.6658 l-339,591 c0,-52 -24,-68 -65,-98 c-81,-60 -142.6667,-148 -61,-290 l231,-403 Z M540.6669,0 h159.3331 v113.3325 h-159.3331 v-113.3325 Z M25,-200 h407.6671 l-60,113.3325 h-187.6676 c-24,0 -55,13 -68,40 l-91.9995,-153.3325 Z" fill="#000000" transform="matrix(1,0,0,-1,5420,2236)"/>
  <path d="M-20,0 h259.0004 l-59.0004,113.3325 h-200 v-113.3325 Z M237.3337,0 c85.6664,0 155.6663,69.9998 155.6663,156.6663 c0,86.6664 -69.9998,156.6663 -155.6663,156.6663 c-85.6664,0 -156.9996,-70.3331 -156.9996,-156.6663 c0,-86.3331 71.3331,-156.6663 156.9996,-156.6663 Z M237.3337,113.3325 c-24.3336,0 -43.6671,19.0002 -43.6671,43.3337 c0,24.3336 19.3335,43.3337 43.6671,43.3337 c24.3336,0 43.0004,-19.0002 43.0004,-43.3337 c0,-24.3336 -18.6669,-43.3337 -43.0004,-43.3337 Z" fill="#000000" transform="matrix(1,0,0,-1,6100,2236)"/>
  <path d="M25,0 h780 c0,0 40,-2 40,23 c0,120 17,290.3325 -203.3325,290.3325 h-408.668 l52,113 l-10,7 l-139.9995,-233.3325 h506.6675 c75,0 91,-37.3337 90,-86.6675 h-638.668 l-67.9995,-113.3325 Z" fill="#000000" transform="matrix(1,0,0,-1,6518,2236)"/>
  <path d="" fill="#000000" transform="matrix(1,0,0,-1,7388,2236)"/>
  <path d="M92.9995,200 h113.3325 v600 l-113.3325,-24.9998 v-575.0002 Z M789,0 h196 v113.3325 h-196 v-113.3325 Z M25,0 h800 c0,0 40,-2 40,23 c0,120 17,290.3325 -203.3325,290.3325 h-551.6675 v-113.3325 h551.6675 c75,0 91,-37.3337 90,-86.6675 h-658.668 l-67.9995,-113.3325 Z" fill="#000000" transform="matrix(1,0,0,-1,7518,2236)"/>
  <path d="M58,-58 c32,0 58,26 58,58 c0,32 -26,58 -58,58 c-32,0 -58,-26 -58,-58 c0,-32 26,-58 58,-58 Z" fill="#000000" transform="matrix(1,0,0,-1,8668,1636)"/>
  <path d="M340,0 h180 v113.3325 h-180 v-113.3325 Z M-20,0 h380 c0,0 40,-2 40,23 v290.3325 l-113.3325,-72 v-128 h-306.6675 v-113.3325 Z M244.3337,156.6663 c85.6664,0 155.6663,69.9998 155.6663,156.6663 c0,86.6664 -69.9998,156.6663 -155.6663,156.6663 c-85.6664,0 -156.9996,-70.3331 -156.9996,-156.6663 c0,-86.3331 71.3331,-156.6663 156.9996,-156.6663 Z M244.3337,269.9988 c-24.3336,0 -43.6671,19.0002 -43.6671,43.3337 c0,24.3336 19.3335,43.3337 43.6671,43.3337 c24.3336,0 43.0004,-19.0002 43.0004,-43.3337 c0,-24.3336 -18.6669,-43.3337 -43.0004,-43.3337 Z" fill="#000000" transform="matrix(1,0,0,-1,8483,2236)"/>
  <path d="M-20,0 h580 c0,0 40,-2 40,23 v290.3325 l-113.3325,-24.9998 v-175.0002 h-86.6675 v200 l-113.3325,-24.9998 v-175.0002 h-86.6675 v200 l-113.3325,-24.9998 v-175.0002 h-106.6675 v-113.3325 Z" fill="#000000" transform="matrix(1,0,0,-1,8983,2236)"/>
  <path d="" fill="#000000" transform="matrix(1,0,0,-1,9608,2236)"/>
  <path d="M395,0 h170 v113.3325 h-170 v-113.3325 Z M331.6675,40 l113.3325,-40 v800 l-113.3325,-24.9998 v-735.0002 Z M216,-200 c151,0 228,87 229,200 v313.3325 l-113.3325,-24.9998 v-248.3327 c0,-111 -27.6666,-183 -121.6671,-183 c-106.6677,0 -151.3339,66.0001 -151.3339,142.6667 c0,37.6667 16.3334,74.6674 48.0005,81.6672 c18,5.3331 33.6664,2.9997 53.3331,-11.0001 c6,23 -8,54.6663 -29,64.6663 c19,25 23,47 20,72 c-63,-40 -126,-119 -126,-207 c0,-62 28,-200 191,-200 Z" fill="#000000" transform="matrix(1,0,0,-1,9738,2236)"/>
  <path d="M-20,0 h620 l60,113.3325 h-253.9994 c-85.0007,0 -186.6672,82.3331 -258.0004,193.9998 l-59.3331,-113.9996 c16.6666,-27.9999 45.0003,-63.6669 69.3339,-80.0002 h-178.0009 v-113.3325 Z" fill="#000000" transform="matrix(1,0,0,-1,10283,2236)"/>
  <path d="M73,9 h151 l-1,41 h-26 c-25,0 -62,-1 -62,39 c0,7 -1,39 32,48 c19,5 52,-5 60,-9 c-13,31 -45,40 -63,40 c-52,0 -74,-29 -85,-69 c-5,-20 -6,-32 -6,-57 v-33 Z M0,0 h240 l30,50 h-240 l-30,-50 Z" fill="#000000" transform="matrix(1,0,0,-1,10980,1386)"/>
  <path d="M326.3325,72 c-109,-54 -188,-12.3337 -188,41.3325 v686.6675 l-113.3325,-24.9998 v-668.3339 c0,-145.3329 234.3325,-141.6663 301.3325,-34.6663 Z" fill="#000000" transform="matrix(1,0,0,-1,10968,2236)"/>
  <path d="" fill="#000000" transform="matrix(1,0,0,-1,11294,2236)"/>
  <path d="" fill="#000000" transform="matrix(1,0,0,-1,11424,2236)"/>
  <path d="" fill="#000000" transform="matrix(1,0,0,-1,11554,2236)"/>
  <path d="M-50,-181 c55,-54 188.3325,-12.3331 188.3325,87.6663 v185.3337 l-113.3325,64.9996 v-250.3333 c0,-70.6663 -69,-87.6663 -75,-87.6663 Z M182.3328,0 h256.6672 v113.3325 h-200 l-56.6672,-113.3325 Z M181.3329,0 c85.6664,0 154.9996,69.9998 154.9996,156.6663 c0,69.3332 -44.9999,129.333 -107.9997,149.3329 c-17.3331,6.3333 -34.3333,16.6667 -47.3332,60.3331 c-11.6666,-43.3331 -28.0001,-54.6665 -44.6666,-59.3331 c-64.3331,-19.9999 -111.333,-79.9998 -111.333,-150.3329 c0,-86.6664 70.6664,-156.6663 156.3329,-156.6663 Z M181.3329,113.3325 c-24.3336,0 -43.6671,19.0002 -43.6671,43.3337 c0,24.3336 19.3335,43.3337 43.6671,43.3337 c24.3336,0 43.0004,-19.0002 43.0004,-43.3337 c0,-24.3336 -18.6669,-43.3337 -43.0004,-43.3337 Z" fill="#000000" transform="matrix(1,0,0,-1,11684,2236)"/>
  <path d="M100,0 h220 v113.3325 h-220 v-113.3325 Z M-20,0 h180 c0,0 40,-2 40,23 v777 l-113.3325,-24.9998 v-661.6677 h-106.6675 v-113.3325 Z" fill="#000000" transform="matrix(1,0,0,-1,12103,2236)"/>
  <path d="M-20,0 h340 v113.3325 h-340 v-113.3325 Z" fill="#000000" transform="matrix(1,0,0,-1,12403,2236)"/>
  <path d="M-20,113.3325 v-113.3325 h521.6653 v113.3325 h-521.6653 Z M308.0001,325.6675 l-132.001,-233.0018 l97.9993,-55.6663 l206.6671,363.0007 h-481.6653 l206.0004,-363.0007 l98.666,55.6663 l-133.001,233.0018 l-23,-39 h183.3347 l-23,39 Z" fill="#000000" transform="matrix(1,0,0,-1,12703,2236)"/>
  <path d="M-20,0 h180 c0,0 40,-2 40,23 v777 l-113.3325,-24.9998 v-661.6677 h-106.6675 v-113.3325 Z" fill="#000000" transform="matrix(1,0,0,-1,13185,2236)"/>
  <path d="M326.3325,72 c-109,-54 -188,-12.3337 -188,41.3325 v686.6675 l-113.3325,-24.9998 v-668.3339 c0,-145.3329 234.3325,-141.6663 301.3325,-34.6663 Z" fill="#000000" transform="matrix(1,0,0,-1,13410,2236)"/>
  <path d="" fill="#000000" transform="matrix(1,0,0,-1,13736,2236)"/>
  <path d="M45.9996,-132 c66,-94 291.6663,-87.3333 291.6663,96.6663 v192 l-113.3325,-28.6663 v-180 c0,-45.6674 -25.3337,-121 -178.3337,-80 Z M337.6658,156.6663 v205.9994 c-27,-52 -120.6663,-49.3331 -155.6663,-49.3331 l155.6663,-156.6663 Z M181.9996,0 c85.6664,0 155.6663,69.9998 155.6663,156.6663 c0,86.6664 -69.9998,156.6663 -155.6663,156.6663 c-85.6664,0 -156.9996,-70.3331 -156.9996,-156.6663 c0,-86.3331 71.3331,-156.6663 156.9996,-156.6663 Z M181.9996,113.3325 c-24.3336,0 -43.6671,19.0002 -43.6671,43.3337 c0,24.3336 19.3335,43.3337 43.6671,43.3337 c24.3336,0 43.0004,-19.0002 43.0004,-43.3337 c0,-24.3336 -18.6669,-43.3337 -43.0004,-43.3337 Z" fill="#000000" transform="matrix(1,0,0,-1,13866,2236)"/>
  <path d="" fill="#000000" transform="matrix(1,0,0,-1,14229,2236)"/>
  <path d="M58,-58 c32,0 58,26 58,58 c0,32 -26,58 -58,58 c-32,0 -58,-26 -58,-58 c0,-32 26,-58 58,-58 Z" fill="#000000" transform="matrix(1,0,0,-1,14531,1836)"/>
  <path d="M221.6666,-204 c123.6672,0 213.3334,88.0005 213.3334,209 c0,117 -48,195 -98,257 l-57.333,-114.666 c20,-26.3332 54.6671,-79.6667 57.3338,-132.0004 c3.3334,-77.6663 -42.666,-149.6671 -131.6668,-149.6671 c-96.0011,0 -146.6675,58.6672 -146.6675,134.3334 c0,39.6666 19.9999,82.0002 55.3334,84.667 c16.3334,1.3334 28.6667,-2.9999 46.0002,-13.9999 c5.6667,22.0001 -7.6667,53.9996 -29,64.3329 c18.0001,23.6667 23,46.6667 20,72 c-63,-40 -126,-119 -126,-207 c0,-87.3318 58.6655,-204 196.6666,-204 Z" fill="#000000" transform="matrix(1,0,0,-1,14359,2236)"/>
  <path d="M65,0 h180 v113.3325 h-106.6675 v686.6675 l-113.3325,-24.9998 v-752.0002 c0,-25 40,-23 40,-23 Z" fill="#000000" transform="matrix(1,0,0,-1,14819,2236)"/>
  <path d="M-20,0 h340 v113.3325 h-340 v-113.3325 Z" fill="#000000" transform="matrix(1,0,0,-1,15044,2236)"/>
  <path d="M-20,0 h340 v113.3325 h-340 v-113.3325 Z" fill="#000000" transform="matrix(1,0,0,-1,15344,2236)"/>
  <path d="M58,-58 c32,0 58,26 58,58 c0,32 -26,58 -58,58 c-32,0 -58,-26 -58,-58 c0,-32 26,-58 58,-58 Z" fill="#000000" transform="matrix(1,0,0,-1,15669,2386)"/>
  <path d="M100,0 h220 v113.3325 h-220 v-113.3325 Z M-20,0 h180 c0,0 40,-2 40,23 v290.3325 l-113.3325,-24.9998 v-175.0002 h-106.6675 v-113.3325 Z" fill="#000000" transform="matrix(1,0,0,-1,15644,2236)"/>
  <path d="M-20,0 h180 c0,0 40,-2 40,23 v777 l-113.3325,-24.9998 v-661.6677 h-106.6675 v-113.3325 Z" fill="#000000" transform="matrix(1,0,0,-1,15944,2236)"/>
  <path d="M326.3325,72 c-109,-54 -188,-12.3337 -188,41.3325 v686.6675 l-113.3325,-24.9998 v-668.3339 c0,-145.3329 234.3325,-141.6663 301.3325,-34.6663 Z" fill="#000000" transform="matrix(1,0,0,-1,16169,2236)"/>
  <path d="" fill="#000000" transform="matrix(1,0,0,-1,16495,2236)"/>
  <path d="M58,-58 c32,0 58,26 58,58 c0,32 -26,58 -58,58 c-32,0 -58,-26 -58,-58 c0,-32 26,-58 58,-58 Z" fill="#000000" transform="matrix(1,0,0,-1,16797,1836)"/>
  <path d="M364,0 h146 v113.3325 h-146 v-113.3325 Z M221.6666,-204 c123.6672,0 213.3334,88.0005 213.3334,209 c0,117 -48,195 -98,257 l-57.333,-114.666 c20,-26.3332 54.6671,-79.6667 57.3338,-132.0004 c3.3334,-77.6663 -42.666,-149.6671 -131.6668,-149.6671 c-96.0011,0 -146.6675,58.6672 -146.6675,134.3334 c0,39.6666 19.9999,82.0002 55.3334,84.667 c16.3334,1.3334 28.6667,-2.9999 46.0002,-13.9999 c5.6667,22.0001 -7.6667,53.9996 -29,64.3329 c18.0001,23.6667 23,46.6667 20,72 c-63,-40 -126,-119 -126,-207 c0,-87.3318 58.6655,-204 196.6666,-204 Z" fill="#000000" transform="matrix(1,0,0,-1,16625,2236)"/>
  <path d="M231,-58 c32,0 58,26 58,58 c0,32 -26,58 -58,58 c-32,0 -58,-26 -58,-58 c0,-32 26,-58 58,-58 Z M58,-58 c32,0 58,26 58,58 c0,32 -26,58 -58,58 c-32,0 -58,-26 -58,-58 c0,-32 26,-58 58,-58 Z" fill="#000000" transform="matrix(1,0,0,-1,17053,2386)"/>
  <path d="M100,0 h220 v113.3325 h-220 v-113.3325 Z M86.6675,210 h113.3325 v173.3325 l-113.3325,-24.9998 v-148.3327 Z M-20,0 h180 c0,0 40,-2 40,23 v290.3325 l-113.3325,-24.9998 v-175.0002 h-106.6675 v-113.3325 Z" fill="#000000" transform="matrix(1,0,0,-1,17115,2236)"/>
  <path d="M58,-58 c32,0 58,26 58,58 c0,32 -26,58 -58,58 c-32,0 -58,-26 -58,-58 c0,-32 26,-58 58,-58 Z" fill="#000000" transform="matrix(1,0,0,-1,17440,2386)"/>
  <path d="M-20,0 h180 c0,0 40,-2 40,23 v290.3325 l-113.3325,-24.9998 v-175.0002 h-106.6675 v-113.3325 Z" fill="#000000" transform="matrix(1,0,0,-1,17415,2236)"/>
  <path d="" fill="#000000" transform="matrix(1,0,0,-1,17640,2236)"/>
  <path d="M135.3331,-200 c76,-23.3333 194.9998,-2 240.9998,53 c-64,-22 -237.3337,-33 -237.3337,75 c0,44.3331 46,72 71.6667,72 h75.6671 l60,113.3325 h-122.3339 c-49.3328,0 -91.9998,32.0001 -91.9998,77.3337 c0,29.6669 25.6668,59.0004 55.3337,63.3337 c27.0001,5 61.6668,-5 92.0001,-30 c-16.3337,44.6669 -58.6671,82.6663 -114,82.6663 c-122.3329,0 -195.3329,-173.3333 -95.3329,-260.9998 c-23.0001,-25.9999 -42.6669,-55.6664 -42.6669,-104.6664 c0,-73 51,-123 108,-141 Z" fill="#000000" transform="matrix(1,0,0,-1,17770,2236)"/>
  <path d="M65,0 h180 v113.3325 h-106.6675 v686.6675 l-113.3325,-24.9998 v-752.0002 c0,-25 40,-23 40,-23 Z" fill="#000000" transform="matrix(1,0,0,-1,18146,2236)"/>
  <path d="M-20,0 h340 v113.3325 h-340 v-113.3325 Z" fill="#000000" transform="matrix(1,0,0,-1,18371,2236)"/>
  <path d="M-20,0 h340 v113.3325 h-340 v-113.3325 Z" fill="#000000" transform="matrix(1,0,0,-1,18671,2236)"/>
  <path d="M231,-58 c32,0 58,26 58,58 c0,32 -26,58 -58,58 c-32,0 -58,-26 -58,-58 c0,-32 26,-58 58,-58 Z M58,-58 c32,0 58,26 58,58 c0,32 -26,58 -58,58 c-32,0 -58,-26 -58,-58 c0,-32 26,-58 58,-58 Z" fill="#000000" transform="matrix(1,0,0,-1,19069,1636)"/>
  <path d="M340,0 h180 v113.3325 h-180 v-113.3325 Z M-20,0 h380 c0,0 40,-2 40,23 v290.3325 l-113.3325,-72 v-128 h-306.6675 v-113.3325 Z M244.3337,156.6663 c85.6664,0 155.6663,69.9998 155.6663,156.6663 c0,86.6664 -69.9998,156.6663 -155.6663,156.6663 c-85.6664,0 -156.9996,-70.3331 -156.9996,-156.6663 c0,-86.3331 71.3331,-156.6663 156.9996,-156.6663 Z M244.3337,269.9988 c-24.3336,0 -43.6671,19.0002 -43.6671,43.3337 c0,24.3336 19.3335,43.3337 43.6671,43.3337 c24.3336,0 43.0004,-19.0002 43.0004,-43.3337 c0,-24.3336 -18.6669,-43.3337 -43.0004,-43.3337 Z" fill="#000000" transform="matrix(1,0,0,-1,18971,2236)"/>
  <path d="M-20,0 h180 c0,0 40,-2 40,23 v777 l-113.3325,-24.9998 v-661.6677 h-106.6675 v-113.3325 Z" fill="#000000" transform="matrix(1,0,0,-1,19471,2236)"/>
  <path d="M326.3325,72 c-109,-54 -188,-12.3337 -188,41.3325 v686.6675 l-113.3325,-24.9998 v-668.3339 c0,-145.3329 234.3325,-141.6663 301.3325,-34.6663 Z" fill="#000000" transform="matrix(1,0,0,-1,19696,2236)"/>
  <path d="" fill="#000000" transform="matrix(1,0,0,-1,20022,2236)"/>
  <path d="M318,0 h128.6658 l-147.6664,258.6663 c-29.3338,51.3342 -19.6669,105.0016 15.6673,128.0018 l223.6675,-386.6681 h128.6658 l-339,591 c0,-52 -24,-68 -65,-98 c-81,-60 -142,-148 -61,-290 l116,-203 Z M25,0 h354.3334 l-58.6666,113.3325 h-135.6672 c-24,0 -55,13 -68,40 l-91.9995,-153.3325 Z M580.6669,0 h159.3331 v113.3325 h-159.3331 v-113.3325 Z" fill="#000000" transform="matrix(1,0,0,-1,20152,2236)"/>
  <path d="M100,0 h220 v113.3325 h-220 v-113.3325 Z M-20,0 h180 c0,0 40,-2 40,23 v777 l-113.3325,-24.9998 v-661.6677 h-106.6675 v-113.3325 Z" fill="#000000" transform="matrix(1,0,0,-1,20872,2236)"/>
  <path d="M-26.6663,0 h476.9996 l59.6667,113.3325 h-240 c-37.0002,0 -59.0003,24.0001 -78.3336,45.3334 c-11.3334,12.3333 -14.0001,36.3334 -6.6667,52.0001 c14.6666,30.6668 53.0001,62.6668 138.3331,102 l-7,9 c-164.6665,-45.6671 -221.9994,-87.3343 -243.999,-121.6671 c-14.6665,-22.3331 -10.9999,-67.6666 10.6671,-86.6664 h-109.6671 v-113.3325 Z" fill="#000000" transform="matrix(1,0,0,-1,21172,2236)"/>
  <path d="" fill="#000000" transform="matrix(1,0,0,-1,21707,2236)"/>
  <path d="M-50,-181 c55,-54 188.3325,-12.3331 188.3325,87.6663 v185.3337 l-113.3325,64.9996 v-250.3333 c0,-70.6663 -69,-87.6663 -75,-87.6663 Z M182.3328,0 h256.6672 v113.3325 h-200 l-56.6672,-113.3325 Z M181.3329,0 c85.6664,0 154.9996,69.9998 154.9996,156.6663 c0,69.3332 -44.9999,129.333 -107.9997,149.3329 c-17.3331,6.3333 -34.3333,16.6667 -47.3332,60.3331 c-11.6666,-43.3331 -28.0001,-54.6665 -44.6666,-59.3331 c-64.3331,-19.9999 -111.333,-79.9998 -111.333,-150.3329 c0,-86.6664 70.6664,-156.6663 156.3329,-156.6663 Z M181.3329,113.3325 c-24.3336,0 -43.6671,19.0002 -43.6671,43.3337 c0,24.3336 19.3335,43.3337 43.6671,43.3337 c24.3336,0 43.0004,-19.0002 43.0004,-43.3337 c0,-24.3336 -18.6669,-43.3337 -43.0004,-43.3337 Z" fill="#000000" transform="matrix(1,0,0,-1,21837,2236)"/>
  <path d="M231,-58 c32,0 58,26 58,58 c0,32 -26,58 -58,58 c-32,0 -58,-26 -58,-58 c0,-32 26,-58 58,-58 Z M58,-58 c32,0 58,26 58,58 c0,32 -26,58 -58,58 c-32,0 -58,-26 -58,-58 c0,-32 26,-58 58,-58 Z" fill="#000000" transform="matrix(1,0,0,-1,22194,2386)"/>
  <path d="M-20,0 h180 c0,0 40,-2 40,23 v290.3325 l-113.3325,-24.9998 v-175.0002 h-106.6675 v-113.3325 Z" fill="#000000" transform="matrix(1,0,0,-1,22256,2236)"/>
  <path d="M-85,-150 c66,-94 285,-87 285,90 v373.3325 l-113.3325,-24.9998 v-354.9996 c0,-60.3331 -30.3334,-121 -171.6675,-83.3331 Z" fill="#000000" transform="matrix(1,0,0,-1,22581,2236)"/>
  <path d="M25,0 h415 l-60,100 h-203 c-24,0 -55,13 -68,40 l-84,-140 Z M440,0 c82,0 148,67 148,150 c0,76 -41,144 -129,199 c-11,-12 -22,-23 -29,-49 c-77,-5 -139,-71 -139,-150 c0,-83 67,-150 149,-150 Z M440,100 c-28,0 -50,22 -50,50 c0,28 22,50 50,50 c28,0 50,-22 50,-50 c0,-28 -22,-50 -50,-50 Z" fill="#000000" transform="matrix(1,0,0,-1,152.5,760)"/>
  <path d="M174,0 h146 v100 h-146 v-100 Z M-85,-150 c66,-94 285,-87 285,90 v360 l-100,-22 v-348 c0,-57 -32,-121 -185,-80 Z" fill="#000000" transform="matrix(1,0,0,-1,765.5,760)"/>
  <path d="M-20,0 h620 l60,100 h-244 c-96,0 -195,79 -265,190 l-56,-107 c16,-26 50,-67 78,-83 h-193 v-100 Z" fill="#000000" transform="matrix(1,0,0,-1,1065.5,760)"/>
  <path d="M-435,165 c8,-3 36,-11 62,-11 c50,0 108,26 108,146 v500 l-100,-22 v-502 c0,-58 -4,-102 -70,-111 Z" fill="#000000" transform="matrix(1,0,0,-1,1750.5,760)"/>
  <path d="M220,58 c-25,-12 -95,-25 -95,22 v720 l-100,-22 v-698 c0,-120 174,-97 195,-22 Z" fill="#000000" transform="matrix(1,0,0,-1,1750.5,760)"/>
  <path d="" fill="#000000" transform="matrix(1,0,0,-1,1970.5,760)"/>
  <path d="M174,0 h146 v100 h-146 v-100 Z M-85,-150 c66,-94 285,-87 285,90 v360 l-100,-22 v-348 c0,-57 -32,-121 -185,-80 Z" fill="#000000" transform="matrix(1,0,0,-1,2100.5,760)"/>
  <path d="M245,0 h262 v100 h-197 l-65,-100 Z M95,-50 h14 v200 h-14 v-200 Z M-20,0 h265 l-65,100 h-200 v-100 Z M350,-50 h44 v200 h-44 v-200 Z M245,-200 c82,0 149,67 149,150 c0,83 -67,150 -149,150 c-82,0 -150,-67 -150,-150 c0,-83 68,-150 150,-150 Z M245,-100 c-28,0 -50,22 -50,50 c0,28 22,50 50,50 c28,0 50,-22 50,-50 c0,-28 -22,-50 -50,-50 Z M394,150 v196 c-27,-52 -114,-46 -149,-46 l149,-150 Z M245,0 c82,0 149,67 149,150 c0,83 -67,150 -149,150 c-82,0 -150,-67 -150,-150 c0,-83 68,-150 150,-150 Z M245,100 c-28,0 -50,22 -50,50 c0,28 22,50 50,50 c28,0 50,-22 50,-50 c0,-28 -22,-50 -50,-50 Z" fill="#000000" transform="matrix(1,0,0,-1,2400.5,760)"/>
  <path d="M145,92 c32,0 58,26 58,58 c0,32 -26,58 -58,58 c-32,0 -58,-26 -58,-58 c0,-32 26,-58 58,-58 Z M231,-58 c32,0 58,26 58,58 c0,32 -26,58 -58,58 c-32,0 -58,-26 -58,-58 c0,-32 26,-58 58,-58 Z M58,-58 c32,0 58,26 58,58 c0,32 -26,58 -58,58 c-32,0 -58,-26 -58,-58 c0,-32 26,-58 58,-58 Z" fill="#000000" transform="matrix(1,0,0,-1,3087.5,210)"/>
  <path d="M-20,0 h580 c0,0 40,-2 40,23 v277 l-100,-22 v-178 h-100 v200 l-100,-22 v-178 h-100 v200 l-100,-22 v-178 h-120 v-100 Z" fill="#000000" transform="matrix(1,0,0,-1,2887.5,760)"/>
  <path d="M73,9 h151 l-1,41 h-26 c-25,0 -62,-1 -62,39 c0,7 -1,39 32,48 c19,5 52,-5 60,-9 c-13,31 -45,40 -63,40 c-52,0 -74,-29 -85,-69 c-5,-20 -6,-32 -6,-57 v-33 Z M0,0 h240 l30,50 h-240 l-30,-50 Z" fill="#000000" transform="matrix(1,0,0,-1,3467.5,-90)"/>
  <path d="M125,100 v700 l-100,-22 v-628 l100,-50 Z" fill="#000000" transform="matrix(1,0,0,-1,3512.5,760)"/>
  <path d="M175,0 c82,0 150,67 150,150 h-100 c0,-28 -22,-50 -50,-50 c-28,0 -50,22 -50,50 h-100 c0,-83 68,-150 150,-150 Z M225,100 l100,50 v628 l-100,22 v-700 Z M175,-200 c82,0 149,67 149,150 c0,83 -67,150 -149,150 c-82,0 -150,-67 -150,-150 c0,-83 68,-150 150,-150 Z M175,-100 c-28,0 -50,22 -50,50 c0,28 22,50 50,50 c28,0 50,-22 50,-50 c0,-28 -22,-50 -50,-50 Z" fill="#000000" transform="matrix(1,0,0,-1,3512.5,760)"/>
  <path d="M220,58 c-25,-12 -95,-25 -95,22 v720 l-100,-22 v-698 c0,-120 174,-97 195,-22 Z" fill="#000000" transform="matrix(1,0,0,-1,3862.5,760)"/>
  <path d="" fill="#000000" transform="matrix(1,0,0,-1,4082.5,760)"/>
  <path d="M231,-58 c32,0 58,26 58,58 c0,32 -26,58 -58,58 c-32,0 -58,-26 -58,-58 c0,-32 26,-58 58,-58 Z M58,-58 c32,0 58,26 58,58 c0,32 -26,58 -58,58 c-32,0 -58,-26 -58,-58 c0,-32 26,-58 58,-58 Z" fill="#000000" transform="matrix(1,0,0,-1,4307.5,1060)"/>
  <path d="M393,-200 h114 l-258,452 c-37,65 -23,131 26,158 l237,-410 h115 l-339,591 c0,-52 -24,-68 -65,-98 c-81,-60 -143,-148 -61,-290 l231,-403 Z M544,0 h156 v100 h-156 v-100 Z M25,-200 h415 l-60,100 h-203 c-24,0 -55,13 -68,40 l-84,-140 Z" fill="#000000" transform="matrix(1,0,0,-1,4212.5,760)"/>
  <path d="M58,-58 c32,0 58,26 58,58 c0,32 -26,58 -58,58 c-32,0 -58,-26 -58,-58 c0,-32 26,-58 58,-58 Z" fill="#000000" transform="matrix(1,0,0,-1,5084.5,160)"/>
  <path d="M-20,0 h380 c0,0 40,-2 40,23 v277 l-100,-72 v-128 h-320 v-100 Z M251,150 c82,0 149,67 149,150 c0,83 -67,150 -149,150 c-82,0 -150,-67 -150,-150 c0,-83 68,-150 150,-150 Z M251,250 c-28,0 -50,22 -50,50 c0,28 22,50 50,50 c28,0 50,-22 50,-50 c0,-28 -22,-50 -50,-50 Z" fill="#000000" transform="matrix(1,0,0,-1,4892.5,760)"/>
  <path d="" fill="#000000" transform="matrix(1,0,0,-1,5317.5,760)"/>
  <path d="M231,-58 c32,0 58,26 58,58 c0,32 -26,58 -58,58 c-32,0 -58,-26 -58,-58 c0,-32 26,-58 58,-58 Z M58,-58 c32,0 58,26 58,58 c0,32 -26,58 -58,58 c-32,0 -58,-26 -58,-58 c0,-32 26,-58 58,-58 Z" fill="#000000" transform="matrix(1,0,0,-1,5542.5,1060)"/>
  <path d="M393,-200 h114 l-258,452 c-37,65 -23,131 26,158 l237,-410 h115 l-339,591 c0,-52 -24,-68 -65,-98 c-81,-60 -143,-148 -61,-290 l231,-403 Z M544,0 h156 v100 h-156 v-100 Z M25,-200 h415 l-60,100 h-203 c-24,0 -55,13 -68,40 l-84,-140 Z" fill="#000000" transform="matrix(1,0,0,-1,5447.5,760)"/>
  <path d="M-20,0 h265 l-65,100 h-200 v-100 Z M244,0 c82,0 149,67 149,150 c0,83 -67,150 -149,150 c-82,0 -150,-67 -150,-150 c0,-83 68,-150 150,-150 Z M244,100 c-28,0 -50,22 -50,50 c0,28 22,50 50,50 c28,0 50,-22 50,-50 c0,-28 -22,-50 -50,-50 Z" fill="#000000" transform="matrix(1,0,0,-1,6127.5,760)"/>
  <path d="M25,0 h780 c0,0 40,-2 40,23 c0,120 17,277 -190,277 h-430 l52,113 l-10,7 l-132,-220 h520 c75,0 91,-44 90,-100 h-660 l-60,-100 Z" fill="#000000" transform="matrix(1,0,0,-1,6545.5,760)"/>
  <path d="" fill="#000000" transform="matrix(1,0,0,-1,7415.5,760)"/>
  <path d="M85,200 h100 v600 l-100,-22 v-578 Z M789,0 h196 v100 h-196 v-100 Z M25,0 h800 c0,0 40,-2 40,23 c0,120 17,277 -190,277 h-565 v-100 h565 c75,0 91,-44 90,-100 h-680 l-60,-100 Z" fill="#000000" transform="matrix(1,0,0,-1,7545.5,760)"/>
  <path d="M58,-58 c32,0 58,26 58,58 c0,32 -26,58 -58,58 c-32,0 -58,-26 -58,-58 c0,-32 26,-58 58,-58 Z" fill="#000000" transform="matrix(1,0,0,-1,8702.5,160)"/>
  <path d="M340,0 h180 v100 h-180 v-100 Z M-20,0 h380 c0,0 40,-2 40,23 v277 l-100,-72 v-128 h-320 v-100 Z M251,150 c82,0 149,67 149,150 c0,83 -67,150 -149,150 c-82,0 -150,-67 -150,-150 c0,-83 68,-150 150,-150 Z M251,250 c-28,0 -50,22 -50,50 c0,28 22,50 50,50 c28,0 50,-22 50,-50 c0,-28 -22,-50 -50,-50 Z" fill="#000000" transform="matrix(1,0,0,-1,8510.5,760)"/>
  <path d="M-20,0 h580 c0,0 40,-2 40,23 v277 l-100,-22 v-178 h-100 v200 l-100,-22 v-178 h-100 v200 l-100,-22 v-178 h-120 v-100 Z" fill="#000000" transform="matrix(1,0,0,-1,9010.5,760)"/>
  <path d="" fill="#000000" transform="matrix(1,0,0,-1,9635.5,760)"/>
  <path d="M395,0 h170 v100 h-170 v-100 Z M345,40 l100,-40 v800 l-100,-22 v-738 Z M216,-200 c151,0 228,87 229,200 v300 l-100,-22 v-238 c0,-111 -27,-183 -129,-183 c-124,0 -161,67 -161,143 c0,39 18,86 56,90 c18,2 30,-2 49,-13 c6,23 -8,48 -29,58 c19,25 23,47 20,72 c-63,-40 -126,-119 -126,-207 c0,-62 28,-200 191,-200 Z" fill="#000000" transform="matrix(1,0,0,-1,9765.5,760)"/>
  <path d="M-20,0 h620 l60,100 h-244 c-96,0 -195,79 -265,190 l-56,-107 c16,-26 50,-67 78,-83 h-193 v-100 Z" fill="#000000" transform="matrix(1,0,0,-1,10310.5,760)"/>
  <path d="M73,9 h151 l-1,41 h-26 c-25,0 -62,-1 -62,39 c0,7 -1,39 32,48 c19,5 52,-5 60,-9 c-13,31 -45,40 -63,40 c-52,0 -74,-29 -85,-69 c-5,-20 -6,-32 -6,-57 v-33 Z M0,0 h240 l30,50 h-240 l-30,-50 Z" fill="#000000" transform="matrix(1,0,0,-1,11000.5,-90)"/>
  <path d="M313,72 c-109,-54 -188,-19 -188,28 v700 l-100,-22 v-678 c0,-138 221,-135 288,-28 Z" fill="#000000" transform="matrix(1,0,0,-1,10995.5,760)"/>
  <path d="" fill="#000000" transform="matrix(1,0,0,-1,11308.5,760)"/>
  <path d="" fill="#000000" transform="matrix(1,0,0,-1,11438.5,760)"/>
  <path d="" fill="#000000" transform="matrix(1,0,0,-1,11568.5,760)"/>
  <path d="M-50,-181 c55,-54 175,-9 175,81 v192 l-100,58 v-250 c0,-64 -69,-81 -75,-81 Z M174,0 h265 v100 h-200 l-65,-100 Z M174,0 c82,0 148,67 148,150 c0,67 -43,124 -103,143 c-14,5 -34,17 -45,57 c-10,-40 -29,-52 -43,-56 c-61,-19 -106,-76 -106,-144 c0,-83 67,-150 149,-150 Z M174,100 c-28,0 -50,22 -50,50 c0,28 22,50 50,50 c28,0 50,-22 50,-50 c0,-28 -22,-50 -50,-50 Z" fill="#000000" transform="matrix(1,0,0,-1,11698.5,760)"/>
  <path d="M100,0 h220 v100 h-220 v-100 Z M-20,0 h180 c0,0 40,-2 40,23 v777 l-100,-22 v-678 h-120 v-100 Z" fill="#000000" transform="matrix(1,0,0,-1,12117.5,760)"/>
  <path d="M-20,0 h340 v100 h-340 v-100 Z" fill="#000000" transform="matrix(1,0,0,-1,12417.5,760)"/>
  <path d="M-20,100 v-100 h500 v100 h-500 Z M309,339 l-149,-263 l86,-50 l213,374 h-459 l212,-374 l87,50 l-150,263 l-23,-39 h206 l-23,39 Z" fill="#000000" transform="matrix(1,0,0,-1,12717.5,760)"/>
  <path d="M-20,0 h180 c0,0 40,-2 40,23 v777 l-100,-22 v-678 h-120 v-100 Z" fill="#000000" transform="matrix(1,0,0,-1,13177.5,760)"/>
  <path d="M313,72 c-109,-54 -188,-19 -188,28 v700 l-100,-22 v-678 c0,-138 221,-135 288,-28 Z" fill="#000000" transform="matrix(1,0,0,-1,13402.5,760)"/>
  <path d="" fill="#000000" transform="matrix(1,0,0,-1,13715.5,760)"/>
  <path d="M39,-132 c66,-94 285,-87 285,90 v192 l-100,-22 v-180 c0,-57 -32,-121 -185,-80 Z M324,150 v196 c-27,-52 -114,-46 -149,-46 l149,-150 Z M175,0 c82,0 149,67 149,150 c0,83 -67,150 -149,150 c-82,0 -150,-67 -150,-150 c0,-83 68,-150 150,-150 Z M175,100 c-28,0 -50,22 -50,50 c0,28 22,50 50,50 c28,0 50,-22 50,-50 c0,-28 -22,-50 -50,-50 Z" fill="#000000" transform="matrix(1,0,0,-1,13845.5,760)"/>
  <path d="" fill="#000000" transform="matrix(1,0,0,-1,14194.5,760)"/>
  <path d="M58,-58 c32,0 58,26 58,58 c0,32 -26,58 -58,58 c-32,0 -58,-26 -58,-58 c0,-32 26,-58 58,-58 Z" fill="#000000" transform="matrix(1,0,0,-1,14496.5,360)"/>
  <path d="M221,-204 c133,0 214,96 214,209 c0,117 -48,195 -98,257 l-52,-104 c20,-24 61,-81 65,-138 c5,-71 -32,-156 -134,-156 c-114,0 -161,67 -161,136 c0,39 18,86 56,90 c18,2 30,-2 49,-13 c6,23 -8,48 -29,58 c19,25 23,47 20,72 c-63,-40 -126,-119 -126,-207 c0,-62 39,-204 196,-204 Z" fill="#000000" transform="matrix(1,0,0,-1,14324.5,760)"/>
  <path d="M65,0 h180 v100 h-120 v700 l-100,-22 v-755 c0,-25 40,-23 40,-23 Z" fill="#000000" transform="matrix(1,0,0,-1,14784.5,760)"/>
  <path d="M-20,0 h340 v100 h-340 v-100 Z" fill="#000000" transform="matrix(1,0,0,-1,15009.5,760)"/>
  <path d="M-20,0 h340 v100 h-340 v-100 Z" fill="#000000" transform="matrix(1,0,0,-1,15309.5,760)"/>
  <path d="M58,-58 c32,0 58,26 58,58 c0,32 -26,58 -58,58 c-32,0 -58,-26 -58,-58 c0,-32 26,-58 58,-58 Z" fill="#000000" transform="matrix(1,0,0,-1,15634.5,910)"/>
  <path d="M100,0 h220 v100 h-220 v-100 Z M-20,0 h180 c0,0 40,-2 40,23 v277 l-100,-22 v-178 h-120 v-100 Z" fill="#000000" transform="matrix(1,0,0,-1,15609.5,760)"/>
  <path d="M-20,0 h180 c0,0 40,-2 40,23 v777 l-100,-22 v-678 h-120 v-100 Z" fill="#000000" transform="matrix(1,0,0,-1,15909.5,760)"/>
  <path d="M313,72 c-109,-54 -188,-19 -188,28 v700 l-100,-22 v-678 c0,-138 221,-135 288,-28 Z" fill="#000000" transform="matrix(1,0,0,-1,16134.5,760)"/>
  <path d="" fill="#000000" transform="matrix(1,0,0,-1,16447.5,760)"/>
  <path d="M58,-58 c32,0 58,26 58,58 c0,32 -26,58 -58,58 c-32,0 -58,-26 -58,-58 c0,-32 26,-58 58,-58 Z" fill="#000000" transform="matrix(1,0,0,-1,16749.5,360)"/>
  <path d="M364,0 h146 v100 h-146 v-100 Z M221,-204 c133,0 214,96 214,209 c0,117 -48,195 -98,257 l-52,-104 c20,-24 61,-81 65,-138 c5,-71 -32,-156 -134,-156 c-114,0 -161,67 -161,136 c0,39 18,86 56,90 c18,2 30,-2 49,-13 c6,23 -8,48 -29,58 c19,25 23,47 20,72 c-63,-40 -126,-119 -126,-207 c0,-62 39,-204 196,-204 Z" fill="#000000" transform="matrix(1,0,0,-1,16577.5,760)"/>
  <path d="M231,-58 c32,0 58,26 58,58 c0,32 -26,58 -58,58 c-32,0 -58,-26 -58,-58 c0,-32 26,-58 58,-58 Z M58,-58 c32,0 58,26 58,58 c0,32 -26,58 -58,58 c-32,0 -58,-26 -58,-58 c0,-32 26,-58 58,-58 Z" fill="#000000" transform="matrix(1,0,0,-1,17005.5,910)"/>
  <path d="M100,0 h220 v100 h-220 v-100 Z M100,210 h100 v160 l-100,-22 v-138 Z M-20,0 h180 c0,0 40,-2 40,23 v277 l-100,-22 v-178 h-120 v-100 Z" fill="#000000" transform="matrix(1,0,0,-1,17067.5,760)"/>
  <path d="M58,-58 c32,0 58,26 58,58 c0,32 -26,58 -58,58 c-32,0 -58,-26 -58,-58 c0,-32 26,-58 58,-58 Z" fill="#000000" transform="matrix(1,0,0,-1,17392.5,910)"/>
  <path d="M-20,0 h180 c0,0 40,-2 40,23 v277 l-100,-22 v-178 h-120 v-100 Z" fill="#000000" transform="matrix(1,0,0,-1,17367.5,760)"/>
  <path d="" fill="#000000" transform="matrix(1,0,0,-1,17592.5,760)"/>
  <path d="M132,-200 c76,-23 192,-2 238,53 c-64,-22 -244,-33 -244,75 c0,41 46,72 72,72 h82 l60,100 h-132 c-41,0 -89,33 -89,84 c0,33 28,65 61,70 c28,5 64,-5 93,-30 c-22,49 -65,76 -114,76 c-115,0 -189,-173 -89,-258 c-24,-24 -46,-52 -46,-101 c0,-73 51,-123 108,-141 Z" fill="#000000" transform="matrix(1,0,0,-1,17722.5,760)"/>
  <path d="M65,0 h180 v100 h-120 v700 l-100,-22 v-755 c0,-25 40,-23 40,-23 Z" fill="#000000" transform="matrix(1,0,0,-1,18092.5,760)"/>
  <path d="M-20,0 h340 v100 h-340 v-100 Z" fill="#000000" transform="matrix(1,0,0,-1,18317.5,760)"/>
  <path d="M-20,0 h340 v100 h-340 v-100 Z" fill="#000000" transform="matrix(1,0,0,-1,18617.5,760)"/>
  <path d="M231,-58 c32,0 58,26 58,58 c0,32 -26,58 -58,58 c-32,0 -58,-26 -58,-58 c0,-32 26,-58 58,-58 Z M58,-58 c32,0 58,26 58,58 c0,32 -26,58 -58,58 c-32,0 -58,-26 -58,-58 c0,-32 26,-58 58,-58 Z" fill="#000000" transform="matrix(1,0,0,-1,19022.5,160)"/>
  <path d="M340,0 h180 v100 h-180 v-100 Z M-20,0 h380 c0,0 40,-2 40,23 v277 l-100,-72 v-128 h-320 v-100 Z M251,150 c82,0 149,67 149,150 c0,83 -67,150 -149,150 c-82,0 -150,-67 -150,-150 c0,-83 68,-150 150,-150 Z M251,250 c-28,0 -50,22 -50,50 c0,28 22,50 50,50 c28,0 50,-22 50,-50 c0,-28 -22,-50 -50,-50 Z" fill="#000000" transform="matrix(1,0,0,-1,18917.5,760)"/>
  <path d="M-20,0 h180 c0,0 40,-2 40,23 v777 l-100,-22 v-678 h-120 v-100 Z" fill="#000000" transform="matrix(1,0,0,-1,19417.5,760)"/>
  <path d="M313,72 c-109,-54 -188,-19 -188,28 v700 l-100,-22 v-678 c0,-138 221,-135 288,-28 Z" fill="#000000" transform="matrix(1,0,0,-1,19642.5,760)"/>
  <path d="" fill="#000000" transform="matrix(1,0,0,-1,19955.5,760)"/>
  <path d="M318,0 h115 l-144,252 c-37,65 -23,131 26,158 l237,-410 h115 l-339,591 c0,-52 -24,-68 -65,-98 c-81,-60 -142,-148 -61,-290 l116,-203 Z M25,0 h355 l-58,100 h-145 c-24,0 -55,13 -68,40 l-84,-140 Z M584,0 h156 v100 h-156 v-100 Z" fill="#000000" transform="matrix(1,0,0,-1,20085.5,760)"/>
  <path d="M100,0 h220 v100 h-220 v-100 Z M-20,0 h180 c0,0 40,-2 40,23 v777 l-100,-22 v-678 h-120 v-100 Z" fill="#000000" transform="matrix(1,0,0,-1,20805.5,760)"/>
  <path d="M-20,0 h470 l60,100 h-240 c-40,0 -64,26 -83,46 c-12,12 -15,37 -8,54 c14,33 54,65 134,102 l-7,9 c-162,-52 -212,-103 -228,-128 c-12,-18 -10,-67 18,-83 h-116 v-100 Z" fill="#000000" transform="matrix(1,0,0,-1,21105.5,760)"/>
  <path d="" fill="#000000" transform="matrix(1,0,0,-1,21640.5,760)"/>
  <path d="M-50,-181 c55,-54 175,-9 175,81 v192 l-100,58 v-250 c0,-64 -69,-81 -75,-81 Z M174,0 h265 v100 h-200 l-65,-100 Z M174,0 c82,0 148,67 148,150 c0,67 -43,124 -103,143 c-14,5 -34,17 -45,57 c-10,-40 -29,-52 -43,-56 c-61,-19 -106,-76 -106,-144 c0,-83 67,-150 149,-150 Z M174,100 c-28,0 -50,22 -50,50 c0,28 22,50 50,50 c28,0 50,-22 50,-50 c0,-28 -22,-50 -50,-50 Z" fill="#000000" transform="matrix(1,0,0,-1,21770.5,760)"/>
  <path d="M231,-58 c32,0 58,26 58,58 c0,32 -26,58 -58,58 c-32,0 -58,-26 -58,-58 c0,-32 26,-58 58,-58 Z M58,-58 c32,0 58,26 58,58 c0,32 -26,58 -58,58 c-32,0 -58,-26 -58,-58 c0,-32 26,-58 58,-58 Z" fill="#000000" transform="matrix(1,0,0,-1,22127.5,910)"/>
  <path d="M-20,0 h180 c0,0 40,-2 40,23 v277 l-100,-22 v-178 h-120 v-100 Z" fill="#000000" transform="matrix(1,0,0,-1,22189.5,760)"/>
  <path d="M-85,-150 c66,-94 285,-87 285,90 v360 l-100,-22 v-348 c0,-57 -32,-121 -185,-80 Z" fill="#000000" transform="matrix(1,0,0,-1,22514.5,760)"/>
</svg>
