<svg xmlns="http://www.w3.org/2000/svg" viewBox="0 0 22992 6000">
<g id="ReemKufi-Regular.otf">
<path d="M25,0L440,0C522,0 588,-67 588,-150C588,-226 547,-294 459,-349C448,-337 437,-326 430,-300C353,-295 291,-229 291,-150C291,-132 294,-116 299,-100L177,-100C153,-100 122,-113 109,-140L25,0ZM440,-100C412,-100 390,-122 390,-150C390,-178 412,-200 440,-200C468,-200 490,-178 490,-150C490,-122 468,-100 440,-100Z" transform="translate(0 1100)"/>
<path d="M-85,150C-19,244 200,237 200,60L200,0L320,0L320,-100L200,-100L200,-300L100,-278L100,70C100,127 68,191 -85,150Z" transform="translate(613 1100)"/>
<path d="M-20,0L600,0L660,-100L416,-100C320,-100 221,-179 151,-290L95,-183C111,-157 145,-116 173,-100L-20,-100L-20,0Z" transform="translate(913 1100)"/>
<path d="M-435,-165C-427,-162 -399,-154 -373,-154C-323,-154 -265,-180 -265,-300L-265,-800L-365,-778L-365,-276C-365,-218 -369,-174 -435,-165Z" transform="translate(1598 1100)"/>
<path d="M220,-58C195,-46 125,-33 125,-80L125,-800L25,-778L25,-80C25,40 199,17 220,-58Z" transform="translate(1598 1100)"/>
<path d="M-85,150C-19,244 200,237 200,60L200,0L320,0L320,-100L200,-100L200,-300L100,-278L100,70C100,127 68,191 -85,150Z" transform="translate(1948 1100)"/>
<path d="M95,50C95,133 163,200 245,200C327,200 394,133 394,50L394,0L507,0L507,-100L394,-100L394,-346C369,-298 294,-299 255,-300C251,-300 248,-300 245,-300C163,-300 95,-233 95,-150L95,-100L-20,-100L-20,0L95,0L95,50ZM245,100C217,100 195,78 195,50C195,22 217,0 245,0C273,0 295,22 295,50C295,78 273,100 245,100ZM245,-100C217,-100 195,-122 195,-150C195,-178 217,-200 245,-200C273,-200 295,-178 295,-150C295,-122 273,-100 245,-100Z" transform="translate(2248 1100)"/>
<path d="M58,58C90,58 116,32 116,0C116,-32 90,-58 58,-58C26,-58 0,-32 0,0C0,32 26,58 58,58ZM231,58C263,58 289,32 289,0C289,-32 263,-58 231,-58C199,-58 173,-32 173,0C173,32 199,58 231,58ZM145,-92C177,-92 203,-118 203,-150C203,-182 177,-208 145,-208C113,-208 87,-182 87,-150C87,-118 113,-92 145,-92Z" transform="translate(2935 550)"/>
<path d="M-20,0L560,0C560,0 600,2 600,-23L600,-300L500,-278L500,-100L400,-100L400,-300L300,-278L300,-100L200,-100L200,-300L100,-278L100,-100L-20,-100L-20,0Z" transform="translate(2735 1100)"/>
<path d="M0,0L240,0L270,-50L191,-50C167,-50 135,-52 135,-89C135,-89 135,-89 135,-90C135,-98 135,-128 167,-137C186,-142 219,-132 227,-128C214,-159 182,-168 164,-168C112,-168 90,-139 79,-99C75,-81 73,-70 73,-50L30,-50L0,0Z" transform="translate(3315 250)"/>
<path d="M125,-100L125,-800L25,-778L25,-150L125,-100Z" transform="translate(3360 1100)"/>
<path d="M175,200C257,200 324,133 324,50C324,12 310,-23 286,-50C310,-76 325,-111 325,-150L325,-778L225,-800L225,-150C225,-122 203,-100 175,-100C147,-100 125,-122 125,-150L25,-150C25,-112 40,-77 63,-50C40,-23 25,12 25,50C25,133 93,200 175,200ZM175,100C147,100 125,78 125,50C125,22 147,0 175,0C203,0 225,22 225,50C225,78 203,100 175,100Z" transform="translate(3360 1100)"/>
<path d="M220,-58C195,-46 125,-33 125,-80L125,-800L25,-778L25,-80C25,40 199,17 220,-58Z" transform="translate(3710 1100)"/>
<path d="M58,58C90,58 116,32 116,0C116,-32 90,-58 58,-58C26,-58 0,-32 0,0C0,32 26,58 58,58ZM231,58C263,58 289,32 289,0C289,-32 263,-58 231,-58C199,-58 173,-32 173,0C173,32 199,58 231,58Z" transform="translate(4155 1400)"/>
<path d="M25,200L507,200L249,-252C212,-317 226,-383 275,-410L512,0L700,0L700,-100L570,-100L288,-591C288,-539 264,-523 223,-493C142,-433 80,-345 162,-203L336,100L177,100C153,100 122,87 109,60L25,200Z" transform="translate(4060 1100)"/>
<path d="M58,58C90,58 116,32 116,0C116,-32 90,-58 58,-58C26,-58 0,-32 0,0C0,32 26,58 58,58Z" transform="translate(4932 500)"/>
<path d="M-20,0L360,0C360,0 400,2 400,-23L400,-300C400,-383 333,-450 251,-450C169,-450 101,-383 101,-300C101,-217 169,-150 251,-150C268,-150 285,-153 300,-158L300,-100L-20,-100L-20,0ZM251,-250C223,-250 201,-272 201,-300C201,-328 223,-350 251,-350C279,-350 301,-328 301,-300C301,-272 279,-250 251,-250Z" transform="translate(4740 1100)"/>
<path d="M58,58C90,58 116,32 116,0C116,-32 90,-58 58,-58C26,-58 0,-32 0,0C0,32 26,58 58,58ZM231,58C263,58 289,32 289,0C289,-32 263,-58 231,-58C199,-58 173,-32 173,0C173,32 199,58 231,58Z" transform="translate(5390 1400)"/>
<path d="M25,200L507,200L249,-252C212,-317 226,-383 275,-410L512,0L700,0L700,-100L570,-100L288,-591C288,-539 264,-523 223,-493C142,-433 80,-345 162,-203L336,100L177,100C153,100 122,87 109,60L25,200Z" transform="translate(5295 1100)"/>
<path d="M-20,0L245,0C327,-1 393,-67 393,-150C393,-233 326,-300 244,-300C162,-300 94,-233 94,-150C94,-132 97,-116 103,-100L-20,-100L-20,0ZM244,-100C216,-100 194,-122 194,-150C194,-178 216,-200 244,-200C272,-200 294,-178 294,-150C294,-122 272,-100 244,-100Z" transform="translate(5975 1100)"/>
<path d="M25,0L805,0C805,0 845,2 845,-23C845,-31 845,-40 845,-49C846,-164 848,-300 655,-300L225,-300L277,-413L267,-420L135,-200L655,-200C730,-200 746,-156 745,-100L85,-100L25,0Z" transform="translate(6393 1100)"/>
<path d="M85,-200L675,-200C750,-200 766,-156 765,-100L85,-100L25,0L825,0C825,0 827,0 829,0L985,0L985,-100L865,-100C863,-201 839,-300 675,-300L185,-300L185,-800L85,-778L85,-200Z" transform="translate(7393 1100)"/>
<path d="M58,58C90,58 116,32 116,0C116,-32 90,-58 58,-58C26,-58 0,-32 0,0C0,32 26,58 58,58Z" transform="translate(8550 500)"/>
<path d="M-20,0L360,0C360,0 362,0 364,0L520,0L520,-100L400,-100L400,-300C400,-383 333,-450 251,-450C169,-450 101,-383 101,-300C101,-217 169,-150 251,-150C268,-150 285,-153 300,-158L300,-100L-20,-100L-20,0ZM251,-250C223,-250 201,-272 201,-300C201,-328 223,-350 251,-350C279,-350 301,-328 301,-300C301,-272 279,-250 251,-250Z" transform="translate(8358 1100)"/>
<path d="M-20,0L560,0C560,0 600,2 600,-23L600,-300L500,-278L500,-100L400,-100L400,-300L300,-278L300,-100L200,-100L200,-300L100,-278L100,-100L-20,-100L-20,0Z" transform="translate(8858 1100)"/>
<path d="M345,-40C345,71 318,143 216,143C92,143 55,76 55,0C55,-39 73,-86 111,-90C129,-92 141,-88 160,-77C166,-100 152,-125 131,-135C150,-160 154,-182 151,-207C88,-167 25,-88 25,0C25,62 53,200 216,200C367,200 444,113 445,0L565,0L565,-100L445,-100L445,-800L345,-778L345,-40Z" transform="translate(9613 1100)"/>
<path d="M-20,0L600,0L660,-100L416,-100C320,-100 221,-179 151,-290L95,-183C111,-157 145,-116 173,-100L-20,-100L-20,0Z" transform="translate(10158 1100)"/>
<path d="M0,0L240,0L270,-50L191,-50C167,-50 135,-52 135,-89C135,-89 135,-89 135,-90C135,-98 135,-128 167,-137C186,-142 219,-132 227,-128C214,-159 182,-168 164,-168C112,-168 90,-139 79,-99C75,-81 73,-70 73,-50L30,-50L0,0Z" transform="translate(10848 250)"/>
<path d="M313,-72C204,-18 125,-53 125,-100L125,-800L25,-778L25,-100C25,38 246,35 313,-72Z" transform="translate(10843 1100)"/>
<path d="M-50,181C5,235 125,190 125,100L125,-8C140,-3 157,0 174,0L439,0L439,-100L314,-100C319,-116 322,-132 322,-150C322,-217 279,-274 219,-293C205,-298 185,-310 174,-350C164,-310 145,-298 131,-294C70,-275 25,-218 25,-150L25,100C25,164 -44,181 -50,181ZM174,-100C146,-100 124,-122 124,-150C124,-178 146,-200 174,-200C202,-200 224,-178 224,-150C224,-122 202,-100 174,-100Z" transform="translate(11546 1100)"/>
<path d="M-20,0L160,0C160,0 162,0 164,0L320,0L320,-100L200,-100L200,-800L100,-778L100,-100L-20,-100L-20,0Z" transform="translate(11965 1100)"/>
<path d="M-20,0L320,0L320,-100L-20,-100L-20,0Z" transform="translate(12265 1100)"/>
<path d="M-20,-100L-20,0L480,0L480,-100L288,-100L459,-400L0,-400L170,-100L-20,-100ZM229,-198L171,-300L287,-300L229,-198Z" transform="translate(12565 1100)"/>
<path d="M-20,0L160,0C160,0 200,2 200,-23L200,-800L100,-778L100,-100L-20,-100L-20,0Z" transform="translate(13025 1100)"/>
<path d="M313,-72C204,-18 125,-53 125,-100L125,-800L25,-778L25,-100C25,38 246,35 313,-72Z" transform="translate(13250 1100)"/>
<path d="M39,132C105,226 324,219 324,42L324,-346C299,-298 224,-299 185,-300C181,-300 178,-300 175,-300C93,-300 25,-233 25,-150C25,-67 93,0 175,0C192,0 209,-3 224,-8L224,52C224,109 192,173 39,132ZM175,-100C147,-100 125,-122 125,-150C125,-178 147,-200 175,-200C203,-200 225,-178 225,-150C225,-122 203,-100 175,-100Z" transform="translate(13693 1100)"/>
<path d="M58,58C90,58 116,32 116,0C116,-32 90,-58 58,-58C26,-58 0,-32 0,0C0,32 26,58 58,58Z" transform="translate(14344 700)"/>
<path d="M221,204C354,204 435,108 435,-5C435,-122 387,-200 337,-262L285,-158C305,-134 346,-77 350,-20C355,51 318,136 216,136C102,136 55,69 55,0C55,-39 73,-86 111,-90C129,-92 141,-88 160,-77C166,-100 152,-125 131,-135C150,-160 154,-182 151,-207C88,-167 25,-88 25,0C25,62 64,204 221,204Z" transform="translate(14172 1100)"/>
<path d="M65,0L245,0L245,-100L125,-100L125,-800L25,-778L25,-23C25,2 65,0 65,0Z" transform="translate(14632 1100)"/>
<path d="M-20,0L320,0L320,-100L-20,-100L-20,0Z" transform="translate(14857 1100)"/>
<path d="M-20,0L320,0L320,-100L-20,-100L-20,0Z" transform="translate(15157 1100)"/>
<path d="M58,58C90,58 116,32 116,0C116,-32 90,-58 58,-58C26,-58 0,-32 0,0C0,32 26,58 58,58Z" transform="translate(15482 1250)"/>
<path d="M-20,0L160,0C160,0 162,0 164,0L320,0L320,-100L200,-100L200,-300L100,-278L100,-100L-20,-100L-20,0Z" transform="translate(15457 1100)"/>
<path d="M-20,0L160,0C160,0 200,2 200,-23L200,-800L100,-778L100,-100L-20,-100L-20,0Z" transform="translate(15757 1100)"/>
<path d="M313,-72C204,-18 125,-53 125,-100L125,-800L25,-778L25,-100C25,38 246,35 313,-72Z" transform="translate(15982 1100)"/>
<path d="M58,58C90,58 116,32 116,0C116,-32 90,-58 58,-58C26,-58 0,-32 0,0C0,32 26,58 58,58Z" transform="translate(16597 700)"/>
<path d="M221,204C352,204 433,111 435,0L510,0L510,-100L423,-100C406,-167 372,-219 337,-262L285,-158C305,-134 346,-77 350,-20C355,51 318,136 216,136C102,136 55,69 55,0C55,-39 73,-86 111,-90C129,-92 141,-88 160,-77C166,-100 152,-125 131,-135C150,-160 154,-182 151,-207C88,-167 25,-88 25,0C25,62 64,204 221,204Z" transform="translate(16425 1100)"/>
<path d="M58,58C90,58 116,32 116,0C116,-32 90,-58 58,-58C26,-58 0,-32 0,0C0,32 26,58 58,58ZM231,58C263,58 289,32 289,0C289,-32 263,-58 231,-58C199,-58 173,-32 173,0C173,32 199,58 231,58Z" transform="translate(16853 1250)"/>
<path d="M-20,0L160,0C160,0 162,0 164,0L320,0L320,-100L200,-100L200,-370L100,-348L100,-100L-20,-100L-20,0Z" transform="translate(16915 1100)"/>
<path d="M58,58C90,58 116,32 116,0C116,-32 90,-58 58,-58C26,-58 0,-32 0,0C0,32 26,58 58,58Z" transform="translate(17240 1250)"/>
<path d="M-20,0L160,0C160,0 200,2 200,-23L200,-300L100,-278L100,-100L-20,-100L-20,0Z" transform="translate(17215 1100)"/>
<path d="M132,200C208,223 324,202 370,147C306,169 126,180 126,72C126,31 172,0 198,0L280,0L340,-100L208,-100C167,-100 119,-133 119,-184C119,-217 147,-249 180,-254C208,-259 244,-249 273,-224C251,-273 208,-300 159,-300C44,-300 -30,-127 70,-42C46,-18 24,10 24,59C24,132 75,182 132,200Z" transform="translate(17570 1100)"/>
<path d="M65,0L245,0L245,-100L125,-100L125,-800L25,-778L25,-23C25,2 65,0 65,0Z" transform="translate(17940 1100)"/>
<path d="M-20,0L320,0L320,-100L-20,-100L-20,0Z" transform="translate(18165 1100)"/>
<path d="M-20,0L320,0L320,-100L-20,-100L-20,0Z" transform="translate(18465 1100)"/>
<path d="M58,58C90,58 116,32 116,0C116,-32 90,-58 58,-58C26,-58 0,-32 0,0C0,32 26,58 58,58ZM231,58C263,58 289,32 289,0C289,-32 263,-58 231,-58C199,-58 173,-32 173,0C173,32 199,58 231,58Z" transform="translate(18870 500)"/>
<path d="M-20,0L360,0C360,0 362,0 364,0L520,0L520,-100L400,-100L400,-300C400,-383 333,-450 251,-450C169,-450 101,-383 101,-300C101,-217 169,-150 251,-150C268,-150 285,-153 300,-158L300,-100L-20,-100L-20,0ZM251,-250C223,-250 201,-272 201,-300C201,-328 223,-350 251,-350C279,-350 301,-328 301,-300C301,-272 279,-250 251,-250Z" transform="translate(18765 1100)"/>
<path d="M-20,0L160,0C160,0 200,2 200,-23L200,-800L100,-778L100,-100L-20,-100L-20,0Z" transform="translate(19265 1100)"/>
<path d="M313,-72C204,-18 125,-53 125,-100L125,-800L25,-778L25,-100C25,38 246,35 313,-72Z" transform="translate(19490 1100)"/>
<path d="M25,0L433,0L289,-252C252,-317 266,-383 315,-410L552,0L740,0L740,-100L610,-100L328,-591C328,-539 304,-523 263,-493C182,-433 121,-345 202,-203L261,-100L177,-100C153,-100 122,-113 109,-140L25,0Z" transform="translate(19933 1100)"/>
<path d="M-20,0L160,0C160,0 162,0 164,0L320,0L320,-100L200,-100L200,-800L100,-778L100,-100L-20,-100L-20,0Z" transform="translate(20653 1100)"/>
<path d="M-20,0L450,0L510,-100L270,-100C230,-100 206,-126 187,-146C175,-158 172,-183 179,-200C193,-233 233,-265 313,-302L306,-311C144,-259 94,-208 78,-183C66,-165 68,-116 96,-100L-20,-100L-20,0Z" transform="translate(20953 1100)"/>
<path d="M-50,181C5,235 125,190 125,100L125,-8C140,-3 157,0 174,0L439,0L439,-100L314,-100C319,-116 322,-132 322,-150C322,-217 279,-274 219,-293C205,-298 185,-310 174,-350C164,-310 145,-298 131,-294C70,-275 25,-218 25,-150L25,100C25,164 -44,181 -50,181ZM174,-100C146,-100 124,-122 124,-150C124,-178 146,-200 174,-200C202,-200 224,-178 224,-150C224,-122 202,-100 174,-100Z" transform="translate(21618 1100)"/>
<path d="M58,58C90,58 116,32 116,0C116,-32 90,-58 58,-58C26,-58 0,-32 0,0C0,32 26,58 58,58ZM231,58C263,58 289,32 289,0C289,-32 263,-58 231,-58C199,-58 173,-32 173,0C173,32 199,58 231,58Z" transform="translate(21975 1250)"/>
<path d="M-20,0L160,0C160,0 200,2 200,-23L200,-300L100,-278L100,-100L-20,-100L-20,0Z" transform="translate(22037 1100)"/>
<path d="M-85,150C-19,244 200,237 200,60L200,-300L100,-278L100,70C100,127 68,191 -85,150Z" transform="translate(22362 1100)"/>
</g>
<g id="ReemKufi-Medium.otf">
<path d="M25,0L433,0C518,0 588,-70 588,-157C588,-239 545,-307 450,-365C440,-354 424,-338 417,-313C342,-305 276,-240 276,-157C276,-142 278,-127 282,-113L185,-113C161,-113 130,-126 117,-153L25,0ZM433,-113C408,-113 389,-132 389,-157C389,-181 408,-200 433,-200C457,-200 476,-181 476,-157C476,-132 457,-113 433,-113Z" transform="translate(0 2600)"/>
<path d="M-85,150C-19,244 200,237 200,60L200,0L320,0L320,-113L200,-113L200,-313L87,-288L87,67C87,127 56,188 -85,150Z" transform="translate(613 2600)"/>
<path d="M-20,0L600,0L660,-113L406,-113C321,-113 219,-196 148,-307L89,-193C105,-165 134,-130 158,-113L-20,-113L-20,0Z" transform="translate(913 2600)"/>
<path d="M-435,-165C-425,-161 -394,-153 -366,-153C-312,-153 -252,-180 -252,-300L-252,-800L-365,-775L-365,-276C-365,-218 -369,-174 -435,-165Z" transform="translate(1598 2600)"/>
<path d="M233,-58C208,-46 138,-33 138,-87L138,-800L25,-775L25,-87C25,43 212,17 233,-58Z" transform="translate(1598 2600)"/>
<path d="M-85,150C-19,244 200,237 200,60L200,0L320,0L320,-113L200,-113L200,-313L87,-288L87,67C87,127 56,188 -85,150Z" transform="translate(1961 2600)"/>
<path d="M81,47C81,133 153,203 238,203C324,203 394,133 394,47L394,0L507,0L507,-113L394,-113L394,-366C368,-316 281,-317 243,-317C241,-317 240,-317 238,-317C153,-317 81,-246 81,-160L81,-113L-20,-113L-20,0L81,0L81,47ZM238,90C214,90 195,71 195,47C195,22 214,3 238,3C263,3 281,22 281,47C281,71 263,90 238,90ZM238,-117C214,-117 195,-136 195,-160C195,-184 214,-203 238,-203C263,-203 281,-184 281,-160C281,-136 263,-117 238,-117Z" transform="translate(2261 2600)"/>
<path d="M58,58C90,58 116,32 116,0C116,-32 90,-58 58,-58C26,-58 0,-32 0,0C0,32 26,58 58,58ZM231,58C263,58 289,32 289,0C289,-32 263,-58 231,-58C199,-58 173,-32 173,0C173,32 199,58 231,58ZM145,-92C177,-92 203,-118 203,-150C203,-182 177,-208 145,-208C113,-208 87,-182 87,-150C87,-118 113,-92 145,-92Z" transform="translate(2948 2037)"/>
<path d="M-20,0L560,0C560,0 600,2 600,-23L600,-313L487,-288L487,-113L400,-113L400,-313L287,-288L287,-113L200,-113L200,-313L87,-288L87,-113L-20,-113L-20,0Z" transform="translate(2748 2600)"/>
<path d="M0,0L240,0L270,-50L191,-50C167,-50 135,-52 135,-89C135,-89 135,-89 135,-90C135,-98 135,-128 167,-137C186,-142 219,-132 227,-128C214,-159 182,-168 164,-168C112,-168 90,-139 79,-99C75,-81 73,-70 73,-50L30,-50L0,0Z" transform="translate(3328 1750)"/>
<path d="M138,-93L138,-800L25,-775L25,-150L138,-93Z" transform="translate(3373 2600)"/>
<path d="M182,207C268,207 338,137 338,50C338,12 324,-23 302,-50C325,-77 338,-112 338,-150L338,-775L225,-800L225,-150C225,-126 206,-107 182,-107C158,-107 138,-126 138,-150L25,-150C25,-112 39,-77 62,-50C39,-23 25,12 25,50C25,136 96,207 182,207ZM182,93C158,93 138,74 138,50C138,26 158,7 182,7C206,7 225,26 225,50C225,74 206,93 182,93Z" transform="translate(3373 2600)"/>
<path d="M233,-58C208,-46 138,-33 138,-87L138,-800L25,-775L25,-87C25,43 212,17 233,-58Z" transform="translate(3736 2600)"/>
<path d="M58,58C90,58 116,32 116,0C116,-32 90,-58 58,-58C26,-58 0,-32 0,0C0,32 26,58 58,58ZM231,58C263,58 289,32 289,0C289,-32 263,-58 231,-58C199,-58 173,-32 173,0C173,32 199,58 231,58Z" transform="translate(4194 2900)"/>
<path d="M25,200L521,200L259,-259C230,-310 239,-364 275,-387L498,0L700,0L700,-113L562,-113L288,-591C288,-539 264,-523 223,-493C142,-433 80,-345 162,-203L328,87L185,87C161,87 130,74 117,47L25,200Z" transform="translate(4099 2600)"/>
<path d="M58,58C90,58 116,32 116,0C116,-32 90,-58 58,-58C26,-58 0,-32 0,0C0,32 26,58 58,58Z" transform="translate(4964 2000)"/>
<path d="M-20,0L360,0C360,0 400,2 400,-23L400,-313C400,-400 330,-470 244,-470C159,-470 87,-400 87,-313C87,-227 159,-157 244,-157C259,-157 273,-159 287,-163L287,-113L-20,-113L-20,0ZM244,-270C220,-270 201,-289 201,-313C201,-338 220,-357 244,-357C269,-357 287,-338 287,-313C287,-289 269,-270 244,-270Z" transform="translate(4779 2600)"/>
<path d="M58,58C90,58 116,32 116,0C116,-32 90,-58 58,-58C26,-58 0,-32 0,0C0,32 26,58 58,58ZM231,58C263,58 289,32 289,0C289,-32 263,-58 231,-58C199,-58 173,-32 173,0C173,32 199,58 231,58Z" transform="translate(5429 2900)"/>
<path d="M25,200L521,200L259,-259C230,-310 239,-364 275,-387L498,0L700,0L700,-113L562,-113L288,-591C288,-539 264,-523 223,-493C142,-433 80,-345 162,-203L328,87L185,87C161,87 130,74 117,47L25,200Z" transform="translate(5334 2600)"/>
<path d="M-20,0L239,0C324,-1 393,-71 393,-157C393,-243 323,-313 237,-313C152,-313 80,-243 80,-157C80,-142 82,-127 87,-113L-20,-113L-20,0ZM237,-113C213,-113 194,-132 194,-157C194,-181 213,-200 237,-200C262,-200 280,-181 280,-157C280,-132 262,-113 237,-113Z" transform="translate(6014 2600)"/>
<path d="M25,0L805,0C805,0 845,2 845,-23C845,-31 845,-39 845,-47C846,-165 848,-313 642,-313L233,-313L285,-426L275,-433L135,-200L642,-200C717,-200 733,-163 732,-113L93,-113L25,0Z" transform="translate(6432 2600)"/>
<path d="M93,-200L662,-200C737,-200 753,-163 752,-113L93,-113L25,0L825,0C825,0 827,0 829,0L985,0L985,-113L865,-113C860,-214 830,-313 662,-313L206,-313L206,-800L93,-775L93,-200Z" transform="translate(7432 2600)"/>
<path d="M58,58C90,58 116,32 116,0C116,-32 90,-58 58,-58C26,-58 0,-32 0,0C0,32 26,58 58,58Z" transform="translate(8582 2000)"/>
<path d="M-20,0L360,0C360,0 362,0 364,0L520,0L520,-113L400,-113L400,-313C400,-400 330,-470 244,-470C159,-470 87,-400 87,-313C87,-227 159,-157 244,-157C259,-157 273,-159 287,-163L287,-113L-20,-113L-20,0ZM244,-270C220,-270 201,-289 201,-313C201,-338 220,-357 244,-357C269,-357 287,-338 287,-313C287,-289 269,-270 244,-270Z" transform="translate(8397 2600)"/>
<path d="M-20,0L560,0C560,0 600,2 600,-23L600,-313L487,-288L487,-113L400,-113L400,-313L287,-288L287,-113L200,-113L200,-313L87,-288L87,-113L-20,-113L-20,0Z" transform="translate(8897 2600)"/>
<path d="M332,-40C332,71 304,143 210,143C103,143 59,77 59,0C59,-37 75,-74 107,-81C125,-87 140,-84 160,-70C166,-93 152,-125 131,-135C150,-160 154,-182 151,-207C88,-167 25,-88 25,0C25,62 53,200 216,200C367,200 444,113 445,0L565,0L565,-113L445,-113L445,-800L332,-775L332,-40Z" transform="translate(9652 2600)"/>
<path d="M-20,0L600,0L660,-113L406,-113C321,-113 219,-196 148,-307L89,-193C105,-165 134,-130 158,-113L-20,-113L-20,0Z" transform="translate(10197 2600)"/>
<path d="M0,0L240,0L270,-50L191,-50C167,-50 135,-52 135,-89C135,-89 135,-89 135,-90C135,-98 135,-128 167,-137C186,-142 219,-132 227,-128C214,-159 182,-168 164,-168C112,-168 90,-139 79,-99C75,-81 73,-70 73,-50L30,-50L0,0Z" transform="translate(10894 1750)"/>
<path d="M326,-72C217,-18 138,-60 138,-113L138,-800L25,-775L25,-107C25,39 259,35 326,-72Z" transform="translate(10882 2600)"/>
<path d="M-50,181C5,235 138,193 138,93L138,-6C152,-2 166,0 181,0C182,0 182,0 182,0L439,0L439,-113L330,-113C334,-127 336,-142 336,-157C336,-226 291,-286 228,-306C211,-312 194,-323 181,-366C169,-323 153,-312 136,-307C72,-287 25,-227 25,-157L25,93C25,164 -44,181 -50,181ZM181,-113C157,-113 138,-132 138,-157C138,-181 157,-200 181,-200C206,-200 224,-181 224,-157C224,-132 206,-113 181,-113Z" transform="translate(11598 2600)"/>
<path d="M-20,0L160,0C160,0 162,0 164,0L320,0L320,-113L200,-113L200,-800L87,-775L87,-113L-20,-113L-20,0Z" transform="translate(12017 2600)"/>
<path d="M-20,0L320,0L320,-113L-20,-113L-20,0Z" transform="translate(12317 2600)"/>
<path d="M-20,-113L-20,0L502,0L502,-113L317,-113L481,-400L-1,-400L162,-113L-20,-113ZM240,-205L193,-287L286,-287L240,-205Z" transform="translate(12617 2600)"/>
<path d="M-20,0L160,0C160,0 200,2 200,-23L200,-800L87,-775L87,-113L-20,-113L-20,0Z" transform="translate(13099 2600)"/>
<path d="M326,-72C217,-18 138,-60 138,-113L138,-800L25,-775L25,-107C25,39 259,35 326,-72Z" transform="translate(13324 2600)"/>
<path d="M46,132C112,226 338,219 338,35L338,-363C312,-313 225,-313 187,-313C185,-313 184,-313 182,-313C96,-313 25,-243 25,-157C25,-70 96,0 182,0C197,0 211,-2 224,-6L224,52C224,98 199,173 46,132ZM182,-113C158,-113 138,-132 138,-157C138,-181 158,-200 182,-200C206,-200 225,-181 225,-157C225,-132 206,-113 182,-113Z" transform="translate(13780 2600)"/>
<path d="M58,58C90,58 116,32 116,0C116,-32 90,-58 58,-58C26,-58 0,-32 0,0C0,32 26,58 58,58Z" transform="translate(14445 2200)"/>
<path d="M222,204C345,204 435,116 435,-5C435,-122 387,-200 337,-262L280,-147C300,-121 334,-68 337,-15C340,62 294,134 205,134C109,134 59,76 59,0C59,-40 79,-82 114,-85C130,-86 143,-82 160,-71C166,-93 152,-125 131,-135C149,-159 154,-182 151,-207C88,-167 25,-88 25,0C25,87 84,204 222,204Z" transform="translate(14273 2600)"/>
<path d="M65,0L245,0L245,-113L138,-113L138,-800L25,-775L25,-23C25,2 65,0 65,0Z" transform="translate(14733 2600)"/>
<path d="M-20,0L320,0L320,-113L-20,-113L-20,0Z" transform="translate(14958 2600)"/>
<path d="M-20,0L320,0L320,-113L-20,-113L-20,0Z" transform="translate(15258 2600)"/>
<path d="M58,58C90,58 116,32 116,0C116,-32 90,-58 58,-58C26,-58 0,-32 0,0C0,32 26,58 58,58Z" transform="translate(15583 2750)"/>
<path d="M-20,0L160,0C160,0 162,0 164,0L320,0L320,-113L200,-113L200,-313L87,-288L87,-113L-20,-113L-20,0Z" transform="translate(15558 2600)"/>
<path d="M-20,0L160,0C160,0 200,2 200,-23L200,-800L87,-775L87,-113L-20,-113L-20,0Z" transform="translate(15858 2600)"/>
<path d="M326,-72C217,-18 138,-60 138,-113L138,-800L25,-775L25,-107C25,39 259,35 326,-72Z" transform="translate(16083 2600)"/>
<path d="M58,58C90,58 116,32 116,0C116,-32 90,-58 58,-58C26,-58 0,-32 0,0C0,32 26,58 58,58Z" transform="translate(16711 2200)"/>
<path d="M222,204C344,204 433,118 435,0L510,0L510,-113L420,-113C402,-174 370,-221 337,-262L280,-147C300,-121 334,-68 337,-15C340,62 294,134 205,134C109,134 59,76 59,0C59,-40 79,-82 114,-85C130,-86 143,-82 160,-71C166,-93 152,-125 131,-135C149,-159 154,-182 151,-207C88,-167 25,-88 25,0C25,87 84,204 222,204Z" transform="translate(16539 2600)"/>
<path d="M58,58C90,58 116,32 116,0C116,-32 90,-58 58,-58C26,-58 0,-32 0,0C0,32 26,58 58,58ZM231,58C263,58 289,32 289,0C289,-32 263,-58 231,-58C199,-58 173,-32 173,0C173,32 199,58 231,58Z" transform="translate(16967 2750)"/>
<path d="M-20,0L160,0C160,0 162,0 164,0L320,0L320,-113L200,-113L200,-383L87,-358L87,-113L-20,-113L-20,0Z" transform="translate(17029 2600)"/>
<path d="M58,58C90,58 116,32 116,0C116,-32 90,-58 58,-58C26,-58 0,-32 0,0C0,32 26,58 58,58Z" transform="translate(17354 2750)"/>
<path d="M-20,0L160,0C160,0 200,2 200,-23L200,-313L87,-288L87,-113L-20,-113L-20,0Z" transform="translate(17329 2600)"/>
<path d="M135,200C211,223 330,202 376,147C312,169 139,180 139,72C139,28 185,0 211,0L286,0L346,-113L224,-113C175,-113 132,-145 132,-191C132,-220 158,-250 187,-254C214,-259 249,-249 279,-224C263,-269 221,-307 165,-307C43,-307 -30,-133 70,-46C47,-20 27,10 27,59C27,132 78,182 135,200Z" transform="translate(17684 2600)"/>
<path d="M65,0L245,0L245,-113L138,-113L138,-800L25,-775L25,-23C25,2 65,0 65,0Z" transform="translate(18060 2600)"/>
<path d="M-20,0L320,0L320,-113L-20,-113L-20,0Z" transform="translate(18285 2600)"/>
<path d="M-20,0L320,0L320,-113L-20,-113L-20,0Z" transform="translate(18585 2600)"/>
<path d="M58,58C90,58 116,32 116,0C116,-32 90,-58 58,-58C26,-58 0,-32 0,0C0,32 26,58 58,58ZM231,58C263,58 289,32 289,0C289,-32 263,-58 231,-58C199,-58 173,-32 173,0C173,32 199,58 231,58Z" transform="translate(18983 2000)"/>
<path d="M-20,0L360,0C360,0 362,0 364,0L520,0L520,-113L400,-113L400,-313C400,-400 330,-470 244,-470C159,-470 87,-400 87,-313C87,-227 159,-157 244,-157C259,-157 273,-159 287,-163L287,-113L-20,-113L-20,0ZM244,-270C220,-270 201,-289 201,-313C201,-338 220,-357 244,-357C269,-357 287,-338 287,-313C287,-289 269,-270 244,-270Z" transform="translate(18885 2600)"/>
<path d="M-20,0L160,0C160,0 200,2 200,-23L200,-800L87,-775L87,-113L-20,-113L-20,0Z" transform="translate(19385 2600)"/>
<path d="M326,-72C217,-18 138,-60 138,-113L138,-800L25,-775L25,-107C25,39 259,35 326,-72Z" transform="translate(19610 2600)"/>
<path d="M25,0L447,0L299,-259C270,-310 279,-364 315,-387L538,0L740,0L740,-113L602,-113L328,-591C328,-539 304,-523 263,-493C182,-433 121,-345 202,-203L253,-113L185,-113C161,-113 130,-126 117,-153L25,0Z" transform="translate(20066 2600)"/>
<path d="M-20,0L160,0C160,0 162,0 164,0L320,0L320,-113L200,-113L200,-800L87,-775L87,-113L-20,-113L-20,0Z" transform="translate(20786 2600)"/>
<path d="M-27,0L450,0L510,-113L270,-113C233,-113 211,-137 192,-159C180,-171 178,-195 185,-211C200,-241 238,-273 323,-313L316,-322C152,-276 94,-234 72,-200C58,-178 61,-132 83,-113L-27,-113L-27,0Z" transform="translate(21086 2600)"/>
<path d="M-50,181C5,235 138,193 138,93L138,-6C152,-2 166,0 181,0C182,0 182,0 182,0L439,0L439,-113L330,-113C334,-127 336,-142 336,-157C336,-226 291,-286 228,-306C211,-312 194,-323 181,-366C169,-323 153,-312 136,-307C72,-287 25,-227 25,-157L25,93C25,164 -44,181 -50,181ZM181,-113C157,-113 138,-132 138,-157C138,-181 157,-200 181,-200C206,-200 224,-181 224,-157C224,-132 206,-113 181,-113Z" transform="translate(21751 2600)"/>
<path d="M58,58C90,58 116,32 116,0C116,-32 90,-58 58,-58C26,-58 0,-32 0,0C0,32 26,58 58,58ZM231,58C263,58 289,32 289,0C289,-32 263,-58 231,-58C199,-58 173,-32 173,0C173,32 199,58 231,58Z" transform="translate(22108 2750)"/>
<path d="M-20,0L160,0C160,0 200,2 200,-23L200,-313L87,-288L87,-113L-20,-113L-20,0Z" transform="translate(22170 2600)"/>
<path d="M-85,150C-19,244 200,237 200,60L200,-313L87,-288L87,67C87,127 56,188 -85,150Z" transform="translate(22495 2600)"/>
</g>
<g id="ReemKufi-SemiBold.otf">
<path d="M25,0L425,0C515,0 588,-73 588,-163C588,-251 543,-319 441,-382C431,-371 411,-349 404,-325C331,-316 262,-252 262,-163C262,-151 263,-138 266,-127L193,-127C169,-127 138,-140 125,-167L25,0ZM425,-127C405,-127 388,-143 388,-163C388,-184 405,-200 425,-200C446,-200 461,-184 461,-163C461,-143 446,-127 425,-127Z" transform="translate(0 4100)"/>
<path d="M-85,150C-19,244 200,237 200,60L200,0L320,0L320,-127L200,-127L200,-327L73,-299L73,63C73,127 45,184 -85,150Z" transform="translate(613 4100)"/>
<path d="M-20,0L600,0L660,-127L396,-127C322,-127 218,-212 145,-325L82,-204C100,-174 122,-143 143,-127L-20,-127L-20,0Z" transform="translate(913 4100)"/>
<path d="M-435,-165C-422,-161 -390,-153 -360,-153C-302,-153 -238,-180 -238,-300L-238,-800L-365,-772L-365,-276C-365,-218 -369,-174 -435,-165Z" transform="translate(1598 4100)"/>
<path d="M247,-58C222,-46 152,-33 152,-93L152,-800L25,-772L25,-93C25,47 226,17 247,-58Z" transform="translate(1598 4100)"/>
<path d="M-85,150C-19,244 200,237 200,60L200,0L320,0L320,-127L200,-127L200,-327L73,-299L73,63C73,127 45,184 -85,150Z" transform="translate(1975 4100)"/>
<path d="M68,43C68,133 142,207 232,207C321,207 394,134 394,43L394,0L507,0L507,-127L394,-127L394,-386C367,-334 267,-333 232,-333C142,-333 68,-260 68,-170L68,-127L-20,-127L-20,0L68,0L68,43ZM232,-133C211,-133 194,-149 194,-170C194,-191 211,-207 232,-207C252,-207 268,-191 268,-170C268,-149 252,-133 232,-133ZM232,80C211,80 194,64 194,43C194,23 211,7 232,7C252,7 268,23 268,43C268,64 252,80 232,80Z" transform="translate(2275 4100)"/>
<path d="M58,58C90,58 116,32 116,0C116,-32 90,-58 58,-58C26,-58 0,-32 0,0C0,32 26,58 58,58ZM231,58C263,58 289,32 289,0C289,-32 263,-58 231,-58C199,-58 173,-32 173,0C173,32 199,58 231,58ZM145,-92C177,-92 203,-118 203,-150C203,-182 177,-208 145,-208C113,-208 87,-182 87,-150C87,-118 113,-92 145,-92Z" transform="translate(2962 3523)"/>
<path d="M-20,0L560,0C560,0 600,2 600,-23L600,-327L473,-299L473,-127L400,-127L400,-327L273,-299L273,-127L200,-127L200,-327L73,-299L73,-127L-20,-127L-20,0Z" transform="translate(2762 4100)"/>
<path d="M0,0L240,0L270,-50L191,-50C167,-50 135,-52 135,-89C135,-89 135,-89 135,-90C135,-98 135,-128 167,-137C186,-142 219,-132 227,-128C214,-159 182,-168 164,-168C112,-168 90,-139 79,-99C75,-81 73,-70 73,-50L30,-50L0,0Z" transform="translate(3342 3250)"/>
<path d="M152,-87L152,-800L25,-772L25,-150L152,-87Z" transform="translate(3387 4100)"/>
<path d="M189,213C278,213 351,140 351,50C351,12 339,-22 317,-50C339,-78 352,-112 352,-150L352,-772L225,-800L225,-150C225,-129 210,-113 189,-113C168,-113 152,-129 152,-150L25,-150C25,-112 38,-78 60,-50C38,-22 25,12 25,50C25,140 100,213 189,213ZM189,87C168,87 152,71 152,50C152,29 168,13 189,13C210,13 225,29 225,50C225,71 210,87 189,87Z" transform="translate(3387 4100)"/>
<path d="M247,-58C222,-46 152,-33 152,-93L152,-800L25,-772L25,-93C25,47 226,17 247,-58Z" transform="translate(3764 4100)"/>
<path d="M58,58C90,58 116,32 116,0C116,-32 90,-58 58,-58C26,-58 0,-32 0,0C0,32 26,58 58,58ZM231,58C263,58 289,32 289,0C289,-32 263,-58 231,-58C199,-58 173,-32 173,0C173,32 199,58 231,58Z" transform="translate(4236 4400)"/>
<path d="M25,200L534,200L269,-265C247,-303 253,-344 274,-363L485,0L700,0L700,-127L554,-127L288,-591C288,-539 264,-523 223,-493C142,-433 81,-345 162,-203L320,73L193,73C169,73 138,60 125,33L25,200Z" transform="translate(4141 4100)"/>
<path d="M58,58C90,58 116,32 116,0C116,-32 90,-58 58,-58C26,-58 0,-32 0,0C0,32 26,58 58,58Z" transform="translate(5000 3500)"/>
<path d="M-20,0L360,0C360,0 400,2 400,-23L400,-327C400,-417 327,-490 238,-490C148,-490 74,-416 74,-327C74,-237 148,-163 238,-163C250,-163 262,-165 273,-167L273,-127L-20,-127L-20,0ZM238,-290C217,-290 200,-306 200,-327C200,-347 217,-363 238,-363C258,-363 274,-347 274,-327C274,-306 258,-290 238,-290Z" transform="translate(4821 4100)"/>
<path d="M58,58C90,58 116,32 116,0C116,-32 90,-58 58,-58C26,-58 0,-32 0,0C0,32 26,58 58,58ZM231,58C263,58 289,32 289,0C289,-32 263,-58 231,-58C199,-58 173,-32 173,0C173,32 199,58 231,58Z" transform="translate(5471 4400)"/>
<path d="M25,200L534,200L269,-265C247,-303 253,-344 274,-363L485,0L700,0L700,-127L554,-127L288,-591C288,-539 264,-523 223,-493C142,-433 81,-345 162,-203L320,73L193,73C169,73 138,60 125,33L25,200Z" transform="translate(5376 4100)"/>
<path d="M-20,0L233,0C321,-1 393,-74 393,-163C393,-254 320,-327 231,-327C141,-327 67,-253 67,-163C67,-151 68,-138 71,-127L-20,-127L-20,0ZM231,-127C210,-127 193,-143 193,-163C193,-184 210,-200 231,-200C251,-200 267,-184 267,-163C267,-143 251,-127 231,-127Z" transform="translate(6056 4100)"/>
<path d="M25,0L805,0C805,0 845,2 845,-23C845,-30 845,-38 845,-46C846,-165 848,-327 628,-327L241,-327L293,-440L283,-447L135,-200L628,-200C703,-200 719,-169 718,-127L101,-127L25,0Z" transform="translate(6474 4100)"/>
<path d="M101,-200L648,-200C723,-200 739,-169 738,-127L101,-127L25,0L825,0C825,0 827,0 829,0L985,0L985,-127L864,-127C857,-227 820,-327 648,-327L228,-327L228,-800L101,-772L101,-200Z" transform="translate(7474 4100)"/>
<path d="M58,58C90,58 116,32 116,0C116,-32 90,-58 58,-58C26,-58 0,-32 0,0C0,32 26,58 58,58Z" transform="translate(8618 3500)"/>
<path d="M-20,0L360,0C360,0 362,0 364,0L520,0L520,-127L400,-127L400,-327C400,-417 327,-490 238,-490C148,-490 74,-416 74,-327C74,-237 148,-163 238,-163C250,-163 262,-165 273,-167L273,-127L-20,-127L-20,0ZM238,-290C217,-290 200,-306 200,-327C200,-347 217,-363 238,-363C258,-363 274,-347 274,-327C274,-306 258,-290 238,-290Z" transform="translate(8439 4100)"/>
<path d="M-20,0L560,0C560,0 600,2 600,-23L600,-327L473,-299L473,-127L400,-127L400,-327L273,-299L273,-127L200,-127L200,-327L73,-299L73,-127L-20,-127L-20,0Z" transform="translate(8939 4100)"/>
<path d="M318,-40C318,71 290,143 204,143C115,143 62,78 62,1C62,-36 77,-63 102,-73C120,-81 140,-81 160,-64C166,-87 152,-125 131,-135C150,-160 154,-182 151,-207C88,-167 25,-88 25,0C25,62 53,200 216,200C367,200 444,113 445,0L565,0L565,-127L445,-127L445,-800L318,-772L318,-40Z" transform="translate(9694 4100)"/>
<path d="M-20,0L600,0L660,-127L396,-127C322,-127 218,-212 145,-325L82,-204C100,-174 122,-143 143,-127L-20,-127L-20,0Z" transform="translate(10239 4100)"/>
<path d="M0,0L240,0L270,-50L191,-50C167,-50 135,-52 135,-89C135,-89 135,-89 135,-90C135,-98 135,-128 167,-137C186,-142 219,-132 227,-128C214,-159 182,-168 164,-168C112,-168 90,-139 79,-99C75,-81 73,-70 73,-50L30,-50L0,0Z" transform="translate(10942 3250)"/>
<path d="M340,-72C231,-18 152,-66 152,-127L152,-800L25,-772L25,-113C25,39 273,35 340,-72Z" transform="translate(10924 4100)"/>
<path d="M-50,181C5,235 152,197 152,87L152,-4C164,-1 176,0 189,0C189,0 190,0 191,0L439,0L439,-127L347,-127C349,-138 351,-151 351,-163C351,-235 304,-298 238,-319C217,-327 203,-335 188,-383C175,-336 161,-325 142,-320C74,-299 25,-236 25,-164L25,87C25,164 -44,181 -50,181ZM189,-127C168,-127 151,-143 151,-163C151,-184 168,-200 189,-200C209,-200 225,-184 225,-163C225,-143 209,-127 189,-127Z" transform="translate(11654 4100)"/>
<path d="M-20,0L160,0C160,0 162,0 164,0L320,0L320,-127L200,-127L200,-800L73,-772L73,-127L-20,-127L-20,0Z" transform="translate(12073 4100)"/>
<path d="M-20,0L320,0L320,-127L-20,-127L-20,0Z" transform="translate(12373 4100)"/>
<path d="M-20,-127L-20,0L523,0L523,-127L347,-127L502,-400L-2,-400L153,-127L-20,-127ZM250,-212L215,-273L285,-273L250,-212Z" transform="translate(12673 4100)"/>
<path d="M-20,0L160,0C160,0 200,2 200,-23L200,-800L73,-772L73,-127L-20,-127L-20,0Z" transform="translate(13176 4100)"/>
<path d="M340,-72C231,-18 152,-66 152,-127L152,-800L25,-772L25,-113C25,39 273,35 340,-72Z" transform="translate(13401 4100)"/>
<path d="M53,132C119,226 351,220 351,29L351,-379C324,-327 224,-327 189,-327C100,-327 25,-253 25,-163C25,-74 100,0 189,0C201,0 213,-1 225,-4L225,52C225,86 206,173 53,132ZM189,-127C168,-127 152,-143 152,-163C152,-184 168,-200 189,-200C210,-200 225,-184 225,-163C225,-143 210,-127 189,-127Z" transform="translate(13871 4100)"/>
<path d="M58,58C90,58 116,32 116,0C116,-32 90,-58 58,-58C26,-58 0,-32 0,0C0,32 26,58 58,58Z" transform="translate(14549 3700)"/>
<path d="M222,204C337,204 435,124 435,-5C435,-122 387,-200 337,-262L274,-137C294,-108 323,-58 324,-11C326,74 271,133 195,133C117,133 62,82 62,0C62,-40 84,-78 117,-79C132,-80 144,-75 160,-64C165,-85 153,-124 131,-135C148,-157 154,-181 151,-207C88,-167 25,-88 25,0C25,113 103,204 222,204Z" transform="translate(14377 4100)"/>
<path d="M65,0L245,0L245,-127L152,-127L152,-800L25,-772L25,-23C25,2 65,0 65,0Z" transform="translate(14837 4100)"/>
<path d="M-20,0L320,0L320,-127L-20,-127L-20,0Z" transform="translate(15062 4100)"/>
<path d="M-20,0L320,0L320,-127L-20,-127L-20,0Z" transform="translate(15362 4100)"/>
<path d="M58,58C90,58 116,32 116,0C116,-32 90,-58 58,-58C26,-58 0,-32 0,0C0,32 26,58 58,58Z" transform="translate(15687 4250)"/>
<path d="M-20,0L160,0C160,0 162,0 164,0L320,0L320,-127L200,-127L200,-327L73,-299L73,-127L-20,-127L-20,0Z" transform="translate(15662 4100)"/>
<path d="M-20,0L160,0C160,0 200,2 200,-23L200,-800L73,-772L73,-127L-20,-127L-20,0Z" transform="translate(15962 4100)"/>
<path d="M340,-72C231,-18 152,-66 152,-127L152,-800L25,-772L25,-113C25,39 273,35 340,-72Z" transform="translate(16187 4100)"/>
<path d="M58,58C90,58 116,32 116,0C116,-32 90,-58 58,-58C26,-58 0,-32 0,0C0,32 26,58 58,58Z" transform="translate(16829 3700)"/>
<path d="M222,204C335,204 432,126 435,0L510,0L510,-127L415,-127C397,-181 367,-224 337,-262L274,-137C294,-108 323,-58 324,-11C326,74 271,133 195,133C117,133 62,82 62,0C62,-40 84,-78 117,-79C132,-80 144,-75 160,-64C165,-85 153,-124 131,-135C148,-157 154,-181 151,-207C88,-167 25,-88 25,0C25,113 103,204 222,204Z" transform="translate(16657 4100)"/>
<path d="M58,58C90,58 116,32 116,0C116,-32 90,-58 58,-58C26,-58 0,-32 0,0C0,32 26,58 58,58ZM231,58C263,58 289,32 289,0C289,-32 263,-58 231,-58C199,-58 173,-32 173,0C173,32 199,58 231,58Z" transform="translate(17085 4250)"/>
<path d="M-20,0L160,0C160,0 162,0 164,0L320,0L320,-127L200,-127L200,-397L73,-369L73,-127L-20,-127L-20,0Z" transform="translate(17147 4100)"/>
<path d="M58,58C90,58 116,32 116,0C116,-32 90,-58 58,-58C26,-58 0,-32 0,0C0,32 26,58 58,58Z" transform="translate(17472 4250)"/>
<path d="M-20,0L160,0C160,0 200,2 200,-23L200,-327L73,-299L73,-127L-20,-127L-20,0Z" transform="translate(17447 4100)"/>
<path d="M139,200C215,224 337,202 383,147C319,169 152,180 152,72C152,24 198,0 223,0L293,0L353,-127L240,-127C182,-127 145,-158 145,-197C145,-224 168,-250 195,-254C221,-259 254,-249 286,-224C275,-264 233,-313 172,-313C42,-313 -30,-140 70,-49C48,-21 31,10 31,59C31,132 82,182 139,200Z" transform="translate(17802 4100)"/>
<path d="M65,0L245,0L245,-127L152,-127L152,-800L25,-772L25,-23C25,2 65,0 65,0Z" transform="translate(18185 4100)"/>
<path d="M-20,0L320,0L320,-127L-20,-127L-20,0Z" transform="translate(18410 4100)"/>
<path d="M-20,0L320,0L320,-127L-20,-127L-20,0Z" transform="translate(18710 4100)"/>
<path d="M58,58C90,58 116,32 116,0C116,-32 90,-58 58,-58C26,-58 0,-32 0,0C0,32 26,58 58,58ZM231,58C263,58 289,32 289,0C289,-32 263,-58 231,-58C199,-58 173,-32 173,0C173,32 199,58 231,58Z" transform="translate(19102 3500)"/>
<path d="M-20,0L360,0C360,0 362,0 364,0L520,0L520,-127L400,-127L400,-327C400,-417 327,-490 238,-490C148,-490 74,-416 74,-327C74,-237 148,-163 238,-163C250,-163 262,-165 273,-167L273,-127L-20,-127L-20,0ZM238,-290C217,-290 200,-306 200,-327C200,-347 217,-363 238,-363C258,-363 274,-347 274,-327C274,-306 258,-290 238,-290Z" transform="translate(19010 4100)"/>
<path d="M-20,0L160,0C160,0 200,2 200,-23L200,-800L73,-772L73,-127L-20,-127L-20,0Z" transform="translate(19510 4100)"/>
<path d="M340,-72C231,-18 152,-66 152,-127L152,-800L25,-772L25,-113C25,39 273,35 340,-72Z" transform="translate(19735 4100)"/>
<path d="M25,0L460,0L309,-265C287,-303 293,-344 314,-363L525,0L740,0L740,-127L594,-127L328,-591C328,-539 304,-523 263,-493C182,-433 121,-345 202,-203L246,-127L193,-127C169,-127 138,-140 125,-167L25,0Z" transform="translate(20205 4100)"/>
<path d="M-20,0L160,0C160,0 162,0 164,0L320,0L320,-127L200,-127L200,-800L73,-772L73,-127L-20,-127L-20,0Z" transform="translate(20925 4100)"/>
<path d="M-33,0L451,0L510,-127L270,-127C236,-127 216,-149 196,-171C186,-184 183,-207 191,-221C206,-250 243,-282 334,-323L327,-332C159,-293 95,-261 67,-217C49,-190 55,-149 70,-127L-33,-127L-33,0Z" transform="translate(21225 4100)"/>
<path d="M-50,181C5,235 152,197 152,87L152,-4C164,-1 176,0 189,0C189,0 190,0 191,0L439,0L439,-127L347,-127C349,-138 351,-151 351,-163C351,-235 304,-298 238,-319C217,-327 203,-335 188,-383C175,-336 161,-325 142,-320C74,-299 25,-236 25,-164L25,87C25,164 -44,181 -50,181ZM189,-127C168,-127 151,-143 151,-163C151,-184 168,-200 189,-200C209,-200 225,-184 225,-163C225,-143 209,-127 189,-127Z" transform="translate(21890 4100)"/>
<path d="M58,58C90,58 116,32 116,0C116,-32 90,-58 58,-58C26,-58 0,-32 0,0C0,32 26,58 58,58ZM231,58C263,58 289,32 289,0C289,-32 263,-58 231,-58C199,-58 173,-32 173,0C173,32 199,58 231,58Z" transform="translate(22247 4250)"/>
<path d="M-20,0L160,0C160,0 200,2 200,-23L200,-327L73,-299L73,-127L-20,-127L-20,0Z" transform="translate(22309 4100)"/>
<path d="M-85,150C-19,244 200,237 200,60L200,-327L73,-299L73,63C73,127 45,184 -85,150Z" transform="translate(22634 4100)"/>
</g>
<g id="ReemKufi-Bold.otf">
<path d="M25,0L418,0C511,0 588,-76 588,-170C588,-264 541,-332 432,-398C423,-388 398,-361 391,-338C320,-326 247,-263 247,-170C247,-160 248,-150 250,-140L201,-140C177,-140 146,-153 133,-180L25,0ZM418,-140C401,-140 387,-153 387,-170C387,-187 401,-200 418,-200C435,-200 447,-187 447,-170C447,-153 435,-140 418,-140Z" transform="translate(0 5600)"/>
<path d="M-85,150C-19,244 200,237 200,60L200,0L320,0L320,-140L200,-140L200,-340L60,-309L60,60C60,127 33,181 -85,150Z" transform="translate(613 5600)"/>
<path d="M-20,0L600,0L660,-140L386,-140C323,-140 216,-229 142,-342L76,-214C94,-182 111,-157 128,-140L-20,-140L-20,0Z" transform="translate(913 5600)"/>
<path d="M-435,-165C-420,-160 -385,-152 -353,-152C-291,-152 -225,-180 -225,-300L-225,-800L-365,-769L-365,-276C-365,-218 -369,-174 -435,-165Z" transform="translate(1598 5600)"/>
<path d="M260,-58C235,-46 165,-33 165,-100L165,-800L25,-769L25,-100C25,50 239,17 260,-58Z" transform="translate(1598 5600)"/>
<path d="M-85,150C-19,244 200,237 200,60L200,0L320,0L320,-140L200,-140L200,-340L60,-309L60,60C60,127 33,181 -85,150Z" transform="translate(1988 5600)"/>
<path d="M54,40C54,133 132,210 225,210C318,210 394,134 394,40L394,0L507,0L507,-140L394,-140L394,-406C367,-354 260,-350 225,-350C132,-350 54,-273 54,-180L54,-140L-20,-140L-20,0L54,0L54,40ZM225,70C208,70 194,57 194,40C194,23 208,10 225,10C242,10 254,23 254,40C254,57 242,70 225,70ZM225,-150C208,-150 194,-163 194,-180C194,-197 208,-210 225,-210C242,-210 254,-197 254,-180C254,-163 242,-150 225,-150Z" transform="translate(2288 5600)"/>
<path d="M58,58C90,58 116,32 116,0C116,-32 90,-58 58,-58C26,-58 0,-32 0,0C0,32 26,58 58,58ZM231,58C263,58 289,32 289,0C289,-32 263,-58 231,-58C199,-58 173,-32 173,0C173,32 199,58 231,58ZM145,-92C177,-92 203,-118 203,-150C203,-182 177,-208 145,-208C113,-208 87,-182 87,-150C87,-118 113,-92 145,-92Z" transform="translate(2975 5010)"/>
<path d="M-20,0L560,0C560,0 600,2 600,-23L600,-340L460,-309L460,-140L400,-140L400,-340L260,-309L260,-140L200,-140L200,-340L60,-309L60,-140L-20,-140L-20,0Z" transform="translate(2775 5600)"/>
<path d="M0,0L240,0L270,-50L191,-50C167,-50 135,-52 135,-89C135,-89 135,-89 135,-90C135,-98 135,-128 167,-137C186,-142 219,-132 227,-128C214,-159 182,-168 164,-168C112,-168 90,-139 79,-99C75,-81 73,-70 73,-50L30,-50L0,0Z" transform="translate(3355 4750)"/>
<path d="M165,-80L165,-800L25,-769L25,-150L165,-80Z" transform="translate(3400 5600)"/>
<path d="M196,220C289,220 365,144 365,50C365,13 353,-22 333,-50C353,-78 365,-113 365,-150L365,-769L225,-800L225,-150C225,-133 213,-120 196,-120C179,-120 165,-133 165,-150L25,-150C25,-113 37,-78 58,-50C37,-22 25,13 25,50C25,143 103,220 196,220ZM196,80C179,80 165,67 165,50C165,33 179,20 196,20C213,20 225,33 225,50C225,67 213,80 196,80Z" transform="translate(3400 5600)"/>
<path d="M260,-58C235,-46 165,-33 165,-100L165,-800L25,-769L25,-100C25,50 239,17 260,-58Z" transform="translate(3790 5600)"/>
<path d="M58,58C90,58 116,32 116,0C116,-32 90,-58 58,-58C26,-58 0,-32 0,0C0,32 26,58 58,58ZM231,58C263,58 289,32 289,0C289,-32 263,-58 231,-58C199,-58 173,-32 173,0C173,32 199,58 231,58Z" transform="translate(4275 5900)"/>
<path d="M25,200L548,200L279,-272C265,-296 266,-325 274,-340L471,0L700,0L700,-140L547,-140L288,-591C288,-539 264,-523 223,-493C142,-433 81,-345 162,-203L313,60L201,60C177,60 146,47 133,20L25,200Z" transform="translate(4180 5600)"/>
<path d="M58,58C90,58 116,32 116,0C116,-32 90,-58 58,-58C26,-58 0,-32 0,0C0,32 26,58 58,58Z" transform="translate(5032 5000)"/>
<path d="M-20,0L360,0C360,0 400,2 400,-23L400,-340C400,-434 324,-510 231,-510C138,-510 60,-433 60,-340C60,-247 138,-170 231,-170C241,-170 251,-171 260,-173L260,-140L-20,-140L-20,0ZM231,-310C214,-310 200,-323 200,-340C200,-357 214,-370 231,-370C248,-370 260,-357 260,-340C260,-323 248,-310 231,-310Z" transform="translate(4860 5600)"/>
<path d="M58,58C90,58 116,32 116,0C116,-32 90,-58 58,-58C26,-58 0,-32 0,0C0,32 26,58 58,58ZM231,58C263,58 289,32 289,0C289,-32 263,-58 231,-58C199,-58 173,-32 173,0C173,32 199,58 231,58Z" transform="translate(5510 5900)"/>
<path d="M25,200L548,200L279,-272C265,-296 266,-325 274,-340L471,0L700,0L700,-140L547,-140L288,-591C288,-539 264,-523 223,-493C142,-433 81,-345 162,-203L313,60L201,60C177,60 146,47 133,20L25,200Z" transform="translate(5415 5600)"/>
<path d="M-20,0L227,0C319,-2 393,-77 393,-170C393,-264 317,-340 224,-340C131,-340 53,-263 53,-170C53,-160 54,-150 56,-140L-20,-140L-20,0ZM224,-140C207,-140 193,-153 193,-170C193,-187 207,-200 224,-200C241,-200 253,-187 253,-170C253,-153 241,-140 224,-140Z" transform="translate(6095 5600)"/>
<path d="M25,0L805,0C805,0 845,2 845,-23C845,-30 845,-37 845,-45C846,-165 847,-340 615,-340L249,-340L301,-453L291,-460L135,-200L615,-200C690,-200 706,-176 705,-140L109,-140L25,0Z" transform="translate(6513 5600)"/>
<path d="M109,-200L635,-200C710,-200 726,-176 725,-140L109,-140L25,0L825,0C825,0 827,0 829,0L985,0L985,-140L862,-140C853,-241 810,-340 635,-340L249,-340L249,-800L109,-769L109,-200Z" transform="translate(7513 5600)"/>
<path d="M58,58C90,58 116,32 116,0C116,-32 90,-58 58,-58C26,-58 0,-32 0,0C0,32 26,58 58,58Z" transform="translate(8650 5000)"/>
<path d="M-20,0L360,0C360,0 362,0 364,0L520,0L520,-140L400,-140L400,-340C400,-434 324,-510 231,-510C138,-510 60,-433 60,-340C60,-247 138,-170 231,-170C241,-170 251,-171 260,-173L260,-140L-20,-140L-20,0ZM231,-310C214,-310 200,-323 200,-340C200,-357 214,-370 231,-370C248,-370 260,-357 260,-340C260,-323 248,-310 231,-310Z" transform="translate(8478 5600)"/>
<path d="M-20,0L560,0C560,0 600,2 600,-23L600,-340L460,-309L460,-140L400,-140L400,-340L260,-309L260,-140L200,-140L200,-340L60,-309L60,-140L-20,-140L-20,0Z" transform="translate(8978 5600)"/>
<path d="M305,-40C305,71 276,143 198,143C126,143 66,79 66,1C66,-34 79,-51 98,-64C116,-76 139,-77 160,-57C166,-80 152,-125 131,-135C150,-160 154,-182 151,-207C88,-167 25,-88 25,0C25,62 53,200 216,200C367,200 444,113 445,0L565,0L565,-140L445,-140L445,-800L305,-769L305,-40Z" transform="translate(9733 5600)"/>
<path d="M-20,0L600,0L660,-140L386,-140C323,-140 216,-229 142,-342L76,-214C94,-182 111,-157 128,-140L-20,-140L-20,0Z" transform="translate(10278 5600)"/>
<path d="M0,0L240,0L270,-50L191,-50C167,-50 135,-52 135,-89C135,-89 135,-89 135,-90C135,-98 135,-128 167,-137C186,-142 219,-132 227,-128C214,-159 182,-168 164,-168C112,-168 90,-139 79,-99C75,-81 73,-70 73,-50L30,-50L0,0Z" transform="translate(10988 4750)"/>
<path d="M353,-72C244,-18 165,-73 165,-140L165,-800L25,-769L25,-120C25,40 286,35 353,-72Z" transform="translate(10963 5600)"/>
<path d="M-50,181C5,235 165,200 165,80L165,-3C175,-1 185,0 196,0C197,0 198,0 199,0L439,0L439,-140L362,-140C364,-150 365,-160 365,-170C365,-244 316,-310 247,-332C223,-341 212,-348 195,-399C180,-349 169,-339 147,-333C76,-311 25,-246 25,-171L25,80C25,164 -44,181 -50,181ZM196,-140C179,-140 165,-153 165,-170C165,-187 179,-200 196,-200C213,-200 225,-187 225,-170C225,-153 213,-140 196,-140Z" transform="translate(11706 5600)"/>
<path d="M-20,0L160,0C160,0 162,0 164,0L320,0L320,-140L200,-140L200,-800L60,-769L60,-140L-20,-140L-20,0Z" transform="translate(12125 5600)"/>
<path d="M-20,0L320,0L320,-140L-20,-140L-20,0Z" transform="translate(12425 5600)"/>
<path d="M-20,-140L-20,0L545,0L545,-140L376,-140L524,-400L-3,-400L145,-140L-20,-140ZM260,-218L236,-260L284,-260L260,-218Z" transform="translate(12725 5600)"/>
<path d="M-20,0L160,0C160,0 200,2 200,-23L200,-800L60,-769L60,-140L-20,-140L-20,0Z" transform="translate(13250 5600)"/>
<path d="M353,-72C244,-18 165,-73 165,-140L165,-800L25,-769L25,-120C25,40 286,35 353,-72Z" transform="translate(13475 5600)"/>
<path d="M60,132C126,226 365,220 365,22L365,-396C338,-344 231,-340 196,-340C103,-340 25,-263 25,-170C25,-77 103,0 196,0C206,0 216,-1 225,-3L225,52C225,75 213,173 60,132ZM196,-140C179,-140 165,-153 165,-170C165,-187 179,-200 196,-200C213,-200 225,-187 225,-170C225,-153 213,-140 196,-140Z" transform="translate(13958 5600)"/>
<path d="M58,58C90,58 116,32 116,0C116,-32 90,-58 58,-58C26,-58 0,-32 0,0C0,32 26,58 58,58Z" transform="translate(14650 5200)"/>
<path d="M223,204C328,204 435,132 435,-5C435,-122 387,-200 337,-262L269,-126C289,-95 311,-49 311,-6C311,85 247,131 184,131C124,131 66,89 66,0C66,-41 90,-74 120,-74C133,-74 146,-69 160,-58C165,-78 153,-124 131,-135C147,-156 154,-181 151,-207C88,-167 25,-88 25,0C25,138 123,204 223,204Z" transform="translate(14478 5600)"/>
<path d="M65,0L245,0L245,-140L165,-140L165,-800L25,-769L25,-23C25,2 65,0 65,0Z" transform="translate(14938 5600)"/>
<path d="M-20,0L320,0L320,-140L-20,-140L-20,0Z" transform="translate(15163 5600)"/>
<path d="M-20,0L320,0L320,-140L-20,-140L-20,0Z" transform="translate(15463 5600)"/>
<path d="M58,58C90,58 116,32 116,0C116,-32 90,-58 58,-58C26,-58 0,-32 0,0C0,32 26,58 58,58Z" transform="translate(15788 5750)"/>
<path d="M-20,0L160,0C160,0 162,0 164,0L320,0L320,-140L200,-140L200,-340L60,-309L60,-140L-20,-140L-20,0Z" transform="translate(15763 5600)"/>
<path d="M-20,0L160,0C160,0 200,2 200,-23L200,-800L60,-769L60,-140L-20,-140L-20,0Z" transform="translate(16063 5600)"/>
<path d="M353,-72C244,-18 165,-73 165,-140L165,-800L25,-769L25,-120C25,40 286,35 353,-72Z" transform="translate(16288 5600)"/>
<path d="M58,58C90,58 116,32 116,0C116,-32 90,-58 58,-58C26,-58 0,-32 0,0C0,32 26,58 58,58Z" transform="translate(16943 5200)"/>
<path d="M223,204C327,204 432,134 435,0L510,0L510,-140L411,-140C392,-188 365,-228 337,-262L269,-126C289,-95 311,-49 311,-6C311,85 247,131 184,131C124,131 66,89 66,0C66,-41 90,-74 120,-74C133,-74 146,-69 160,-58C165,-78 153,-124 131,-135C147,-156 154,-181 151,-207C88,-167 25,-88 25,0C25,138 123,204 223,204Z" transform="translate(16771 5600)"/>
<path d="M58,58C90,58 116,32 116,0C116,-32 90,-58 58,-58C26,-58 0,-32 0,0C0,32 26,58 58,58ZM231,58C263,58 289,32 289,0C289,-32 263,-58 231,-58C199,-58 173,-32 173,0C173,32 199,58 231,58Z" transform="translate(17199 5750)"/>
<path d="M-20,0L160,0C160,0 162,0 164,0L320,0L320,-140L200,-140L200,-410L60,-379L60,-140L-20,-140L-20,0Z" transform="translate(17261 5600)"/>
<path d="M58,58C90,58 116,32 116,0C116,-32 90,-58 58,-58C26,-58 0,-32 0,0C0,32 26,58 58,58Z" transform="translate(17586 5750)"/>
<path d="M-20,0L160,0C160,0 200,2 200,-23L200,-340L60,-309L60,-140L-20,-140L-20,0Z" transform="translate(17561 5600)"/>
<path d="M142,200C218,224 343,202 389,147C325,169 165,180 165,72C165,21 211,0 236,0L299,0L359,-140L256,-140C190,-140 158,-170 158,-204C158,-227 179,-251 202,-254C227,-259 259,-249 292,-224C287,-260 246,-320 178,-320C41,-320 -30,-146 70,-53C49,-23 34,10 34,59C34,132 85,182 142,200Z" transform="translate(17916 5600)"/>
<path d="M65,0L245,0L245,-140L165,-140L165,-800L25,-769L25,-23C25,2 65,0 65,0Z" transform="translate(18305 5600)"/>
<path d="M-20,0L320,0L320,-140L-20,-140L-20,0Z" transform="translate(18530 5600)"/>
<path d="M-20,0L320,0L320,-140L-20,-140L-20,0Z" transform="translate(18830 5600)"/>
<path d="M58,58C90,58 116,32 116,0C116,-32 90,-58 58,-58C26,-58 0,-32 0,0C0,32 26,58 58,58ZM231,58C263,58 289,32 289,0C289,-32 263,-58 231,-58C199,-58 173,-32 173,0C173,32 199,58 231,58Z" transform="translate(19215 5000)"/>
<path d="M-20,0L360,0C360,0 362,0 364,0L520,0L520,-140L400,-140L400,-340C400,-434 324,-510 231,-510C138,-510 60,-433 60,-340C60,-247 138,-170 231,-170C241,-170 251,-171 260,-173L260,-140L-20,-140L-20,0ZM231,-310C214,-310 200,-323 200,-340C200,-357 214,-370 231,-370C248,-370 260,-357 260,-340C260,-323 248,-310 231,-310Z" transform="translate(19130 5600)"/>
<path d="M-20,0L160,0C160,0 200,2 200,-23L200,-800L60,-769L60,-140L-20,-140L-20,0Z" transform="translate(19630 5600)"/>
<path d="M353,-72C244,-18 165,-73 165,-140L165,-800L25,-769L25,-120C25,40 286,35 353,-72Z" transform="translate(19855 5600)"/>
<path d="M25,0L474,0L319,-272C305,-296 306,-325 314,-340L511,0L740,0L740,-140L587,-140L328,-591C328,-539 304,-523 263,-493C182,-433 121,-345 202,-203L238,-140L201,-140C177,-140 146,-153 133,-180L25,0Z" transform="translate(20338 5600)"/>
<path d="M-20,0L160,0C160,0 162,0 164,0L320,0L320,-140L200,-140L200,-800L60,-769L60,-140L-20,-140L-20,0Z" transform="translate(21058 5600)"/>
<path d="M-40,0L451,0L510,-140L270,-140C239,-140 221,-160 201,-184C191,-197 189,-219 197,-232C213,-258 248,-290 344,-334L337,-343C167,-310 95,-287 61,-234C41,-203 48,-165 57,-140L-40,-140L-40,0Z" transform="translate(21358 5600)"/>
<path d="M-50,181C5,235 165,200 165,80L165,-3C175,-1 185,0 196,0C197,0 198,0 199,0L439,0L439,-140L362,-140C364,-150 365,-160 365,-170C365,-244 316,-310 247,-332C223,-341 212,-348 195,-399C180,-349 169,-339 147,-333C76,-311 25,-246 25,-171L25,80C25,164 -44,181 -50,181ZM196,-140C179,-140 165,-153 165,-170C165,-187 179,-200 196,-200C213,-200 225,-187 225,-170C225,-153 213,-140 196,-140Z" transform="translate(22023 5600)"/>
<path d="M58,58C90,58 116,32 116,0C116,-32 90,-58 58,-58C26,-58 0,-32 0,0C0,32 26,58 58,58ZM231,58C263,58 289,32 289,0C289,-32 263,-58 231,-58C199,-58 173,-32 173,0C173,32 199,58 231,58Z" transform="translate(22380 5750)"/>
<path d="M-20,0L160,0C160,0 200,2 200,-23L200,-340L60,-309L60,-140L-20,-140L-20,0Z" transform="translate(22442 5600)"/>
<path d="M-85,150C-19,244 200,237 200,60L200,-340L60,-309L60,60C60,127 33,181 -85,150Z" transform="translate(22767 5600)"/>
</g>

</svg>