<?xml version="1.0" standalone="no"?>
<svg
   version="1.1"
   viewBox="0 0 490.0 1500.0"
   width="490.0"
   height="1500.0"
   xmlns="http://www.w3.org/2000/svg"
   xmlns:sodipodi="http://sodipodi.sourceforge.net/DTD/sodipodi-0.dtd">
 <sodipodi:namedview objecttolerance="1" gridtolerance="1" guidetolerance="1">
  <sodipodi:guide position="0,400" orientation="0,-1"/>
 </sodipodi:namedview>
 <g transform="matrix(1 0 0 -1 0 1100.0)">
  <path d="M428.0 140.0V0.0H510.0V140.0H428.0ZM132.0 -200.0C208.0 -223.0 325.0 -202.0 371.0 -147.0C307.0 -169.0 146.0 -180.0 146.0 -72.0C146.0 -21.0 192.0 0.0 217.0 0.0H450.0V140.0H200.0C84.0 140.0 25.0 36.0 25.0 -37.0C25.0 -131.0 75.0 -183.0 132.0 -200.0ZM255.0 550.0ZM255.0 550.0ZM306.0 299.0 208.0 126.0 330.0 59.0 524.0 400.0H-3.0L191.0 59.0L313.0 126.0L214.0 299.0L191.0 260.0H329.0L306.0 299.0Z" />
 </g>
</svg>
