<?xml version="1.0" standalone="no"?>
<svg xmlns="http://www.w3.org/2000/svg" version="1.1" viewBox="0 0 389.0 1500.0" width="389.0" height="1500.0">
 <g transform="matrix(1 0 0 -1 0 1100.0)">
  <path d="M142.0 -200.0C218.0 -224.0 343.0 -202.0 389.0 -147.0C325.0 -169.0 165.0 -180.0 165.0 -72.0C165.0 -21.0 211.0 0.0 236.0 0.0H299.0L359.0 140.0H256.0C190.0 140.0 158.0 170.0 158.0 204.0C158.0 227.0 179.0 251.0 202.0 254.0C227.0 259.0 259.0 249.0 292.0 224.0C287.0 260.0 246.0 320.0 178.0 320.0C41.0 320.0 -30.0 146.0 70.0 53.0C49.0 23.0 34.0 -10.0 34.0 -59.0C34.0 -132.0 85.0 -182.0 142.0 -200.0Z" />
 </g>
</svg>
