<?xml version="1.0" standalone="no"?>
<svg xmlns="http://www.w3.org/2000/svg" version="1.1" viewBox="0 0 430.0 1500.0" width="430.0" height="1500.0">
 <g transform="matrix(1 0 0 -1 0 1100.0)">
  <path d="M132.0 -200.0C208.0 -223.0 325.0 -202.0 371.0 -147.0C307.0 -169.0 146.0 -180.0 146.0 -72.0C146.0 -21.0 192.0 0.0 217.0 0.0H450.0V140.0H200.0C84.0 140.0 25.0 36.0 25.0 -37.0C25.0 -131.0 75.0 -183.0 132.0 -200.0ZM165.0 550.0ZM165.0 550.0ZM239.0 11.0 342.0 106.0 105.0 364.0 20.0 247.0 239.0 11.0ZM205.0 50.0H345.0V400.0L205.0 369.0V50.0Z" />
 </g>
</svg>
