<?xml version="1.0" standalone="no"?>
<svg xmlns="http://www.w3.org/2000/svg" version="1.1" viewBox="0 0 680.0 1500.0" width="680.0" height="1500.0">
 <g transform="matrix(1 0 0 -1 0 1100.0)">
  <path d="M393.0 -200.0H548.0L279.0 272.0C265.0 296.0 266.0 325.0 274.0 340.0L471.0 0.0H627.0L288.0 591.0C288.0 539.0 264.0 523.0 223.0 493.0C142.0 433.0 81.0 345.0 162.0 203.0L393.0 -200.0ZM534.0 0.0H700.0V140.0H534.0V0.0ZM140.0 -350.0ZM25.0 -200.0H418.0L358.0 -60.0H201.0C177.0 -60.0 146.0 -47.0 133.0 -20.0L25.0 -200.0Z" />
 </g>
</svg>
