<?xml version="1.0" standalone="no"?>
<svg xmlns="http://www.w3.org/2000/svg" version="1.1" viewBox="0 0 765.0 1500.0" width="765.0" height="1500.0">
 <g transform="matrix(1 0 0 -1 0 1100.0)">
  <path d="M318.0 0.0H474.0L319.0 272.0C305.0 296.0 306.0 325.0 314.0 340.0L511.0 0.0H667.0L328.0 591.0C328.0 539.0 304.0 523.0 263.0 493.0C182.0 433.0 121.0 345.0 202.0 203.0L318.0 0.0ZM25.0 0.0H378.0L318.0 140.0H201.0C177.0 140.0 146.0 153.0 133.0 180.0L25.0 0.0ZM567.0 0.0H740.0L632.0 180.0C619.0 153.0 588.0 140.0 564.0 140.0H497.0L567.0 0.0Z" />
 </g>
</svg>
