<?xml version="1.0" standalone="no"?>
<svg
   version="1.1"
   viewBox="0 0 250.0 1500.0"
   width="250.0"
   height="1500.0"
   xmlns="http://www.w3.org/2000/svg"
   xmlns:sodipodi="http://sodipodi.sourceforge.net/DTD/sodipodi-0.dtd">
 <sodipodi:namedview objecttolerance="1" gridtolerance="1" guidetolerance="1">
  <sodipodi:guide position="0,400" orientation="0,-1"/>
 </sodipodi:namedview>
 <g transform="matrix(1 0 0 -1 0 1100.0)">
  <path opacity="0.75" d="M23.0 63.0 57.0 70.0 33.0 201.0 0.0 195.0 23.0 63.0ZM205.0 156.0C248.0 180.0 262.0 235.0 239.0 276.0C214.0 318.0 160.0 333.0 117.0 308.0C77.0 285.0 64.0 231.0 88.0 189.0C112.0 148.0 165.0 133.0 205.0 156.0ZM57.0 70.0 205.0 156.0 190.0 186.0 40.0 100.0 57.0 70.0ZM190.0 186.0C164.0 171.0 133.0 180.0 118.0 206.0C104.0 233.0 110.0 265.0 136.0 279.0C164.0 294.0 194.0 285.0 209.0 259.0C224.0 233.0 216.0 201.0 190.0 186.0Z" />
 </g>
</svg>
