<?xml version="1.0" standalone="no"?>
<svg xmlns="http://www.w3.org/2000/svg" version="1.1" viewBox="0 0 210.0 1500.0" width="210.0" height="1500.0">
 <g transform="matrix(1 0 0 -1 0 1100.0)">
  <path d="M165.0 150.0C208.0 174.0 222.0 229.0 199.0 270.0C174.0 312.0 120.0 327.0 77.0 302.0C37.0 279.0 24.0 225.0 48.0 183.0C72.0 142.0 125.0 127.0 165.0 150.0ZM17.0 64.0 165.0 150.0 150.0 180.0 0.0 94.0 17.0 64.0ZM150.0 180.0C124.0 165.0 93.0 174.0 78.0 200.0C64.0 227.0 70.0 259.0 96.0 273.0C124.0 288.0 154.0 279.0 169.0 253.0C184.0 227.0 176.0 195.0 150.0 180.0Z" />
 </g>
</svg>
