<?xml version="1.0" standalone="no"?>
<svg
   version="1.1"
   viewBox="0 0 500.0 1500.0"
   width="500.0"
   height="1500.0"
   xmlns="http://www.w3.org/2000/svg"
   xmlns:sodipodi="http://sodipodi.sourceforge.net/DTD/sodipodi-0.dtd">
 <sodipodi:namedview objecttolerance="1" gridtolerance="1" guidetolerance="1">
  <sodipodi:guide position="0,400" orientation="0,-1"/>
 </sodipodi:namedview>
 <g transform="matrix(1 0 0 -1 0 1100.0)">
  <path opacity="0.75" d="M340.0 0.0H520.0V140.0H340.0V0.0ZM-20.0 0.0H360.0C360.0 0.0 400.0 -2.0 400.0 23.0V340.0L260.0 268.0V140.0H-20.0V0.0ZM231.0 170.0C324.0 170.0 400.0 246.0 400.0 340.0C400.0 434.0 324.0 510.0 231.0 510.0C138.0 510.0 60.0 433.0 60.0 340.0C60.0 247.0 138.0 170.0 231.0 170.0ZM231.0 310.0C214.0 310.0 200.0 323.0 200.0 340.0C200.0 357.0 214.0 370.0 231.0 370.0C248.0 370.0 260.0 357.0 260.0 340.0C260.0 323.0 248.0 310.0 231.0 310.0Z" />
 </g>
</svg>
