<?xml version="1.0" standalone="no"?>
<svg
   version="1.1"
   viewBox="0 0 500.0 1500.0"
   width="500.0"
   height="1500.0"
   xmlns="http://www.w3.org/2000/svg"
   xmlns:sodipodi="http://sodipodi.sourceforge.net/DTD/sodipodi-0.dtd">
 <sodipodi:namedview objecttolerance="1" gridtolerance="1" guidetolerance="1">
  <sodipodi:guide position="0,400" orientation="0,-1"/>
 </sodipodi:namedview>
 <g transform="matrix(1 0 0 -1 0 1100.0)">
  <path d="M251.0 50.0C344.0 50.0 420.0 126.0 420.0 220.0V380.0C420.0 474.0 344.0 550.0 251.0 550.0C158.0 550.0 80.0 473.0 80.0 380.0V220.0C80.0 127.0 158.0 50.0 251.0 50.0ZM120.0 50.0H251.0L80.0 281.0V73.0C80.0 48.0 120.0 50.0 120.0 50.0ZM220.0 190.0V380.0C220.0 397.0 234.0 410.0 251.0 410.0H280.0V220.0C280.0 203.0 266.0 190.0 249.0 190.0H220.0ZM420.0 380.0V606.0C393.0 554.0 286.0 550.0 251.0 550.0L420.0 380.0Z" />
 </g>
</svg>
