<?xml version="1.0" standalone="no"?>
<svg xmlns="http://www.w3.org/2000/svg" version="1.1" viewBox="0 0 480.0 1500.0" width="480.0" height="1500.0">
 <g transform="matrix(1 0 0 -1 0 1100.0)">
  <path d="M440.0 0.0H520.0V140.0H440.0V0.0ZM220.0 -150.0ZM350.0 230.0ZM220.0 -150.0ZM250.0 870.0ZM220.0 -150.0ZM-40.0 0.0H461.0L520.0 140.0H277.0C233.0 177.0 217.0 235.0 252.0 284.0L369.0 452.0C440.0 554.0 431.0 678.0 346.0 749.0C291.0 795.0 212.0 812.0 117.0 799.0C82.0 794.0 32.0 806.0 7.0 830.0L71.0 617.0C120.0 672.0 187.0 689.0 239.0 664.0C288.0 641.0 299.0 586.0 262.0 533.0L147.0 368.0C84.0 278.0 90.0 196.0 112.0 140.0H-40.0V0.0Z" />
 </g>
</svg>
