<?xml version="1.0" standalone="no"?>
<svg xmlns="http://www.w3.org/2000/svg" version="1.1" viewBox="0 0 565.0 1500.0" width="565.0" height="1500.0">
 <g transform="matrix(1 0 0 -1 0 1100.0)">
  <path d="M-20.0 0.0H481.0L540.0 140.0H297.0C253.0 177.0 237.0 235.0 272.0 284.0L389.0 452.0C460.0 554.0 451.0 678.0 366.0 749.0C311.0 795.0 232.0 812.0 137.0 799.0C102.0 794.0 52.0 806.0 27.0 830.0L91.0 617.0C140.0 672.0 207.0 689.0 259.0 664.0C308.0 641.0 319.0 586.0 282.0 533.0L167.0 368.0C104.0 278.0 110.0 196.0 132.0 140.0H-20.0V0.0Z" />
 </g>
</svg>
