<?xml version="1.0" standalone="no"?>
<svg xmlns="http://www.w3.org/2000/svg" version="1.1" viewBox="0 0 270.0 1500.0" width="270.0" height="1500.0">
 <g transform="matrix(1 0 0 -1 0 1100.0)">
  <path d="M49.0 34.048ZM-49.400000000000006 34.04800000000001ZM87.048 34.048C84.424 53.072 67.36800000000001 74.72 43.752 74.72C29.976000000000003 74.72 16.200000000000003 66.19200000000001 16.199999999999996 53.072C16.199999999999996 41.92 27.352000000000004 36.016 33.256 34.048C27.352000000000004 32.08 16.199999999999996 26.176000000000005 16.199999999999996 15.024000000000004C16.199999999999996 1.9040000000000017 29.976 -6.623999999999999 43.752 -6.624C67.368 -6.624000000000001 84.424 15.023999999999997 87.048 34.048ZM160.392 88.0ZM160.392 316.6ZM160.392 -0.3919999999999959C204.588 5.7039999999999935 254.88 45.328 254.88 100.19200000000001C254.88 132.196 235.068 164.2 204.588 164.2C178.68 164.2 164.964 138.292 160.392 124.576C155.82 138.292 142.10399999999998 164.2 116.196 164.2C85.71600000000001 164.2 65.904 132.196 65.904 100.19200000000001C65.904 45.328 116.196 5.7039999999999935 160.392 -0.3919999999999959Z" />
 </g>
</svg>
