<?xml version="1.0" standalone="no"?>
<svg
   version="1.1"
   viewBox="0 0 419.0 1500.0"
   width="419.0"
   height="1500.0"
   xmlns="http://www.w3.org/2000/svg"
   xmlns:sodipodi="http://sodipodi.sourceforge.net/DTD/sodipodi-0.dtd">
 <sodipodi:namedview objecttolerance="1" gridtolerance="1" guidetolerance="1">
  <sodipodi:guide position="0,400" orientation="0,-1"/>
 </sodipodi:namedview>
 <g transform="matrix(1 0 0 -1 0 1100.0)">
  <path opacity="0.75" d="M394.0 280.0V440.0L255.0 409.0V303.0L394.0 280.0ZM54.0 -40.0H68.0V180.0H54.0V-40.0ZM-20.0 0.0H245.0L180.0 140.0H-20.0V0.0ZM350.0 -40.0H394.0V180.0H350.0V-40.0ZM394.0 180.0V406.0C367.0 354.0 260.0 350.0 225.0 350.0L394.0 180.0ZM225.0 10.0C318.0 10.0 394.0 86.0 394.0 180.0C394.0 274.0 318.0 350.0 225.0 350.0C132.0 350.0 54.0 273.0 54.0 180.0C54.0 87.0 132.0 10.0 225.0 10.0ZM225.0 150.0C208.0 150.0 194.0 163.0 194.0 180.0C194.0 197.0 208.0 210.0 225.0 210.0C242.0 210.0 254.0 197.0 254.0 180.0C254.0 163.0 242.0 150.0 225.0 150.0ZM225.0 -210.0C318.0 -210.0 394.0 -134.0 394.0 -40.0C394.0 54.0 318.0 130.0 225.0 130.0C132.0 130.0 54.0 53.0 54.0 -40.0C54.0 -133.0 132.0 -210.0 225.0 -210.0ZM225.0 -70.0C208.0 -70.0 194.0 -57.0 194.0 -40.0C194.0 -23.0 208.0 -10.0 225.0 -10.0C242.0 -10.0 254.0 -23.0 254.0 -40.0C254.0 -57.0 242.0 -70.0 225.0 -70.0Z" />
 </g>
</svg>
