<?xml version="1.0" standalone="no"?>
<svg xmlns="http://www.w3.org/2000/svg" version="1.1" viewBox="0 0 566.0 1500.0" width="566.0" height="1500.0">
 <g transform="matrix(1 0 0 -1 0 1100.0)">
  <path d="M372.0 550.0ZM372.0 550.0ZM372.0 -150.0ZM372.0 0.0C465.0 0.0 541.0 76.0 541.0 170.0C541.0 201.0 533.0 229.0 519.0 254.0H224.0C209.0 229.0 201.0 200.0 201.0 170.0C201.0 77.0 279.0 0.0 372.0 0.0ZM201.0 84.0H235.0V324.0H201.0V84.0ZM372.0 140.0C355.0 140.0 341.0 153.0 341.0 170.0C341.0 187.0 355.0 200.0 372.0 200.0C389.0 200.0 401.0 187.0 401.0 170.0C401.0 153.0 389.0 140.0 372.0 140.0ZM321.0 0.0H501.0C501.0 0.0 541.0 -2.0 541.0 23.0V324.0L401.0 293.0V140.0H321.0V0.0ZM372.0 294.0C355.0 294.0 341.0 307.0 341.0 324.0C341.0 341.0 355.0 354.0 372.0 354.0C389.0 354.0 401.0 341.0 401.0 324.0C401.0 307.0 389.0 294.0 372.0 294.0ZM224.0 240.0H519.0C533.0 265.0 541.0 293.0 541.0 324.0C541.0 418.0 465.0 494.0 372.0 494.0C279.0 494.0 201.0 417.0 201.0 324.0C201.0 294.0 209.0 265.0 224.0 240.0ZM541.0 324.0V550.0C514.0 498.0 407.0 494.0 372.0 494.0L541.0 324.0ZM25.0 0.0H392.0L332.0 140.0H201.0C177.0 140.0 146.0 153.0 133.0 180.0L25.0 0.0Z" />
 </g>
</svg>
