<?xml version="1.0" standalone="no"?>
<svg
   version="1.1"
   viewBox="0 0 985.0 1500.0"
   width="985.0"
   height="1500.0"
   xmlns="http://www.w3.org/2000/svg"
   xmlns:sodipodi="http://sodipodi.sourceforge.net/DTD/sodipodi-0.dtd">
 <sodipodi:namedview objecttolerance="1" gridtolerance="1" guidetolerance="1">
  <sodipodi:guide position="0,400" orientation="0,-1"/>
 </sodipodi:namedview>
 <g transform="matrix(1 0 0 -1 0 1100.0)">
  <path d="M-20.0 0.0H1005.0V140.0H862.0C853.0 241.0 810.0 340.0 635.0 340.0H366.0L441.0 447.0C504.0 536.0 481.0 668.0 404.0 749.0C336.0 820.0 224.0 826.0 152.0 814.0C125.0 809.0 95.0 815.0 73.0 822.0L125.0 638.0C142.0 652.0 171.0 671.0 193.0 674.0C233.0 679.0 272.0 672.0 299.0 649.0C333.0 620.0 345.0 559.0 321.0 525.0C256.0 429.0 159.0 290.0 94.0 200.0H635.0C710.0 200.0 726.0 176.0 725.0 140.0H-19.0L-20.0 0.0Z" />
 </g>
</svg>
