<?xml version="1.0" standalone="no"?>
<svg
   version="1.1"
   viewBox="0 0 545.0 1500.0"
   width="545.0"
   height="1500.0"
   xmlns="http://www.w3.org/2000/svg"
   xmlns:sodipodi="http://sodipodi.sourceforge.net/DTD/sodipodi-0.dtd">
 <sodipodi:namedview objecttolerance="1" gridtolerance="1" guidetolerance="1">
  <sodipodi:guide position="0,400" orientation="0,-1"/>
 </sodipodi:namedview>
 <g transform="matrix(1 0 0 -1 0 1100.0)">
  <path opacity="0.75" d="M395.0 0.0H565.0V140.0H395.0V0.0ZM373.0 861.0ZM100.0 550.0ZM215.0 -270.0ZM305.0 40.0 445.0 0.0V800.0L305.0 769.0V40.0ZM216.0 -200.0C367.0 -200.0 444.0 -113.0 445.0 0.0V340.0L305.0 309.0V40.0C305.0 -71.0 276.0 -143.0 198.0 -143.0C126.0 -143.0 66.0 -79.0 66.0 -1.0C66.0 34.0 79.0 51.0 98.0 64.0C116.0 76.0 139.0 77.0 160.0 57.0C166.0 80.0 152.0 125.0 131.0 135.0C150.0 160.0 154.0 182.0 151.0 207.0C88.0 167.0 25.0 88.0 25.0 0.0C25.0 -62.0 53.0 -200.0 216.0 -200.0Z" />
 </g>
</svg>
