<?xml version="1.0" standalone="no"?>
<svg
   version="1.1"
   viewBox="0 0 425.0 1500.0"
   width="425.0"
   height="1500.0"
   xmlns="http://www.w3.org/2000/svg"
   xmlns:sodipodi="http://sodipodi.sourceforge.net/DTD/sodipodi-0.dtd">
 <sodipodi:namedview objecttolerance="1" gridtolerance="1" guidetolerance="1">
  <sodipodi:guide position="0,400" orientation="0,-1"/>
 </sodipodi:namedview>
 <g transform="matrix(1 0 0 -1 0 1100.0)">
  <path d="M175.0 0.0H445.0V140.0H225.0L175.0 0.0ZM295.0 861.0ZM295.0 830.0ZM280.0 -270.0ZM196.0 -20.0C289.0 -20.0 365.0 56.0 365.0 150.0H225.0C225.0 133.0 213.0 120.0 196.0 120.0C179.0 120.0 165.0 133.0 165.0 150.0H25.0C25.0 57.0 103.0 -20.0 196.0 -20.0ZM225.0 100.0 365.0 150.0V769.0L225.0 800.0V100.0ZM196.0 -220.0C289.0 -220.0 365.0 -144.0 365.0 -50.0C365.0 44.0 289.0 120.0 196.0 120.0C103.0 120.0 25.0 43.0 25.0 -50.0C25.0 -143.0 103.0 -220.0 196.0 -220.0ZM196.0 -80.0C179.0 -80.0 165.0 -67.0 165.0 -50.0C165.0 -33.0 179.0 -20.0 196.0 -20.0C213.0 -20.0 225.0 -33.0 225.0 -50.0C225.0 -67.0 213.0 -80.0 196.0 -80.0Z" />
 </g>
</svg>
