<?xml version="1.0" standalone="no"?>
<svg
   version="1.1"
   viewBox="0 0 390.0 1500.0"
   width="390.0"
   height="1500.0"
   xmlns="http://www.w3.org/2000/svg"
   xmlns:sodipodi="http://sodipodi.sourceforge.net/DTD/sodipodi-0.dtd">
 <sodipodi:namedview objecttolerance="1" gridtolerance="1" guidetolerance="1">
  <sodipodi:guide position="0,400" orientation="0,-1"/>
 </sodipodi:namedview>
 <g transform="matrix(1 0 0 -1 0 1100.0)">
  <path d="M196.0 180.0C289.0 180.0 365.0 256.0 365.0 350.0H225.0C225.0 333.0 213.0 320.0 196.0 320.0C179.0 320.0 165.0 333.0 165.0 350.0H25.0C25.0 257.0 103.0 180.0 196.0 180.0ZM225.0 300.0 365.0 350.0V769.0L225.0 800.0V300.0ZM196.0 -20.0C289.0 -20.0 365.0 56.0 365.0 150.0C365.0 244.0 289.0 320.0 196.0 320.0C103.0 320.0 25.0 243.0 25.0 150.0C25.0 57.0 103.0 -20.0 196.0 -20.0ZM196.0 120.0C179.0 120.0 165.0 133.0 165.0 150.0C165.0 167.0 179.0 180.0 196.0 180.0C213.0 180.0 225.0 167.0 225.0 150.0C225.0 133.0 213.0 120.0 196.0 120.0Z" />
 </g>
</svg>
