<?xml version="1.0" standalone="no"?>
<svg
   version="1.1"
   viewBox="0 0 315.0 1500.0"
   width="315.0"
   height="1500.0"
   xmlns="http://www.w3.org/2000/svg"
   xmlns:sodipodi="http://sodipodi.sourceforge.net/DTD/sodipodi-0.dtd">
 <sodipodi:namedview objecttolerance="1" gridtolerance="1" guidetolerance="1">
  <sodipodi:guide position="0,400" orientation="0,-1"/>
 </sodipodi:namedview>
 <g transform="matrix(1 0 0 -1 0 1100.0)">
  <path opacity="0.75" d="M64.048 -1.0480000000000018C83.072 1.5760000000000005 104.72 18.631999999999998 104.72 42.248C104.72 56.024 96.19200000000001 69.80000000000001 83.072 69.80000000000001C71.92 69.80000000000001 66.01599999999999 58.647999999999996 64.048 52.744C62.08 58.647999999999996 56.176 69.80000000000001 45.024 69.80000000000001C31.904 69.80000000000001 23.376 56.024 23.376 42.248C23.376 18.631999999999998 45.024 1.5760000000000005 64.048 -1.0480000000000018ZM151.048 -1.0480000000000018C170.072 1.5760000000000005 191.72 18.631999999999998 191.72 42.248C191.72 56.024 183.192 69.80000000000001 170.072 69.80000000000001C158.92000000000002 69.80000000000001 153.016 58.647999999999996 151.048 52.744C149.07999999999998 58.647999999999996 143.176 69.80000000000001 132.024 69.80000000000001C118.904 69.80000000000001 110.376 56.024 110.376 42.248C110.376 18.631999999999998 132.024 1.5760000000000005 151.048 -1.0480000000000018ZM239.048 -1.0480000000000018C258.072 1.5760000000000005 279.72 18.631999999999998 279.72 42.248C279.72 56.024 271.192 69.80000000000001 258.072 69.80000000000001C246.92000000000002 69.80000000000001 241.016 58.647999999999996 239.048 52.744C237.07999999999998 58.647999999999996 231.176 69.80000000000001 220.024 69.80000000000001C206.904 69.80000000000001 198.376 56.024 198.376 42.248C198.376 18.631999999999998 220.024 1.5760000000000005 239.048 -1.0480000000000018Z" />
 </g>
</svg>
