<?xml version="1.0" standalone="no"?>
<svg
   version="1.1"
   viewBox="0 0 490.0 1500.0"
   width="490.0"
   height="1500.0"
   xmlns="http://www.w3.org/2000/svg"
   xmlns:sodipodi="http://sodipodi.sourceforge.net/DTD/sodipodi-0.dtd">
 <sodipodi:namedview objecttolerance="1" gridtolerance="1" guidetolerance="1">
  <sodipodi:guide position="0,400" orientation="0,-1"/>
 </sodipodi:namedview>
 <g transform="matrix(1 0 0 -1 0 1100.0)">
  <path opacity="0.75" d="M-20.0 0.0H180.0V140.0H-20.0V0.0ZM310.0 0.0H510.0V140.0H310.0V0.0ZM261.0 470.0ZM211.0 -230.0ZM245.0 -100.0C338.0 -100.0 415.0 -24.0 415.0 70.0C415.0 164.0 368.0 232.0 259.0 298.0C250.0 288.0 225.0 261.0 218.0 238.0C147.0 226.0 74.0 163.0 74.0 70.0C74.0 -23.0 152.0 -100.0 245.0 -100.0ZM245.0 40.0C228.0 40.0 214.0 53.0 214.0 70.0C214.0 87.0 228.0 100.0 245.0 100.0C262.0 100.0 274.0 87.0 274.0 70.0C274.0 53.0 262.0 40.0 245.0 40.0Z" />
 </g>
</svg>
