<?xml version="1.0" standalone="no"?>
<svg
   version="1.1"
   viewBox="0 0 613.0 1500.0"
   width="613.0"
   height="1500.0"
   xmlns="http://www.w3.org/2000/svg"
   xmlns:sodipodi="http://sodipodi.sourceforge.net/DTD/sodipodi-0.dtd">
 <sodipodi:namedview objecttolerance="1" gridtolerance="1" guidetolerance="1">
  <sodipodi:guide position="0,400" orientation="0,-1"/>
 </sodipodi:namedview>
 <g transform="matrix(1 0 0 -1 0 1100.0)">
  <path opacity="0.75" d="M140.0 -150.0ZM25.0 0.0H418.0L358.0 140.0H201.0C177.0 140.0 146.0 153.0 133.0 180.0L25.0 0.0ZM434.0 570.0ZM384.0 -130.0ZM418.0 0.0C511.0 0.0 588.0 76.0 588.0 170.0C588.0 264.0 541.0 332.0 432.0 398.0C423.0 388.0 398.0 361.0 391.0 338.0C320.0 326.0 247.0 263.0 247.0 170.0C247.0 77.0 325.0 0.0 418.0 0.0ZM418.0 140.0C401.0 140.0 387.0 153.0 387.0 170.0C387.0 187.0 401.0 200.0 418.0 200.0C435.0 200.0 447.0 187.0 447.0 170.0C447.0 153.0 435.0 140.0 418.0 140.0Z" />
 </g>
</svg>
