<?xml version="1.0" standalone="no"?>
<svg
   version="1.1"
   viewBox="0 0 391.0 1500.0"
   width="391.0"
   height="1500.0"
   xmlns="http://www.w3.org/2000/svg"
   xmlns:sodipodi="http://sodipodi.sourceforge.net/DTD/sodipodi-0.dtd">
 <sodipodi:namedview objecttolerance="1" gridtolerance="1" guidetolerance="1">
  <sodipodi:guide position="0,400" orientation="0,-1"/>
 </sodipodi:namedview>
 <g transform="matrix(1 0 0 -1 0 1100.0)">
  <path opacity="0.75" d="M-50.0 -181.0C5.0 -235.0 165.0 -200.0 165.0 -80.0V92.0L25.0 171.0V-80.0C25.0 -164.0 -44.0 -181.0 -50.0 -181.0ZM212.0 570.0ZM162.0 -130.0ZM196.0 0.0C289.0 0.0 366.0 76.0 366.0 170.0C366.0 264.0 319.0 332.0 210.0 398.0C201.0 388.0 176.0 361.0 169.0 338.0C98.0 326.0 25.0 263.0 25.0 170.0C25.0 77.0 103.0 0.0 196.0 0.0ZM196.0 140.0C179.0 140.0 165.0 153.0 165.0 170.0C165.0 187.0 179.0 200.0 196.0 200.0C213.0 200.0 225.0 187.0 225.0 170.0C225.0 153.0 213.0 140.0 196.0 140.0Z" />
 </g>
</svg>
