<?xml version="1.0" standalone="no"?>
<svg
   version="1.1"
   viewBox="0 0 685.0 1500.0"
   width="685.0"
   height="1500.0"
   xmlns="http://www.w3.org/2000/svg"
   xmlns:sodipodi="http://sodipodi.sourceforge.net/DTD/sodipodi-0.dtd">
 <sodipodi:namedview objecttolerance="1" gridtolerance="1" guidetolerance="1">
  <sodipodi:guide position="0,400" orientation="0,-1"/>
 </sodipodi:namedview>
 <g transform="matrix(1 0 0 -1 0 1100.0)">
  <path d="M175.0 0.0H440.0L375.0 140.0H175.0V0.0ZM440.0 0.0H705.0V140.0H505.0L440.0 0.0ZM438.0 550.0ZM440.0 -150.0ZM440.0 0.0C533.0 0.0 609.0 76.0 609.0 170.0C609.0 244.0 560.0 310.0 491.0 332.0C467.0 341.0 456.0 348.0 439.0 399.0C424.0 349.0 413.0 339.0 391.0 333.0C320.0 311.0 269.0 245.0 269.0 170.0C269.0 76.0 347.0 0.0 440.0 0.0ZM440.0 140.0C423.0 140.0 409.0 153.0 409.0 170.0C409.0 187.0 423.0 200.0 440.0 200.0C457.0 200.0 469.0 187.0 469.0 170.0C469.0 153.0 457.0 140.0 440.0 140.0ZM140.0 -150.0ZM25.0 0.0H418.0L358.0 140.0H201.0C177.0 140.0 146.0 153.0 133.0 180.0L25.0 0.0Z" />
 </g>
</svg>
