<?xml version="1.0" standalone="no"?>
<svg xmlns="http://www.w3.org/2000/svg" version="1.1" viewBox="0 0 500.0 1500.0" width="500.0" height="1500.0">
 <g transform="matrix(1 0 0 -1 0 1100.0)">
  <path d="M320.0 0.0H460.0V415.0C460.0 531.0 374.0 615.0 255.0 615.0C133.0 615.0 40.0 525.0 40.0 408.0C40.0 285.0 135.0 202.0 276.0 202.0C290.0 202.0 306.0 203.0 320.0 204.0V0.0ZM320.0 344.0C309.0 343.0 294.0 342.0 279.0 342.0C214.0 342.0 179.0 365.0 179.0 406.0C179.0 446.0 209.0 473.0 253.0 473.0C297.0 473.0 320.0 443.0 320.0 405.0V344.0Z" />
 </g>
</svg>
