<?xml version="1.0" standalone="no"?>
<svg
   version="1.1"
   viewBox="0 0 490.0 1500.0"
   width="490.0"
   height="1500.0"
   xmlns="http://www.w3.org/2000/svg"
   xmlns:sodipodi="http://sodipodi.sourceforge.net/DTD/sodipodi-0.dtd">
 <sodipodi:namedview objecttolerance="1" gridtolerance="1" guidetolerance="1">
  <sodipodi:guide position="0,400" orientation="0,-1"/>
 </sodipodi:namedview>
 <g transform="matrix(1 0 0 -1 0 1100.0)">
  <path opacity="0.75" d="M364.0 0.0H510.0V140.0H364.0V0.0ZM230.0 400.0ZM223.0 -309.0ZM220.0 340.0ZM230.0 400.0ZM223.0 -270.0ZM223.0 -204.0C328.0 -204.0 435.0 -132.0 435.0 5.0C435.0 122.0 387.0 200.0 337.0 262.0L269.0 126.0C289.0 95.0 311.0 49.0 311.0 6.0C311.0 -85.0 247.0 -131.0 184.0 -131.0C124.0 -131.0 66.0 -89.0 66.0 0.0C66.0 41.0 90.0 74.0 120.0 74.0C133.0 74.0 146.0 69.0 160.0 58.0C165.0 78.0 153.0 124.0 131.0 135.0C147.0 156.0 154.0 181.0 151.0 207.0C88.0 167.0 25.0 88.0 25.0 0.0C25.0 -138.0 123.0 -204.0 223.0 -204.0Z" />
 </g>
</svg>
