<?xml version="1.0" standalone="no"?>
<svg
   version="1.1"
   viewBox="0 0 600.0 1500.0"
   width="600.0"
   height="1500.0"
   xmlns="http://www.w3.org/2000/svg"
   xmlns:sodipodi="http://sodipodi.sourceforge.net/DTD/sodipodi-0.dtd">
 <sodipodi:namedview objecttolerance="1" gridtolerance="1" guidetolerance="1">
  <sodipodi:guide position="0,400" orientation="0,-1"/>
 </sodipodi:namedview>
 <g transform="matrix(1 0 0 -1 0 1100.0)">
  <path opacity="0.75" d="M342.0 0.0H620.0V140.0H342.0V0.0ZM340.0 500.0ZM340.0 500.0ZM247.0 -270.0ZM267.0 -215.0C498.0 -215.0 511.0 -3.0 511.0 50.0V170.0L371.0 78.0V10.0C371.0 -101.0 339.0 -148.0 237.0 -148.0C143.0 -148.0 76.0 -81.0 76.0 -5.0C76.0 28.0 85.0 54.0 104.0 66.0C118.0 75.0 128.0 77.0 156.0 73.0C149.0 110.0 126.0 126.0 115.0 125.0C134.0 150.0 121.0 173.0 118.0 198.0C70.0 155.0 36.0 83.0 36.0 -5.0C36.0 -97.0 104.0 -215.0 267.0 -215.0ZM342.0 0.0C435.0 0.0 511.0 76.0 511.0 170.0C511.0 264.0 435.0 340.0 342.0 340.0C249.0 340.0 174.0 264.0 174.0 170.0C174.0 76.0 249.0 0.0 342.0 0.0ZM342.0 139.0C325.0 139.0 311.0 153.0 311.0 170.0C311.0 187.0 325.0 201.0 342.0 201.0C359.0 201.0 374.0 187.0 374.0 170.0C374.0 153.0 359.0 139.0 342.0 139.0Z" />
 </g>
</svg>
