<?xml version="1.0" standalone="no"?>
<svg xmlns="http://www.w3.org/2000/svg" version="1.1" viewBox="0 0 541.0 1500.0" width="541.0" height="1500.0">
 <g transform="matrix(1 0 0 -1 0 1100.0)">
  <path d="M193.0 187.0H328.0V248.0C328.0 351.0 283.0 394.0 238.0 433.0C196.0 468.0 157.0 495.0 157.0 545.0C157.0 594.0 198.0 632.0 253.0 632.0C287.0 632.0 315.0 615.0 339.0 579.0C347.0 566.0 357.0 539.0 360.0 494.0L531.0 607.0C478.0 627.0 457.0 642.0 447.0 656.0C397.0 728.0 325.0 767.0 243.0 766.0C128.0 766.0 26.0 665.0 25.0 554.0C24.0 477.0 54.0 418.0 126.0 354.0C167.0 318.0 193.0 296.0 193.0 226.0V187.0ZM259.0 0.0C302.0 0.0 337.0 35.0 337.0 78.0C337.0 121.0 302.0 156.0 259.0 156.0C216.0 156.0 181.0 121.0 181.0 78.0C181.0 35.0 216.0 0.0 259.0 0.0Z" />
 </g>
</svg>
