<?xml version="1.0" standalone="no"?>
<svg
   version="1.1"
   viewBox="0 0 260.0 1500.0"
   width="260.0"
   height="1500.0"
   xmlns="http://www.w3.org/2000/svg"
   xmlns:sodipodi="http://sodipodi.sourceforge.net/DTD/sodipodi-0.dtd">
 <sodipodi:namedview objecttolerance="1" gridtolerance="1" guidetolerance="1">
  <sodipodi:guide position="0,400" orientation="0,-1"/>
 </sodipodi:namedview>
 <g transform="matrix(1 0 0 -1 0 1100.0)">
  <path opacity="0.75" d="M185.0 74.0C227.0 74.0 260.0 108.0 260.0 148.0H226.0C226.0 126.0 207.0 108.0 186.0 108.0C166.0 108.0 147.0 126.0 147.0 148.0H113.0C113.0 108.0 146.0 74.0 185.0 74.0ZM72.0 74.0C114.0 74.0 147.0 108.0 147.0 148.0H113.0C113.0 126.0 94.0 108.0 73.0 108.0C53.0 108.0 34.0 126.0 34.0 148.0H0.0C0.0 108.0 33.0 74.0 72.0 74.0ZM0.0 148.0H34.0V200.0H0.0V148.0ZM113.0 148.0H147.0V200.0H113.0V148.0ZM226.0 148.0H260.0V200.0H226.0V148.0Z" />
 </g>
</svg>
