<?xml version="1.0" standalone="no"?>
<svg
   version="1.1"
   viewBox="0 0 940.0 1500.0"
   width="940.0"
   height="1500.0"
   xmlns="http://www.w3.org/2000/svg"
   xmlns:sodipodi="http://sodipodi.sourceforge.net/DTD/sodipodi-0.dtd">
 <sodipodi:namedview objecttolerance="1" gridtolerance="1" guidetolerance="1">
  <sodipodi:guide position="0,400" orientation="0,-1"/>
 </sodipodi:namedview>
 <g transform="matrix(1 0 0 -1 0 1100.0)">
  <path opacity="0.75" d="M-60.0 0.0H45.0V140.0H-60.0V0.0ZM115.0 50.0H255.0V800.0L115.0 769.0V50.0ZM-45.0 0.0H275.0V140.0H39.0L-45.0 0.0ZM465.0 550.0ZM465.0 550.0ZM465.0 -150.0ZM160.0 0.0H875.0C875.0 0.0 915.0 -2.0 915.0 23.0C915.0 143.0 932.0 340.0 685.0 340.0H160.0V200.0H685.0C760.0 200.0 776.0 176.0 775.0 140.0H160.0V0.0Z" />
 </g>
</svg>
