<?xml version="1.0" standalone="no"?>
<svg
   version="1.1"
   viewBox="0 0 289.0 1500.0"
   width="289.0"
   height="1500.0"
   xmlns="http://www.w3.org/2000/svg"
   xmlns:sodipodi="http://sodipodi.sourceforge.net/DTD/sodipodi-0.dtd">
 <sodipodi:namedview objecttolerance="1" gridtolerance="1" guidetolerance="1">
  <sodipodi:guide position="0,400" orientation="0,-1"/>
 </sodipodi:namedview>
 <g transform="matrix(1 0 0 -1 0 1100.0)">
  <path opacity="0.75" d="M145.0 0.0ZM145.0 -250.0ZM145.0 -150.0ZM145.0 149.0ZM145.0 -150.0ZM145.0 0.0ZM145.0 -208.0C177.0 -208.0 203.0 -182.0 203.0 -150.0C203.0 -118.0 177.0 -92.0 145.0 -92.0C113.0 -92.0 87.0 -118.0 87.0 -150.0C87.0 -182.0 113.0 -208.0 145.0 -208.0ZM145.0 0.0ZM145.0 150.0ZM231.0 0.0ZM231.0 150.0ZM231.0 -58.0C263.0 -58.0 289.0 -32.0 289.0 0.0C289.0 32.0 263.0 58.0 231.0 58.0C199.0 58.0 173.0 32.0 173.0 0.0C173.0 -32.0 199.0 -58.0 231.0 -58.0ZM58.0 0.0ZM58.0 150.0ZM58.0 -58.0C90.0 -58.0 116.0 -32.0 116.0 0.0C116.0 32.0 90.0 58.0 58.0 58.0C26.0 58.0 0.0 32.0 0.0 0.0C0.0 -32.0 26.0 -58.0 58.0 -58.0Z" />
 </g>
</svg>
