<?xml version="1.0" standalone="no"?>
<svg
   version="1.1"
   viewBox="0 0 289.0 1500.0"
   width="289.0"
   height="1500.0"
   xmlns="http://www.w3.org/2000/svg"
   xmlns:sodipodi="http://sodipodi.sourceforge.net/DTD/sodipodi-0.dtd">
 <sodipodi:namedview objecttolerance="1" gridtolerance="1" guidetolerance="1">
  <sodipodi:guide position="0,400" orientation="0,-1"/>
 </sodipodi:namedview>
 <g transform="matrix(1 0 0 -1 0 1100.0)">
  <path opacity="0.75" d="M145.0 -58.0C174.0 -54.0 207.0 -28.0 207.0 8.0C207.0 29.0 194.0 50.0 174.0 50.0C157.0 50.0 148.0 33.0 145.0 24.0C142.0 33.0 133.0 50.0 116.0 50.0C96.0 50.0 83.0 29.0 83.0 8.0C83.0 -28.0 116.0 -54.0 145.0 -58.0ZM231.0 92.0C260.0 96.0 293.0 122.0 293.0 158.0C293.0 179.0 280.0 200.0 260.0 200.0C243.0 200.0 234.0 183.0 231.0 174.0C228.0 183.0 219.0 200.0 202.0 200.0C182.0 200.0 169.0 179.0 169.0 158.0C169.0 122.0 202.0 96.0 231.0 92.0ZM58.0 92.0C87.0 96.0 120.0 122.0 120.0 158.0C120.0 179.0 107.0 200.0 87.0 200.0C70.0 200.0 61.0 183.0 58.0 174.0C55.0 183.0 46.0 200.0 29.0 200.0C9.0 200.0 -4.0 179.0 -4.0 158.0C-4.0 122.0 29.0 96.0 58.0 92.0Z" />
 </g>
</svg>
