<?xml version="1.0" standalone="no"?>
<svg
   version="1.1"
   viewBox="0 0 116.0 1500.0"
   width="116.0"
   height="1500.0"
   xmlns="http://www.w3.org/2000/svg"
   xmlns:sodipodi="http://sodipodi.sourceforge.net/DTD/sodipodi-0.dtd">
 <sodipodi:namedview objecttolerance="1" gridtolerance="1" guidetolerance="1">
  <sodipodi:guide position="0,400" orientation="0,-1"/>
 </sodipodi:namedview>
 <g transform="matrix(1 0 0 -1 0 1100.0)">
  <path d="M58.0 -169.0ZM58.0 150.0ZM58.0 1.0ZM58.0 151.0ZM58.0 -57.0C87.0 -53.0 120.0 -27.0 120.0 9.0C120.0 30.0 107.0 51.0 87.0 51.0C70.0 51.0 61.0 34.0 58.0 25.0C55.0 34.0 46.0 51.0 29.0 51.0C9.0 51.0 -4.0 30.0 -4.0 9.0C-4.0 -27.0 29.0 -53.0 58.0 -57.0ZM58.0 -169.0ZM58.0 -19.0ZM58.0 -227.0C87.0 -223.0 120.0 -197.0 120.0 -161.0C120.0 -140.0 107.0 -119.0 87.0 -119.0C70.0 -119.0 61.0 -136.0 58.0 -145.0C55.0 -136.0 46.0 -119.0 29.0 -119.0C9.0 -119.0 -4.0 -140.0 -4.0 -161.0C-4.0 -197.0 29.0 -223.0 58.0 -227.0Z" />
 </g>
</svg>
