<?xml version="1.0" standalone="no"?>
<svg xmlns="http://www.w3.org/2000/svg" version="1.1" viewBox="0 0 400.0 1500.0" width="400.0" height="1500.0">
 <g transform="matrix(1 0 0 -1 0 1100.0)">
  <path d="M193.0 0.0H420.0V140.0H223.0L193.0 0.0ZM194.0 500.0ZM195.0 440.0ZM195.0 500.0ZM195.0 -270.0ZM60.0 -132.0C126.0 -226.0 365.0 -220.0 365.0 -22.0V170.0L225.0 128.0V-52.0C225.0 -75.0 213.0 -173.0 60.0 -132.0ZM201.0 500.0ZM195.0 450.0ZM201.0 550.0ZM195.0 -150.0ZM365.0 170.0V396.0C338.0 344.0 231.0 340.0 196.0 340.0L365.0 170.0ZM196.0 0.0C289.0 0.0 365.0 76.0 365.0 170.0C365.0 264.0 289.0 340.0 196.0 340.0C103.0 340.0 25.0 263.0 25.0 170.0C25.0 77.0 103.0 0.0 196.0 0.0ZM196.0 140.0C179.0 140.0 165.0 153.0 165.0 170.0C165.0 187.0 179.0 200.0 196.0 200.0C213.0 200.0 225.0 187.0 225.0 170.0C225.0 153.0 213.0 140.0 196.0 140.0Z" />
 </g>
</svg>
