<?xml version="1.0" standalone="no"?>
<svg xmlns="http://www.w3.org/2000/svg" version="1.1" viewBox="0 0 422.0 1500.0" width="422.0" height="1500.0">
 <g transform="matrix(1 0 0 -1 0 1100.0)">
  <path d="M189.0 -178.0C253.0 -169.0 333.0 -130.0 361.0 6.0C374.0 71.0 371.0 151.0 361.0 200.0L227.0 128.0C219.0 -18.0 210.0 -150.0 30.0 -121.0C69.0 -174.0 138.0 -185.0 189.0 -178.0ZM196.0 0.0H442.0V140.0H246.0L196.0 0.0ZM212.0 550.0ZM162.0 -150.0ZM196.0 -20.0C289.0 -20.0 366.0 56.0 366.0 150.0C366.0 244.0 319.0 312.0 210.0 378.0C201.0 368.0 176.0 341.0 169.0 318.0C98.0 306.0 25.0 243.0 25.0 150.0C25.0 57.0 103.0 -20.0 196.0 -20.0ZM196.0 120.0C179.0 120.0 165.0 133.0 165.0 150.0C165.0 167.0 179.0 180.0 196.0 180.0C213.0 180.0 225.0 167.0 225.0 150.0C225.0 133.0 213.0 120.0 196.0 120.0Z" />
 </g>
</svg>
