<?xml version="1.0" encoding="UTF-8" standalone="no"?>
<svg
   version="1.1"
   viewBox="0 0 460.0 1500.0"
   width="460.0"
   height="1500.0"
   id="svg1778"
   sodipodi:docname="ain-ar.medi.1.svg"
   inkscape:version="1.1.1 (c3084ef, 2021-09-22)"
   xmlns:inkscape="http://www.inkscape.org/namespaces/inkscape"
   xmlns:sodipodi="http://sodipodi.sourceforge.net/DTD/sodipodi-0.dtd"
   xmlns:xlink="http://www.w3.org/1999/xlink"
   xmlns="http://www.w3.org/2000/svg"
   xmlns:svg="http://www.w3.org/2000/svg">
  <defs
     id="defs1780">
    <linearGradient
       inkscape:collect="always"
       id="linearGradient4137">
      <stop
         style="stop-color:#000000;stop-opacity:1;"
         offset="0"
         id="stop4133" />
      <stop
         style="stop-color:#000000;stop-opacity:0;"
         offset="1"
         id="stop4135" />
    </linearGradient>
    <linearGradient
       inkscape:collect="always"
       xlink:href="#linearGradient4137"
       id="linearGradient4139"
       x1="0"
       y1="699.75165"
       x2="92.557045"
       y2="762.16779"
       gradientUnits="userSpaceOnUse" />
    <linearGradient
       inkscape:collect="always"
       xlink:href="#linearGradient4137"
       id="linearGradient4289"
       gradientUnits="userSpaceOnUse"
       x1="455.03357"
       y1="701.76508"
       x2="390.54361"
       y2="729.953" />
  </defs>
  <sodipodi:namedview
     objecttolerance="1"
     gridtolerance="1"
     guidetolerance="1"
     id="namedview1772"
     pagecolor="#ffffff"
     bordercolor="#cccccc"
     borderopacity="1"
     inkscape:pageshadow="0"
     inkscape:pageopacity="1"
     inkscape:pagecheckerboard="0"
     showgrid="false"
     inkscape:current-layer="svg1778">
    <sodipodi:guide
       position="0,400"
       orientation="0,-1"
       id="guide1770" />
  </sodipodi:namedview>
  <g
     transform="matrix(1 0 0 -1 0 1100.0)"
     id="g1776">
    <path
       fill="#404040"
       d="M-20.0 100.0V0.0H480.0V100.0H-20.0ZM309.0 339.0 160.0 76.0 246.0 26.0 459.0 400.0H0.0L212.0 26.0L299.0 76.0L149.0 339.0L126.0 300.0H332.0L309.0 339.0Z"
       id="path1774" />
  </g>
  <path
     style="fill:url(#linearGradient4139);fill-opacity:1"
     d="m 309,761 -149,263 86,50 213,-374 H 0 l 212,374 87,-50 -150,-263 -23,39 h 206 z"
     id="path4033" />
  <path
     style="fill:url(#linearGradient4289);fill-opacity:1"
     d="m 309,761 -149,263 86,50 213,-374 H 0 l 212,374 87,-50 -150,-263 -23,39 h 206 z"
     id="path4033-5" />
</svg>
