<?xml version="1.0" encoding="UTF-8" standalone="no"?>
<svg
   version="1.1"
   viewBox="0 0 535.0 1500.0"
   width="535.0"
   height="1500.0"
   id="svg1766"
   sodipodi:docname="ain-ar.init.svg"
   inkscape:version="1.1.1 (c3084ef, 2021-09-22)"
   xmlns:inkscape="http://www.inkscape.org/namespaces/inkscape"
   xmlns:sodipodi="http://sodipodi.sourceforge.net/DTD/sodipodi-0.dtd"
   xmlns:xlink="http://www.w3.org/1999/xlink"
   xmlns="http://www.w3.org/2000/svg"
   xmlns:svg="http://www.w3.org/2000/svg">
  <defs
     id="defs1768">
    <linearGradient
       inkscape:collect="always"
       id="linearGradient4941">
      <stop
         style="stop-color:#000000;stop-opacity:1;"
         offset="0"
         id="stop4937" />
      <stop
         style="stop-color:#000000;stop-opacity:0;"
         offset="1"
         id="stop4939" />
    </linearGradient>
    <linearGradient
       inkscape:collect="always"
       xlink:href="#linearGradient4941"
       id="linearGradient4943"
       x1="308.18793"
       y1="302.47986"
       x2="286.51007"
       y2="213.88927"
       gradientUnits="userSpaceOnUse" />
    <linearGradient
       inkscape:collect="always"
       xlink:href="#linearGradient4941"
       id="linearGradient5067"
       gradientUnits="userSpaceOnUse"
       x1="551.81207"
       y1="2.479857"
       x2="358.99329"
       y2="145.43289" />
  </defs>
  <sodipodi:namedview
     objecttolerance="1"
     gridtolerance="1"
     guidetolerance="1"
     id="namedview1760"
     pagecolor="#ffffff"
     bordercolor="#cccccc"
     borderopacity="1"
     inkscape:pageshadow="0"
     inkscape:pageopacity="1"
     inkscape:pagecheckerboard="0"
     showgrid="false"
     inkscape:current-layer="svg1766">
    <sodipodi:guide
       position="0,400"
       orientation="0,-1"
       id="guide1758" />
  </sodipodi:namedview>
  <g
     transform="matrix(1 0 0 -1 0 1100.0)"
     id="g1764">
    <path
       fill="#404040"
       d="M-20.0 0.0H450.0L510.0 100.0H270.0C230.0 100.0 206.0 126.0 187.0 146.0C175.0 158.0 172.0 183.0 179.0 200.0C193.0 233.0 233.0 265.0 313.0 302.0L306.0 311.0C144.0 259.0 94.0 208.0 78.0 183.0C66.0 165.0 68.0 116.0 96.0 100.0H-20.0V0.0Z"
       id="path1762" />
  </g>
  <g
     transform="matrix(1 0 0 -1 0 1100.0)"
     id="g4860"
     style="fill:url(#linearGradient4943);fill-opacity:1">
    <path
       fill="#404040"
       d="M-20.0 0.0H450.0L510.0 100.0H270.0C230.0 100.0 206.0 126.0 187.0 146.0C175.0 158.0 172.0 183.0 179.0 200.0C193.0 233.0 233.0 265.0 313.0 302.0L306.0 311.0C144.0 259.0 94.0 208.0 78.0 183.0C66.0 165.0 68.0 116.0 96.0 100.0H-20.0V0.0Z"
       id="path4858"
       style="fill:url(#linearGradient4943);fill-opacity:1" />
  </g>
  <g
     transform="matrix(1 0 0 -1 0 1100.0)"
     id="g5046"
     style="fill:url(#linearGradient4943);fill-opacity:1">
    <path
       fill="#404040"
       d="M-20.0 0.0H450.0L510.0 100.0H270.0C230.0 100.0 206.0 126.0 187.0 146.0C175.0 158.0 172.0 183.0 179.0 200.0C193.0 233.0 233.0 265.0 313.0 302.0L306.0 311.0C144.0 259.0 94.0 208.0 78.0 183.0C66.0 165.0 68.0 116.0 96.0 100.0H-20.0V0.0Z"
       id="path5044"
       style="fill:url(#linearGradient5067);fill-opacity:1" />
  </g>
</svg>
