<?xml version="1.0" encoding="UTF-8" standalone="no"?>
<svg
   version="1.1"
   viewBox="0 0 430.0 1500.0"
   width="430.0"
   height="1500.0"
   id="svg1754"
   sodipodi:docname="ain-ar.fina.svg"
   inkscape:version="1.1.1 (c3084ef, 2021-09-22)"
   xmlns:inkscape="http://www.inkscape.org/namespaces/inkscape"
   xmlns:sodipodi="http://sodipodi.sourceforge.net/DTD/sodipodi-0.dtd"
   xmlns:xlink="http://www.w3.org/1999/xlink"
   xmlns="http://www.w3.org/2000/svg"
   xmlns:svg="http://www.w3.org/2000/svg">
  <defs
     id="defs1756">
    <linearGradient
       inkscape:collect="always"
       xlink:href="#linearGradient3435"
       id="linearGradient3437"
       x1="201.30873"
       y1="721.97986"
       x2="214.73154"
       y2="828.69128"
       gradientUnits="userSpaceOnUse" />
    <linearGradient
       inkscape:collect="always"
       id="linearGradient3435">
      <stop
         style="stop-color:#000000;stop-opacity:1;"
         offset="0"
         id="stop3431" />
      <stop
         style="stop-color:#000000;stop-opacity:0;"
         offset="1"
         id="stop3433" />
    </linearGradient>
    <linearGradient
       inkscape:collect="always"
       xlink:href="#linearGradient3435"
       id="linearGradient3439"
       x1="-10.798657"
       y1="782.24835"
       x2="54.711411"
       y2="858.75836"
       gradientUnits="userSpaceOnUse" />
    <linearGradient
       inkscape:collect="always"
       xlink:href="#linearGradient3435"
       id="linearGradient4577"
       gradientUnits="userSpaceOnUse"
       x1="365.26846"
       y1="-150.23961"
       x2="332.11755"
       y2="-99.753296"
       gradientTransform="matrix(1,0,0,-1,0,1100)" />
  </defs>
  <sodipodi:namedview
     objecttolerance="1"
     gridtolerance="1"
     guidetolerance="1"
     id="namedview1748"
     pagecolor="#ffffff"
     bordercolor="#cccccc"
     borderopacity="1"
     inkscape:pageshadow="0"
     inkscape:pageopacity="1"
     inkscape:pagecheckerboard="0"
     showgrid="false"
     inkscape:current-layer="svg1754">
    <sodipodi:guide
       position="0,400"
       orientation="0,-1"
       id="guide1746" />
  </sodipodi:namedview>
  <g
     transform="matrix(1 0 0 -1 0 1100.0)"
     id="g1752">
    <path
       fill="#404040"
       d="M132.0 -200.0C208.0 -223.0 325.0 -202.0 371.0 -147.0C307.0 -169.0 126.0 -180.0 126.0 -72.0C126.0 -31.0 172.0 0.0 198.0 0.0H450.0V100.0H171.0C70.0 100.0 25.0 23.0 25.0 -60.0C25.0 -131.0 75.0 -182.0 132.0 -200.0ZM234.0 46.0 314.0 121.0 91.0 364.0 25.0 273.0 234.0 46.0ZM221.0 50.0H321.0V400.0L221.0 378.0V50.0Z"
       id="path1750" />
  </g>
  <g
     id="g3580"
     transform="translate(66)">
    <path
       style="fill:url(#linearGradient3437);fill-opacity:1"
       d="M 155,1050 H 255 V 700 l -100,22 z"
       id="path3331" />
    <path
       style="fill:url(#linearGradient3439);fill-opacity:1"
       d="M 168,1054 248,979 25,736 -41,827 Z"
       id="path3329" />
  </g>
  <path
     fill="#404040"
     d="m 132,1300 c 76,23 193,2 239,-53 -64,22 -245,33 -245,-75 0,-41 46,-72 72,-72 H 450 V 1000 H 171 c -101,0 -146,77 -146,160 0,71 50,122 107,140 z M 234,1054 314,979 91,736 25,827 Z m -13,-4 H 321 V 700 l -100,22 z"
     id="path3825"
     style="fill:url(#linearGradient4577);fill-opacity:1" />
</svg>
