<?xml version="1.0" encoding="UTF-8" standalone="no"?>
<svg
   version="1.1"
   viewBox="0 0 300.0 1500.0"
   width="300.0"
   height="1500.0"
   id="svg145"
   sodipodi:docname="behDotless-ar.medi.high.svg"
   inkscape:version="1.1.1 (c3084ef, 2021-09-22)"
   xmlns:inkscape="http://www.inkscape.org/namespaces/inkscape"
   xmlns:sodipodi="http://sodipodi.sourceforge.net/DTD/sodipodi-0.dtd"
   xmlns:xlink="http://www.w3.org/1999/xlink"
   xmlns="http://www.w3.org/2000/svg"
   xmlns:svg="http://www.w3.org/2000/svg">
  <defs
     id="defs147">
    <linearGradient
       inkscape:collect="always"
       id="linearGradient2270">
      <stop
         style="stop-color:#000000;stop-opacity:1;"
         offset="0"
         id="stop2266" />
      <stop
         style="stop-color:#000000;stop-opacity:0;"
         offset="1"
         id="stop2268" />
    </linearGradient>
    <linearGradient
       inkscape:collect="always"
       xlink:href="#linearGradient2270"
       id="linearGradient2272"
       x1="141.07382"
       y1="355.03357"
       x2="138.79195"
       y2="210.06711"
       gradientUnits="userSpaceOnUse" />
  </defs>
  <sodipodi:namedview
     objecttolerance="1"
     gridtolerance="1"
     guidetolerance="1"
     id="namedview139"
     pagecolor="#ffffff"
     bordercolor="#cccccc"
     borderopacity="1"
     inkscape:pageshadow="0"
     inkscape:pageopacity="1"
     inkscape:pagecheckerboard="0"
     showgrid="false"
     inkscape:current-layer="svg145">
    <sodipodi:guide
       position="0,400"
       orientation="0,-1"
       id="guide137" />
  </sodipodi:namedview>
  <g
     transform="matrix(1 0 0 -1 0 1100.0)"
     id="g143">
    <path
       fill="#404040"
       d="M100.0 0.0H320.0V100.0H100.0V0.0ZM100.0 210.0H200.0V370.0L100.0 348.0V210.0ZM-20.0 0.0H160.0C160.0 0.0 200.0 -2.0 200.0 23.0V300.0L100.0 278.0V100.0H-20.0V0.0Z"
       id="path141" />
  </g>
  <g
     transform="matrix(1 0 0 -1 0 1100.0)"
     id="g2264"
     style="fill-opacity:1;fill:url(#linearGradient2272)">
    <path
       fill="#404040"
       d="M100.0 0.0H320.0V100.0H100.0V0.0ZM100.0 210.0H200.0V370.0L100.0 348.0V210.0ZM-20.0 0.0H160.0C160.0 0.0 200.0 -2.0 200.0 23.0V300.0L100.0 278.0V100.0H-20.0V0.0Z"
       id="path2262"
       style="fill-opacity:1;fill:url(#linearGradient2272)" />
  </g>
</svg>
