<?xml version="1.0" encoding="UTF-8" standalone="no"?>
<svg
   version="1.1"
   viewBox="0 0 480.0 1500.0"
   width="480.0"
   height="1500.0"
   id="svg211"
   sodipodi:docname="behDotless-ar.medi.wider.svg"
   inkscape:version="1.1.1 (c3084ef, 2021-09-22)"
   xmlns:inkscape="http://www.inkscape.org/namespaces/inkscape"
   xmlns:sodipodi="http://sodipodi.sourceforge.net/DTD/sodipodi-0.dtd"
   xmlns:xlink="http://www.w3.org/1999/xlink"
   xmlns="http://www.w3.org/2000/svg"
   xmlns:svg="http://www.w3.org/2000/svg">
  <defs
     id="defs213">
    <linearGradient
       inkscape:collect="always"
       id="linearGradient1316">
      <stop
         style="stop-color:#000000;stop-opacity:1;"
         offset="0"
         id="stop1312" />
      <stop
         style="stop-color:#000000;stop-opacity:0;"
         offset="1"
         id="stop1314" />
    </linearGradient>
    <linearGradient
       inkscape:collect="always"
       xlink:href="#linearGradient1316"
       id="linearGradient1318"
       x1="322.28189"
       y1="284.56375"
       x2="322.81879"
       y2="125.50336"
       gradientUnits="userSpaceOnUse" />
  </defs>
  <sodipodi:namedview
     objecttolerance="1"
     gridtolerance="1"
     guidetolerance="1"
     id="namedview205"
     pagecolor="#ffffff"
     bordercolor="#cccccc"
     borderopacity="1"
     inkscape:pageshadow="0"
     inkscape:pageopacity="1"
     inkscape:pagecheckerboard="0"
     showgrid="false"
     inkscape:current-layer="svg211">
    <sodipodi:guide
       position="0,400"
       orientation="0,-1"
       id="guide203" />
  </sodipodi:namedview>
  <g
     transform="matrix(1 0 0 -1 0 1100.0)"
     id="g209">
    <path
       fill="#404040"
       d="M-20.0 0.0H189.0V100.0H-20.0V0.0ZM280.0 0.0H500.0V100.0H280.0V0.0ZM160.0 0.0H340.0C340.0 0.0 380.0 -2.0 380.0 23.0V300.0L280.0 278.0V100.0H160.0V0.0Z"
       id="path207" />
  </g>
  <g
     transform="matrix(1 0 0 -1 0 1100.0)"
     id="g1310"
     style="fill-opacity:1;fill:url(#linearGradient1318)">
    <path
       fill="#404040"
       d="M-20.0 0.0H189.0V100.0H-20.0V0.0ZM280.0 0.0H500.0V100.0H280.0V0.0ZM160.0 0.0H340.0C340.0 0.0 380.0 -2.0 380.0 23.0V300.0L280.0 278.0V100.0H160.0V0.0Z"
       id="path1308"
       style="fill-opacity:1;fill:url(#linearGradient1318)" />
  </g>
</svg>
