<?xml version="1.0" encoding="UTF-8" standalone="no"?>
<svg
   version="1.1"
   viewBox="0 0 116.0 1500.0"
   width="116.0"
   height="1500.0"
   id="svg17"
   sodipodi:docname="dotabove-ar.svg"
   inkscape:version="1.1.1 (c3084ef, 2021-09-22)"
   xmlns:inkscape="http://www.inkscape.org/namespaces/inkscape"
   xmlns:sodipodi="http://sodipodi.sourceforge.net/DTD/sodipodi-0.dtd"
   xmlns:xlink="http://www.w3.org/1999/xlink"
   xmlns="http://www.w3.org/2000/svg"
   xmlns:svg="http://www.w3.org/2000/svg">
  <defs
     id="defs19">
    <linearGradient
       inkscape:collect="always"
       id="linearGradient960">
      <stop
         style="stop-color:#000000;stop-opacity:1;"
         offset="0"
         id="stop956" />
      <stop
         style="stop-color:#000000;stop-opacity:0;"
         offset="1"
         id="stop958" />
    </linearGradient>
    <radialGradient
       inkscape:collect="always"
       xlink:href="#linearGradient960"
       id="radialGradient962"
       cx="58"
       cy="0"
       fx="58"
       fy="0"
       r="58"
       gradientUnits="userSpaceOnUse" />
    <radialGradient
       inkscape:collect="always"
       xlink:href="#linearGradient960"
       id="radialGradient964"
       gradientUnits="userSpaceOnUse"
       cx="36.824444"
       cy="30.586918"
       fx="36.824444"
       fy="30.586918"
       r="58"
       gradientTransform="matrix(1.3650818,0.00531186,-0.00594336,1.5273706,-13.262144,-16.326248)" />
  </defs>
  <sodipodi:namedview
     objecttolerance="1"
     gridtolerance="1"
     guidetolerance="1"
     id="namedview11"
     pagecolor="#ffffff"
     bordercolor="#cccccc"
     borderopacity="1"
     inkscape:pageshadow="0"
     inkscape:pageopacity="1"
     inkscape:pagecheckerboard="0"
     showgrid="false"
     inkscape:current-layer="svg17">
    <sodipodi:guide
       position="0,400"
       orientation="0,-1"
       id="guide9" />
  </sodipodi:namedview>
  <g
     transform="matrix(1 0 0 -1 0 1100.0)"
     id="g15"
     style="fill:#808080">
    <path
       d="M58.0 -58.0C90.0 -58.0 116.0 -32.0 116.0 0.0C116.0 32.0 90.0 58.0 58.0 58.0C26.0 58.0 0.0 32.0 0.0 0.0C0.0 -32.0 26.0 -58.0 58.0 -58.0Z"
       id="path13" />
  </g>
  <g
     transform="matrix(1,0,0,-1,0,1100)"
     id="g103"
     style="fill:url(#radialGradient962);fill-opacity:1">
    <path
       d="m 58,-58 c 32,0 58,26 58,58 C 116,32 90,58 58,58 26,58 0,32 0,0 0,-32 26,-58 58,-58 Z"
       id="path101"
       style="fill:url(#radialGradient964);fill-opacity:1" />
  </g>
</svg>
