<?xml version="1.0" encoding="UTF-8" standalone="no"?>
<svg
   version="1.1"
   viewBox="0 0 515.0 1500.0"
   width="515.0"
   height="1500.0"
   id="svg17"
   sodipodi:docname="hah-ar.alt.svg"
   inkscape:version="1.1.1 (c3084ef, 2021-09-22)"
   xmlns:inkscape="http://www.inkscape.org/namespaces/inkscape"
   xmlns:sodipodi="http://sodipodi.sourceforge.net/DTD/sodipodi-0.dtd"
   xmlns:xlink="http://www.w3.org/1999/xlink"
   xmlns="http://www.w3.org/2000/svg"
   xmlns:svg="http://www.w3.org/2000/svg">
  <defs
     id="defs19">
    <linearGradient
       inkscape:collect="always"
       id="linearGradient1941">
      <stop
         style="stop-color:#000000;stop-opacity:1;"
         offset="0"
         id="stop1937" />
      <stop
         style="stop-color:#000000;stop-opacity:0;"
         offset="1"
         id="stop1939" />
    </linearGradient>
    <linearGradient
       inkscape:collect="always"
       xlink:href="#linearGradient1941"
       id="linearGradient1943"
       x1="57.214764"
       y1="244.78374"
       x2="111.47651"
       y2="132.03206"
       gradientUnits="userSpaceOnUse" />
    <linearGradient
       inkscape:collect="always"
       xlink:href="#linearGradient1941"
       id="linearGradient2067"
       gradientUnits="userSpaceOnUse"
       x1="242.44966"
       y1="-198.16928"
       x2="75.234901"
       y2="-61.256531" />
    <linearGradient
       inkscape:collect="always"
       xlink:href="#linearGradient1941"
       id="linearGradient2069"
       gradientUnits="userSpaceOnUse"
       x1="256.54361"
       y1="-196.15585"
       x2="157.78523"
       y2="-123.67264" />
  </defs>
  <sodipodi:namedview
     objecttolerance="1"
     gridtolerance="1"
     guidetolerance="1"
     id="namedview11"
     pagecolor="#ffffff"
     bordercolor="#cccccc"
     borderopacity="1"
     inkscape:pageshadow="0"
     inkscape:pageopacity="1"
     inkscape:pagecheckerboard="0"
     showgrid="false"
     inkscape:current-layer="svg17">
    <sodipodi:guide
       position="0,400"
       orientation="0,-1"
       id="guide9" />
  </sodipodi:namedview>
  <g
     transform="matrix(1 0 0 -1 0 1100.0)"
     id="g15">
    <path
       fill="#404040"
       d="M25.0 -60.0C25.0 -171.0 147.0 -230.0 259.0 -195.0C181.0 -189.0 129.0 -137.0 127.0 -83.0C125.0 -46.0 147.0 0.0 198.0 0.0H430.0L490.0 100.0H311.0C243.0 100.0 151.0 189.0 81.0 300.0L25.0 193.0C45.0 161.0 88.0 105.0 118.0 85.0C74.0 59.0 25.0 23.0 25.0 -60.0Z"
       id="path13" />
  </g>
  <g
     transform="matrix(1 0 0 -1 0 1100.0)"
     id="g1917"
     style="fill:url(#linearGradient1943);fill-opacity:1">
    <path
       fill="#404040"
       d="M25.0 -60.0C25.0 -171.0 147.0 -230.0 259.0 -195.0C181.0 -189.0 129.0 -137.0 127.0 -83.0C125.0 -46.0 147.0 0.0 198.0 0.0H430.0L490.0 100.0H311.0C243.0 100.0 151.0 189.0 81.0 300.0L25.0 193.0C45.0 161.0 88.0 105.0 118.0 85.0C74.0 59.0 25.0 23.0 25.0 -60.0Z"
       id="path1915"
       style="fill:url(#linearGradient1943);fill-opacity:1" />
  </g>
  <g
     transform="matrix(1 0 0 -1 0 1100.0)"
     id="g2046"
     style="fill:url(#linearGradient2067);fill-opacity:1">
    <path
       fill="#404040"
       d="M25.0 -60.0C25.0 -171.0 147.0 -230.0 259.0 -195.0C181.0 -189.0 129.0 -137.0 127.0 -83.0C125.0 -46.0 147.0 0.0 198.0 0.0H430.0L490.0 100.0H311.0C243.0 100.0 151.0 189.0 81.0 300.0L25.0 193.0C45.0 161.0 88.0 105.0 118.0 85.0C74.0 59.0 25.0 23.0 25.0 -60.0Z"
       id="path2044"
       style="fill:url(#linearGradient2069);fill-opacity:1" />
  </g>
</svg>
