<?xml version="1.0" encoding="UTF-8" standalone="no"?>
<svg
   version="1.1"
   viewBox="0 0 419.0 1500.0"
   width="419.0"
   height="1500.0"
   id="svg155"
   sodipodi:docname="heh-ar.init.2.svg"
   inkscape:version="1.1.1 (c3084ef, 2021-09-22)"
   xmlns:inkscape="http://www.inkscape.org/namespaces/inkscape"
   xmlns:sodipodi="http://sodipodi.sourceforge.net/DTD/sodipodi-0.dtd"
   xmlns:xlink="http://www.w3.org/1999/xlink"
   xmlns="http://www.w3.org/2000/svg"
   xmlns:svg="http://www.w3.org/2000/svg">
  <defs
     id="defs157">
    <linearGradient
       inkscape:collect="always"
       xlink:href="#linearGradient1705"
       id="linearGradient1986"
       x1="350.82077"
       y1="710.18542"
       x2="270.05145"
       y2="845.05682"
       gradientUnits="userSpaceOnUse"
       gradientTransform="translate(70,-154)" />
    <linearGradient
       inkscape:collect="always"
       id="linearGradient1705">
      <stop
         style="stop-color:#000000;stop-opacity:1;"
         offset="0"
         id="stop1701" />
      <stop
         style="stop-color:#000000;stop-opacity:0;"
         offset="1"
         id="stop1703" />
    </linearGradient>
  </defs>
  <sodipodi:namedview
     objecttolerance="1"
     gridtolerance="1"
     guidetolerance="1"
     id="namedview149"
     pagecolor="#ffffff"
     bordercolor="#cccccc"
     borderopacity="1"
     inkscape:pageshadow="0"
     inkscape:pageopacity="1"
     inkscape:pagecheckerboard="0"
     showgrid="false"
     inkscape:current-layer="svg155">
    <sodipodi:guide
       position="0,400"
       orientation="0,-1"
       id="guide147" />
  </sodipodi:namedview>
  <g
     transform="matrix(1 0 0 -1 0 1100.0)"
     id="g153">
    <path
       fill="#404040"
       d="M245.0 0.0C327.0 0.0 394.0 67.0 394.0 150.0C394.0 178.0 387.0 209.0 373.0 232.0H118.0C105.0 209.0 97.0 178.0 97.0 150.0C97.0 67.0 163.0 0.0 245.0 0.0ZM-20.0 0.0H245.0L180.0 100.0H-20.0V0.0ZM97.0 84.0H131.0V304.0H97.0V84.0ZM244.0 99.0C216.0 99.0 194.0 121.0 194.0 149.0C194.0 177.0 216.0 199.0 244.0 199.0C272.0 199.0 294.0 177.0 294.0 149.0C294.0 121.0 272.0 99.0 244.0 99.0ZM174.0 0.0H354.0C354.0 0.0 394.0 -2.0 394.0 23.0V304.0L294.0 282.0V100.0H174.0V0.0ZM244.0 254.0C216.0 254.0 194.0 276.0 194.0 304.0C194.0 332.0 216.0 354.0 244.0 354.0C272.0 354.0 294.0 332.0 294.0 304.0C294.0 276.0 272.0 254.0 244.0 254.0ZM118.0 227.0H372.0C386.0 250.0 394.0 276.0 394.0 304.0C394.0 387.0 327.0 454.0 245.0 454.0C163.0 454.0 97.0 387.0 97.0 304.0C97.0 276.0 105.0 250.0 118.0 227.0ZM394.0 304.0V500.0C367.0 448.0 280.0 454.0 245.0 454.0L394.0 304.0Z"
       id="path151" />
  </g>
  <path
     id="path1984"
     style="fill:url(#linearGradient1986);fill-opacity:1"
     d="m 394,600 c -27,52 -114,46 -149,46 -82,0 -150,67 -150,150 0,17.54694 3.07055,34.36514 8.63867,50 H 245 c -28,0 -50,-22 -50,-50 0,-28 22,-50 50,-50 28,0 50,22 50,50 0,28 -22,50 -50,50 h 149 v -50 z" />
</svg>
