<?xml version="1.0" encoding="UTF-8" standalone="no"?>
<svg
   version="1.1"
   viewBox="0 0 349.0 1500.0"
   width="349.0"
   height="1500.0"
   id="svg241"
   sodipodi:docname="heh-ar.svg"
   inkscape:version="1.1.1 (c3084ef, 2021-09-22)"
   xmlns:inkscape="http://www.inkscape.org/namespaces/inkscape"
   xmlns:sodipodi="http://sodipodi.sourceforge.net/DTD/sodipodi-0.dtd"
   xmlns:xlink="http://www.w3.org/1999/xlink"
   xmlns="http://www.w3.org/2000/svg"
   xmlns:svg="http://www.w3.org/2000/svg">
  <defs
     id="defs243">
    <linearGradient
       inkscape:collect="always"
       xlink:href="#linearGradient1815"
       id="linearGradient1817"
       x1="263.04172"
       y1="250.70586"
       x2="285.66812"
       y2="444.49466"
       gradientUnits="userSpaceOnUse" />
    <linearGradient
       inkscape:collect="always"
       id="linearGradient1815">
      <stop
         style="stop-color:#000000;stop-opacity:1;"
         offset="0"
         id="stop1811" />
      <stop
         style="stop-color:#000000;stop-opacity:0;"
         offset="1"
         id="stop1813" />
    </linearGradient>
    <linearGradient
       inkscape:collect="always"
       xlink:href="#linearGradient1815"
       id="linearGradient1844"
       x1="268.01065"
       y1="583.18323"
       x2="287.08783"
       y2="700.30835"
       gradientUnits="userSpaceOnUse" />
    <linearGradient
       inkscape:collect="always"
       xlink:href="#linearGradient1815"
       id="linearGradient1986"
       x1="350.82077"
       y1="710.18542"
       x2="270.05145"
       y2="845.05682"
       gradientUnits="userSpaceOnUse" />
  </defs>
  <sodipodi:namedview
     objecttolerance="1"
     gridtolerance="1"
     guidetolerance="1"
     id="namedview235"
     pagecolor="#ffffff"
     bordercolor="#cccccc"
     borderopacity="1"
     inkscape:pageshadow="0"
     inkscape:pageopacity="1"
     inkscape:pagecheckerboard="0"
     showgrid="false"
     inkscape:current-layer="svg241">
    <sodipodi:guide
       position="0,400"
       orientation="0,-1"
       id="guide233" />
  </sodipodi:namedview>
  <g
     transform="matrix(1 0 0 -1 0 1100.0)"
     id="g239">
    <path
       fill="#404040"
       d="M224.0 320.0C262.0 322.0 306.0 340.0 324.0 374.0V495.0L224.0 447.0V320.0ZM224.0 467.0 324.0 515.0V800.0L224.0 778.0V467.0ZM324.0 150.0V346.0C297.0 294.0 210.0 300.0 175.0 300.0L324.0 150.0ZM175.0 0.0C257.0 0.0 324.0 67.0 324.0 150.0C324.0 233.0 257.0 300.0 175.0 300.0C93.0 300.0 25.0 233.0 25.0 150.0C25.0 67.0 93.0 0.0 175.0 0.0ZM175.0 100.0C147.0 100.0 125.0 122.0 125.0 150.0C125.0 178.0 147.0 200.0 175.0 200.0C203.0 200.0 225.0 178.0 225.0 150.0C225.0 122.0 203.0 100.0 175.0 100.0Z"
       id="path237" />
  </g>
  <path
     style="fill:url(#linearGradient1817);fill-opacity:1"
     d="M 224,633 324,585 V 300 l -100,22 z"
     id="path1270" />
  <path
     style="fill:url(#linearGradient1844);fill-opacity:1"
     d="m 224,780 c 38,-2 82,-20 100,-54 V 605 l -100,48 z"
     id="path1268" />
  <path
     id="path1984"
     style="fill:url(#linearGradient1986);fill-opacity:1"
     d="m 324,754 c -27,52 -114,46 -149,46 -82,0 -150,67 -150,150 0,17.54694 3.07055,34.36514 8.638672,50 H 175 c -28,0 -50,-22 -50,-50 0,-28 22,-50 50,-50 28,0 50,22 50,50 0,28 -22,50 -50,50 h 149 v -50 z" />
</svg>
