<?xml version="1.0" encoding="UTF-8" standalone="no"?>
<svg
   version="1.1"
   viewBox="0 0 1085.0 1500.0"
   width="1085.0"
   height="1500.0"
   id="svg17"
   sodipodi:docname="kaf-ar.fina.1.svg"
   inkscape:version="1.1.1 (c3084ef, 2021-09-22)"
   xmlns:inkscape="http://www.inkscape.org/namespaces/inkscape"
   xmlns:sodipodi="http://sodipodi.sourceforge.net/DTD/sodipodi-0.dtd"
   xmlns:xlink="http://www.w3.org/1999/xlink"
   xmlns="http://www.w3.org/2000/svg"
   xmlns:svg="http://www.w3.org/2000/svg">
  <defs
     id="defs19">
    <linearGradient
       inkscape:collect="always"
       xlink:href="#linearGradient1014"
       id="linearGradient1016"
       x1="59.228188"
       y1="52.276291"
       x2="200.10349"
       y2="50.262867"
       gradientUnits="userSpaceOnUse" />
    <linearGradient
       inkscape:collect="always"
       id="linearGradient1014">
      <stop
         style="stop-color:#000000;stop-opacity:1;"
         offset="0"
         id="stop1010" />
      <stop
         style="stop-color:#000000;stop-opacity:0;"
         offset="1"
         id="stop1012" />
    </linearGradient>
    <linearGradient
       inkscape:collect="always"
       xlink:href="#linearGradient1014"
       id="linearGradient1140"
       gradientUnits="userSpaceOnUse"
       x1="584.73157"
       y1="616.03467"
       x2="556.47931"
       y2="428.78635" />
    <linearGradient
       inkscape:collect="always"
       xlink:href="#linearGradient1014"
       id="linearGradient1434"
       gradientUnits="userSpaceOnUse"
       x1="59.228188"
       y1="52.276291"
       x2="200.10349"
       y2="50.262867" />
    <linearGradient
       inkscape:collect="always"
       xlink:href="#linearGradient1014"
       id="linearGradient1436"
       gradientUnits="userSpaceOnUse"
       x1="59.228188"
       y1="52.276291"
       x2="200.10349"
       y2="50.262867" />
  </defs>
  <sodipodi:namedview
     objecttolerance="1"
     gridtolerance="1"
     guidetolerance="1"
     id="namedview11"
     pagecolor="#ffffff"
     bordercolor="#cccccc"
     borderopacity="1"
     inkscape:pageshadow="0"
     inkscape:pageopacity="1"
     inkscape:pagecheckerboard="0"
     showgrid="false"
     inkscape:current-layer="svg17">
    <sodipodi:guide
       position="0,400"
       orientation="0,-1"
       id="guide9" />
  </sodipodi:namedview>
  <g
     transform="matrix(1 0 0 -1 0 1100.0)"
     id="g15">
    <path
       fill="#404040"
       d="M909.0 0.0H1105.0V100.0H909.0V0.0ZM25.0 0.0H945.0C945.0 0.0 985.0 -2.0 985.0 23.0C985.0 143.0 1002.0 300.0 795.0 300.0H265.0L165.0 200.0H795.0C870.0 200.0 886.0 156.0 885.0 100.0H85.0L25.0 0.0ZM320.0 222.0 560.0 456.0C567.0 463.0 578.0 466.0 586.0 451.0V616.0L254.0 289.0L320.0 222.0Z"
       id="path13" />
  </g>
  <g
     transform="matrix(1,0,0,-1,0,1100)"
     id="g175"
     style="fill:url(#linearGradient1436);fill-opacity:1">
    <path
       fill="#404040"
       d="m 25,0 h 920 c 0,0 40,-2 40,23 0,120 17,277 -190,277 H 265 L 165,200 h 630 c 75,0 91,-44 90,-100 H 85 Z m 295,222 240,234 c 7,7 18,10 26,-5 V 616 L 254,289 Z"
       id="path173"
       style="fill:url(#linearGradient1434);fill-opacity:1" />
  </g>
  <g
     transform="matrix(1,0,0,-1,0,1100)"
     id="g1119"
     style="fill:url(#linearGradient1016);fill-opacity:1">
    <path
       fill="#404040"
       d="m 25,0 h 920 c 0,0 40,-2 40,23 0,120 17,277 -190,277 H 265 L 165,200 h 630 c 75,0 91,-44 90,-100 H 85 Z m 295,222 240,234 c 7,7 18,10 26,-5 V 616 L 254,289 Z"
       id="path1117"
       style="fill:url(#linearGradient1140);fill-opacity:1" />
  </g>
</svg>
