<?xml version="1.0" encoding="UTF-8" standalone="no"?>
<svg
   version="1.1"
   viewBox="0 0 940.0 1500.0"
   width="940.0"
   height="1500.0"
   id="svg133"
   sodipodi:docname="kaf-ar.init.svg"
   inkscape:version="1.1.1 (c3084ef, 2021-09-22)"
   xmlns:inkscape="http://www.inkscape.org/namespaces/inkscape"
   xmlns:sodipodi="http://sodipodi.sourceforge.net/DTD/sodipodi-0.dtd"
   xmlns:xlink="http://www.w3.org/1999/xlink"
   xmlns="http://www.w3.org/2000/svg"
   xmlns:svg="http://www.w3.org/2000/svg">
  <defs
     id="defs135">
    <linearGradient
       inkscape:collect="always"
       id="linearGradient1925">
      <stop
         style="stop-color:#000000;stop-opacity:1;"
         offset="0"
         id="stop1921" />
      <stop
         style="stop-color:#000000;stop-opacity:0;"
         offset="1"
         id="stop1923" />
    </linearGradient>
    <linearGradient
       inkscape:collect="always"
       xlink:href="#linearGradient1925"
       id="linearGradient1927"
       x1="161.20805"
       y1="784.54474"
       x2="158.2914"
       y2="536.89374"
       gradientUnits="userSpaceOnUse" />
  </defs>
  <sodipodi:namedview
     objecttolerance="1"
     gridtolerance="1"
     guidetolerance="1"
     id="namedview127"
     pagecolor="#ffffff"
     bordercolor="#cccccc"
     borderopacity="1"
     inkscape:pageshadow="0"
     inkscape:pageopacity="1"
     inkscape:pagecheckerboard="0"
     showgrid="false"
     inkscape:current-layer="svg133">
    <sodipodi:guide
       position="0,400"
       orientation="0,-1"
       id="guide125" />
  </sodipodi:namedview>
  <g
     transform="matrix(1 0 0 -1 0 1100.0)"
     id="g131">
    <path
       fill="#404040"
       d="M-20.0 0.0H875.0C875.0 0.0 915.0 -2.0 915.0 23.0C915.0 143.0 932.0 300.0 725.0 300.0H160.0V200.0H725.0C800.0 200.0 816.0 156.0 815.0 100.0H-20.0V0.0ZM115.0 200.0H215.0V800.0L115.0 778.0V200.0Z"
       id="path129" />
  </g>
  <g
     transform="matrix(1 0 0 -1 0 1100.0)"
     id="g1844"
     style="fill:url(#linearGradient1927);fill-opacity:1">
    <path
       fill="#404040"
       d="M-20.0 0.0H875.0C875.0 0.0 915.0 -2.0 915.0 23.0C915.0 143.0 932.0 300.0 725.0 300.0H160.0V200.0H725.0C800.0 200.0 816.0 156.0 815.0 100.0H-20.0V0.0ZM115.0 200.0H215.0V800.0L115.0 778.0V200.0Z"
       id="path1842"
       style="fill:url(#linearGradient1927);fill-opacity:1" />
  </g>
</svg>
