<?xml version="1.0" encoding="UTF-8" standalone="no"?>
<svg
   version="1.1"
   viewBox="0 0 965.0 1500.0"
   width="965.0"
   height="1500.0"
   id="svg109"
   sodipodi:docname="kaf-ar.isol.1.svg"
   inkscape:version="1.4 (e7c3feb1, 2024-10-09)"
   xmlns:inkscape="http://www.inkscape.org/namespaces/inkscape"
   xmlns:sodipodi="http://sodipodi.sourceforge.net/DTD/sodipodi-0.dtd"
   xmlns:xlink="http://www.w3.org/1999/xlink"
   xmlns="http://www.w3.org/2000/svg"
   xmlns:svg="http://www.w3.org/2000/svg">
  <defs
     id="defs111">
    <linearGradient
       inkscape:collect="always"
       id="linearGradient1625">
      <stop
         style="stop-color:#000000;stop-opacity:1;"
         offset="0"
         id="stop1621" />
      <stop
         style="stop-color:#000000;stop-opacity:0;"
         offset="1"
         id="stop1623" />
    </linearGradient>
    <linearGradient
       inkscape:collect="always"
       xlink:href="#linearGradient1625"
       id="linearGradient1627"
       x1="29.026846"
       y1="1.3232708"
       x2="157.48323"
       y2="39.578308"
       gradientUnits="userSpaceOnUse" />
    <linearGradient
       inkscape:collect="always"
       xlink:href="#linearGradient1625"
       id="linearGradient1732"
       gradientUnits="userSpaceOnUse"
       x1="131.71141"
       y1="784.54474"
       x2="145.40269"
       y2="599.30988" />
  </defs>
  <sodipodi:namedview
     objecttolerance="1"
     gridtolerance="1"
     guidetolerance="1"
     id="namedview103"
     pagecolor="#ffffff"
     bordercolor="#cccccc"
     borderopacity="1"
     inkscape:pageshadow="0"
     inkscape:pageopacity="1"
     inkscape:pagecheckerboard="0"
     showgrid="false"
     inkscape:current-layer="svg109"
     inkscape:showpageshadow="0"
     inkscape:deskcolor="#d1d1d1">
    <sodipodi:guide
       position="0,400"
       orientation="0,-1"
       id="guide101"
       inkscape:locked="false" />
  </sodipodi:namedview>
  <g
     transform="matrix(1,0,0,-1,0,1100)"
     id="g107"
     style="display:inline;fill:#404040;fill-opacity:1">
    <path
       id="path105"
       d="M 85,200 H 185 V 800 L 85,778 Z M 25,0 h 800 c 0,0 40,-2 40,23 0,120 17,277 -190,277 H 110 V 200 h 565 c 75,0 91,-44 90,-100 H 85 Z"
       style="display:inline;fill:#404040;fill-opacity:1" />
  </g>
  <g
     transform="matrix(1,0,0,-1,0,1100)"
     id="g1525"
     style="display:inline;fill:url(#linearGradient1627);fill-opacity:1">
    <path
       id="path1523"
       style="display:inline;fill:url(#linearGradient1627);fill-opacity:1"
       d="M 85,200 H 185 V 800 L 85,778 Z M 25,0 h 800 c 0,0 40,-2 40,23 0,120 17,277 -190,277 H 110 V 200 h 565 c 75,0 91,-44 90,-100 H 85 Z" />
  </g>
  <g
     transform="matrix(1,0,0,-1,0,1100)"
     id="g1711"
     style="display:inline;fill:url(#linearGradient1627);fill-opacity:1">
    <path
       id="path1709"
       style="display:inline;fill:url(#linearGradient1732);fill-opacity:1"
       d="M 85,200 H 185 V 800 L 85,778 Z M 25,0 h 800 c 0,0 40,-2 40,23 0,120 17,277 -190,277 H 110 V 200 h 565 c 75,0 91,-44 90,-100 H 85 Z" />
  </g>
</svg>
