<?xml version="1.0" encoding="UTF-8" standalone="no"?>
<svg
   version="1.1"
   viewBox="0 0 965.0 1500.0"
   width="965.0"
   height="1500.0"
   id="svg109"
   sodipodi:docname="kaf-ar.fina.svg"
   inkscape:version="1.1.1 (c3084ef, 2021-09-22)"
   xmlns:inkscape="http://www.inkscape.org/namespaces/inkscape"
   xmlns:sodipodi="http://sodipodi.sourceforge.net/DTD/sodipodi-0.dtd"
   xmlns:xlink="http://www.w3.org/1999/xlink"
   xmlns="http://www.w3.org/2000/svg"
   xmlns:svg="http://www.w3.org/2000/svg">
  <defs
     id="defs111">
    <linearGradient
       inkscape:collect="always"
       id="linearGradient1625">
      <stop
         style="stop-color:#000000;stop-opacity:1;"
         offset="0"
         id="stop1621" />
      <stop
         style="stop-color:#000000;stop-opacity:0;"
         offset="1"
         id="stop1623" />
    </linearGradient>
    <linearGradient
       inkscape:collect="always"
       xlink:href="#linearGradient1625"
       id="linearGradient1627"
       x1="29.026846"
       y1="1.3232708"
       x2="157.48323"
       y2="39.578308"
       gradientUnits="userSpaceOnUse" />
    <linearGradient
       inkscape:collect="always"
       xlink:href="#linearGradient1625"
       id="linearGradient1732"
       gradientUnits="userSpaceOnUse"
       x1="131.71141"
       y1="784.54474"
       x2="145.40269"
       y2="599.30988" />
  </defs>
  <sodipodi:namedview
     objecttolerance="1"
     gridtolerance="1"
     guidetolerance="1"
     id="namedview103"
     pagecolor="#ffffff"
     bordercolor="#cccccc"
     borderopacity="1"
     inkscape:pageshadow="0"
     inkscape:pageopacity="1"
     inkscape:pagecheckerboard="0"
     showgrid="false"
     inkscape:current-layer="svg109">
    <sodipodi:guide
       position="0,400"
       orientation="0,-1"
       id="guide101" />
  </sodipodi:namedview>
  <g
     transform="matrix(1 0 0 -1 0 1100.0)"
     id="g107">
    <path
       fill="#404040"
       d="M85.0 200.0H185.0V800.0L85.0 778.0V200.0ZM789.0 0.0H985.0V100.0H789.0V0.0ZM25.0 0.0H825.0C825.0 0.0 865.0 -2.0 865.0 23.0C865.0 143.0 882.0 300.0 675.0 300.0H110.0V200.0H675.0C750.0 200.0 766.0 156.0 765.0 100.0H85.0L25.0 0.0Z"
       id="path105" />
  </g>
  <g
     transform="matrix(1 0 0 -1 0 1100.0)"
     id="g1525"
     style="fill:url(#linearGradient1627);fill-opacity:1">
    <path
       fill="#404040"
       d="M85.0 200.0H185.0V800.0L85.0 778.0V200.0ZM789.0 0.0H985.0V100.0H789.0V0.0ZM25.0 0.0H825.0C825.0 0.0 865.0 -2.0 865.0 23.0C865.0 143.0 882.0 300.0 675.0 300.0H110.0V200.0H675.0C750.0 200.0 766.0 156.0 765.0 100.0H85.0L25.0 0.0Z"
       id="path1523"
       style="fill:url(#linearGradient1627);fill-opacity:1" />
  </g>
  <g
     transform="matrix(1 0 0 -1 0 1100.0)"
     id="g1711"
     style="fill:url(#linearGradient1627);fill-opacity:1">
    <path
       fill="#404040"
       d="M85.0 200.0H185.0V800.0L85.0 778.0V200.0ZM789.0 0.0H985.0V100.0H789.0V0.0ZM25.0 0.0H825.0C825.0 0.0 865.0 -2.0 865.0 23.0C865.0 143.0 882.0 300.0 675.0 300.0H110.0V200.0H675.0C750.0 200.0 766.0 156.0 765.0 100.0H85.0L25.0 0.0Z"
       id="path1709"
       style="fill:url(#linearGradient1732);fill-opacity:1" />
  </g>
</svg>
