<?xml version="1.0" encoding="UTF-8" standalone="no"?>
<svg
   version="1.1"
   viewBox="0 0 0.0 1500.0"
   width="0.0"
   height="1500.0"
   id="svg133"
   sodipodi:docname="lam-ar.init.Hah.svg"
   inkscape:version="1.1.1 (c3084ef, 2021-09-22)"
   xmlns:inkscape="http://www.inkscape.org/namespaces/inkscape"
   xmlns:sodipodi="http://sodipodi.sourceforge.net/DTD/sodipodi-0.dtd"
   xmlns:xlink="http://www.w3.org/1999/xlink"
   xmlns="http://www.w3.org/2000/svg"
   xmlns:svg="http://www.w3.org/2000/svg">
  <defs
     id="defs135">
    <linearGradient
       inkscape:collect="always"
       id="linearGradient1871">
      <stop
         style="stop-color:#000000;stop-opacity:1;"
         offset="0"
         id="stop1867" />
      <stop
         style="stop-color:#000000;stop-opacity:0;"
         offset="1"
         id="stop1869" />
    </linearGradient>
    <linearGradient
       inkscape:collect="always"
       xlink:href="#linearGradient1871"
       id="linearGradient1873"
       x1="-322.24832"
       y1="787.06714"
       x2="-265"
       y2="477"
       gradientUnits="userSpaceOnUse" />
    <linearGradient
       inkscape:collect="always"
       xlink:href="#linearGradient1871"
       id="linearGradient1894"
       gradientUnits="userSpaceOnUse"
       x1="-322.24832"
       y1="787.06714"
       x2="-311.30872"
       y2="555.5235" />
    <linearGradient
       inkscape:collect="always"
       xlink:href="#linearGradient1871"
       id="linearGradient1997"
       gradientUnits="userSpaceOnUse"
       x1="-435"
       y1="162.90607"
       x2="-329.42953"
       y2="267.60403" />
  </defs>
  <sodipodi:namedview
     objecttolerance="1"
     gridtolerance="1"
     guidetolerance="1"
     id="namedview127"
     pagecolor="#ffffff"
     bordercolor="#cccccc"
     borderopacity="1"
     inkscape:pageshadow="0"
     inkscape:pageopacity="1"
     inkscape:pagecheckerboard="0"
     showgrid="false"
     inkscape:current-layer="svg133">
    <sodipodi:guide
       position="0,400"
       orientation="0,-1"
       id="guide125" />
  </sodipodi:namedview>
  <g
     transform="matrix(1 0 0 -1 0 1100.0)"
     id="g131">
    <path
       fill="#404040"
       d="M-435.0 165.0C-427.0 162.0 -399.0 154.0 -373.0 154.0C-323.0 154.0 -265.0 180.0 -265.0 300.0V800.0L-365.0 778.0V276.0C-365.0 218.0 -369.0 174.0 -435.0 165.0Z"
       id="path129" />
  </g>
  <g
     transform="matrix(1 0 0 -1 0 1100.0)"
     id="g1790"
     style="fill:url(#linearGradient1873);fill-opacity:1">
    <path
       fill="#404040"
       d="M-435.0 165.0C-427.0 162.0 -399.0 154.0 -373.0 154.0C-323.0 154.0 -265.0 180.0 -265.0 300.0V800.0L-365.0 778.0V276.0C-365.0 218.0 -369.0 174.0 -435.0 165.0Z"
       id="path1788"
       style="fill:url(#linearGradient1894);fill-opacity:1" />
    <path
       fill="#404040"
       d="M-435.0 165.0C-427.0 162.0 -399.0 154.0 -373.0 154.0C-323.0 154.0 -265.0 180.0 -265.0 300.0V800.0L-365.0 778.0V276.0C-365.0 218.0 -369.0 174.0 -435.0 165.0Z"
       id="path1976"
       style="fill:url(#linearGradient1997);fill-opacity:1" />
  </g>
</svg>
