<?xml version="1.0" encoding="UTF-8" standalone="no"?>
<svg
   version="1.1"
   viewBox="0 0 347.0 1500.0"
   width="347.0"
   height="1500.0"
   id="svg17"
   sodipodi:docname="meem-ar.1.svg"
   inkscape:version="1.2.1 (9c6d41e4, 2022-07-14)"
   xmlns:inkscape="http://www.inkscape.org/namespaces/inkscape"
   xmlns:sodipodi="http://sodipodi.sourceforge.net/DTD/sodipodi-0.dtd"
   xmlns:xlink="http://www.w3.org/1999/xlink"
   xmlns="http://www.w3.org/2000/svg"
   xmlns:svg="http://www.w3.org/2000/svg">
  <defs
     id="defs19">
    <linearGradient
       inkscape:collect="always"
       id="linearGradient2372">
      <stop
         style="stop-color:#000000;stop-opacity:1;"
         offset="0"
         id="stop2368" />
      <stop
         style="stop-color:#000000;stop-opacity:0;"
         offset="1"
         id="stop2370" />
    </linearGradient>
    <linearGradient
       inkscape:collect="always"
       id="linearGradient2841">
      <stop
         style="stop-color:#000000;stop-opacity:1;"
         offset="0"
         id="stop2837" />
      <stop
         style="stop-color:#000000;stop-opacity:0;"
         offset="1"
         id="stop2839" />
    </linearGradient>
    <linearGradient
       inkscape:collect="always"
       id="linearGradient2406">
      <stop
         style="stop-color:#000000;stop-opacity:0.89878541"
         offset="0"
         id="stop2402" />
      <stop
         style="stop-color:#000000;stop-opacity:0"
         offset="1"
         id="stop2404" />
    </linearGradient>
    <linearGradient
       inkscape:collect="always"
       xlink:href="#linearGradient1890"
       id="linearGradient2001"
       gradientUnits="userSpaceOnUse"
       x1="459"
       y1="349"
       x2="406"
       y2="230" />
    <linearGradient
       inkscape:collect="always"
       id="linearGradient1890">
      <stop
         style="stop-color:#000000;stop-opacity:1;"
         offset="0"
         id="stop1886" />
      <stop
         style="stop-color:#000000;stop-opacity:0"
         offset="1"
         id="stop1888" />
    </linearGradient>
    <linearGradient
       inkscape:collect="always"
       xlink:href="#linearGradient2406"
       id="linearGradient2408"
       x1="-48.576294"
       y1="-180.92545"
       x2="49.54364"
       y2="-140.34987"
       gradientUnits="userSpaceOnUse"
       gradientTransform="translate(-440)" />
    <radialGradient
       inkscape:collect="always"
       xlink:href="#linearGradient2841"
       id="radialGradient2845"
       cx="477.0239"
       cy="1089.5323"
       fx="477.0239"
       fy="1089.5323"
       r="87.5"
       gradientTransform="matrix(-0.69291683,0.98996457,0.43427301,0.30396551,-503.82925,-755.12595)"
       gradientUnits="userSpaceOnUse" />
    <radialGradient
       inkscape:collect="always"
       xlink:href="#linearGradient2372"
       id="radialGradient5559"
       gradientUnits="userSpaceOnUse"
       gradientTransform="matrix(0.84855909,0.95521163,0.39627786,-0.35203211,-84.03648,665.30482)"
       cx="187.23012"
       cy="342.32877"
       fx="187.23012"
       fy="342.32877"
       r="186" />
  </defs>
  <sodipodi:namedview
     objecttolerance="1"
     gridtolerance="1"
     guidetolerance="1"
     id="namedview11"
     pagecolor="#ffffff"
     bordercolor="#cccccc"
     borderopacity="1"
     inkscape:pageshadow="0"
     inkscape:pageopacity="1"
     inkscape:pagecheckerboard="0"
     showgrid="false"
     inkscape:current-layer="svg17"
     inkscape:showpageshadow="0"
     inkscape:deskcolor="#d1d1d1">
    <sodipodi:guide
       position="0,400"
       orientation="0,-1"
       id="guide9"
       inkscape:locked="false" />
  </sodipodi:namedview>
  <g
     transform="matrix(1 0 0 -1 0 1100.0)"
     id="g15">
    <path
       fill="#404040"
       d="M-50.0 -181.0C5.0 -235.0 125.0 -190.0 125.0 -100.0V92.0L25.0 150.0V-100.0C25.0 -164.0 -44.0 -181.0 -50.0 -181.0ZM174.0 0.0C256.0 0.0 322.0 67.0 322.0 150.0C322.0 226.0 281.0 294.0 193.0 349.0C182.0 337.0 171.0 326.0 164.0 300.0C87.0 295.0 25.0 229.0 25.0 150.0C25.0 67.0 92.0 0.0 174.0 0.0ZM174.0 100.0C146.0 100.0 124.0 122.0 124.0 150.0C124.0 178.0 146.0 200.0 174.0 200.0C202.0 200.0 224.0 178.0 224.0 150.0C224.0 122.0 202.0 100.0 174.0 100.0Z"
       id="path13" />
  </g>
  <g
     transform="matrix(1,0,0,-1,-266,1280)"
     id="g1997"
     style="fill:url(#linearGradient2001);fill-opacity:1" />
  <g
     transform="matrix(1,0,0,-1,440,1100)"
     id="g1108"
     style="fill:#000000;fill-opacity:1">
    <path
       id="path2490"
       style="opacity:1;fill:url(#radialGradient2845);fill-opacity:1"
       d="m -415,150 v -250 c 0,-64 -69,-81 -75,-81 55,-54 175,-9 175,81 V 8.3633 C -373.08389,28.766 -415,84.3629 -415,150 Z" />
    <path
       style="opacity:1;fill:url(#linearGradient2408);fill-opacity:1"
       d="m -490,-181 c 55,-54 175,-9 175,81 V 92 l -100,58 v -250 c 0,-64 -69,-81 -75,-81 z"
       id="path1106" />
  </g>
  <path
     style="fill:url(#radialGradient5559);fill-opacity:1"
     d="m 174,1100 c 82,0 148,-67 148,-150 0,-76 -41,-144 -129,-199 -11,12 -22,23 -29,49 -77,5 -139,71 -139,150 0,83 67,150 149,150 z"
     id="path5555" />
</svg>
