<?xml version="1.0" standalone="no"?>
<svg
   version="1.1"
   viewBox="0 0 500.0 1500.0"
   width="500.0"
   height="1500.0"
   xmlns="http://www.w3.org/2000/svg"
   xmlns:sodipodi="http://sodipodi.sourceforge.net/DTD/sodipodi-0.dtd">
 <sodipodi:namedview objecttolerance="1" gridtolerance="1" guidetolerance="1">
  <sodipodi:guide position="0,400" orientation="0,-1"/>
 </sodipodi:namedview>
 <g transform="matrix(1 0 0 -1 0 1100.0)">
  <path fill="#404040" d="M340.0 0.0H440.0V435.0C440.0 541.0 362.0 615.0 255.0 615.0C144.0 615.0 60.0 534.0 60.0 428.0C60.0 312.0 151.0 242.0 276.0 242.0C302.0 242.0 325.0 244.0 340.0 246.0V0.0ZM340.0 346.0C332.0 346.0 307.0 342.0 279.0 342.0C213.0 342.0 159.0 367.0 159.0 426.0C159.0 474.0 195.0 513.0 253.0 513.0C302.0 513.0 340.0 490.0 340.0 435.0V346.0Z" />
 </g>
</svg>
