<?xml version="1.0" encoding="UTF-8" standalone="no"?>
<svg
   version="1.1"
   viewBox="0 0 490.0 1500.0"
   width="490.0"
   height="1500.0"
   id="svg17"
   sodipodi:docname="noonghunna-ar.fina.svg"
   inkscape:version="1.1.1 (c3084ef, 2021-09-22)"
   xmlns:inkscape="http://www.inkscape.org/namespaces/inkscape"
   xmlns:sodipodi="http://sodipodi.sourceforge.net/DTD/sodipodi-0.dtd"
   xmlns:xlink="http://www.w3.org/1999/xlink"
   xmlns="http://www.w3.org/2000/svg"
   xmlns:svg="http://www.w3.org/2000/svg">
  <defs
     id="defs19">
    <radialGradient
       inkscape:collect="always"
       xlink:href="#linearGradient954"
       id="radialGradient989"
       gradientUnits="userSpaceOnUse"
       gradientTransform="matrix(0.51874276,0.24553937,0.48626409,-1.0273138,-16.251903,1047.4459)"
       cx="149.46309"
       cy="181.3461"
       fx="149.46309"
       fy="181.3461"
       r="205" />
    <linearGradient
       inkscape:collect="always"
       id="linearGradient954">
      <stop
         style="stop-color:#000000;stop-opacity:1;"
         offset="0"
         id="stop950" />
      <stop
         style="stop-color:#000000;stop-opacity:0;"
         offset="1"
         id="stop952" />
    </linearGradient>
    <radialGradient
       inkscape:collect="always"
       xlink:href="#linearGradient954"
       id="radialGradient139"
       gradientUnits="userSpaceOnUse"
       gradientTransform="matrix(0.51874276,0.24553937,0.48626409,-1.0273138,-16.251903,1047.4459)"
       cx="411.14838"
       cy="245.85167"
       fx="411.14838"
       fy="245.85167"
       r="205" />
  </defs>
  <sodipodi:namedview
     objecttolerance="1"
     gridtolerance="1"
     guidetolerance="1"
     id="namedview11"
     pagecolor="#ffffff"
     bordercolor="#cccccc"
     borderopacity="1"
     inkscape:pageshadow="0"
     inkscape:pageopacity="1"
     inkscape:pagecheckerboard="0"
     showgrid="false"
     inkscape:current-layer="svg17">
    <sodipodi:guide
       position="0,400"
       orientation="0,-1"
       id="guide9" />
  </sodipodi:namedview>
  <g
     transform="matrix(1 0 0 -1 0 1100.0)"
     id="g15">
    <path
       fill="#404040"
       d="M364.0 0.0H510.0V100.0H364.0V0.0ZM221.0 -204.0C354.0 -204.0 435.0 -108.0 435.0 5.0C435.0 122.0 387.0 200.0 337.0 262.0L285.0 158.0C305.0 134.0 346.0 77.0 350.0 20.0C355.0 -51.0 318.0 -136.0 216.0 -136.0C102.0 -136.0 55.0 -69.0 55.0 0.0C55.0 39.0 73.0 86.0 111.0 90.0C129.0 92.0 141.0 88.0 160.0 77.0C166.0 100.0 152.0 125.0 131.0 135.0C150.0 160.0 154.0 182.0 151.0 207.0C88.0 167.0 25.0 88.0 25.0 0.0C25.0 -62.0 64.0 -204.0 221.0 -204.0Z"
       id="path13" />
  </g>
  <path
     fill="#404040"
     d="m 221,1304 c 133,0 214,-96 214,-209 0,-117 -48,-195 -98,-257 l -52,104 c 20,24 61,81 65,138 5,71 -32,156 -134,156 -114,0 -161,-67 -161,-136 0,-39 18,-86 56,-90 18,-2 30,2 49,13 6,-23 -8,-48 -29,-58 19,-25 23,-47 20,-72 -63,40 -126,119 -126,207 0,62 39,204 196,204 z"
     id="path113"
     style="fill:url(#radialGradient989);fill-opacity:1" />
  <path
     fill="#404040"
     d="m 221,1304 c 133,0 214,-96 214,-209 0,-117 -48,-195 -98,-257 l -52,104 c 20,24 61,81 65,138 5,71 -32,156 -134,156 -114,0 -161,-67 -161,-136 0,-39 18,-86 56,-90 18,-2 30,2 49,13 6,-23 -8,-48 -29,-58 19,-25 23,-47 20,-72 -63,40 -126,119 -126,207 0,62 39,204 196,204 z"
     id="path114"
     style="fill:url(#radialGradient139);fill-opacity:1" />
</svg>
