<?xml version="1.0" encoding="UTF-8" standalone="no"?>
<svg
   version="1.1"
   viewBox="0 0 515.0 1500.0"
   width="515.0"
   height="1500.0"
   id="svg109"
   sodipodi:docname="qafDotless-ar.svg"
   inkscape:version="1.1.1 (c3084ef, 2021-09-22)"
   xmlns:inkscape="http://www.inkscape.org/namespaces/inkscape"
   xmlns:sodipodi="http://sodipodi.sourceforge.net/DTD/sodipodi-0.dtd"
   xmlns:xlink="http://www.w3.org/1999/xlink"
   xmlns="http://www.w3.org/2000/svg"
   xmlns:svg="http://www.w3.org/2000/svg">
  <defs
     id="defs111">
    <linearGradient
       inkscape:collect="always"
       id="linearGradient4031">
      <stop
         style="stop-color:#000000;stop-opacity:1;"
         offset="0"
         id="stop4027" />
      <stop
         style="stop-color:#000000;stop-opacity:0;"
         offset="1"
         id="stop4029" />
    </linearGradient>
    <linearGradient
       inkscape:collect="always"
       id="linearGradient3534">
      <stop
         style="stop-color:#000000;stop-opacity:1;"
         offset="0"
         id="stop3530" />
      <stop
         style="stop-color:#000000;stop-opacity:0;"
         offset="1"
         id="stop3532" />
    </linearGradient>
    <clipPath
       clipPathUnits="userSpaceOnUse"
       id="clipPath2011">
      <path
         d="M 82.21828,181.73143 245,182.6087 244.9512,100 H 82.21828 Z"
         id="path2013"
         style="opacity:1;mix-blend-mode:darken;fill:url(#linearGradient2015);fill-opacity:1;stroke-width:1.28366"
         sodipodi:nodetypes="ccccc" />
    </clipPath>
    <linearGradient
       inkscape:collect="always"
       id="linearGradient2021">
      <stop
         style="stop-color:#000000;stop-opacity:1;"
         offset="0"
         id="stop2017" />
      <stop
         style="stop-color:#000000;stop-opacity:0;"
         offset="1"
         id="stop2019" />
    </linearGradient>
    <radialGradient
       inkscape:collect="always"
       xlink:href="#linearGradient2021"
       id="radialGradient2511"
       cx="167.86824"
       cy="58.427307"
       fx="167.86824"
       fy="58.427307"
       r="81.390862"
       gradientTransform="matrix(-0.9597374,-0.28089876,0.32051456,-1.0950914,310.25087,210.38301)"
       gradientUnits="userSpaceOnUse" />
    <clipPath
       clipPathUnits="userSpaceOnUse"
       id="clipPath2011-7">
      <path
         d="M 82.21828,181.73143 245,182.6087 244.9512,100 H 82.21828 Z"
         id="path2013-6"
         style="opacity:1;mix-blend-mode:darken;fill:url(#linearGradient2015);fill-opacity:1;stroke-width:1.28366"
         sodipodi:nodetypes="ccccc" />
    </clipPath>
    <radialGradient
       inkscape:collect="always"
       xlink:href="#linearGradient3534"
       id="radialGradient3536"
       cx="84.888832"
       cy="40.150993"
       fx="84.888832"
       fy="40.150993"
       r="257.5"
       gradientTransform="matrix(-0.58845154,-0.1095854,0.04256973,-0.22859062,216.85958,118.20262)"
       gradientUnits="userSpaceOnUse" />
    <linearGradient
       inkscape:collect="always"
       xlink:href="#linearGradient4031"
       id="linearGradient4033"
       x1="42.29179"
       y1="871.28058"
       x2="148.15434"
       y2="888.57239"
       gradientUnits="userSpaceOnUse" />
  </defs>
  <sodipodi:namedview
     objecttolerance="1"
     gridtolerance="1"
     guidetolerance="1"
     id="namedview103"
     pagecolor="#ffffff"
     bordercolor="#cccccc"
     borderopacity="1"
     inkscape:pageshadow="0"
     inkscape:pageopacity="1"
     inkscape:pagecheckerboard="0"
     showgrid="false"
     inkscape:current-layer="svg109">
    <sodipodi:guide
       position="0,400"
       orientation="0,-1"
       id="guide101" />
  </sodipodi:namedview>
  <path
     id="path195"
     d="m 246,1315 c 231,0 244,-212 244,-265 V 950.00002 L 390,1022 v 68 c 0,111 -42,158 -144,158 -124,0 -191,-67 -191,-143 0,-33 9,-69 28,-81 14,-9 31,-11 59,-7 -7,-36.99998 -37,-42.99998 -48,-41.99998 19,-25 16,-48 13,-73 C 59,945.00002 25,1017 25,1105 c 0,92 68,210 221,210 z m 96,-215 c 82,0 148,-67 148,-149.99998 0,-83 -66,-150 -148,-150 -82,0 -149,67 -149,150 C 193,1033 260,1100 342,1100 Z m -2,-100 c -28,0 -50,-21.99998 -50,-49.99998 0,-28 22,-50 50,-50 28,0 50,22 50,50 0,28 -22,49.99998 -50,49.99998 z"
     style="fill:#404040;fill-opacity:1" />
  <g
     transform="matrix(0,-1,-1,0,490.23576,1194.1925)"
     id="g1655"
     style="mix-blend-mode:darken;fill:url(#radialGradient2511);fill-opacity:1"
     clip-path="url(#clipPath2011-7)">
    <path
       id="path2973"
       d="M -120.8075,244.23576 C -120.8075,13.23577 91.192493,0.23577 144.19249,0.23577 h 100 l -72,100 h -68 c -110.9999875,0 -157.999989,42 -157.999989,143.99999 0,124 67.000002,191 142.999992,191 32.999997,0 68.999997,-9 80.999997,-28 9,-14 11,-31 7,-59 37,7 43,37 42,48 25,-19 48,-16 73,-13 -43,48 -115,82 -202.999997,82 -91.9999905,0 -209.999993,-68 -209.999993,-221 z M 94.192493,148.23577 c 0,-82 66.999997,-148 149.999997,-148 83,0 150,66 150,148 0,81.99999 -67,148.99999 -150,148.99999 -83,0 -149.999997,-67 -149.999997,-148.99999 z m 99.999997,2 c 0,27.99999 22,49.99999 50,49.99999 28,0 50,-22 50,-49.99999 0,-28 -22,-50 -50,-50 -28,0 -50,22 -50,50 z"
       style="fill:url(#radialGradient3536);fill-opacity:1" />
  </g>
  <path
     id="path3953"
     d="m 246,1315 c 231,0 244,-212 244,-265 V 950.00002 L 390,1022 v 68 c 0,111 -42,158 -144,158 -124,0 -191,-67 -191,-143 0,-33 9,-69 28,-81 14,-9 31,-11 59,-7 -7,-36.99998 -37,-42.99998 -48,-41.99998 19,-25 16,-48 13,-73 C 59,945.00002 25,1017 25,1105 c 0,92 68,210 221,210 z m 96,-215 c 82,0 148,-67 148,-149.99998 0,-83 -66,-150 -148,-150 -82,0 -149,67 -149,150 C 193,1033 260,1100 342,1100 Z m -2,-100 c -28,0 -50,-21.99998 -50,-49.99998 0,-28 22,-50 50,-50 28,0 50,22 50,50 0,28 -22,49.99998 -50,49.99998 z"
     style="fill:url(#linearGradient4033);fill-opacity:1" />
</svg>
