<?xml version="1.0" encoding="UTF-8" standalone="no"?>
<svg
   version="1.1"
   viewBox="0 0 600.0 1500.0"
   width="600.0"
   height="1500.0"
   id="svg17"
   sodipodi:docname="qafDotless-ar.fina.svg"
   inkscape:version="1.1.1 (c3084ef, 2021-09-22)"
   xmlns:inkscape="http://www.inkscape.org/namespaces/inkscape"
   xmlns:sodipodi="http://sodipodi.sourceforge.net/DTD/sodipodi-0.dtd"
   xmlns:xlink="http://www.w3.org/1999/xlink"
   xmlns="http://www.w3.org/2000/svg"
   xmlns:svg="http://www.w3.org/2000/svg">
  <defs
     id="defs19">
    <linearGradient
       inkscape:collect="always"
       id="linearGradient4912">
      <stop
         style="stop-color:#000000;stop-opacity:1;"
         offset="0"
         id="stop4908" />
      <stop
         style="stop-color:#000000;stop-opacity:0;"
         offset="1"
         id="stop4910" />
    </linearGradient>
    <linearGradient
       inkscape:collect="always"
       id="linearGradient4670">
      <stop
         style="stop-color:#000000;stop-opacity:1;"
         offset="0"
         id="stop4666" />
      <stop
         style="stop-color:#000000;stop-opacity:0;"
         offset="1"
         id="stop4668" />
    </linearGradient>
    <radialGradient
       inkscape:collect="always"
       xlink:href="#linearGradient2021"
       id="radialGradient2511"
       cx="167.86824"
       cy="58.427307"
       fx="167.86824"
       fy="58.427307"
       r="81.390862"
       gradientTransform="matrix(-0.9597374,-0.28089876,0.32051456,-1.0950914,310.25087,210.38301)"
       gradientUnits="userSpaceOnUse" />
    <linearGradient
       inkscape:collect="always"
       id="linearGradient2021">
      <stop
         style="stop-color:#000000;stop-opacity:1;"
         offset="0"
         id="stop2017" />
      <stop
         style="stop-color:#000000;stop-opacity:0;"
         offset="1"
         id="stop2019" />
    </linearGradient>
    <clipPath
       clipPathUnits="userSpaceOnUse"
       id="clipPath2011-7">
      <path
         d="M 82.21828,181.73143 245,182.6087 244.9512,100 H 82.21828 Z"
         id="path2013-6"
         style="opacity:1;mix-blend-mode:darken;fill:url(#linearGradient2015);fill-opacity:1;stroke-width:1.28366"
         sodipodi:nodetypes="ccccc" />
    </clipPath>
    <radialGradient
       inkscape:collect="always"
       xlink:href="#linearGradient4670"
       id="radialGradient4672"
       cx="171.29765"
       cy="110.98308"
       fx="171.29765"
       fy="110.98308"
       r="257.5"
       gradientTransform="matrix(-0.49615067,-0.16084511,0.07340079,-0.22641556,248.14085,154.53712)"
       gradientUnits="userSpaceOnUse" />
    <linearGradient
       inkscape:collect="always"
       xlink:href="#linearGradient4912"
       id="linearGradient4914"
       x1="51.61935"
       y1="903.10785"
       x2="150.16859"
       y2="973.64905"
       gradientUnits="userSpaceOnUse" />
  </defs>
  <sodipodi:namedview
     objecttolerance="1"
     gridtolerance="1"
     guidetolerance="1"
     id="namedview11"
     pagecolor="#ffffff"
     bordercolor="#cccccc"
     borderopacity="1"
     inkscape:pageshadow="0"
     inkscape:pageopacity="1"
     inkscape:pagecheckerboard="0"
     showgrid="false"
     inkscape:current-layer="svg17">
    <sodipodi:guide
       position="0,400"
       orientation="0,-1"
       id="guide9" />
  </sodipodi:namedview>
  <path
     fill="#404040"
     d="M 342,1100 H 620 V 1000 H 342 Z m -96,215 c 231,0 244,-212 244,-265 V 950 l -100,72 v 68 c 0,111 -42,158 -144,158 -124,0 -191,-67 -191,-143 0,-33 9,-69 28,-81 14,-9 31,-11 59,-7 -7,-37 -37,-43 -48,-42 19,-25 16,-48 13,-73 -48,43 -82,115 -82,203 0,92 68,210 221,210 z m 96,-215 c 82,0 148,-67 148,-150 0,-83 -66,-150 -148,-150 -82,0 -149,67 -149,150 0,83 67,150 149,150 z m 0,-100 c -28,0 -50,-22 -50,-50 0,-28 22,-50 50,-50 28,0 50,22 50,50 0,28 -22,50 -50,50 z"
     id="path13" />
  <g
     transform="matrix(0,-1,-1,0,492.23576,1194.1925)"
     id="g1655"
     style="mix-blend-mode:darken;fill:url(#radialGradient2511);fill-opacity:1"
     clip-path="url(#clipPath2011-7)">
    <path
       fill="#404040"
       d="m 94.1925,150.23576 v -278 h 100 v 278 z m -215,96 c 0,-231 212,-244 265,-244 h 100 l -72,100 h -68 c -111,0 -158,42 -158,144 0,124 67,191 143,191 33,0 69,-9 81,-28 9,-14 11,-31 7,-59 37,7 43,37 42,48 25,-19 48,-16 73,-13 -43,48 -115,82 -203,82 -92,0 -210,-68 -210,-221 z m 215,-96 c 0,-82 67,-148 150,-148 83,0 150,66 150,148 0,82 -67,149 -150,149 -83,0 -150,-67 -150,-149 z m 100,0 c 0,28 22,50 50,50 28,0 50,-22 50,-50 0,-28 -22,-50 -50,-50 -28,0 -50,22 -50,50 z"
       id="path4304"
       style="fill:url(#radialGradient4672);fill-opacity:1" />
  </g>
  <path
     fill="#404040"
     d="M 342,1100 H 620 V 1000 H 342 Z m -96,215 c 231,0 244,-212 244,-265 V 950 l -100,72 v 68 c 0,111 -42,158 -144,158 -124,0 -191,-67 -191,-143 0,-33 9,-69 28,-81 14,-9 31,-11 59,-7 -7,-37 -37,-43 -48,-42 19,-25 16,-48 13,-73 -48,43 -82,115 -82,203 0,92 68,210 221,210 z m 96,-215 c 82,0 148,-67 148,-150 0,-83 -66,-150 -148,-150 -82,0 -149,67 -149,150 0,83 67,150 149,150 z m 0,-100 c -28,0 -50,-22 -50,-50 0,-28 22,-50 50,-50 28,0 50,22 50,50 0,28 -22,50 -50,50 z"
     id="path4790"
     style="fill-opacity:1;fill:url(#linearGradient4914)" />
</svg>
