<?xml version="1.0" encoding="UTF-8" standalone="no"?>
<svg
   version="1.1"
   viewBox="0 0 1010.0 1500.0"
   width="1010.0"
   height="1500.0"
   id="svg133"
   sodipodi:docname="tah-ar.svg"
   inkscape:version="1.1.1 (c3084ef, 2021-09-22)"
   xmlns:inkscape="http://www.inkscape.org/namespaces/inkscape"
   xmlns:sodipodi="http://sodipodi.sourceforge.net/DTD/sodipodi-0.dtd"
   xmlns:xlink="http://www.w3.org/1999/xlink"
   xmlns="http://www.w3.org/2000/svg"
   xmlns:svg="http://www.w3.org/2000/svg">
  <defs
     id="defs135">
    <linearGradient
       inkscape:collect="always"
       id="linearGradient978">
      <stop
         style="stop-color:#000000;stop-opacity:1;"
         offset="0"
         id="stop974" />
      <stop
         style="stop-color:#000000;stop-opacity:0;"
         offset="1"
         id="stop976" />
    </linearGradient>
    <linearGradient
       inkscape:collect="always"
       xlink:href="#linearGradient978"
       id="linearGradient980"
       x1="228.3557"
       y1="784.54474"
       x2="234.33167"
       y2="591.25616"
       gradientUnits="userSpaceOnUse" />
    <linearGradient
       inkscape:collect="always"
       xlink:href="#linearGradient978"
       id="linearGradient1386"
       gradientUnits="userSpaceOnUse"
       x1="55.201336"
       y1="51.658833"
       x2="161.84845"
       y2="47.632004" />
    <linearGradient
       inkscape:collect="always"
       xlink:href="#linearGradient978"
       id="linearGradient1487"
       gradientUnits="userSpaceOnUse"
       x1="51.174488"
       y1="33.538025"
       x2="139.70079"
       y2="71.793076" />
  </defs>
  <sodipodi:namedview
     objecttolerance="1"
     gridtolerance="1"
     guidetolerance="1"
     id="namedview127"
     pagecolor="#ffffff"
     bordercolor="#cccccc"
     borderopacity="1"
     inkscape:pageshadow="0"
     inkscape:pageopacity="1"
     inkscape:pagecheckerboard="0"
     showgrid="false"
     inkscape:current-layer="svg133">
    <sodipodi:guide
       position="0,400"
       orientation="0,-1"
       id="guide125" />
  </sodipodi:namedview>
  <g
     transform="matrix(1 0 0 -1 0 1100.0)"
     id="g131">
    <path
       fill="#404040"
       d="M185.0 50.0H285.0V800.0L185.0 778.0V50.0ZM25.0 0.0H345.0V100.0H85.0L25.0 0.0ZM230.0 0.0H945.0C945.0 0.0 985.0 -2.0 985.0 23.0C985.0 143.0 1002.0 300.0 795.0 300.0H230.0V200.0H795.0C870.0 200.0 886.0 156.0 885.0 100.0H230.0V0.0Z"
       id="path129" />
  </g>
  <g
     transform="matrix(1 0 0 -1 0 1100.0)"
     id="g954"
     style="fill:url(#linearGradient980);fill-opacity:1">
    <path
       fill="#404040"
       d="M185.0 50.0H285.0V800.0L185.0 778.0V50.0ZM25.0 0.0H345.0V100.0H85.0L25.0 0.0ZM230.0 0.0H945.0C945.0 0.0 985.0 -2.0 985.0 23.0C985.0 143.0 1002.0 300.0 795.0 300.0H230.0V200.0H795.0C870.0 200.0 886.0 156.0 885.0 100.0H230.0V0.0Z"
       id="path952"
       style="fill:url(#linearGradient980);fill-opacity:1" />
  </g>
  <g
     transform="matrix(1 0 0 -1 0 1100.0)"
     id="g1365"
     style="fill:url(#linearGradient1386);fill-opacity:1">
    <path
       fill="#404040"
       d="M185.0 50.0H285.0V800.0L185.0 778.0V50.0ZM25.0 0.0H345.0V100.0H85.0L25.0 0.0ZM230.0 0.0H945.0C945.0 0.0 985.0 -2.0 985.0 23.0C985.0 143.0 1002.0 300.0 795.0 300.0H230.0V200.0H795.0C870.0 200.0 886.0 156.0 885.0 100.0H230.0V0.0Z"
       id="path1363"
       style="fill:url(#linearGradient1487);fill-opacity:1" />
  </g>
</svg>
