<?xml version="1.0" encoding="UTF-8" standalone="no"?>
<svg
   version="1.1"
   viewBox="0 0 370.0 1500.0"
   width="370.0"
   height="1500.0"
   id="svg1802"
   sodipodi:docname="ain-ar.svg"
   inkscape:version="1.1.1 (c3084ef, 2021-09-22)"
   xmlns:inkscape="http://www.inkscape.org/namespaces/inkscape"
   xmlns:sodipodi="http://sodipodi.sourceforge.net/DTD/sodipodi-0.dtd"
   xmlns:xlink="http://www.w3.org/1999/xlink"
   xmlns="http://www.w3.org/2000/svg"
   xmlns:svg="http://www.w3.org/2000/svg">
  <defs
     id="defs1804">
    <linearGradient
       inkscape:collect="always"
       id="linearGradient1889">
      <stop
         style="stop-color:#000000;stop-opacity:1;"
         offset="0"
         id="stop1885" />
      <stop
         style="stop-color:#000000;stop-opacity:0;"
         offset="1"
         id="stop1887" />
    </linearGradient>
    <linearGradient
       inkscape:collect="always"
       xlink:href="#linearGradient1889"
       id="linearGradient1891"
       x1="361.3205"
       y1="-153.93088"
       x2="251.20805"
       y2="-111.649"
       gradientUnits="userSpaceOnUse" />
    <linearGradient
       inkscape:collect="always"
       xlink:href="#linearGradient1889"
       id="linearGradient2304"
       gradientUnits="userSpaceOnUse"
       x1="347.2265"
       y1="25.263754"
       x2="245.16777"
       y2="63.518795"
       gradientTransform="translate(500)" />
    <linearGradient
       inkscape:collect="always"
       xlink:href="#linearGradient1889"
       id="linearGradient2306"
       gradientUnits="userSpaceOnUse"
       x1="282.797"
       y1="212.51207"
       x2="251.20805"
       y2="-111.649" />
    <linearGradient
       inkscape:collect="always"
       xlink:href="#linearGradient1889"
       id="linearGradient2015"
       gradientUnits="userSpaceOnUse"
       x1="369.37418"
       y1="-147.89061"
       x2="295.50336"
       y2="-39.165779"
       gradientTransform="matrix(1,0,0,-1,4.4180403e-7,1100)" />
    <linearGradient
       inkscape:collect="always"
       xlink:href="#linearGradient1889"
       id="linearGradient2737"
       gradientUnits="userSpaceOnUse"
       gradientTransform="translate(500)"
       x1="276.75671"
       y1="222.57919"
       x2="245.16777"
       y2="194.39128" />
  </defs>
  <sodipodi:namedview
     objecttolerance="1"
     gridtolerance="1"
     guidetolerance="1"
     id="namedview1796"
     pagecolor="#ffffff"
     bordercolor="#cccccc"
     borderopacity="1"
     inkscape:pageshadow="0"
     inkscape:pageopacity="1"
     inkscape:pagecheckerboard="0"
     showgrid="false"
     inkscape:current-layer="svg1802">
    <sodipodi:guide
       position="0,400"
       orientation="0,-1"
       id="guide1794" />
  </sodipodi:namedview>
  <g
     transform="matrix(1 0 0 -1 0 1100.0)"
     id="g1800">
    <path
       fill="#404040"
       d="M132.0 -200.0C208.0 -223.0 324.0 -202.0 370.0 -147.0C306.0 -169.0 126.0 -180.0 126.0 -72.0C126.0 -31.0 172.0 0.0 198.0 0.0H280.0L340.0 100.0H208.0C167.0 100.0 119.0 133.0 119.0 184.0C119.0 217.0 147.0 249.0 180.0 254.0C208.0 259.0 244.0 249.0 273.0 224.0C251.0 273.0 208.0 300.0 159.0 300.0C44.0 300.0 -30.0 127.0 70.0 42.0C46.0 18.0 24.0 -10.0 24.0 -59.0C24.0 -132.0 75.0 -182.0 132.0 -200.0Z"
       id="path1798" />
  </g>
  <g
     transform="matrix(1,0,0,-1,-500,1100)"
     id="g1808"
     style="fill:url(#linearGradient2306);fill-opacity:1">
    <path
       fill="#404040"
       d="m 632,-200 c 76,-23 192,-2 238,53 -64,-22 -244,-33 -244,75 0,41 46,72 72,72 h 82 l 60,100 H 708 c -41,0 -89,33 -89,84 0,33 28,65 61,70 28,5 64,-5 93,-30 -22,49 -65,76 -114,76 C 544,300 470,127 570,42 546,18 524,-10 524,-59 c 0,-73 51,-123 108,-141 z"
       id="path1806"
       style="fill:url(#linearGradient2304);fill-opacity:1" />
    <path
       fill="#404040"
       d="m 632,-200 c 76,-23 192,-2 238,53 -64,-22 -244,-33 -244,75 0,41 46,72 72,72 h 82 l 60,100 H 708 c -41,0 -89,33 -89,84 0,33 28,65 61,70 28,5 64,-5 93,-30 -22,49 -65,76 -114,76 C 544,300 470,127 570,42 546,18 524,-10 524,-59 c 0,-73 51,-123 108,-141 z"
       id="path2716"
       style="fill:url(#linearGradient2737);fill-opacity:1" />
  </g>
  <path
     fill="#404040"
     d="m 132,1300 c 76,23 192,2 238,-53 -64,22 -244,33 -244,-75 0,-41 46,-72 72,-72 h 82 l 60,-100 H 208 c -41,0 -89,-33 -89,-84 0,-33 28,-65 61,-70 28,-5 64,5 93,30 -22,-49 -65,-76 -114,-76 -115,0 -189,173 -89,258 -24,24 -46,52 -46,101 0,73 51,123 108,141 z"
     id="path1992"
     style="fill:url(#linearGradient2015);fill-opacity:1" />
  <g
     transform="matrix(1 0 0 -1 0 1100.0)"
     id="g1994"
     style="fill:url(#linearGradient1891);fill-opacity:1" />
</svg>
