<?xml version="1.0" standalone="no"?>
<svg
   version="1.1"
   viewBox="0 0 430.0 1500.0"
   width="430.0"
   height="1500.0"
   xmlns="http://www.w3.org/2000/svg"
   xmlns:sodipodi="http://sodipodi.sourceforge.net/DTD/sodipodi-0.dtd">
 <sodipodi:namedview objecttolerance="1" gridtolerance="1" guidetolerance="1">
  <sodipodi:guide position="0,400" orientation="0,-1"/>
 </sodipodi:namedview>
 <g transform="matrix(1 0 0 -1 0 1100.0)">
  <path fill="#404040" d="M132.0 -200.0C208.0 -223.0 325.0 -202.0 371.0 -147.0C307.0 -169.0 126.0 -180.0 126.0 -72.0C126.0 -31.0 172.0 0.0 198.0 0.0H450.0V100.0H171.0C70.0 100.0 25.0 23.0 25.0 -60.0C25.0 -131.0 75.0 -182.0 132.0 -200.0ZM151.0 550.0ZM151.0 550.0ZM234.0 46.0 314.0 121.0 91.0 364.0 25.0 273.0 234.0 46.0ZM221.0 50.0H321.0V400.0L221.0 378.0V50.0Z" />
 </g>
</svg>
