<?xml version="1.0" standalone="no"?>
<svg xmlns="http://www.w3.org/2000/svg" version="1.1" viewBox="0 0 370.0 1500.0" width="370.0" height="1500.0">
 <g transform="matrix(1 0 0 -1 0 1100.0)">
  <path d="M132.0 -200.0C208.0 -223.0 324.0 -202.0 370.0 -147.0C306.0 -169.0 126.0 -180.0 126.0 -72.0C126.0 -31.0 172.0 0.0 198.0 0.0H280.0L340.0 100.0H208.0C167.0 100.0 119.0 133.0 119.0 184.0C119.0 217.0 147.0 249.0 180.0 254.0C208.0 259.0 244.0 249.0 273.0 224.0C251.0 273.0 208.0 300.0 159.0 300.0C44.0 300.0 -30.0 127.0 70.0 42.0C46.0 18.0 24.0 -10.0 24.0 -59.0C24.0 -132.0 75.0 -182.0 132.0 -200.0Z" />
 </g>
</svg>
