<?xml version="1.0" encoding="UTF-8" standalone="no"?>
<svg
   version="1.1"
   viewBox="0 0 490.0 1500.0"
   width="490.0"
   height="1500.0"
   id="svg1742"
   sodipodi:docname="ain-ar.fina.1.svg"
   inkscape:version="1.1.1 (c3084ef, 2021-09-22)"
   xmlns:inkscape="http://www.inkscape.org/namespaces/inkscape"
   xmlns:sodipodi="http://sodipodi.sourceforge.net/DTD/sodipodi-0.dtd"
   xmlns:xlink="http://www.w3.org/1999/xlink"
   xmlns="http://www.w3.org/2000/svg"
   xmlns:svg="http://www.w3.org/2000/svg">
  <defs
     id="defs1744">
    <linearGradient
       inkscape:collect="always"
       xlink:href="#linearGradient4137"
       id="linearGradient4139"
       x1="0"
       y1="699.75165"
       x2="92.557045"
       y2="762.16779"
       gradientUnits="userSpaceOnUse"
       gradientTransform="translate(31)" />
    <linearGradient
       inkscape:collect="always"
       id="linearGradient4137">
      <stop
         style="stop-color:#000000;stop-opacity:1;"
         offset="0"
         id="stop4133" />
      <stop
         style="stop-color:#000000;stop-opacity:0;"
         offset="1"
         id="stop4135" />
    </linearGradient>
    <linearGradient
       inkscape:collect="always"
       xlink:href="#linearGradient4137"
       id="linearGradient4289"
       gradientUnits="userSpaceOnUse"
       x1="455.03357"
       y1="701.76508"
       x2="390.54361"
       y2="729.953"
       gradientTransform="translate(31)" />
    <linearGradient
       inkscape:collect="always"
       xlink:href="#linearGradient4137"
       id="linearGradient3910"
       x1="365.26846"
       y1="-150.23961"
       x2="303.02014"
       y2="-83.796654"
       gradientUnits="userSpaceOnUse" />
    <linearGradient
       inkscape:collect="always"
       xlink:href="#linearGradient4137"
       id="linearGradient4577"
       gradientUnits="userSpaceOnUse"
       x1="365.26846"
       y1="-150.23961"
       x2="332.11755"
       y2="-99.753296" />
  </defs>
  <sodipodi:namedview
     objecttolerance="1"
     gridtolerance="1"
     guidetolerance="1"
     id="namedview1736"
     pagecolor="#ffffff"
     bordercolor="#cccccc"
     borderopacity="1"
     inkscape:pageshadow="0"
     inkscape:pageopacity="1"
     inkscape:pagecheckerboard="0"
     showgrid="false"
     inkscape:current-layer="svg1742">
    <sodipodi:guide
       position="0,400"
       orientation="0,-1"
       id="guide1734" />
  </sodipodi:namedview>
  <g
     transform="matrix(1 0 0 -1 0 1100.0)"
     id="g1740">
    <path
       fill="#404040"
       d="M428.0 100.0V0.0H510.0V100.0H428.0ZM132.0 -200.0C208.0 -223.0 325.0 -202.0 371.0 -147.0C307.0 -169.0 126.0 -180.0 126.0 -72.0C126.0 -31.0 172.0 0.0 198.0 0.0H450.0V100.0H171.0C70.0 100.0 25.0 23.0 25.0 -60.0C25.0 -131.0 75.0 -182.0 132.0 -200.0ZM340.0 339.0 191.0 76.0 277.0 26.0 490.0 400.0H31.0L243.0 26.0L330.0 76.0L180.0 339.0L157.0 300.0H363.0L340.0 339.0Z"
       id="path1738" />
  </g>
  <path
     style="fill:url(#linearGradient4139);fill-opacity:1"
     d="m 340,761 -149,263 86,50 213,-374 H 31 l 212,374 87,-50 -150,-263 -23,39 h 206 z"
     id="path4033" />
  <path
     style="fill:url(#linearGradient4289);fill-opacity:1"
     d="m 340,761 -149,263 86,50 213,-374 H 31 l 212,374 87,-50 -150,-263 -23,39 h 206 z"
     id="path4033-5" />
  <g
     transform="matrix(1,0,0,-1,0,1100)"
     id="g3827"
     style="fill:url(#linearGradient3910);fill-opacity:1">
    <path
       fill="#404040"
       d="m 132,-200 c 76,-23 193,-2 239,53 -64,-22 -245,-33 -245,75 0,41 46,72 72,72 H 450 V 100 H 171 C 70,100 25,23 25,-60 25,-131 75,-182 132,-200 Z M 234,46 314,121 91,364 25,273 Z m -13,4 H 321 V 400 L 221,378 Z"
       id="path3825"
       style="fill:url(#linearGradient4577);fill-opacity:1" />
  </g>
</svg>
