<?xml version="1.0" standalone="no"?>
<svg xmlns="http://www.w3.org/2000/svg" version="1.1" viewBox="0 0 490.0 1500.0" width="490.0" height="1500.0">
 <g transform="matrix(1 0 0 -1 0 1100.0)">
  <path d="M428.0 100.0V0.0H510.0V100.0H428.0ZM132.0 -200.0C208.0 -223.0 325.0 -202.0 371.0 -147.0C307.0 -169.0 126.0 -180.0 126.0 -72.0C126.0 -31.0 172.0 0.0 198.0 0.0H450.0V100.0H171.0C70.0 100.0 25.0 23.0 25.0 -60.0C25.0 -131.0 75.0 -182.0 132.0 -200.0ZM255.0 550.0ZM255.0 550.0ZM340.0 339.0 191.0 76.0 277.0 26.0 490.0 400.0H31.0L243.0 26.0L330.0 76.0L180.0 339.0L157.0 300.0H363.0L340.0 339.0Z" />
 </g>
</svg>
