<?xml version="1.0" encoding="UTF-8" standalone="no"?>
<svg
   version="1.1"
   viewBox="0 0 765.0 1500.0"
   width="765.0"
   height="1500.0"
   id="svg17"
   sodipodi:docname="alefMaksura-ar.1.svg"
   inkscape:version="1.1.1 (c3084ef, 2021-09-22)"
   xmlns:inkscape="http://www.inkscape.org/namespaces/inkscape"
   xmlns:sodipodi="http://sodipodi.sourceforge.net/DTD/sodipodi-0.dtd"
   xmlns:xlink="http://www.w3.org/1999/xlink"
   xmlns="http://www.w3.org/2000/svg"
   xmlns:svg="http://www.w3.org/2000/svg">
  <defs
     id="defs19">
    <linearGradient
       inkscape:collect="always"
       id="linearGradient2121">
      <stop
         style="stop-color:#000000;stop-opacity:1;"
         offset="0"
         id="stop2117" />
      <stop
         style="stop-color:#000000;stop-opacity:0;"
         offset="1"
         id="stop2119" />
    </linearGradient>
    <linearGradient
       inkscape:collect="always"
       xlink:href="#linearGradient4705"
       id="linearGradient3282"
       gradientUnits="userSpaceOnUse"
       x1="67.281876"
       y1="-129.16443"
       x2="193.03954"
       y2="-200.93579"
       gradientTransform="matrix(1,0,0,-1,0,900)" />
    <linearGradient
       inkscape:collect="always"
       id="linearGradient4705">
      <stop
         style="stop-color:#000000;stop-opacity:1;"
         offset="0"
         id="stop4701" />
      <stop
         style="stop-color:#000000;stop-opacity:0;"
         offset="1"
         id="stop4703" />
    </linearGradient>
    <linearGradient
       inkscape:collect="always"
       xlink:href="#linearGradient4705"
       id="linearGradient4766"
       gradientUnits="userSpaceOnUse"
       x1="284.73154"
       y1="593.65436"
       x2="317.44968"
       y2="458.75504"
       gradientTransform="matrix(1,0,0,-1,40,1100)" />
    <linearGradient
       inkscape:collect="always"
       xlink:href="#linearGradient2121"
       id="linearGradient2123"
       x1="685.40265"
       y1="74.023491"
       x2="635.302"
       y2="41.808727"
       gradientUnits="userSpaceOnUse" />
  </defs>
  <sodipodi:namedview
     objecttolerance="1"
     gridtolerance="1"
     guidetolerance="1"
     id="namedview11"
     pagecolor="#ffffff"
     bordercolor="#cccccc"
     borderopacity="1"
     inkscape:pageshadow="0"
     inkscape:pageopacity="1"
     inkscape:pagecheckerboard="0"
     showgrid="false"
     inkscape:current-layer="svg17">
    <sodipodi:guide
       position="0,400"
       orientation="0,-1"
       id="guide9" />
  </sodipodi:namedview>
  <g
     transform="matrix(1 0 0 -1 0 1100.0)"
     id="g15">
    <path
       fill="#404040"
       d="M318.0 0.0H433.0L289.0 252.0C252.0 317.0 266.0 383.0 315.0 410.0L552.0 0.0H667.0L328.0 591.0C328.0 539.0 304.0 523.0 263.0 493.0C182.0 433.0 121.0 345.0 202.0 203.0L318.0 0.0ZM25.0 0.0H380.0L322.0 100.0H177.0C153.0 100.0 122.0 113.0 109.0 140.0L25.0 0.0ZM565.0 0.0H740.0L656.0 140.0C643.0 113.0 612.0 100.0 588.0 100.0H535.0L565.0 0.0Z"
       id="path13" />
  </g>
  <path
     d="M 433,1300 H 547 L 289,848 C 252,783 266,717 315,690 l 237,410 H 667 L 328,509 c 0,52 -24,68 -65,98 -81,60 -143,148 -61,290 z M 565,1100 H 740 L 656,960 c -13,27 -44,40 -68,40 H 535 Z M 180,1450 Z M 65,1300 H 480 L 420,1200 H 217 c -24,0 -55,-13 -68,-40 z"
     id="path4697"
     style="opacity:0.5;mix-blend-mode:exclusion;fill:url(#linearGradient4766);fill-opacity:1" />
  <path
     style="fill:url(#linearGradient3282);fill-opacity:1"
     d="M 25,1100 H 440 L 380,1000 H 177 c -24,0 -55,-13 -68,-40 z"
     id="path3181" />
  <g
     transform="matrix(1 0 0 -1 0 1100.0)"
     id="g2058"
     style="fill-opacity:1;fill:url(#linearGradient2123)">
    <path
       fill="#404040"
       d="M318.0 0.0H433.0L289.0 252.0C252.0 317.0 266.0 383.0 315.0 410.0L552.0 0.0H667.0L328.0 591.0C328.0 539.0 304.0 523.0 263.0 493.0C182.0 433.0 121.0 345.0 202.0 203.0L318.0 0.0ZM25.0 0.0H380.0L322.0 100.0H177.0C153.0 100.0 122.0 113.0 109.0 140.0L25.0 0.0ZM565.0 0.0H740.0L656.0 140.0C643.0 113.0 612.0 100.0 588.0 100.0H535.0L565.0 0.0Z"
       id="path2056"
       style="fill-opacity:1;fill:url(#linearGradient2123)" />
  </g>
</svg>
