<?xml version="1.0" encoding="UTF-8" standalone="no"?>
<svg
   version="1.1"
   viewBox="0 0 925.0 1500.0"
   width="925.0"
   height="1500.0"
   id="svg17"
   sodipodi:docname="behDotless-ar.fina.svg"
   inkscape:version="1.1.1 (c3084ef, 2021-09-22)"
   xmlns:inkscape="http://www.inkscape.org/namespaces/inkscape"
   xmlns:sodipodi="http://sodipodi.sourceforge.net/DTD/sodipodi-0.dtd"
   xmlns:xlink="http://www.w3.org/1999/xlink"
   xmlns="http://www.w3.org/2000/svg"
   xmlns:svg="http://www.w3.org/2000/svg">
  <defs
     id="defs19">
    <linearGradient
       inkscape:collect="always"
       id="linearGradient1657">
      <stop
         style="stop-color:#000000;stop-opacity:1;"
         offset="0"
         id="stop1653" />
      <stop
         style="stop-color:#000000;stop-opacity:0;"
         offset="1"
         id="stop1655" />
    </linearGradient>
    <linearGradient
       inkscape:collect="always"
       xlink:href="#linearGradient1657"
       id="linearGradient1659"
       x1="57.214764"
       y1="51.00671"
       x2="318.8255"
       y2="53.020134"
       gradientUnits="userSpaceOnUse" />
    <linearGradient
       inkscape:collect="always"
       xlink:href="#linearGradient1657"
       id="linearGradient1968"
       gradientUnits="userSpaceOnUse"
       x1="773.99329"
       y1="290.60403"
       x2="783.92615"
       y2="63.08725" />
    <linearGradient
       inkscape:collect="always"
       xlink:href="#linearGradient1657"
       id="linearGradient2050"
       gradientUnits="userSpaceOnUse"
       x1="771.97986"
       y1="288.59061"
       x2="731.57715"
       y2="195.97316"
       gradientTransform="translate(0,-380)" />
  </defs>
  <sodipodi:namedview
     objecttolerance="1"
     gridtolerance="1"
     guidetolerance="1"
     id="namedview11"
     pagecolor="#ffffff"
     bordercolor="#cccccc"
     borderopacity="1"
     inkscape:pageshadow="0"
     inkscape:pageopacity="1"
     inkscape:pagecheckerboard="0"
     showgrid="false"
     inkscape:current-layer="svg17">
    <sodipodi:guide
       position="0,400"
       orientation="0,-1"
       id="guide9" />
  </sodipodi:namedview>
  <g
     transform="matrix(1 0 0 -1 0 1100.0)"
     id="g15">
    <path
       fill="#404040"
       d="M725.0 0.0H945.0V100.0H725.0V0.0ZM410.0 390.0ZM410.0 -150.0ZM400.0 332.0ZM410.0 550.0ZM410.0 -150.0ZM25.0 0.0H725.0V100.0H85.0L25.0 0.0ZM708.0 483.0ZM708.0 -150.0ZM700.0 422.0ZM708.0 550.0ZM708.0 -150.0ZM605.0 0.0H785.0C785.0 0.0 825.0 -2.0 825.0 23.0V300.0L725.0 278.0V100.0H605.0V0.0Z"
       id="path13" />
  </g>
  <g
     transform="matrix(1 0 0 -1 0 1100.0)"
     id="g1651"
     style="fill-opacity:1;fill:url(#linearGradient1659)">
    <path
       fill="#404040"
       d="M725.0 0.0H945.0V100.0H725.0V0.0ZM410.0 390.0ZM410.0 -150.0ZM400.0 332.0ZM410.0 550.0ZM410.0 -150.0ZM25.0 0.0H725.0V100.0H85.0L25.0 0.0ZM708.0 483.0ZM708.0 -150.0ZM700.0 422.0ZM708.0 550.0ZM708.0 -150.0ZM605.0 0.0H785.0C785.0 0.0 825.0 -2.0 825.0 23.0V300.0L725.0 278.0V100.0H605.0V0.0Z"
       id="path1649"
       style="fill-opacity:1;fill:url(#linearGradient1659)" />
  </g>
  <g
     transform="matrix(1,0,0,-1,0,720)"
     id="g1947"
     style="fill:url(#linearGradient1968);fill-opacity:1">
    <path
       fill="#404040"
       d="m 725,-380 h 220 v 100 H 725 Z M 410,10 Z m 0,-540 z m -10,482 z m 10,218 z m 0,-700 z M 25,-380 h 700 v 100 H 85 Z m 683,483 z m 0,-633 z m -8,572 z m 8,128 z m 0,-700 z m -103,150 h 180 c 0,0 40,-2 40,23 V -80 L 725,-102 V -280 H 605 Z"
       id="path1945"
       style="fill:url(#linearGradient2050);fill-opacity:1" />
  </g>
</svg>
