<?xml version="1.0" encoding="UTF-8" standalone="no"?>
<svg
   version="1.1"
   viewBox="0 0 400.0 1500.0"
   width="400.0"
   height="1500.0"
   id="svg193"
   sodipodi:docname="behDotless-ar.medi.wide.svg"
   inkscape:version="1.1.1 (c3084ef, 2021-09-22)"
   xmlns:inkscape="http://www.inkscape.org/namespaces/inkscape"
   xmlns:sodipodi="http://sodipodi.sourceforge.net/DTD/sodipodi-0.dtd"
   xmlns:xlink="http://www.w3.org/1999/xlink"
   xmlns="http://www.w3.org/2000/svg"
   xmlns:svg="http://www.w3.org/2000/svg">
  <defs
     id="defs195">
    <linearGradient
       inkscape:collect="always"
       id="linearGradient2850">
      <stop
         style="stop-color:#000000;stop-opacity:1;"
         offset="0"
         id="stop2846" />
      <stop
         style="stop-color:#000000;stop-opacity:0;"
         offset="1"
         id="stop2848" />
    </linearGradient>
    <linearGradient
       inkscape:collect="always"
       xlink:href="#linearGradient2850"
       id="linearGradient2852"
       x1="241.74496"
       y1="288.59061"
       x2="240.80537"
       y2="181.8792"
       gradientUnits="userSpaceOnUse" />
  </defs>
  <sodipodi:namedview
     objecttolerance="1"
     gridtolerance="1"
     guidetolerance="1"
     id="namedview187"
     pagecolor="#ffffff"
     bordercolor="#cccccc"
     borderopacity="1"
     inkscape:pageshadow="0"
     inkscape:pageopacity="1"
     inkscape:pagecheckerboard="0"
     showgrid="false"
     inkscape:current-layer="svg193">
    <sodipodi:guide
       position="0,400"
       orientation="0,-1"
       id="guide185" />
  </sodipodi:namedview>
  <g
     transform="matrix(1 0 0 -1 0 1100.0)"
     id="g191">
    <path
       opacity="0.75"
       d="M-20.0 0.0H109.0V100.0H-20.0V0.0ZM183.0 483.0ZM183.0 -150.0ZM175.0 422.0ZM183.0 550.0ZM183.0 -150.0ZM200.0 0.0H420.0V100.0H200.0V0.0ZM183.0 483.0ZM183.0 -150.0ZM175.0 422.0ZM183.0 550.0ZM183.0 -150.0ZM80.0 0.0H260.0C260.0 0.0 300.0 -2.0 300.0 23.0V300.0L200.0 278.0V100.0H80.0V0.0Z"
       id="path189" />
  </g>
  <g
     transform="matrix(1 0 0 -1 0 1100.0)"
     id="g2844"
     style="fill-opacity:1;fill:url(#linearGradient2852)">
    <path
       opacity="0.75"
       d="M-20.0 0.0H109.0V100.0H-20.0V0.0ZM183.0 483.0ZM183.0 -150.0ZM175.0 422.0ZM183.0 550.0ZM183.0 -150.0ZM200.0 0.0H420.0V100.0H200.0V0.0ZM183.0 483.0ZM183.0 -150.0ZM175.0 422.0ZM183.0 550.0ZM183.0 -150.0ZM80.0 0.0H260.0C260.0 0.0 300.0 -2.0 300.0 23.0V300.0L200.0 278.0V100.0H80.0V0.0Z"
       id="path2842"
       style="fill-opacity:1;fill:url(#linearGradient2852)" />
  </g>
</svg>
