<?xml version="1.0" encoding="UTF-8" standalone="no"?>
<svg
   version="1.1"
   viewBox="0 0 325.0 1500.0"
   width="325.0"
   height="1500.0"
   id="svg133"
   sodipodi:docname="behDotless-ar.init.wide.svg"
   inkscape:version="1.1.1 (c3084ef, 2021-09-22)"
   xmlns:inkscape="http://www.inkscape.org/namespaces/inkscape"
   xmlns:sodipodi="http://sodipodi.sourceforge.net/DTD/sodipodi-0.dtd"
   xmlns:xlink="http://www.w3.org/1999/xlink"
   xmlns="http://www.w3.org/2000/svg"
   xmlns:svg="http://www.w3.org/2000/svg">
  <defs
     id="defs135">
    <linearGradient
       inkscape:collect="always"
       id="linearGradient1250">
      <stop
         style="stop-color:#000000;stop-opacity:1;"
         offset="0"
         id="stop1246" />
      <stop
         style="stop-color:#000000;stop-opacity:0;"
         offset="1"
         id="stop1248" />
    </linearGradient>
    <linearGradient
       inkscape:collect="always"
       xlink:href="#linearGradient1250"
       id="linearGradient1252"
       x1="243.75839"
       y1="286.89374"
       x2="249.66443"
       y2="168.10179"
       gradientUnits="userSpaceOnUse" />
  </defs>
  <sodipodi:namedview
     objecttolerance="1"
     gridtolerance="1"
     guidetolerance="1"
     id="namedview127"
     pagecolor="#ffffff"
     bordercolor="#cccccc"
     borderopacity="1"
     inkscape:pageshadow="0"
     inkscape:pageopacity="1"
     inkscape:pagecheckerboard="0"
     showgrid="false"
     inkscape:current-layer="svg133">
    <sodipodi:guide
       position="0,400"
       orientation="0,-1"
       id="guide125" />
  </sodipodi:namedview>
  <g
     transform="matrix(1 0 0 -1 0 1100.0)"
     id="g131">
    <path
       opacity="0.75"
       d="M80.0 0.0H260.0C260.0 0.0 300.0 -2.0 300.0 23.0V300.0L200.0 278.0V100.0H80.0V0.0ZM-20.0 0.0H109.0V100.0H-20.0V0.0Z"
       id="path129" />
  </g>
  <g
     transform="matrix(1 0 0 -1 0 1100.0)"
     id="g1187"
     style="fill-opacity:1;fill:url(#linearGradient1252)">
    <path
       opacity="0.75"
       d="M80.0 0.0H260.0C260.0 0.0 300.0 -2.0 300.0 23.0V300.0L200.0 278.0V100.0H80.0V0.0ZM-20.0 0.0H109.0V100.0H-20.0V0.0Z"
       id="path1185"
       style="fill-opacity:1;fill:url(#linearGradient1252)" />
  </g>
</svg>
