<?xml version="1.0" standalone="no"?>
<svg xmlns="http://www.w3.org/2000/svg" version="1.1" viewBox="0 0 400.0 1500.0" width="400.0" height="1500.0">
 <g transform="matrix(1 0 0 -1 0 1100.0)">
  <path d="M-20.0 0.0H109.0V100.0H-20.0V0.0ZM183.0 483.0ZM183.0 -150.0ZM175.0 422.0ZM183.0 550.0ZM183.0 -150.0ZM200.0 0.0H420.0V100.0H200.0V0.0ZM200.0 210.0H300.0V370.0L200.0 348.0V210.0ZM183.0 483.0ZM183.0 -150.0ZM175.0 422.0ZM183.0 550.0ZM183.0 -150.0ZM80.0 0.0H260.0C260.0 0.0 300.0 -2.0 300.0 23.0V300.0L200.0 278.0V100.0H80.0V0.0Z" />
 </g>
</svg>
