<?xml version="1.0" standalone="no"?>
<svg xmlns="http://www.w3.org/2000/svg" version="1.1" viewBox="0 0 480.0 1500.0" width="480.0" height="1500.0">
 <g transform="matrix(1 0 0 -1 0 1100.0)">
  <path d="M-20.0 0.0H189.0V100.0H-20.0V0.0ZM263.0 483.0ZM263.0 -150.0ZM255.0 422.0ZM263.0 550.0ZM263.0 -150.0ZM280.0 0.0H500.0V100.0H280.0V0.0ZM280.0 210.0H380.0V370.0L280.0 348.0V210.0ZM263.0 483.0ZM263.0 -150.0ZM255.0 422.0ZM263.0 550.0ZM263.0 -150.0ZM160.0 0.0H340.0C340.0 0.0 380.0 -2.0 380.0 23.0V300.0L280.0 278.0V100.0H160.0V0.0Z" />
 </g>
</svg>
