<?xml version="1.0" encoding="UTF-8" standalone="no"?>
<svg
   version="1.1"
   viewBox="0 0 300.0 1500.0"
   width="300.0"
   height="1500.0"
   id="svg181"
   sodipodi:docname="behDotless-ar.medi.svg"
   inkscape:version="1.1.1 (c3084ef, 2021-09-22)"
   xmlns:inkscape="http://www.inkscape.org/namespaces/inkscape"
   xmlns:sodipodi="http://sodipodi.sourceforge.net/DTD/sodipodi-0.dtd"
   xmlns:xlink="http://www.w3.org/1999/xlink"
   xmlns="http://www.w3.org/2000/svg"
   xmlns:svg="http://www.w3.org/2000/svg">
  <defs
     id="defs183">
    <linearGradient
       inkscape:collect="always"
       id="linearGradient2690">
      <stop
         style="stop-color:#000000;stop-opacity:1;"
         offset="0"
         id="stop2686" />
      <stop
         style="stop-color:#000000;stop-opacity:0;"
         offset="1"
         id="stop2688" />
    </linearGradient>
    <linearGradient
       inkscape:collect="always"
       xlink:href="#linearGradient2690"
       id="linearGradient2692"
       x1="135.03355"
       y1="286.57718"
       x2="140.80537"
       y2="131.54362"
       gradientUnits="userSpaceOnUse" />
  </defs>
  <sodipodi:namedview
     objecttolerance="1"
     gridtolerance="1"
     guidetolerance="1"
     id="namedview175"
     pagecolor="#ffffff"
     bordercolor="#cccccc"
     borderopacity="1"
     inkscape:pageshadow="0"
     inkscape:pageopacity="1"
     inkscape:pagecheckerboard="0"
     showgrid="false"
     inkscape:current-layer="svg181">
    <sodipodi:guide
       position="0,400"
       orientation="0,-1"
       id="guide173" />
  </sodipodi:namedview>
  <g
     transform="matrix(1 0 0 -1 0 1100.0)"
     id="g179">
    <path
       opacity="0.75"
       d="M100.0 0.0H320.0V100.0H100.0V0.0ZM83.0 483.0ZM83.0 -150.0ZM75.0 422.0ZM83.0 550.0ZM83.0 -150.0ZM-20.0 0.0H160.0C160.0 0.0 200.0 -2.0 200.0 23.0V300.0L100.0 278.0V100.0H-20.0V0.0Z"
       id="path177" />
    <path
       opacity="0.75"
       d="M100.0 0.0H320.0V100.0H100.0V0.0ZM83.0 483.0ZM83.0 -150.0ZM75.0 422.0ZM83.0 550.0ZM83.0 -150.0ZM-20.0 0.0H160.0C160.0 0.0 200.0 -2.0 200.0 23.0V300.0L100.0 278.0V100.0H-20.0V0.0Z"
       id="path2684"
       style="fill-opacity:1;fill:url(#linearGradient2692)" />
  </g>
</svg>
