<?xml version="1.0" encoding="UTF-8" standalone="no"?>
<svg
   version="1.1"
   viewBox="0 0 920.0 1500.0"
   width="920.0"
   height="1500.0"
   id="svg17"
   sodipodi:docname="dal-ar.fina.svg"
   inkscape:version="1.1.1 (c3084ef, 2021-09-22)"
   xmlns:inkscape="http://www.inkscape.org/namespaces/inkscape"
   xmlns:sodipodi="http://sodipodi.sourceforge.net/DTD/sodipodi-0.dtd"
   xmlns:xlink="http://www.w3.org/1999/xlink"
   xmlns="http://www.w3.org/2000/svg"
   xmlns:svg="http://www.w3.org/2000/svg">
  <defs
     id="defs19">
    <linearGradient
       inkscape:collect="always"
       xlink:href="#linearGradient954"
       id="linearGradient956"
       x1="89.429527"
       y1="294.54474"
       x2="374.19742"
       y2="163.67227"
       gradientUnits="userSpaceOnUse" />
    <linearGradient
       inkscape:collect="always"
       id="linearGradient954">
      <stop
         style="stop-color:#000000;stop-opacity:1;"
         offset="0"
         id="stop950" />
      <stop
         style="stop-color:#000000;stop-opacity:0;"
         offset="1"
         id="stop952" />
    </linearGradient>
    <linearGradient
       inkscape:collect="always"
       xlink:href="#linearGradient954"
       id="linearGradient1387"
       gradientUnits="userSpaceOnUse"
       x1="89.429527"
       y1="294.54474"
       x2="374.19742"
       y2="163.67227" />
  </defs>
  <sodipodi:namedview
     objecttolerance="1"
     gridtolerance="1"
     guidetolerance="1"
     id="namedview11"
     pagecolor="#ffffff"
     bordercolor="#cccccc"
     borderopacity="1"
     inkscape:pageshadow="0"
     inkscape:pageopacity="1"
     inkscape:pagecheckerboard="0"
     showgrid="false"
     inkscape:current-layer="svg17">
    <sodipodi:guide
       position="0,400"
       orientation="0,-1"
       id="guide9" />
  </sodipodi:namedview>
  <g
     transform="matrix(1 0 0 -1 0 1100.0)"
     id="g15">
    <path
       fill="#404040"
       d="M25.0 0.0H940.0V100.0H820.0C817.0 201.0 794.0 300.0 630.0 300.0H225.0L277.0 413.0L267.0 420.0L135.0 200.0H630.0C705.0 200.0 721.0 156.0 720.0 100.0H85.0L25.0 0.0Z"
       id="path13" />
  </g>
  <g
     transform="matrix(1,0,0,-1,0,1100)"
     id="g115"
     style="fill:url(#linearGradient956);fill-opacity:1">
    <path
       fill="#404040"
       d="m 25,0 h 780 c 0,0 40,-2 40,23 0,120 17,277 -190,277 H 225 l 52,113 -10,7 -132,-220 h 520 c 75,0 91,-44 90,-100 H 85 Z"
       id="path113"
       style="fill:url(#linearGradient1387);fill-opacity:1" />
  </g>
</svg>
