<?xml version="1.0" standalone="no"?>
<svg xmlns="http://www.w3.org/2000/svg" version="1.1" viewBox="0 0 585.0 1500.0" width="585.0" height="1500.0">
 <g transform="matrix(1 0 0 -1 0 1100.0)">
  <path d="M504.0 206.0C525.0 206.0 540.0 220.0 540.0 243.0C540.0 267.0 523.0 279.0 504.0 279.0C484.0 279.0 469.0 267.0 469.0 243.0C469.0 220.0 484.0 206.0 504.0 206.0ZM186.0 15.0C207.0 15.0 222.0 28.0 222.0 53.0C222.0 76.0 206.0 88.0 186.0 88.0C167.0 88.0 152.0 76.0 152.0 53.0C152.0 28.0 167.0 15.0 186.0 15.0ZM108.0 97.0C130.0 97.0 144.0 111.0 144.0 133.0C144.0 157.0 129.0 171.0 108.0 171.0C90.0 171.0 74.0 157.0 74.0 133.0C74.0 111.0 90.0 97.0 108.0 97.0ZM292.0 -12.0C313.0 -12.0 328.0 1.0 328.0 25.0C328.0 48.0 313.0 61.0 292.0 61.0C273.0 61.0 258.0 48.0 258.0 25.0C258.0 1.0 273.0 -12.0 292.0 -12.0ZM80.0 206.0C102.0 206.0 117.0 220.0 117.0 243.0C117.0 267.0 101.0 279.0 80.0 279.0C62.0 279.0 46.0 267.0 46.0 243.0C46.0 220.0 62.0 206.0 80.0 206.0ZM398.0 15.0C420.0 15.0 434.0 28.0 434.0 53.0C434.0 76.0 418.0 88.0 398.0 88.0C380.0 88.0 364.0 76.0 364.0 53.0C364.0 28.0 380.0 15.0 398.0 15.0ZM108.0 316.0C130.0 316.0 144.0 330.0 144.0 354.0C144.0 378.0 129.0 390.0 108.0 390.0C90.0 390.0 74.0 378.0 74.0 354.0C74.0 330.0 90.0 316.0 108.0 316.0ZM477.0 97.0C499.0 97.0 512.0 111.0 512.0 133.0C512.0 157.0 497.0 171.0 477.0 171.0C458.0 171.0 442.0 157.0 442.0 133.0C442.0 111.0 458.0 97.0 477.0 97.0ZM186.0 398.0C207.0 398.0 222.0 412.0 222.0 434.0C222.0 459.0 206.0 471.0 186.0 471.0C167.0 471.0 152.0 459.0 152.0 434.0C152.0 412.0 167.0 398.0 186.0 398.0ZM292.0 424.0C313.0 424.0 328.0 438.0 328.0 462.0C328.0 485.0 313.0 498.0 292.0 498.0C273.0 498.0 258.0 485.0 258.0 462.0C258.0 438.0 273.0 424.0 292.0 424.0ZM477.0 316.0C499.0 316.0 512.0 329.0 512.0 353.0C512.0 376.0 497.0 389.0 477.0 389.0C458.0 389.0 442.0 376.0 442.0 353.0C442.0 329.0 458.0 316.0 477.0 316.0ZM398.0 397.0C420.0 397.0 434.0 412.0 434.0 434.0C434.0 458.0 418.0 471.0 398.0 471.0C380.0 471.0 364.0 458.0 364.0 434.0C364.0 412.0 380.0 397.0 398.0 397.0Z" />
 </g>
</svg>
