<?xml version="1.0" standalone="no"?>
<svg xmlns="http://www.w3.org/2000/svg" version="1.1" viewBox="0 0 500.0 1500.0" width="500.0" height="1500.0">
 <g transform="matrix(1 0 0 -1 0 1100.0)">
  <path d="M340.0 0.0H520.0V100.0H340.0V0.0ZM250.0 600.0ZM250.0 600.0ZM250.0 -150.0ZM-20.0 0.0H360.0C360.0 0.0 400.0 -2.0 400.0 23.0V300.0L300.0 228.0V100.0H-20.0V0.0ZM251.0 150.0C333.0 150.0 400.0 217.0 400.0 300.0C400.0 383.0 333.0 450.0 251.0 450.0C169.0 450.0 101.0 383.0 101.0 300.0C101.0 217.0 169.0 150.0 251.0 150.0ZM251.0 250.0C223.0 250.0 201.0 272.0 201.0 300.0C201.0 328.0 223.0 350.0 251.0 350.0C279.0 350.0 301.0 328.0 301.0 300.0C301.0 272.0 279.0 250.0 251.0 250.0Z" />
 </g>
</svg>
