<?xml version="1.0" encoding="UTF-8" standalone="no"?>
<svg
   version="1.1"
   viewBox="0 0 500.0 1500.0"
   width="500.0"
   height="1500.0"
   id="svg1835"
   sodipodi:docname="fehDotless-ar.medi.svg"
   inkscape:version="1.1.1 (c3084ef, 2021-09-22)"
   xmlns:inkscape="http://www.inkscape.org/namespaces/inkscape"
   xmlns:sodipodi="http://sodipodi.sourceforge.net/DTD/sodipodi-0.dtd"
   xmlns:xlink="http://www.w3.org/1999/xlink"
   xmlns="http://www.w3.org/2000/svg"
   xmlns:svg="http://www.w3.org/2000/svg">
  <defs
     id="defs1837">
    <radialGradient
       inkscape:collect="always"
       xlink:href="#linearGradient2021"
       id="radialGradient2511"
       cx="167.86824"
       cy="58.427307"
       fx="167.86824"
       fy="58.427307"
       r="81.390862"
       gradientTransform="matrix(-0.9597374,-0.28089876,0.32051456,-1.0950914,310.25087,210.38301)"
       gradientUnits="userSpaceOnUse" />
    <linearGradient
       inkscape:collect="always"
       id="linearGradient2021">
      <stop
         style="stop-color:#000000;stop-opacity:1;"
         offset="0"
         id="stop2017" />
      <stop
         style="stop-color:#000000;stop-opacity:0;"
         offset="1"
         id="stop2019" />
    </linearGradient>
    <clipPath
       clipPathUnits="userSpaceOnUse"
       id="clipPath2011">
      <path
         d="M 82.21828,181.73143 245,182.6087 244.9512,100 H 82.21828 Z"
         id="path2013"
         style="opacity:1;mix-blend-mode:darken;fill:url(#linearGradient2015);fill-opacity:1;stroke-width:1.28366"
         sodipodi:nodetypes="ccccc" />
    </clipPath>
    <radialGradient
       inkscape:collect="always"
       xlink:href="#linearGradient2021"
       id="radialGradient2532"
       gradientUnits="userSpaceOnUse"
       gradientTransform="matrix(-1.8329574,-0.2676935,0.1376336,-0.94240806,468.46959,199.95938)"
       cx="169.94781"
       cy="67.63298"
       fx="169.94781"
       fy="67.63298"
       r="81.390862" />
  </defs>
  <sodipodi:namedview
     objecttolerance="1"
     gridtolerance="1"
     guidetolerance="1"
     id="namedview1829"
     pagecolor="#ffffff"
     bordercolor="#cccccc"
     borderopacity="1"
     inkscape:pageshadow="0"
     inkscape:pageopacity="1"
     inkscape:pagecheckerboard="0"
     showgrid="false"
     inkscape:current-layer="svg1835">
    <sodipodi:guide
       position="0,400"
       orientation="0,-1"
       id="guide1827" />
  </sodipodi:namedview>
  <g
     transform="matrix(1,0,0,-1,0,1100)"
     id="g1808"
     style="fill:#404040">
    <path
       id="path1806"
       d="m -20,0 h 380 c 0,0 40,-2 40,23 V 300 L 300,228 V 100 H -20 Z m 271,150 c 82,0 149,67 149,150 0,83 -67,150 -149,150 -82,0 -150,-67 -150,-150 0,-83 68,-150 150,-150 z m -0.79322,100 c -28,0 -50,22 -50,50 0,28 22,50 50,50 28,0 50,-22 50,-50 0,-28 -22,-50 -50,-50 z M 340,0 H 520 V 100 H 340 Z" />
  </g>
  <g
     transform="matrix(0,-1,-1,0,400.35464,1043.841)"
     id="g1655"
     style="mix-blend-mode:darken;fill:url(#radialGradient2511);fill-opacity:1"
     clip-path="url(#clipPath2011)">
    <path
       d="M -20,0 H 245 L 180,100 H -20 Z m 264,0 c 82,0 149,67 149,150 0,83 -67,150 -149,150 C 162,300 94,233 94,150 94,67 162,0 244,0 Z m 0,100 c -28,0 -50,22 -50,50 0,28 22,50 50,50 28,0 50,-22 50,-50 0,-28 -22,-50 -50,-50 z"
       id="path1653"
       style="fill:url(#radialGradient2532);fill-opacity:1" />
  </g>
</svg>
