<?xml version="1.0" standalone="no"?>
<svg
   version="1.1"
   viewBox="0 0 925.0 1500.0"
   width="925.0"
   height="1500.0"
   xmlns="http://www.w3.org/2000/svg"
   xmlns:sodipodi="http://sodipodi.sourceforge.net/DTD/sodipodi-0.dtd">
 <sodipodi:namedview objecttolerance="1" gridtolerance="1" guidetolerance="1">
  <sodipodi:guide position="0,400" orientation="0,-1"/>
 </sodipodi:namedview>
 <g transform="matrix(1 0 0 -1 0 1100.0)">
  <path opacity="0.75" d="M725.0 0.0H945.0V100.0H725.0V0.0ZM425.0 -150.0ZM25.0 0.0H435.0V100.0H85.0L25.0 0.0ZM675.0 600.0ZM675.0 600.0ZM675.0 -150.0ZM405.0 0.0H785.0C785.0 0.0 825.0 -2.0 825.0 23.0V300.0L725.0 228.0V100.0H405.0V0.0ZM676.0 150.0C758.0 150.0 825.0 217.0 825.0 300.0C825.0 383.0 758.0 450.0 676.0 450.0C594.0 450.0 526.0 383.0 526.0 300.0C526.0 217.0 594.0 150.0 676.0 150.0ZM676.0 250.0C648.0 250.0 626.0 272.0 626.0 300.0C626.0 328.0 648.0 350.0 676.0 350.0C704.0 350.0 726.0 328.0 726.0 300.0C726.0 272.0 704.0 250.0 676.0 250.0Z" />
 </g>
</svg>
