<?xml version="1.0" standalone="no"?>
<svg
   version="1.1"
   viewBox="0 0 500.0 1500.0"
   width="500.0"
   height="1500.0"
   xmlns="http://www.w3.org/2000/svg"
   xmlns:sodipodi="http://sodipodi.sourceforge.net/DTD/sodipodi-0.dtd">
 <sodipodi:namedview objecttolerance="1" gridtolerance="1" guidetolerance="1">
  <sodipodi:guide position="0,400" orientation="0,-1"/>
 </sodipodi:namedview>
 <g transform="matrix(1 0 0 -1 0 1100.0)">
  <path opacity="0.75" d="M250.0 50.0C332.0 50.0 398.0 117.0 398.0 200.0V400.0C398.0 483.0 332.0 550.0 250.0 550.0C168.0 550.0 102.0 483.0 102.0 400.0V200.0C102.0 117.0 168.0 50.0 250.0 50.0ZM142.0 50.0H250.0L102.0 281.0V73.0C102.0 48.0 142.0 50.0 142.0 50.0ZM200.0 150.0V400.0C200.0 428.0 222.0 450.0 250.0 450.0H300.0V200.0C300.0 172.0 278.0 150.0 250.0 150.0H200.0ZM398.0 400.0V600.0C371.0 548.0 285.0 550.0 250.0 550.0L398.0 400.0Z" />
 </g>
</svg>
