<?xml version="1.0" standalone="no"?>
<svg
   version="1.1"
   viewBox="0 0 428.0 1500.0"
   width="428.0"
   height="1500.0"
   xmlns="http://www.w3.org/2000/svg"
   xmlns:sodipodi="http://sodipodi.sourceforge.net/DTD/sodipodi-0.dtd">
 <sodipodi:namedview objecttolerance="1" gridtolerance="1" guidetolerance="1">
  <sodipodi:guide position="0,400" orientation="0,-1"/>
 </sodipodi:namedview>
 <g transform="matrix(1 0 0 -1 0 1100.0)">
  <path d="M215.0 -85.0ZM215.0 -85.0ZM75.0 -170.0C136.0 -217.0 239.0 -207.0 296.0 -167.0C232.0 -187.0 111.0 -180.0 111.0 -72.0C111.0 -21.0 156.0 0.0 182.0 0.0H450.0V100.0H182.0C54.0 100.0 25.0 13.0 25.0 -57.0C25.0 -110.0 45.0 -147.0 75.0 -170.0ZM192.0 500.0ZM192.0 500.0ZM378.0 -200.0 461.0 -123.0 192.0 359.0H25.0L75.0 259.0H120.0L378.0 -200.0Z" />
 </g>
</svg>
