<?xml version="1.0" encoding="UTF-8" standalone="no"?>
<svg
   version="1.1"
   viewBox="0 0 583.0 1500.0"
   width="583.0"
   height="1500.0"
   id="svg133"
   sodipodi:docname="hah-ar.fina.alt.svg"
   inkscape:version="1.1.1 (c3084ef, 2021-09-22)"
   xmlns:inkscape="http://www.inkscape.org/namespaces/inkscape"
   xmlns:sodipodi="http://sodipodi.sourceforge.net/DTD/sodipodi-0.dtd"
   xmlns:xlink="http://www.w3.org/1999/xlink"
   xmlns="http://www.w3.org/2000/svg"
   xmlns:svg="http://www.w3.org/2000/svg">
  <defs
     id="defs135">
    <linearGradient
       inkscape:collect="always"
       id="linearGradient2269">
      <stop
         style="stop-color:#000000;stop-opacity:1;"
         offset="0"
         id="stop2265" />
      <stop
         style="stop-color:#000000;stop-opacity:0;"
         offset="1"
         id="stop2267" />
    </linearGradient>
    <linearGradient
       inkscape:collect="always"
       xlink:href="#linearGradient2269"
       id="linearGradient2271"
       x1="306.19244"
       y1="-312.23795"
       x2="272.92563"
       y2="-127.42815"
       gradientUnits="userSpaceOnUse" />
    <linearGradient
       inkscape:collect="always"
       xlink:href="#linearGradient2269"
       id="linearGradient2374"
       gradientUnits="userSpaceOnUse"
       x1="242.33849"
       y1="370.91635"
       x2="318.08862"
       y2="204.84766" />
  </defs>
  <sodipodi:namedview
     objecttolerance="1"
     gridtolerance="1"
     guidetolerance="1"
     id="namedview127"
     pagecolor="#ffffff"
     bordercolor="#cccccc"
     borderopacity="1"
     inkscape:pageshadow="0"
     inkscape:pageopacity="1"
     inkscape:pagecheckerboard="0"
     showgrid="false"
     inkscape:current-layer="g2226">
    <sodipodi:guide
       position="0,400"
       orientation="0,-1"
       id="guide125" />
  </sodipodi:namedview>
  <g
     transform="matrix(1 0 0 -1 0 1100.0)"
     id="g131">
    <path
       fill="#404040"
       d="M347.0 500.0ZM347.0 500.0ZM533.0 -200.0 616.0 -123.0 347.0 359.0H180.0L230.0 259.0H275.0L533.0 -200.0ZM293.0 -90.0ZM25.0 -57.0C25.0 -195.0 180.0 -224.0 253.0 -195.0C169.0 -195.0 109.0 -143.0 109.0 -77.0C109.0 -31.0 139.0 0.0 182.0 0.0H603.0V100.0H182.0C54.0 100.0 25.0 13.0 25.0 -57.0Z"
       id="path129" />
  </g>
  <g
     transform="matrix(1,0,0,-1,0,1100)"
     id="g2226"
     style="fill:#000000;fill-opacity:1">
    <path
       fill="#404040"
       d="m 347,500 z m 0,0 z m 186,-700 83,77 -269,482 H 180 l 50,-100 h 45 z M 293,-90 Z M 25,-57 c 0,-138 155,-167 228,-138 -84,0 -144,52 -144,118 0,46 30,77 73,77 H 603 V 100 H 182 C 54,100 25,13 25,-57 Z"
       id="path2224"
       style="fill:url(#linearGradient2271);fill-opacity:1" />
    <path
       fill="#404040"
       d="m 347,500 z m 0,0 z m 186,-700 83,77 -269,482 H 180 l 50,-100 h 45 z M 293,-90 Z M 25,-57 c 0,-138 155,-167 228,-138 -84,0 -144,52 -144,118 0,46 30,77 73,77 H 603 V 100 H 182 C 54,100 25,13 25,-57 Z"
       id="path2353"
       style="fill:url(#linearGradient2374);fill-opacity:1" />
  </g>
</svg>
