<?xml version="1.0" encoding="UTF-8" standalone="no"?>
<svg
   version="1.1"
   viewBox="0 0 685.0 1500.0"
   width="685.0"
   height="1500.0"
   id="svg169"
   sodipodi:docname="hah-ar.init.svg"
   inkscape:version="1.1.1 (c3084ef, 2021-09-22)"
   xmlns:inkscape="http://www.inkscape.org/namespaces/inkscape"
   xmlns:sodipodi="http://sodipodi.sourceforge.net/DTD/sodipodi-0.dtd"
   xmlns:xlink="http://www.w3.org/1999/xlink"
   xmlns="http://www.w3.org/2000/svg"
   xmlns:svg="http://www.w3.org/2000/svg">
  <defs
     id="defs171">
    <linearGradient
       inkscape:collect="always"
       id="linearGradient1063">
      <stop
         style="stop-color:#000000;stop-opacity:1;"
         offset="0"
         id="stop1059" />
      <stop
         style="stop-color:#000000;stop-opacity:0;"
         offset="1"
         id="stop1061" />
    </linearGradient>
    <linearGradient
       inkscape:collect="always"
       xlink:href="#linearGradient1063"
       id="linearGradient1065"
       x1="151.14095"
       y1="283.92618"
       x2="660"
       y2="145"
       gradientUnits="userSpaceOnUse" />
    <linearGradient
       inkscape:collect="always"
       xlink:href="#linearGradient1063"
       id="linearGradient1086"
       gradientUnits="userSpaceOnUse"
       x1="151.14095"
       y1="283.92618"
       x2="178.79195"
       y2="130.90604" />
    <linearGradient
       inkscape:collect="always"
       xlink:href="#linearGradient1063"
       id="linearGradient1189"
       gradientUnits="userSpaceOnUse"
       x1="622.28186"
       y1="44.328861"
       x2="444.56375"
       y2="54.395969" />
  </defs>
  <sodipodi:namedview
     objecttolerance="1"
     gridtolerance="1"
     guidetolerance="1"
     id="namedview163"
     pagecolor="#ffffff"
     bordercolor="#cccccc"
     borderopacity="1"
     inkscape:pageshadow="0"
     inkscape:pageopacity="1"
     inkscape:pagecheckerboard="0"
     showgrid="false"
     inkscape:current-layer="svg169">
    <sodipodi:guide
       position="0,400"
       orientation="0,-1"
       id="guide161" />
  </sodipodi:namedview>
  <g
     transform="matrix(1 0 0 -1 0 1100.0)"
     id="g167">
    <path
       fill="#404040"
       d="M-20.0 0.0H600.0L660.0 100.0H416.0C320.0 100.0 221.0 179.0 151.0 290.0L95.0 183.0C111.0 157.0 145.0 116.0 173.0 100.0H-20.0V0.0Z"
       id="path165" />
  </g>
  <g
     transform="matrix(1 0 0 -1 0 1100.0)"
     id="g1039"
     style="fill:url(#linearGradient1065);fill-opacity:1">
    <path
       fill="#404040"
       d="M-20.0 0.0H600.0L660.0 100.0H416.0C320.0 100.0 221.0 179.0 151.0 290.0L95.0 183.0C111.0 157.0 145.0 116.0 173.0 100.0H-20.0V0.0Z"
       id="path1037"
       style="fill:url(#linearGradient1086);fill-opacity:1" />
    <path
       fill="#404040"
       d="M-20.0 0.0H600.0L660.0 100.0H416.0C320.0 100.0 221.0 179.0 151.0 290.0L95.0 183.0C111.0 157.0 145.0 116.0 173.0 100.0H-20.0V0.0Z"
       id="path1168"
       style="fill:url(#linearGradient1189);fill-opacity:1" />
  </g>
</svg>
