<?xml version="1.0" standalone="no"?>
<svg xmlns="http://www.w3.org/2000/svg" version="1.1" viewBox="0 0 480.0 1500.0" width="480.0" height="1500.0">
 <g transform="matrix(1 0 0 -1 0 1100.0)">
  <path d="M440.0 0.0H520.0V100.0H440.0V0.0ZM220.0 -150.0ZM350.0 250.0ZM220.0 -150.0ZM250.0 890.0ZM220.0 -150.0ZM-40.0 0.0H460.0L520.0 100.0H394.0C243.0 100.0 177.0 230.0 236.0 315.0L353.0 483.0C418.0 577.0 410.0 689.0 334.0 753.0C287.0 792.0 218.0 813.0 120.0 800.0C92.0 796.0 63.0 801.0 41.0 808.0L81.0 674.0C137.0 720.0 201.0 725.0 248.0 703.0C308.0 674.0 322.0 604.0 279.0 542.0L163.0 377.0C63.0 234.0 148.0 121.0 176.0 100.0H-40.0V0.0Z" />
 </g>
</svg>
