<?xml version="1.0" encoding="UTF-8" standalone="no"?>
<svg
   version="1.1"
   viewBox="0 0 378.0 1500.0"
   width="378.0"
   height="1500.0"
   id="svg205"
   sodipodi:docname="hah-ar.medi.svg"
   inkscape:version="1.1.1 (c3084ef, 2021-09-22)"
   xmlns:inkscape="http://www.inkscape.org/namespaces/inkscape"
   xmlns:sodipodi="http://sodipodi.sourceforge.net/DTD/sodipodi-0.dtd"
   xmlns:xlink="http://www.w3.org/1999/xlink"
   xmlns="http://www.w3.org/2000/svg"
   xmlns:svg="http://www.w3.org/2000/svg">
  <defs
     id="defs207">
    <linearGradient
       inkscape:collect="always"
       id="linearGradient1289">
      <stop
         style="stop-color:#000000;stop-opacity:1;"
         offset="0"
         id="stop1285" />
      <stop
         style="stop-color:#000000;stop-opacity:0;"
         offset="1"
         id="stop1287" />
    </linearGradient>
    <linearGradient
       inkscape:collect="always"
       xlink:href="#linearGradient1289"
       id="linearGradient1291"
       x1="365.60403"
       y1="-164.09396"
       x2="334.48993"
       y2="-45.302013"
       gradientUnits="userSpaceOnUse" />
    <linearGradient
       inkscape:collect="always"
       xlink:href="#linearGradient1289"
       id="linearGradient1415"
       gradientUnits="userSpaceOnUse"
       x1="11.241618"
       y1="355.36914"
       x2="123.08054"
       y2="282.88589" />
  </defs>
  <sodipodi:namedview
     objecttolerance="1"
     gridtolerance="1"
     guidetolerance="1"
     id="namedview199"
     pagecolor="#ffffff"
     bordercolor="#cccccc"
     borderopacity="1"
     inkscape:pageshadow="0"
     inkscape:pageopacity="1"
     inkscape:pagecheckerboard="0"
     showgrid="false"
     inkscape:current-layer="svg205">
    <sodipodi:guide
       position="0,400"
       orientation="0,-1"
       id="guide197" />
  </sodipodi:namedview>
  <g
     transform="matrix(1 0 0 -1 0 1100.0)"
     id="g203">
    <path
       fill="#404040"
       d="M-20.0 0.0H398.0V100.0H-20.0V0.0ZM142.0 500.0ZM142.0 500.0ZM328.0 -200.0 411.0 -123.0 142.0 359.0H-25.0L25.0 259.0H70.0L328.0 -200.0Z"
       id="path201" />
  </g>
  <g
     transform="matrix(1 0 0 -1 0 1100.0)"
     id="g1208"
     style="fill:url(#linearGradient1291);fill-opacity:1">
    <path
       fill="#404040"
       d="M-20.0 0.0H398.0V100.0H-20.0V0.0ZM142.0 500.0ZM142.0 500.0ZM328.0 -200.0 411.0 -123.0 142.0 359.0H-25.0L25.0 259.0H70.0L328.0 -200.0Z"
       id="path1206"
       style="fill:url(#linearGradient1291);fill-opacity:1" />
  </g>
  <g
     transform="matrix(1 0 0 -1 0 1100.0)"
     id="g1394"
     style="fill:url(#linearGradient1291);fill-opacity:1">
    <path
       fill="#404040"
       d="M-20.0 0.0H398.0V100.0H-20.0V0.0ZM142.0 500.0ZM142.0 500.0ZM328.0 -200.0 411.0 -123.0 142.0 359.0H-25.0L25.0 259.0H70.0L328.0 -200.0Z"
       id="path1392"
       style="fill:url(#linearGradient1415);fill-opacity:1" />
  </g>
</svg>
