<?xml version="1.0" standalone="no"?>
<svg xmlns="http://www.w3.org/2000/svg" version="1.1" viewBox="0 0 565.0 1500.0" width="565.0" height="1500.0">
 <g transform="matrix(1 0 0 -1 0 1100.0)">
  <path d="M-20.0 0.0H480.0L540.0 100.0H414.0C263.0 100.0 197.0 230.0 256.0 315.0L373.0 483.0C438.0 577.0 430.0 689.0 354.0 753.0C307.0 792.0 238.0 813.0 140.0 800.0C112.0 796.0 83.0 801.0 61.0 808.0L101.0 674.0C157.0 720.0 221.0 725.0 268.0 703.0C328.0 674.0 342.0 604.0 299.0 542.0L183.0 377.0C83.0 234.0 168.0 121.0 196.0 100.0H-20.0V0.0Z" />
 </g>
</svg>
