<?xml version="1.0" encoding="UTF-8" standalone="no"?>
<svg
   version="1.1"
   viewBox="0 0 515.0 1500.0"
   width="515.0"
   height="1500.0"
   id="svg217"
   sodipodi:docname="hah-ar.svg"
   inkscape:version="1.1.1 (c3084ef, 2021-09-22)"
   xmlns:inkscape="http://www.inkscape.org/namespaces/inkscape"
   xmlns:sodipodi="http://sodipodi.sourceforge.net/DTD/sodipodi-0.dtd"
   xmlns:xlink="http://www.w3.org/1999/xlink"
   xmlns="http://www.w3.org/2000/svg"
   xmlns:svg="http://www.w3.org/2000/svg">
  <defs
     id="defs219">
    <linearGradient
       inkscape:collect="always"
       id="linearGradient1037">
      <stop
         style="stop-color:#000000;stop-opacity:1;"
         offset="0"
         id="stop1033" />
      <stop
         style="stop-color:#000000;stop-opacity:0;"
         offset="1"
         id="stop1035" />
    </linearGradient>
    <linearGradient
       inkscape:collect="always"
       xlink:href="#linearGradient1037"
       id="linearGradient1041"
       x1="81.58947"
       y1="801.06232"
       x2="130.74251"
       y2="972.84418"
       gradientUnits="userSpaceOnUse" />
    <linearGradient
       inkscape:collect="always"
       xlink:href="#linearGradient1037"
       id="linearGradient1240"
       gradientUnits="userSpaceOnUse"
       x1="456.18292"
       y1="1056.6763"
       x2="240.51067"
       y2="1054.2108" />
  </defs>
  <sodipodi:namedview
     objecttolerance="1"
     gridtolerance="1"
     guidetolerance="1"
     id="namedview211"
     pagecolor="#ffffff"
     bordercolor="#cccccc"
     borderopacity="1"
     inkscape:pageshadow="0"
     inkscape:pageopacity="1"
     inkscape:pagecheckerboard="0"
     showgrid="false"
     inkscape:current-layer="svg217">
    <sodipodi:guide
       position="0,400"
       orientation="0,-1"
       id="guide209" />
  </sodipodi:namedview>
  <g
     transform="matrix(1,0,0,-1,0,1100)"
     id="g215"
     style="display:inline;mix-blend-mode:normal;fill:#404040;fill-opacity:0.97;stroke:none">
    <path
       fill="#404040"
       d="m 132,-200 c 76,-23 193,-2 239,53 -64,-22 -245,-33 -245,75 0,41 46,72 72,72 h 232 l 60,100 H 311 C 243,100 151,189 81,300 L 25,193 C 45,161 88,105 118,85 74,59 25,23 25,-60 c 0,-71 50,-122 107,-140 z"
       id="path213"
       style="fill:#404040;fill-opacity:0.97;stroke:none" />
  </g>
  <path
     fill="#404040"
     d="m 132,1300 c 76,23 193,2 239,-53 -64,22 -245,33 -245,-75 0,-41 46,-72 72,-72 h 232 l 60,-100 H 311 C 243,1000 151,911 81,800 L 25,907 c 20,32 63,88 93,108 -44,26 -93,62 -93,145 0,71 50,122 107,140 z"
     id="path1389"
     style="mix-blend-mode:normal;fill:url(#linearGradient1041);fill-opacity:1" />
  <path
     fill="#404040"
     d="m 132,1300 c 76,23 193,2 239,-53 -64,22 -245,33 -245,-75 0,-41 46,-72 72,-72 h 232 l 60,-100 H 311 C 243,1000 151,911 81,800 L 25,907 c 20,32 63,88 93,108 -44,26 -93,62 -93,145 0,71 50,122 107,140 z"
     id="path1219"
     style="mix-blend-mode:normal;fill:url(#linearGradient1240);fill-opacity:1" />
</svg>
