<?xml version="1.0" standalone="no"?>
<svg
   version="1.1"
   viewBox="0 0 270.0 1500.0"
   width="270.0"
   height="1500.0"
   xmlns="http://www.w3.org/2000/svg"
   xmlns:sodipodi="http://sodipodi.sourceforge.net/DTD/sodipodi-0.dtd">
 <sodipodi:namedview objecttolerance="1" gridtolerance="1" guidetolerance="1">
  <sodipodi:guide position="0,400" orientation="0,-1"/>
 </sodipodi:namedview>
 <g transform="matrix(1 0 0 -1 0 1100.0)">
  <path fill="#404040" d="M135.0 -168.0ZM135.0 82.0ZM49.0 -133.952ZM-49.400000000000006 -133.952ZM87.048 -133.952C84.424 -114.928 67.36800000000001 -93.28 43.752 -93.28C29.976000000000003 -93.28 16.200000000000003 -101.80799999999999 16.199999999999996 -114.928C16.199999999999996 -126.08 27.352000000000004 -131.984 33.256 -133.952C27.352000000000004 -135.92000000000002 16.199999999999996 -141.82399999999998 16.199999999999996 -152.976C16.199999999999996 -166.096 29.976 -174.624 43.752 -174.624C67.368 -174.624 84.424 -152.976 87.048 -133.952ZM160.392 -80.0ZM160.392 148.6ZM160.392 -168.392C204.588 -162.296 254.88 -122.672 254.88 -67.80799999999999C254.88 -35.804 235.068 -3.799999999999997 204.588 -3.799999999999997C178.68 -3.799999999999997 164.964 -29.708 160.392 -43.424C155.82 -29.708 142.10399999999998 -3.799999999999997 116.196 -3.799999999999997C85.71600000000001 -3.799999999999997 65.904 -35.804 65.904 -67.80799999999999C65.904 -122.672 116.196 -162.296 160.392 -168.392Z" />
 </g>
</svg>
