<?xml version="1.0" standalone="no"?>
<svg
   version="1.1"
   viewBox="0 0 270.0 1500.0"
   width="270.0"
   height="1500.0"
   xmlns="http://www.w3.org/2000/svg"
   xmlns:sodipodi="http://sodipodi.sourceforge.net/DTD/sodipodi-0.dtd">
 <sodipodi:namedview objecttolerance="1" gridtolerance="1" guidetolerance="1">
  <sodipodi:guide position="0,400" orientation="0,-1"/>
 </sodipodi:namedview>
 <g transform="matrix(1 0 0 -1 0 1100.0)">
  <path d="M135.0 0.0ZM135.0 -210.0ZM135.0 -168.0ZM135.0 82.0ZM73.0 -159.0H224.0L223.0 -118.0H197.0C172.0 -118.0 135.0 -119.0 135.0 -79.0C135.0 -72.0 134.0 -40.0 167.0 -31.0C186.0 -26.0 219.0 -36.0 227.0 -40.0C214.0 -9.0 182.0 0.0 164.0 0.0C112.0 0.0 90.0 -29.0 79.0 -69.0C74.0 -89.0 73.0 -101.0 73.0 -126.0V-159.0ZM0.0 -168.0H240.0L270.0 -118.0H30.0L0.0 -168.0Z" />
 </g>
</svg>
