<?xml version="1.0" standalone="no"?>
<svg
   version="1.1"
   viewBox="0 0 415.0 1500.0"
   width="415.0"
   height="1500.0"
   xmlns="http://www.w3.org/2000/svg"
   xmlns:sodipodi="http://sodipodi.sourceforge.net/DTD/sodipodi-0.dtd">
 <sodipodi:namedview objecttolerance="1" gridtolerance="1" guidetolerance="1">
  <sodipodi:guide position="0,400" orientation="0,-1"/>
 </sodipodi:namedview>
 <g transform="matrix(1 0 0 -1 0 1100.0)">
  <path opacity="0.75" d="M173.0 0.0H435.0V100.0H238.0L173.0 0.0ZM278.0 0.0H322.0V200.0H278.0V0.0ZM104.0 450.0ZM104.0 550.0ZM174.0 -150.0ZM224.0 320.0C262.0 322.0 306.0 340.0 324.0 374.0V495.0L224.0 447.0V320.0ZM224.0 467.0 324.0 515.0V800.0L224.0 778.0V467.0ZM180.0 500.0ZM174.0 450.0ZM180.0 550.0ZM174.0 -150.0ZM324.0 150.0V346.0C297.0 294.0 210.0 300.0 175.0 300.0L324.0 150.0ZM175.0 0.0C257.0 0.0 324.0 67.0 324.0 150.0C324.0 233.0 257.0 300.0 175.0 300.0C93.0 300.0 25.0 233.0 25.0 150.0C25.0 67.0 93.0 0.0 175.0 0.0ZM175.0 100.0C147.0 100.0 125.0 122.0 125.0 150.0C125.0 178.0 147.0 200.0 175.0 200.0C203.0 200.0 225.0 178.0 225.0 150.0C225.0 122.0 203.0 100.0 175.0 100.0Z" />
 </g>
</svg>
