<?xml version="1.0" encoding="UTF-8" standalone="no"?>
<svg
   version="1.1"
   viewBox="0 0 487.0 1500.0"
   width="487.0"
   height="1500.0"
   id="svg193"
   sodipodi:docname="heh-ar.medi.1.svg"
   inkscape:version="1.1.1 (c3084ef, 2021-09-22)"
   xmlns:inkscape="http://www.inkscape.org/namespaces/inkscape"
   xmlns:sodipodi="http://sodipodi.sourceforge.net/DTD/sodipodi-0.dtd"
   xmlns:xlink="http://www.w3.org/1999/xlink"
   xmlns="http://www.w3.org/2000/svg"
   xmlns:svg="http://www.w3.org/2000/svg">
  <defs
     id="defs195">
    <radialGradient
       inkscape:collect="always"
       xlink:href="#linearGradient1705"
       id="radialGradient1729"
       cx="275.86572"
       cy="1042.9608"
       fx="275.86572"
       fy="1042.9608"
       r="149.5"
       gradientTransform="matrix(0.96942403,0.34333512,-0.20599285,0.58163116,304.06777,313.37784)"
       gradientUnits="userSpaceOnUse" />
    <linearGradient
       inkscape:collect="always"
       id="linearGradient1705">
      <stop
         style="stop-color:#000000;stop-opacity:1;"
         offset="0"
         id="stop1701" />
      <stop
         style="stop-color:#000000;stop-opacity:0;"
         offset="1"
         id="stop1703" />
    </linearGradient>
  </defs>
  <sodipodi:namedview
     objecttolerance="1"
     gridtolerance="1"
     guidetolerance="1"
     id="namedview187"
     pagecolor="#ffffff"
     bordercolor="#cccccc"
     borderopacity="1"
     inkscape:pageshadow="0"
     inkscape:pageopacity="1"
     inkscape:pagecheckerboard="0"
     showgrid="false"
     inkscape:current-layer="svg193">
    <sodipodi:guide
       position="0,400"
       orientation="0,-1"
       id="guide185" />
  </sodipodi:namedview>
  <g
     transform="matrix(1 0 0 -1 0 1100.0)"
     id="g191">
    <path
       fill="#404040"
       d="M245.0 0.0H507.0V100.0H310.0L245.0 0.0ZM394.0 240.0V400.0L295.0 378.0V272.0L394.0 240.0ZM95.0 -50.0H109.0V150.0H95.0V-50.0ZM-20.0 0.0H245.0L180.0 100.0H-20.0V0.0ZM350.0 -50.0H394.0V150.0H350.0V-50.0ZM394.0 150.0V346.0C367.0 294.0 280.0 300.0 245.0 300.0L394.0 150.0ZM245.0 0.0C327.0 0.0 394.0 67.0 394.0 150.0C394.0 233.0 327.0 300.0 245.0 300.0C163.0 300.0 95.0 233.0 95.0 150.0C95.0 67.0 163.0 0.0 245.0 0.0ZM245.0 100.0C217.0 100.0 195.0 122.0 195.0 150.0C195.0 178.0 217.0 200.0 245.0 200.0C273.0 200.0 295.0 178.0 295.0 150.0C295.0 122.0 273.0 100.0 245.0 100.0ZM245.0 -200.0C327.0 -200.0 394.0 -133.0 394.0 -50.0C394.0 33.0 327.0 100.0 245.0 100.0C163.0 100.0 95.0 33.0 95.0 -50.0C95.0 -133.0 163.0 -200.0 245.0 -200.0ZM245.0 -100.0C217.0 -100.0 195.0 -78.0 195.0 -50.0C195.0 -22.0 217.0 0.0 245.0 0.0C273.0 0.0 295.0 -22.0 295.0 -50.0C295.0 -78.0 273.0 -100.0 245.0 -100.0Z"
       id="path189" />
  </g>
  <path
     id="path1266"
     style="fill:url(#radialGradient1729);fill-opacity:1"
     d="m 394,754 c -27,52 -114,46 -149,46 -82,0 -150,67 -150,150 0,17.54694 3.07055,34.36514 8.63867,50 H 245 c -28,0 -50,-22 -50,-50 0,-28 22,-50 50,-50 28,0 50,22 50,50 0,28 -22,50 -50,50 h 149 v -50 z" />
</svg>
