<?xml version="1.0" standalone="no"?>
<svg
   version="1.1"
   viewBox="0 0 419.0 1500.0"
   width="419.0"
   height="1500.0"
   xmlns="http://www.w3.org/2000/svg"
   xmlns:sodipodi="http://sodipodi.sourceforge.net/DTD/sodipodi-0.dtd">
 <sodipodi:namedview objecttolerance="1" gridtolerance="1" guidetolerance="1">
  <sodipodi:guide position="0,400" orientation="0,-1"/>
 </sodipodi:namedview>
 <g transform="matrix(1 0 0 -1 0 1100.0)">
  <path opacity="0.75" d="M394.0 240.0V400.0L295.0 378.0V272.0L394.0 240.0ZM225.0 550.0ZM246.0 -270.0ZM95.0 -50.0H109.0V150.0H95.0V-50.0ZM-20.0 0.0H245.0L180.0 100.0H-20.0V0.0ZM350.0 -50.0H394.0V150.0H350.0V-50.0ZM250.0 500.0ZM244.0 450.0ZM250.0 550.0ZM244.0 -150.0ZM394.0 150.0V346.0C367.0 294.0 280.0 300.0 245.0 300.0L394.0 150.0ZM245.0 0.0C327.0 0.0 394.0 67.0 394.0 150.0C394.0 233.0 327.0 300.0 245.0 300.0C163.0 300.0 95.0 233.0 95.0 150.0C95.0 67.0 163.0 0.0 245.0 0.0ZM245.0 100.0C217.0 100.0 195.0 122.0 195.0 150.0C195.0 178.0 217.0 200.0 245.0 200.0C273.0 200.0 295.0 178.0 295.0 150.0C295.0 122.0 273.0 100.0 245.0 100.0ZM245.0 -200.0C327.0 -200.0 394.0 -133.0 394.0 -50.0C394.0 33.0 327.0 100.0 245.0 100.0C163.0 100.0 95.0 33.0 95.0 -50.0C95.0 -133.0 163.0 -200.0 245.0 -200.0ZM245.0 -100.0C217.0 -100.0 195.0 -78.0 195.0 -50.0C195.0 -22.0 217.0 0.0 245.0 0.0C273.0 0.0 295.0 -22.0 295.0 -50.0C295.0 -78.0 273.0 -100.0 245.0 -100.0Z" />
 </g>
</svg>
