<?xml version="1.0" standalone="no"?>
<svg
   version="1.1"
   viewBox="0 0 419.0 1500.0"
   width="419.0"
   height="1500.0"
   xmlns="http://www.w3.org/2000/svg"
   xmlns:sodipodi="http://sodipodi.sourceforge.net/DTD/sodipodi-0.dtd">
 <sodipodi:namedview objecttolerance="1" gridtolerance="1" guidetolerance="1">
  <sodipodi:guide position="0,400" orientation="0,-1"/>
 </sodipodi:namedview>
 <g transform="matrix(1 0 0 -1 0 1100.0)">
  <path opacity="0.75" d="M394.0 394.0V554.0L295.0 532.0V426.0L394.0 394.0ZM225.0 550.0ZM225.0 550.0ZM225.0 -150.0ZM245.0 0.0C327.0 0.0 394.0 67.0 394.0 150.0C394.0 178.0 387.0 209.0 373.0 232.0H118.0C105.0 209.0 97.0 178.0 97.0 150.0C97.0 67.0 163.0 0.0 245.0 0.0ZM-20.0 0.0H245.0L180.0 100.0H-20.0V0.0ZM97.0 84.0H131.0V304.0H97.0V84.0ZM244.0 99.0C216.0 99.0 194.0 121.0 194.0 149.0C194.0 177.0 216.0 199.0 244.0 199.0C272.0 199.0 294.0 177.0 294.0 149.0C294.0 121.0 272.0 99.0 244.0 99.0ZM174.0 0.0H354.0C354.0 0.0 394.0 -2.0 394.0 23.0V304.0L294.0 282.0V100.0H174.0V0.0ZM244.0 254.0C216.0 254.0 194.0 276.0 194.0 304.0C194.0 332.0 216.0 354.0 244.0 354.0C272.0 354.0 294.0 332.0 294.0 304.0C294.0 276.0 272.0 254.0 244.0 254.0ZM118.0 227.0H372.0C386.0 250.0 394.0 276.0 394.0 304.0C394.0 387.0 327.0 454.0 245.0 454.0C163.0 454.0 97.0 387.0 97.0 304.0C97.0 276.0 105.0 250.0 118.0 227.0ZM394.0 304.0V500.0C367.0 448.0 280.0 454.0 245.0 454.0L394.0 304.0Z" />
 </g>
</svg>
