<?xml version="1.0" encoding="UTF-8" standalone="no"?>
<svg
   version="1.1"
   viewBox="0 0 415.0 1500.0"
   width="415.0"
   height="1500.0"
   id="svg121"
   sodipodi:docname="heh-ar.fina.svg"
   inkscape:version="1.1.1 (c3084ef, 2021-09-22)"
   xmlns:inkscape="http://www.inkscape.org/namespaces/inkscape"
   xmlns:sodipodi="http://sodipodi.sourceforge.net/DTD/sodipodi-0.dtd"
   xmlns:xlink="http://www.w3.org/1999/xlink"
   xmlns="http://www.w3.org/2000/svg"
   xmlns:svg="http://www.w3.org/2000/svg">
  <defs
     id="defs123">
    <linearGradient
       inkscape:collect="always"
       id="linearGradient1842">
      <stop
         style="stop-color:#000000;stop-opacity:1;"
         offset="0"
         id="stop1838" />
      <stop
         style="stop-color:#000000;stop-opacity:0;"
         offset="1"
         id="stop1840" />
    </linearGradient>
    <linearGradient
       inkscape:collect="always"
       id="linearGradient1815">
      <stop
         style="stop-color:#000000;stop-opacity:1;"
         offset="0"
         id="stop1811" />
      <stop
         style="stop-color:#000000;stop-opacity:0;"
         offset="1"
         id="stop1813" />
    </linearGradient>
    <linearGradient
       inkscape:collect="always"
       id="linearGradient1705">
      <stop
         style="stop-color:#000000;stop-opacity:1;"
         offset="0"
         id="stop1701" />
      <stop
         style="stop-color:#000000;stop-opacity:0;"
         offset="1"
         id="stop1703" />
    </linearGradient>
    <radialGradient
       inkscape:collect="always"
       xlink:href="#linearGradient1705"
       id="radialGradient1729"
       cx="275.86572"
       cy="1042.9608"
       fx="275.86572"
       fy="1042.9608"
       r="149.5"
       gradientTransform="matrix(0.96942403,0.34333512,-0.20599285,0.58163116,234.06777,313.37784)"
       gradientUnits="userSpaceOnUse" />
    <linearGradient
       inkscape:collect="always"
       xlink:href="#linearGradient1815"
       id="linearGradient1817"
       x1="263.04172"
       y1="250.70586"
       x2="285.66812"
       y2="444.49466"
       gradientUnits="userSpaceOnUse" />
    <linearGradient
       inkscape:collect="always"
       xlink:href="#linearGradient1842"
       id="linearGradient1844"
       x1="268.01065"
       y1="583.18323"
       x2="287.08783"
       y2="700.30835"
       gradientUnits="userSpaceOnUse" />
    <linearGradient
       inkscape:collect="always"
       xlink:href="#linearGradient1705"
       id="linearGradient1986"
       x1="350.82077"
       y1="710.18542"
       x2="270.05145"
       y2="845.05682"
       gradientUnits="userSpaceOnUse" />
  </defs>
  <sodipodi:namedview
     objecttolerance="1"
     gridtolerance="1"
     guidetolerance="1"
     id="namedview115"
     pagecolor="#ffffff"
     bordercolor="#cccccc"
     borderopacity="1"
     inkscape:pageshadow="0"
     inkscape:pageopacity="1"
     inkscape:pagecheckerboard="0"
     showgrid="false"
     inkscape:current-layer="svg121">
    <sodipodi:guide
       position="0,400"
       orientation="0,-1"
       id="guide113" />
  </sodipodi:namedview>
  <path
     fill="#404040"
     d="M 173,1100 H 435 V 1000 H 238 Z m 105,0 h 46 V 900 H 278 Z M 224,780 c 38,-2 82,-20 100,-54 V 605 l -100,48 z m 0,-147 100,-48 V 300 L 224,322 Z M 324,950 V 754 c -27,52 -114,46 -149,46 z m -149,150 c 82,0 149,-67 149,-150 0,-83 -67,-150 -149,-150 -82,0 -150,67 -150,150 0,83 68,150 150,150 z m 0,-100 c -28,0 -50,-22 -50,-50 0,-28 22,-50 50,-50 28,0 50,22 50,50 0,28 -22,50 -50,50 z"
     id="path117"
     sodipodi:nodetypes="ccccccccccccccccccccccccssssssssss" />
  <path
     style="fill:url(#linearGradient1817);fill-opacity:1"
     d="M 224,633 324,585 V 300 l -100,22 z"
     id="path1270" />
  <path
     style="fill:url(#linearGradient1844);fill-opacity:1"
     d="m 224,780 c 38,-2 82,-20 100,-54 V 605 l -100,48 z"
     id="path1268" />
  <path
     id="path1266"
     style="fill:url(#radialGradient1729);fill-opacity:1"
     d="M 324 754 C 297 806 210 800 175 800 C 93 800 25 867 25 950 C 25 967.54694 28.07055 984.36514 33.638672 1000 L 175 1000 C 147 1000 125 978 125 950 C 125 922 147 900 175 900 C 203 900 225 922 225 950 C 225 978 203 1000 175 1000 L 324 1000 L 324 950 L 324 754 z " />
  <path
     id="path1984"
     style="fill:url(#linearGradient1986);fill-opacity:1"
     d="M 324 754 C 297 806 210 800 175 800 C 93 800 25 867 25 950 C 25 967.54694 28.07055 984.36514 33.638672 1000 L 175 1000 C 147 1000 125 978 125 950 C 125 922 147 900 175 900 C 203 900 225 922 225 950 C 225 978 203 1000 175 1000 L 324 1000 L 324 950 L 324 754 z " />
</svg>
