<?xml version="1.0" standalone="no"?>
<svg
   version="1.1"
   viewBox="0 0 499.0 1500.0"
   width="499.0"
   height="1500.0"
   xmlns="http://www.w3.org/2000/svg"
   xmlns:sodipodi="http://sodipodi.sourceforge.net/DTD/sodipodi-0.dtd">
 <sodipodi:namedview objecttolerance="1" gridtolerance="1" guidetolerance="1">
  <sodipodi:guide position="0,400" orientation="0,-1"/>
 </sodipodi:namedview>
 <g transform="matrix(1 0 0 -1 0 1100.0)">
  <path fill="#404040" d="M305.0 550.0ZM305.0 550.0ZM305.0 -150.0ZM325.0 0.0C407.0 0.0 474.0 67.0 474.0 150.0C474.0 178.0 467.0 209.0 453.0 232.0H198.0C185.0 209.0 177.0 178.0 177.0 150.0C177.0 67.0 243.0 0.0 325.0 0.0ZM177.0 84.0H211.0V304.0H177.0V84.0ZM324.0 99.0C296.0 99.0 274.0 121.0 274.0 149.0C274.0 177.0 296.0 199.0 324.0 199.0C352.0 199.0 374.0 177.0 374.0 149.0C374.0 121.0 352.0 99.0 324.0 99.0ZM254.0 0.0H434.0C434.0 0.0 474.0 -2.0 474.0 23.0V304.0L374.0 282.0V100.0H254.0V0.0ZM324.0 254.0C296.0 254.0 274.0 276.0 274.0 304.0C274.0 332.0 296.0 354.0 324.0 354.0C352.0 354.0 374.0 332.0 374.0 304.0C374.0 276.0 352.0 254.0 324.0 254.0ZM198.0 227.0H452.0C466.0 250.0 474.0 276.0 474.0 304.0C474.0 387.0 407.0 454.0 325.0 454.0C243.0 454.0 177.0 387.0 177.0 304.0C177.0 276.0 185.0 250.0 198.0 227.0ZM474.0 304.0V500.0C447.0 448.0 360.0 454.0 325.0 454.0L474.0 304.0ZM25.0 0.0H325.0L267.0 100.0H177.0C153.0 100.0 122.0 113.0 109.0 140.0L25.0 0.0Z" />
 </g>
</svg>
