<?xml version="1.0" encoding="UTF-8" standalone="no"?>
<svg
   version="1.1"
   viewBox="0 0 985.0 1500.0"
   width="985.0"
   height="1500.0"
   id="svg157"
   sodipodi:docname="kaf-ar.medi.svg"
   inkscape:version="1.1.1 (c3084ef, 2021-09-22)"
   xmlns:inkscape="http://www.inkscape.org/namespaces/inkscape"
   xmlns:sodipodi="http://sodipodi.sourceforge.net/DTD/sodipodi-0.dtd"
   xmlns:xlink="http://www.w3.org/1999/xlink"
   xmlns="http://www.w3.org/2000/svg"
   xmlns:svg="http://www.w3.org/2000/svg">
  <defs
     id="defs159">
    <linearGradient
       inkscape:collect="always"
       id="linearGradient2123">
      <stop
         style="stop-color:#000000;stop-opacity:1;"
         offset="0"
         id="stop2119" />
      <stop
         style="stop-color:#000000;stop-opacity:0;"
         offset="1"
         id="stop2121" />
    </linearGradient>
    <linearGradient
       inkscape:collect="always"
       xlink:href="#linearGradient2123"
       id="linearGradient2125"
       x1="106.84563"
       y1="820.22485"
       x2="253.9933"
       y2="685.3255"
       gradientUnits="userSpaceOnUse" />
    <linearGradient
       inkscape:collect="always"
       xlink:href="#linearGradient2123"
       id="linearGradient105"
       gradientUnits="userSpaceOnUse"
       x1="-44.161079"
       y1="165.86246"
       x2="229.83224"
       y2="230.29195"
       gradientTransform="matrix(1,0,0,-1,0,1100)" />
  </defs>
  <sodipodi:namedview
     objecttolerance="1"
     gridtolerance="1"
     guidetolerance="1"
     id="namedview151"
     pagecolor="#ffffff"
     bordercolor="#cccccc"
     borderopacity="1"
     inkscape:pageshadow="0"
     inkscape:pageopacity="1"
     inkscape:pagecheckerboard="0"
     showgrid="false"
     inkscape:current-layer="svg157">
    <sodipodi:guide
       position="0,400"
       orientation="0,-1"
       id="guide149" />
  </sodipodi:namedview>
  <g
     transform="matrix(1 0 0 -1 0 1100.0)"
     id="g155">
    <path
       fill="#404040"
       d="M-20.0 0.0H1005.0V100.0H865.0C862.0 201.0 839.0 300.0 675.0 300.0H298.0L425.0 483.0C488.0 578.0 475.0 691.0 394.0 768.0C340.0 820.0 256.0 827.0 184.0 814.0C157.0 810.0 127.0 816.0 105.0 823.0L149.0 674.0C166.0 688.0 195.0 707.0 217.0 710.0C257.0 715.0 296.0 708.0 323.0 685.0C357.0 656.0 369.0 595.0 345.0 561.0C345.0 561.0 179.0 319.0 94.0 200.0H675.0C750.0 200.0 766.0 156.0 765.0 100.0H-20.0V0.0Z"
       id="path153" />
  </g>
  <g
     transform="matrix(1 0 0 -1 0 1100.0)"
     id="g2099"
     style="fill:url(#linearGradient2125);fill-opacity:1">
    <path
       fill="#404040"
       d="M-20.0 0.0H1005.0V100.0H865.0C862.0 201.0 839.0 300.0 675.0 300.0H298.0L425.0 483.0C488.0 578.0 475.0 691.0 394.0 768.0C340.0 820.0 256.0 827.0 184.0 814.0C157.0 810.0 127.0 816.0 105.0 823.0L149.0 674.0C166.0 688.0 195.0 707.0 217.0 710.0C257.0 715.0 296.0 708.0 323.0 685.0C357.0 656.0 369.0 595.0 345.0 561.0C345.0 561.0 179.0 319.0 94.0 200.0H675.0C750.0 200.0 766.0 156.0 765.0 100.0H-20.0V0.0Z"
       id="path2097"
       style="fill:url(#linearGradient2125);fill-opacity:1" />
  </g>
  <path
     style="fill:url(#linearGradient105);fill-opacity:1"
     d="M 675,800 H 298 L 425,617 c 63,-95 50,-208 -31,-285 -54,-52 -138,-59 -210,-46 -27,4 -57,-2 -79,-9 l 44,149 c 17,-14 46,-33 68,-36 40,-5 79,2 106,25 34,29 46,90 22,124 0,0 -166,242 -251,361 h 581 z"
     id="path101"
     sodipodi:nodetypes="ccccccccccccc" />
</svg>
