<?xml version="1.0" encoding="UTF-8" standalone="no"?>
<svg
   version="1.1"
   viewBox="0 0 985.0 1500.0"
   width="985.0"
   height="1500.0"
   id="svg145"
   sodipodi:docname="kaf-ar.medi.1.svg"
   inkscape:version="1.1.1 (c3084ef, 2021-09-22)"
   xmlns:inkscape="http://www.inkscape.org/namespaces/inkscape"
   xmlns:sodipodi="http://sodipodi.sourceforge.net/DTD/sodipodi-0.dtd"
   xmlns:xlink="http://www.w3.org/1999/xlink"
   xmlns="http://www.w3.org/2000/svg"
   xmlns:svg="http://www.w3.org/2000/svg">
  <defs
     id="defs147">
    <linearGradient
       inkscape:collect="always"
       xlink:href="#linearGradient1014"
       id="linearGradient1140"
       gradientUnits="userSpaceOnUse"
       x1="584.73157"
       y1="616.03467"
       x2="556.47931"
       y2="428.78635"
       gradientTransform="matrix(1,0,0,-1,-85,1100)" />
    <linearGradient
       inkscape:collect="always"
       id="linearGradient1014">
      <stop
         style="stop-color:#000000;stop-opacity:1;"
         offset="0"
         id="stop1010" />
      <stop
         style="stop-color:#000000;stop-opacity:0;"
         offset="1"
         id="stop1012" />
    </linearGradient>
  </defs>
  <sodipodi:namedview
     objecttolerance="1"
     gridtolerance="1"
     guidetolerance="1"
     id="namedview139"
     pagecolor="#ffffff"
     bordercolor="#cccccc"
     borderopacity="1"
     inkscape:pageshadow="0"
     inkscape:pageopacity="1"
     inkscape:pagecheckerboard="0"
     showgrid="false"
     inkscape:current-layer="svg145">
    <sodipodi:guide
       position="0,400"
       orientation="0,-1"
       id="guide137" />
  </sodipodi:namedview>
  <g
     transform="matrix(1 0 0 -1 0 1100.0)"
     id="g143">
    <path
       fill="#404040"
       d="M809.0 0.0H1005.0V100.0H809.0V0.0ZM-60.0 0.0H860.0C860.0 0.0 900.0 -2.0 900.0 23.0C900.0 143.0 917.0 300.0 710.0 300.0H180.0L80.0 200.0H710.0C785.0 200.0 801.0 156.0 800.0 100.0H0.0L-60.0 0.0ZM235.0 222.0 475.0 456.0C482.0 463.0 493.0 466.0 501.0 451.0V616.0L169.0 289.0L235.0 222.0Z"
       id="path141" />
  </g>
  <path
     fill="#404040"
     d="m -60,1100 h 920 c 0,0 40,2 40,-23 0,-120.00005 17,-277.00005 -190,-277.00005 H 180 l -100,100 h 630 c 75,0 91,44 90,100 H 0 Z m 295,-222.00005 240,-234 c 7,-7 18,-10 26,5 v -165 l -332,327 z"
     id="path1117"
     style="fill:url(#linearGradient1140);fill-opacity:1" />
</svg>
