<?xml version="1.0" standalone="no"?>
<svg
   version="1.1"
   viewBox="0 0 1085.0 1500.0"
   width="1085.0"
   height="1500.0"
   xmlns="http://www.w3.org/2000/svg"
   xmlns:sodipodi="http://sodipodi.sourceforge.net/DTD/sodipodi-0.dtd">
 <sodipodi:namedview objecttolerance="1" gridtolerance="1" guidetolerance="1">
  <sodipodi:guide position="0,400" orientation="0,-1"/>
 </sodipodi:namedview>
 <g transform="matrix(1 0 0 -1 0 1100.0)">
  <path d="M909.0 0.0H1105.0V100.0H909.0V0.0ZM200.0 500.0ZM374.0 467.0ZM370.0 550.0ZM505.0 -150.0ZM25.0 0.0H945.0C945.0 0.0 985.0 -2.0 985.0 23.0C985.0 143.0 1002.0 300.0 795.0 300.0H265.0L165.0 200.0H795.0C870.0 200.0 886.0 156.0 885.0 100.0H85.0L25.0 0.0ZM320.0 222.0 560.0 456.0C567.0 463.0 578.0 466.0 586.0 451.0V616.0L254.0 289.0L320.0 222.0Z" />
 </g>
</svg>
