<?xml version="1.0" standalone="no"?>
<svg
   version="1.1"
   viewBox="0 0 985.0 1500.0"
   width="985.0"
   height="1500.0"
   xmlns="http://www.w3.org/2000/svg"
   xmlns:sodipodi="http://sodipodi.sourceforge.net/DTD/sodipodi-0.dtd">
 <sodipodi:namedview objecttolerance="1" gridtolerance="1" guidetolerance="1">
  <sodipodi:guide position="0,400" orientation="0,-1"/>
 </sodipodi:namedview>
 <g transform="matrix(1 0 0 -1 0 1100.0)">
  <path opacity="0.75" d="M-20.0 0.0H1005.0V100.0H865.0C862.0 201.0 839.0 300.0 675.0 300.0H298.0L425.0 483.0C488.0 578.0 475.0 691.0 394.0 768.0C340.0 820.0 256.0 827.0 184.0 814.0C157.0 810.0 127.0 816.0 105.0 823.0L149.0 674.0C166.0 688.0 195.0 707.0 217.0 710.0C257.0 715.0 296.0 708.0 323.0 685.0C357.0 656.0 369.0 595.0 345.0 561.0C345.0 561.0 179.0 319.0 94.0 200.0H675.0C750.0 200.0 766.0 156.0 765.0 100.0H-20.0V0.0Z" />
 </g>
</svg>
