<?xml version="1.0" encoding="UTF-8" standalone="no"?>
<svg
   version="1.1"
   viewBox="0 0 545.0 1500.0"
   width="545.0"
   height="1500.0"
   id="svg17"
   sodipodi:docname="lam-ar.fina.svg"
   inkscape:version="1.1.1 (c3084ef, 2021-09-22)"
   xmlns:inkscape="http://www.inkscape.org/namespaces/inkscape"
   xmlns:sodipodi="http://sodipodi.sourceforge.net/DTD/sodipodi-0.dtd"
   xmlns:xlink="http://www.w3.org/1999/xlink"
   xmlns="http://www.w3.org/2000/svg"
   xmlns:svg="http://www.w3.org/2000/svg">
  <defs
     id="defs19">
    <linearGradient
       inkscape:collect="always"
       xlink:href="#linearGradient1326"
       id="linearGradient1328"
       x1="25"
       y1="300"
       x2="445"
       y2="300"
       gradientUnits="userSpaceOnUse" />
    <linearGradient
       inkscape:collect="always"
       id="linearGradient1326">
      <stop
         style="stop-color:#000000;stop-opacity:1;"
         offset="0"
         id="stop1322" />
      <stop
         style="stop-color:#000000;stop-opacity:0;"
         offset="1"
         id="stop1324" />
    </linearGradient>
    <linearGradient
       inkscape:collect="always"
       xlink:href="#linearGradient1326"
       id="linearGradient1349"
       gradientUnits="userSpaceOnUse"
       x1="391.44296"
       y1="783.2215"
       x2="398.69128"
       y2="487.24832" />
    <linearGradient
       inkscape:collect="always"
       xlink:href="#linearGradient1326"
       id="linearGradient1466"
       x1="149.83221"
       y1="212.89597"
       x2="8.6174498"
       y2="-46.835571"
       gradientUnits="userSpaceOnUse" />
  </defs>
  <sodipodi:namedview
     objecttolerance="1"
     gridtolerance="1"
     guidetolerance="1"
     id="namedview11"
     pagecolor="#ffffff"
     bordercolor="#cccccc"
     borderopacity="1"
     inkscape:pageshadow="0"
     inkscape:pageopacity="1"
     inkscape:pagecheckerboard="0"
     showgrid="false"
     inkscape:current-layer="svg17">
    <sodipodi:guide
       position="0,400"
       orientation="0,-1"
       id="guide9" />
  </sodipodi:namedview>
  <g
     transform="matrix(1 0 0 -1 0 1100.0)"
     id="g15">
    <path
       fill="#404040"
       d="M395.0 0.0H565.0V100.0H395.0V0.0ZM345.0 40.0 445.0 0.0V800.0L345.0 778.0V40.0ZM216.0 -200.0C367.0 -200.0 444.0 -113.0 445.0 0.0V300.0L345.0 278.0V40.0C345.0 -71.0 318.0 -143.0 216.0 -143.0C92.0 -143.0 55.0 -76.0 55.0 0.0C55.0 39.0 73.0 86.0 111.0 90.0C129.0 92.0 141.0 88.0 160.0 77.0C166.0 100.0 152.0 125.0 131.0 135.0C150.0 160.0 154.0 182.0 151.0 207.0C88.0 167.0 25.0 88.0 25.0 0.0C25.0 -62.0 53.0 -200.0 216.0 -200.0Z"
       id="path13" />
  </g>
  <g
     transform="matrix(1,0,0,-1,0,1100)"
     id="g1245"
     style="display:inline;fill:url(#linearGradient1328);fill-opacity:1">
    <path
       fill="#404040"
       d="M 345,40 445,0 V 800 L 345,778 Z M 216,-200 c 151,0 228,87 229,200 V 300 L 345,278 V 40 C 345,-71 318,-143 216,-143 92,-143 55,-76 55,0 c 0,39 18,86 56,90 18,2 30,-2 49,-13 6,23 -8,48 -29,58 19,25 23,47 20,72 C 88,167 25,88 25,0 25,-62 53,-200 216,-200 Z"
       id="path1243"
       style="fill:url(#linearGradient1349);fill-opacity:1" />
    <path
       fill="#404040"
       d="m 216,-200 v 57 C 92,-143 55,-76 55,0 c 0,39 18,86 56,90 18,2 30,-2 49,-13 6,23 -8,48 -29,58 19,25 23,47 20,72 C 88,167 25,88 25,0 25,-62 53,-200 216,-200 Z"
       id="path1431"
       style="fill:url(#linearGradient1466);fill-opacity:1"
       sodipodi:nodetypes="ccsccccsc" />
  </g>
</svg>
