<?xml version="1.0" standalone="no"?>
<svg xmlns="http://www.w3.org/2000/svg" version="1.1" viewBox="0 0 350.0 1500.0" width="350.0" height="1500.0">
 <g transform="matrix(1 0 0 -1 0 1100.0)">
  <path d="M175.0 200.0C257.0 200.0 325.0 267.0 325.0 350.0H225.0C225.0 322.0 203.0 300.0 175.0 300.0C147.0 300.0 125.0 322.0 125.0 350.0H25.0C25.0 267.0 93.0 200.0 175.0 200.0ZM225.0 300.0 325.0 350.0V778.0L225.0 800.0V300.0ZM175.0 0.0C257.0 0.0 324.0 67.0 324.0 150.0C324.0 233.0 257.0 300.0 175.0 300.0C93.0 300.0 25.0 233.0 25.0 150.0C25.0 67.0 93.0 0.0 175.0 0.0ZM175.0 100.0C147.0 100.0 125.0 122.0 125.0 150.0C125.0 178.0 147.0 200.0 175.0 200.0C203.0 200.0 225.0 178.0 225.0 150.0C225.0 122.0 203.0 100.0 175.0 100.0Z" />
 </g>
</svg>
