<?xml version="1.0" standalone="no"?>
<svg
   version="1.1"
   viewBox="0 0 545.0 1500.0"
   width="545.0"
   height="1500.0"
   xmlns="http://www.w3.org/2000/svg"
   xmlns:sodipodi="http://sodipodi.sourceforge.net/DTD/sodipodi-0.dtd">
 <sodipodi:namedview objecttolerance="1" gridtolerance="1" guidetolerance="1">
  <sodipodi:guide position="0,400" orientation="0,-1"/>
 </sodipodi:namedview>
 <g transform="matrix(1 0 0 -1 0 1100.0)">
  <path fill="#404040" d="M395.0 0.0H565.0V100.0H395.0V0.0ZM393.0 861.0ZM100.0 550.0ZM215.0 -270.0ZM345.0 40.0 445.0 0.0V800.0L345.0 778.0V40.0ZM216.0 -200.0C367.0 -200.0 444.0 -113.0 445.0 0.0V300.0L345.0 278.0V40.0C345.0 -71.0 318.0 -143.0 216.0 -143.0C92.0 -143.0 55.0 -76.0 55.0 0.0C55.0 39.0 73.0 86.0 111.0 90.0C129.0 92.0 141.0 88.0 160.0 77.0C166.0 100.0 152.0 125.0 131.0 135.0C150.0 160.0 154.0 182.0 151.0 207.0C88.0 167.0 25.0 88.0 25.0 0.0C25.0 -62.0 53.0 -200.0 216.0 -200.0Z" />
 </g>
</svg>
