<?xml version="1.0" encoding="UTF-8" standalone="no"?>
<svg
   version="1.1"
   viewBox="0 0 350.0 1500.0"
   width="350.0"
   height="1500.0"
   id="svg1167"
   sodipodi:docname="lam-ar.init.Alef.svg"
   inkscape:version="1.1.1 (c3084ef, 2021-09-22)"
   xmlns:inkscape="http://www.inkscape.org/namespaces/inkscape"
   xmlns:sodipodi="http://sodipodi.sourceforge.net/DTD/sodipodi-0.dtd"
   xmlns:xlink="http://www.w3.org/1999/xlink"
   xmlns="http://www.w3.org/2000/svg"
   xmlns:svg="http://www.w3.org/2000/svg">
  <defs
     id="defs1169">
    <linearGradient
       inkscape:collect="always"
       id="linearGradient2038">
      <stop
         style="stop-color:#000000;stop-opacity:1;"
         offset="0"
         id="stop2034" />
      <stop
         style="stop-color:#000000;stop-opacity:0;"
         offset="1"
         id="stop2036" />
    </linearGradient>
    <linearGradient
       inkscape:collect="always"
       id="linearGradient1795">
      <stop
         style="stop-color:#000000;stop-opacity:1;"
         offset="0"
         id="stop1791" />
      <stop
         style="stop-color:#000000;stop-opacity:0;"
         offset="1"
         id="stop1793" />
    </linearGradient>
    <linearGradient
       inkscape:collect="always"
       id="linearGradient1286">
      <stop
         style="stop-color:#000000;stop-opacity:1;"
         offset="0"
         id="stop1282" />
      <stop
         style="stop-color:#000000;stop-opacity:0;"
         offset="1"
         id="stop1284" />
    </linearGradient>
    <radialGradient
       inkscape:collect="always"
       xlink:href="#linearGradient1795"
       id="radialGradient2013"
       gradientUnits="userSpaceOnUse"
       gradientTransform="matrix(0.4696321,0.45987873,-0.5621891,0.5741123,581.29526,472.85663)"
       cx="257.97974"
       cy="807.2088"
       fx="257.97974"
       fy="807.2088"
       r="150" />
    <radialGradient
       inkscape:collect="always"
       xlink:href="#linearGradient2038"
       id="radialGradient2040"
       cx="119.56739"
       cy="1088.7773"
       fx="119.56739"
       fy="1088.7773"
       r="149.5"
       gradientTransform="matrix(-0.69216806,0.72291583,-0.54605094,-0.52282577,780.80372,1521.8898)"
       gradientUnits="userSpaceOnUse" />
    <linearGradient
       inkscape:collect="always"
       xlink:href="#linearGradient1286"
       id="linearGradient2187"
       gradientUnits="userSpaceOnUse"
       x1="278.77109"
       y1="787.13397"
       x2="267.32477"
       y2="508.51819"
       gradientTransform="matrix(1,0,0,-1,0,1100)" />
  </defs>
  <sodipodi:namedview
     objecttolerance="1"
     gridtolerance="1"
     guidetolerance="1"
     id="namedview1161"
     pagecolor="#ffffff"
     bordercolor="#cccccc"
     borderopacity="1"
     inkscape:pageshadow="0"
     inkscape:pageopacity="1"
     inkscape:pagecheckerboard="0"
     showgrid="false"
     inkscape:current-layer="svg1167">
    <sodipodi:guide
       position="0,400"
       orientation="0,-1"
       id="guide1159" />
  </sodipodi:namedview>
  <g
     transform="matrix(1,0,0,-1,0,1100)"
     id="g1165"
     style="display:inline">
    <path
       fill="#404040"
       d="m 175,0 c 82,0 150,67 150,150 H 225 c 0,-28 -22,-50 -50,-50 -28,0 -50,22 -50,50 H 25 C 25,67 93,0 175,0 Z m 50,100 100,50 v 628 l -100,22 z m -50,-300 c 82,0 149,67 149,150 0,83 -67,150 -149,150 C 93,100 25,33 25,-50 c 0,-83 68,-150 150,-150 z m 0,100 c -28,0 -50,22 -50,50 0,28 22,50 50,50 28,0 50,-22 50,-50 0,-28 -22,-50 -50,-50 z"
       id="path1163" />
  </g>
  <g
     id="g2193">
    <path
       fill="#404040"
       d="m 175,1100 c 82,0 150,-67 150,-150 H 225 c 0,28 -22,50 -50,50 -28,0 -50,-22 -50,-50 H 25 c 0,83 68,150 150,150 z m 50,-100 100,-50 V 322 L 225,300 Z m -50,300 c 82,0 149,-67 149,-150 0,-83 -67,-150 -149,-150 -82,0 -150,67 -150,150 0,83 68,150 150,150 z m 0,-100 c -28,0 -50,-22 -50,-50 0,-28 22,-50 50,-50 28,0 50,22 50,50 0,28 -22,50 -50,50 z"
       id="path1183"
       style="fill:url(#linearGradient2187);fill-opacity:1" />
    <path
       id="path1427"
       style="display:inline;fill:url(#radialGradient2040);fill-opacity:1"
       d="M 63.556641,1049.8906 C 39.662047,1076.4203 25,1111.48 25,1150 c 0,83 68,150 150,150 82,0 149,-67 149,-150 0,-38.3708 -14.33906,-73.304 -37.83984,-99.7969 C 258.57482,1080.7245 218.85092,1100 175,1100 c 28,0 50,22 50,50 0,28 -22,50 -50,50 -28,0 -50,-22 -50,-50 0,-28 22,-50 50,-50 -44.00082,0 -83.847944,-19.4059 -111.443359,-50.1094 z" />
    <path
       id="path2002"
       style="display:inline;fill:url(#radialGradient2013);fill-opacity:1"
       d="m 225,300 v 650 c 0,28 -22,50 -50,50 44.09149,0 83.82634,19.3893 111.16016,50.2031 C 310.15863,1023.6504 325,988.61431 325,950 V 322 Z m -50,700 c -28,0 -50,-22 -50,-50 H 25 c 0,38.46259 14.725191,73.375 38.556641,99.8906 C 91.148332,1019.2561 131.0559,1000 175,1000 Z" />
  </g>
</svg>
