<?xml version="1.0" standalone="no"?>
<svg
   version="1.1"
   viewBox="0 0 347.0 1500.0"
   width="347.0"
   height="1500.0"
   xmlns="http://www.w3.org/2000/svg"
   xmlns:sodipodi="http://sodipodi.sourceforge.net/DTD/sodipodi-0.dtd">
 <sodipodi:namedview objecttolerance="1" gridtolerance="1" guidetolerance="1">
  <sodipodi:guide position="0,400" orientation="0,-1"/>
 </sodipodi:namedview>
 <g transform="matrix(1 0 0 -1 0 1100.0)">
  <path d="M-50.0 -181.0C5.0 -235.0 125.0 -190.0 125.0 -100.0V92.0L25.0 150.0V-100.0C25.0 -164.0 -44.0 -181.0 -50.0 -181.0ZM190.0 550.0ZM140.0 -150.0ZM174.0 0.0C256.0 0.0 322.0 67.0 322.0 150.0C322.0 226.0 281.0 294.0 193.0 349.0C182.0 337.0 171.0 326.0 164.0 300.0C87.0 295.0 25.0 229.0 25.0 150.0C25.0 67.0 92.0 0.0 174.0 0.0ZM174.0 100.0C146.0 100.0 124.0 122.0 124.0 150.0C124.0 178.0 146.0 200.0 174.0 200.0C202.0 200.0 224.0 178.0 224.0 150.0C224.0 122.0 202.0 100.0 174.0 100.0Z" />
 </g>
</svg>
