<?xml version="1.0" standalone="no"?>
<svg xmlns="http://www.w3.org/2000/svg" version="1.1" viewBox="0 0 613.0 1500.0" width="613.0" height="1500.0">
 <g transform="matrix(1 0 0 -1 0 1100.0)">
  <path d="M140.0 -150.0ZM25.0 0.0H440.0L380.0 100.0H177.0C153.0 100.0 122.0 113.0 109.0 140.0L25.0 0.0ZM456.0 550.0ZM406.0 -150.0ZM440.0 0.0C522.0 0.0 588.0 67.0 588.0 150.0C588.0 226.0 547.0 294.0 459.0 349.0C448.0 337.0 437.0 326.0 430.0 300.0C353.0 295.0 291.0 229.0 291.0 150.0C291.0 67.0 358.0 0.0 440.0 0.0ZM440.0 100.0C412.0 100.0 390.0 122.0 390.0 150.0C390.0 178.0 412.0 200.0 440.0 200.0C468.0 200.0 490.0 178.0 490.0 150.0C490.0 122.0 468.0 100.0 440.0 100.0Z" />
 </g>
</svg>
