<?xml version="1.0" encoding="UTF-8" standalone="no"?>
<svg
   version="1.1"
   viewBox="0 0 419.0 1500.0"
   width="419.0"
   height="1500.0"
   id="svg121"
   sodipodi:docname="meem-ar.fina.1.svg"
   inkscape:version="1.1.1 (c3084ef, 2021-09-22)"
   xmlns:inkscape="http://www.inkscape.org/namespaces/inkscape"
   xmlns:sodipodi="http://sodipodi.sourceforge.net/DTD/sodipodi-0.dtd"
   xmlns:xlink="http://www.w3.org/1999/xlink"
   xmlns="http://www.w3.org/2000/svg"
   xmlns:svg="http://www.w3.org/2000/svg">
  <defs
     id="defs123">
    <linearGradient
       inkscape:collect="always"
       xlink:href="#linearGradient4167"
       id="linearGradient4169"
       x1="439.76511"
       y1="342.95303"
       x2="441.24161"
       y2="286.57718"
       gradientUnits="userSpaceOnUse" />
    <linearGradient
       inkscape:collect="always"
       id="linearGradient4167">
      <stop
         style="stop-color:#000000;stop-opacity:1;"
         offset="0"
         id="stop4163" />
      <stop
         style="stop-color:#000000;stop-opacity:0;"
         offset="1"
         id="stop4165" />
    </linearGradient>
    <linearGradient
       inkscape:collect="always"
       xlink:href="#linearGradient4167"
       id="linearGradient693"
       gradientUnits="userSpaceOnUse"
       x1="439.76511"
       y1="342.95303"
       x2="441.24161"
       y2="286.57718" />
    <linearGradient
       inkscape:collect="always"
       xlink:href="#linearGradient2406"
       id="linearGradient2408"
       x1="-48.576294"
       y1="-180.92545"
       x2="49.54364"
       y2="-140.34987"
       gradientUnits="userSpaceOnUse"
       gradientTransform="matrix(1,0,0,-1,0,1100)" />
    <linearGradient
       inkscape:collect="always"
       id="linearGradient2406">
      <stop
         style="stop-color:#000000;stop-opacity:0.89878541"
         offset="0"
         id="stop2402" />
      <stop
         style="stop-color:#000000;stop-opacity:0"
         offset="1"
         id="stop2404" />
    </linearGradient>
    <radialGradient
       inkscape:collect="always"
       xlink:href="#linearGradient4167"
       id="radialGradient2845"
       cx="477.0239"
       cy="1089.5323"
       fx="477.0239"
       fy="1089.5323"
       r="87.5"
       gradientTransform="matrix(-0.69291683,-0.98996457,0.43427301,-0.30396551,-63.82925,1855.126)"
       gradientUnits="userSpaceOnUse" />
  </defs>
  <sodipodi:namedview
     objecttolerance="1"
     gridtolerance="1"
     guidetolerance="1"
     id="namedview115"
     pagecolor="#ffffff"
     bordercolor="#cccccc"
     borderopacity="1"
     inkscape:pageshadow="0"
     inkscape:pageopacity="1"
     inkscape:pagecheckerboard="0"
     showgrid="false"
     inkscape:current-layer="svg121">
    <sodipodi:guide
       position="0,400"
       orientation="0,-1"
       id="guide113" />
  </sodipodi:namedview>
  <g
     transform="matrix(1 0 0 -1 0 1100.0)"
     id="g119">
    <path
       fill="#404040"
       d="M-50.0 -181.0C5.0 -235.0 125.0 -190.0 125.0 -100.0V92.0L25.0 150.0V-100.0C25.0 -164.0 -44.0 -181.0 -50.0 -181.0ZM174.0 0.0H439.0V100.0H239.0L174.0 0.0ZM173.0 550.0ZM175.0 -150.0ZM174.0 0.0C256.0 0.0 322.0 67.0 322.0 150.0C322.0 217.0 279.0 274.0 219.0 293.0C205.0 298.0 185.0 310.0 174.0 350.0C164.0 310.0 145.0 298.0 131.0 294.0C70.0 275.0 25.0 218.0 25.0 150.0C25.0 67.0 92.0 0.0 174.0 0.0ZM174.0 100.0C146.0 100.0 124.0 122.0 124.0 150.0C124.0 178.0 146.0 200.0 174.0 200.0C202.0 200.0 224.0 178.0 224.0 150.0C224.0 122.0 202.0 100.0 174.0 100.0Z"
       id="path117" />
  </g>
  <g
     transform="matrix(1,0,0,-1,-265.93168,1100)"
     id="g4161"
     style="fill:url(#linearGradient4169);fill-opacity:1">
    <path
       fill="#404040"
       d="M 175,0 H 440 L 375,100 H 175 Z M 440,0 H 705 V 100 H 505 Z m -1,550 z m 2,-700 z M 440,0 c 82,0 148,67 148,150 0,67 -43,124 -103,143 -14,5 -34,17 -45,57 C 430,310 411,298 397,294 336,275 291,218 291,150 291,67 358,0 440,0 Z m 0,100 c -28,0 -50,22 -50,50 0,28 22,50 50,50 28,0 50,-22 50,-50 0,-28 -22,-50 -50,-50 z M 140,-150 Z M 25,0 H 440 L 380,100 H 177 c -24,0 -55,13 -68,40 z"
       id="path4159"
       style="fill:url(#linearGradient693);fill-opacity:1" />
  </g>
  <path
     style="fill:url(#linearGradient2408);fill-opacity:1"
     d="m -50,1281 c 55,54 175,9 175,-81 V 1008 L 25,950 v 250 c 0,64 -69,81 -75,81 z"
     id="path1106" />
  <path
     id="path2490"
     style="fill:url(#radialGradient2845);fill-opacity:1"
     d="m 25,950 v 250 c 0,64 -69,81 -75,81 55,54 175,9 175,-81 V 1091.6367 C 66.91611,1071.234 25,1015.6371 25,950 Z" />
</svg>
