<?xml version="1.0" encoding="UTF-8" standalone="no"?>
<svg
   version="1.1"
   viewBox="0 0 435.0 1500.0"
   width="435.0"
   height="1500.0"
   id="svg109"
   sodipodi:docname="meem-ar.2.svg"
   inkscape:version="1.2.1 (9c6d41e4, 2022-07-14)"
   xmlns:inkscape="http://www.inkscape.org/namespaces/inkscape"
   xmlns:sodipodi="http://sodipodi.sourceforge.net/DTD/sodipodi-0.dtd"
   xmlns:xlink="http://www.w3.org/1999/xlink"
   xmlns="http://www.w3.org/2000/svg"
   xmlns:svg="http://www.w3.org/2000/svg">
  <defs
     id="defs111">
    <linearGradient
       inkscape:collect="always"
       id="linearGradient7892">
      <stop
         style="stop-color:#000000;stop-opacity:1;"
         offset="0"
         id="stop7888" />
      <stop
         style="stop-color:#000000;stop-opacity:0;"
         offset="1"
         id="stop7890" />
    </linearGradient>
    <linearGradient
       inkscape:collect="always"
       xlink:href="#linearGradient7892"
       id="linearGradient5441"
       gradientUnits="userSpaceOnUse"
       gradientTransform="matrix(1,0,0,-1,0,1100)"
       x1="28.992901"
       y1="5.6787934"
       x2="82.456963"
       y2="18.988464" />
    <radialGradient
       inkscape:collect="always"
       xlink:href="#linearGradient7892"
       id="radialGradient5514"
       gradientUnits="userSpaceOnUse"
       gradientTransform="matrix(0.34156401,0.47664294,0.30169854,-0.21619823,-13.91196,627.3828)"
       cx="463.10284"
       cy="461.60736"
       fx="463.10284"
       fy="461.60736"
       r="281.5" />
  </defs>
  <sodipodi:namedview
     objecttolerance="1"
     gridtolerance="1"
     guidetolerance="1"
     id="namedview103"
     pagecolor="#ffffff"
     bordercolor="#cccccc"
     borderopacity="1"
     inkscape:pageshadow="0"
     inkscape:pageopacity="1"
     inkscape:pagecheckerboard="0"
     showgrid="false"
     inkscape:current-layer="svg109"
     inkscape:showpageshadow="0"
     inkscape:deskcolor="#d1d1d1">
    <sodipodi:guide
       position="0,400"
       orientation="0,-1"
       id="guide101"
       inkscape:locked="false" />
  </sodipodi:namedview>
  <g
     transform="matrix(1 0 0 -1 0 1100.0)"
     id="g107">
    <path
       fill="#404040"
       d="M25.0 0.0H262.0L113.0 150.0C113.0 115.0 114.0 32.0 25.0 10.0V0.0ZM262.0 0.0C344.0 0.0 410.0 67.0 410.0 150.0C410.0 226.0 369.0 294.0 281.0 349.0C270.0 337.0 259.0 326.0 252.0 300.0C175.0 295.0 113.0 229.0 113.0 150.0C113.0 67.0 180.0 0.0 262.0 0.0ZM262.0 100.0C234.0 100.0 212.0 122.0 212.0 150.0C212.0 178.0 234.0 200.0 262.0 200.0C290.0 200.0 312.0 178.0 312.0 150.0C312.0 122.0 290.0 100.0 262.0 100.0Z"
       id="path105" />
  </g>
  <path
     style="display:inline;opacity:0.5;fill:url(#radialGradient5514);fill-opacity:1"
     d="m 262,1100 c 82,0 148,-67 148,-150 0,-75.99999 -41,-143.99999 -129,-198.99999 -11,12 -22,23 -29,49 -77,5 -139,71 -139,149.99999 0,83 67,150 149,150 z"
     id="path5510" />
  <path
     style="fill:url(#linearGradient5441);fill-opacity:1"
     d="M 25,1100 H 262 L 113,950 c 0,35 1,118 -88,140 z"
     id="path7809" />
</svg>
