<?xml version="1.0" encoding="UTF-8" standalone="no"?>
<svg
   version="1.1"
   viewBox="0 0 490.0 1500.0"
   width="490.0"
   height="1500.0"
   id="svg177"
   sodipodi:docname="meem-ar.medi.1.svg"
   inkscape:version="1.2.1 (9c6d41e4, 2022-07-14)"
   xmlns:inkscape="http://www.inkscape.org/namespaces/inkscape"
   xmlns:sodipodi="http://sodipodi.sourceforge.net/DTD/sodipodi-0.dtd"
   xmlns:xlink="http://www.w3.org/1999/xlink"
   xmlns="http://www.w3.org/2000/svg"
   xmlns:svg="http://www.w3.org/2000/svg">
  <defs
     id="defs179">
    <linearGradient
       inkscape:collect="always"
       id="linearGradient6992">
      <stop
         style="stop-color:#000000;stop-opacity:1;"
         offset="0"
         id="stop6988" />
      <stop
         style="stop-color:#000000;stop-opacity:0;"
         offset="1"
         id="stop6990" />
    </linearGradient>
    <linearGradient
       inkscape:collect="always"
       xlink:href="#linearGradient6992"
       id="linearGradient7015"
       gradientUnits="userSpaceOnUse"
       x1="265.09317"
       y1="249.06833"
       x2="286.24496"
       y2="179.01572"
       gradientTransform="matrix(1,0,0,-1,0,1540)" />
    <radialGradient
       inkscape:collect="always"
       xlink:href="#linearGradient6992"
       id="radialGradient5645"
       gradientUnits="userSpaceOnUse"
       gradientTransform="matrix(-0.15811031,0.11396741,-0.31124508,-0.43179931,145.99469,806.3206)"
       cx="267.14764"
       cy="888.71527"
       fx="267.14764"
       fy="888.71527"
       r="265" />
    <radialGradient
       inkscape:collect="always"
       xlink:href="#linearGradient6992"
       id="radialGradient5514"
       gradientUnits="userSpaceOnUse"
       gradientTransform="matrix(0.34156401,0.47664294,0.30169854,-0.21619823,-31.065891,727.45543)"
       cx="463.10284"
       cy="461.60736"
       fx="463.10284"
       fy="461.60736"
       r="281.5" />
  </defs>
  <sodipodi:namedview
     objecttolerance="1"
     gridtolerance="1"
     guidetolerance="1"
     id="namedview171"
     pagecolor="#ffffff"
     bordercolor="#cccccc"
     borderopacity="1"
     inkscape:pageshadow="0"
     inkscape:pageopacity="1"
     inkscape:pagecheckerboard="0"
     showgrid="false"
     inkscape:current-layer="svg177"
     inkscape:showpageshadow="0"
     inkscape:deskcolor="#d1d1d1">
    <sodipodi:guide
       position="0,400"
       orientation="0,-1"
       id="guide169"
       inkscape:locked="false" />
  </sodipodi:namedview>
  <g
     transform="matrix(1,0,0,-1,0,1100)"
     id="g175">
    <path
       fill="#404040"
       d="M -20,0 H 180 V 100 H -20 Z M 310,0 H 510 V 100 H 310 Z m -49,450 z m -50,-700 z m 34,150 c 82,0 148,67 148,150 0,76 -41,144 -129,199 C 253,237 242,226 235,200 158,195 96,129 96,50 c 0,-83 67,-150 149,-150 z m 0,100 c -28,0 -50,22 -50,50 0,28 22,50 50,50 28,0 50,-22 50,-50 C 295,22 273,0 245,0 Z"
       id="path173" />
  </g>
  <path
     style="fill:url(#linearGradient7015);fill-opacity:1;opacity:0.375"
     d="M 211,1790 Z"
     id="path6205" />
  <path
     style="fill:url(#linearGradient7015);fill-opacity:1;opacity:0.375"
     d="M 261,1090 Z"
     id="path6203" />
  <path
     style="fill:url(#radialGradient5645);fill-opacity:1"
     d="M -229,950 Z"
     id="path5653" />
  <path
     style="fill:url(#radialGradient5645);fill-opacity:1"
     d="M -179,250 Z"
     id="path5651" />
  <path
     style="display:inline;opacity:0.5;fill:url(#radialGradient5514);fill-opacity:1"
     d="m 244.84606,1200.0726 c 82,0 148,-67 148,-150 0,-75.99996 -41,-143.99996 -129,-198.99996 -11,12 -22,23 -29,49 -77,5 -138.999991,71 -138.999991,149.99996 0,83 66.999991,150 148.999991,150 z"
     id="path5510" />
</svg>
