<?xml version="1.0" standalone="no"?>
<svg
   version="1.1"
   viewBox="0 0 435.0 1500.0"
   width="435.0"
   height="1500.0"
   xmlns="http://www.w3.org/2000/svg"
   xmlns:sodipodi="http://sodipodi.sourceforge.net/DTD/sodipodi-0.dtd">
 <sodipodi:namedview objecttolerance="1" gridtolerance="1" guidetolerance="1">
  <sodipodi:guide position="0,400" orientation="0,-1"/>
 </sodipodi:namedview>
 <g transform="matrix(1 0 0 -1 0 1100.0)">
  <path d="M25.0 0.0H262.0L113.0 150.0C113.0 115.0 114.0 32.0 25.0 10.0V0.0ZM278.0 550.0ZM228.0 -150.0ZM262.0 0.0C344.0 0.0 410.0 67.0 410.0 150.0C410.0 226.0 369.0 294.0 281.0 349.0C270.0 337.0 259.0 326.0 252.0 300.0C175.0 295.0 113.0 229.0 113.0 150.0C113.0 67.0 180.0 0.0 262.0 0.0ZM262.0 100.0C234.0 100.0 212.0 122.0 212.0 150.0C212.0 178.0 234.0 200.0 262.0 200.0C290.0 200.0 312.0 178.0 312.0 150.0C312.0 122.0 290.0 100.0 262.0 100.0Z" />
 </g>
</svg>
