<?xml version="1.0" standalone="no"?>
<svg
   version="1.1"
   viewBox="0 0 685.0 1500.0"
   width="685.0"
   height="1500.0"
   xmlns="http://www.w3.org/2000/svg"
   xmlns:sodipodi="http://sodipodi.sourceforge.net/DTD/sodipodi-0.dtd">
 <sodipodi:namedview objecttolerance="1" gridtolerance="1" guidetolerance="1">
  <sodipodi:guide position="0,400" orientation="0,-1"/>
 </sodipodi:namedview>
 <g transform="matrix(1 0 0 -1 0 1100.0)">
  <path opacity="0.75" d="M175.0 0.0H440.0L375.0 100.0H175.0V0.0ZM440.0 0.0H705.0V100.0H505.0L440.0 0.0ZM439.0 550.0ZM441.0 -150.0ZM440.0 0.0C522.0 0.0 588.0 67.0 588.0 150.0C588.0 217.0 545.0 274.0 485.0 293.0C471.0 298.0 451.0 310.0 440.0 350.0C430.0 310.0 411.0 298.0 397.0 294.0C336.0 275.0 291.0 218.0 291.0 150.0C291.0 67.0 358.0 0.0 440.0 0.0ZM440.0 100.0C412.0 100.0 390.0 122.0 390.0 150.0C390.0 178.0 412.0 200.0 440.0 200.0C468.0 200.0 490.0 178.0 490.0 150.0C490.0 122.0 468.0 100.0 440.0 100.0ZM140.0 -150.0ZM25.0 0.0H440.0L380.0 100.0H177.0C153.0 100.0 122.0 113.0 109.0 140.0L25.0 0.0Z" />
 </g>
</svg>
