<?xml version="1.0" encoding="UTF-8" standalone="no"?>
<svg
   version="1.1"
   viewBox="0 0 347.0 1500.0"
   width="347.0"
   height="1500.0"
   id="svg17"
   sodipodi:docname="meem-ar.1.svg"
   inkscape:version="1.1.1 (c3084ef, 2021-09-22)"
   xmlns:inkscape="http://www.inkscape.org/namespaces/inkscape"
   xmlns:sodipodi="http://sodipodi.sourceforge.net/DTD/sodipodi-0.dtd"
   xmlns:xlink="http://www.w3.org/1999/xlink"
   xmlns="http://www.w3.org/2000/svg"
   xmlns:svg="http://www.w3.org/2000/svg">
  <defs
     id="defs19">
    <linearGradient
       inkscape:collect="always"
       id="linearGradient2841">
      <stop
         style="stop-color:#000000;stop-opacity:1;"
         offset="0"
         id="stop2837" />
      <stop
         style="stop-color:#000000;stop-opacity:0;"
         offset="1"
         id="stop2839" />
    </linearGradient>
    <linearGradient
       inkscape:collect="always"
       id="linearGradient2406">
      <stop
         style="stop-color:#000000;stop-opacity:0.89878541"
         offset="0"
         id="stop2402" />
      <stop
         style="stop-color:#000000;stop-opacity:0"
         offset="1"
         id="stop2404" />
    </linearGradient>
    <linearGradient
       inkscape:collect="always"
       xlink:href="#linearGradient1890"
       id="linearGradient2001"
       gradientUnits="userSpaceOnUse"
       x1="459"
       y1="349"
       x2="406"
       y2="230" />
    <linearGradient
       inkscape:collect="always"
       id="linearGradient1890">
      <stop
         style="stop-color:#000000;stop-opacity:1;"
         offset="0"
         id="stop1886" />
      <stop
         style="stop-color:#000000;stop-opacity:0"
         offset="1"
         id="stop1888" />
    </linearGradient>
    <linearGradient
       inkscape:collect="always"
       xlink:href="#linearGradient1890"
       id="linearGradient1999"
       gradientUnits="userSpaceOnUse"
       x1="459"
       y1="349"
       x2="319.26175"
       y2="114.7651"
       gradientTransform="translate(0,180)" />
    <linearGradient
       inkscape:collect="always"
       xlink:href="#linearGradient1890"
       id="linearGradient1892"
       x1="459"
       y1="349"
       x2="381.67786"
       y2="225.50336"
       gradientUnits="userSpaceOnUse" />
    <linearGradient
       inkscape:collect="always"
       xlink:href="#linearGradient1890"
       id="linearGradient1993"
       gradientUnits="userSpaceOnUse"
       x1="459"
       y1="349"
       x2="347.44968"
       y2="153.02014" />
    <linearGradient
       inkscape:collect="always"
       xlink:href="#linearGradient2406"
       id="linearGradient2408"
       x1="-48.576294"
       y1="-180.92545"
       x2="49.54364"
       y2="-140.34987"
       gradientUnits="userSpaceOnUse"
       gradientTransform="translate(-440)" />
    <radialGradient
       inkscape:collect="always"
       xlink:href="#linearGradient2841"
       id="radialGradient2845"
       cx="477.0239"
       cy="1089.5323"
       fx="477.0239"
       fy="1089.5323"
       r="87.5"
       gradientTransform="matrix(-0.69291683,0.98996457,0.43427301,0.30396551,-503.82925,-755.12595)"
       gradientUnits="userSpaceOnUse" />
  </defs>
  <sodipodi:namedview
     objecttolerance="1"
     gridtolerance="1"
     guidetolerance="1"
     id="namedview11"
     pagecolor="#ffffff"
     bordercolor="#cccccc"
     borderopacity="1"
     inkscape:pageshadow="0"
     inkscape:pageopacity="1"
     inkscape:pagecheckerboard="0"
     showgrid="false"
     inkscape:current-layer="g1108">
    <sodipodi:guide
       position="0,400"
       orientation="0,-1"
       id="guide9" />
  </sodipodi:namedview>
  <g
     transform="matrix(1 0 0 -1 0 1100.0)"
     id="g15">
    <path
       opacity="0.75"
       d="M-50.0 -181.0C5.0 -235.0 125.0 -190.0 125.0 -100.0V92.0L25.0 150.0V-100.0C25.0 -164.0 -44.0 -181.0 -50.0 -181.0ZM190.0 550.0ZM140.0 -150.0ZM174.0 0.0C256.0 0.0 322.0 67.0 322.0 150.0C322.0 226.0 281.0 294.0 193.0 349.0C182.0 337.0 171.0 326.0 164.0 300.0C87.0 295.0 25.0 229.0 25.0 150.0C25.0 67.0 92.0 0.0 174.0 0.0ZM174.0 100.0C146.0 100.0 124.0 122.0 124.0 150.0C124.0 178.0 146.0 200.0 174.0 200.0C202.0 200.0 224.0 178.0 224.0 150.0C224.0 122.0 202.0 100.0 174.0 100.0Z"
       id="path13" />
  </g>
  <g
     transform="matrix(1,0,0,-1,-266,1280)"
     id="g1997"
     style="fill:url(#linearGradient2001);fill-opacity:1">
    <path
       d="M 140,30 Z M 25,180 H 440 L 380,280 H 177 c -24,0 -55,13 -68,40 z M 456,730 Z M 406,30 Z m 34,150 c 82,0 148,67 148,150 0,76 -41,144 -129,199 -11,-12 -22,-23 -29,-49 -77,-5 -139,-71 -139,-150 0,-83 67,-150 149,-150 z m 0,100 c -28,0 -50,22 -50,50 0,28 22,50 50,50 28,0 50,-22 50,-50 0,-28 -22,-50 -50,-50 z"
       id="path1995"
       style="opacity:0.5;fill:url(#linearGradient1999);fill-opacity:1" />
  </g>
  <g
     transform="matrix(1,0,0,-1,-266,1100)"
     id="g1884"
     style="fill:url(#linearGradient1892);fill-opacity:1">
    <path
       d="M 140,-150 Z M 25,0 H 440 L 380,100 H 177 c -24,0 -55,13 -68,40 z M 456,550 Z M 406,-150 Z M 440,0 c 82,0 148,67 148,150 0,76 -41,144 -129,199 C 448,337 437,326 430,300 353,295 291,229 291,150 291,67 358,0 440,0 Z m 0,100 c -28,0 -50,22 -50,50 0,28 22,50 50,50 28,0 50,-22 50,-50 0,-28 -22,-50 -50,-50 z"
       id="path1882"
       style="opacity:0.5;fill:url(#linearGradient1993);fill-opacity:1" />
  </g>
  <g
     transform="matrix(1,0,0,-1,440,1100)"
     id="g1108"
     style="fill:#000000;fill-opacity:1">
    <path
       id="path2490"
       style="opacity:1;fill:url(#radialGradient2845);fill-opacity:1"
       d="m -415,150 v -250 c 0,-64 -69,-81 -75,-81 55,-54 175,-9 175,81 V 8.3633 C -373.08389,28.766 -415,84.3629 -415,150 Z" />
    <path
       style="fill:#000000;fill-opacity:1;opacity:0.5"
       d="M 140,-150 Z"
       id="path1985" />
    <path
       style="fill:#000000;fill-opacity:1;opacity:0.5"
       d="M 190,550 Z"
       id="path1983" />
    <path
       style="opacity:1;fill:url(#linearGradient2408);fill-opacity:1"
       d="m -490,-181 c 55,-54 175,-9 175,81 V 92 l -100,58 v -250 c 0,-64 -69,-81 -75,-81 z"
       id="path1106" />
  </g>
</svg>
