<?xml version="1.0" standalone="no"?>
<svg
   version="1.1"
   viewBox="0 0 507.0 1500.0"
   width="507.0"
   height="1500.0"
   xmlns="http://www.w3.org/2000/svg"
   xmlns:sodipodi="http://sodipodi.sourceforge.net/DTD/sodipodi-0.dtd">
 <sodipodi:namedview objecttolerance="1" gridtolerance="1" guidetolerance="1">
  <sodipodi:guide position="0,400" orientation="0,-1"/>
 </sodipodi:namedview>
 <g transform="matrix(1 0 0 -1 0 1100.0)">
  <path d="M25.0 0.0H262.0L113.0 150.0C113.0 115.0 114.0 32.0 25.0 10.0V0.0ZM262.0 0.0H527.0V100.0H327.0L262.0 0.0ZM261.0 550.0ZM263.0 -150.0ZM262.0 0.0C344.0 0.0 410.0 67.0 410.0 150.0C410.0 217.0 367.0 274.0 307.0 293.0C293.0 298.0 273.0 310.0 262.0 350.0C252.0 310.0 233.0 298.0 219.0 294.0C158.0 275.0 113.0 218.0 113.0 150.0C113.0 67.0 180.0 0.0 262.0 0.0ZM262.0 100.0C234.0 100.0 212.0 122.0 212.0 150.0C212.0 178.0 234.0 200.0 262.0 200.0C290.0 200.0 312.0 178.0 312.0 150.0C312.0 122.0 290.0 100.0 262.0 100.0Z" />
 </g>
</svg>
