<?xml version="1.0" encoding="UTF-8" standalone="no"?>
<svg
   version="1.1"
   viewBox="0.0 0.0 613.0 1500.0"
   width="613.0"
   height="1500.0"
   id="svg13"
   sodipodi:docname="meem-ar.svg"
   inkscape:version="1.1.1 (c3084ef, 2021-09-22)"
   xmlns:inkscape="http://www.inkscape.org/namespaces/inkscape"
   xmlns:sodipodi="http://sodipodi.sourceforge.net/DTD/sodipodi-0.dtd"
   xmlns:xlink="http://www.w3.org/1999/xlink"
   xmlns="http://www.w3.org/2000/svg"
   xmlns:svg="http://www.w3.org/2000/svg">
  <defs
     id="defs17">
    <linearGradient
       inkscape:collect="always"
       id="linearGradient1890">
      <stop
         style="stop-color:#000000;stop-opacity:1;"
         offset="0"
         id="stop1886" />
      <stop
         style="stop-color:#000000;stop-opacity:0"
         offset="1"
         id="stop1888" />
    </linearGradient>
    <linearGradient
       inkscape:collect="always"
       id="linearGradient964">
      <stop
         style="stop-color:#000000;stop-opacity:1;"
         offset="0"
         id="stop960" />
      <stop
         style="stop-color:#000000;stop-opacity:0;"
         offset="1"
         id="stop962" />
    </linearGradient>
    <linearGradient
       inkscape:collect="always"
       xlink:href="#linearGradient964"
       id="linearGradient966"
       x1="69.295303"
       y1="69.127518"
       x2="259.81207"
       y2="36.91275"
       gradientUnits="userSpaceOnUse" />
    <linearGradient
       inkscape:collect="always"
       xlink:href="#linearGradient964"
       id="linearGradient1070"
       gradientUnits="userSpaceOnUse"
       x1="69.295303"
       y1="69.127518"
       x2="259.81207"
       y2="36.91275" />
    <linearGradient
       inkscape:collect="always"
       xlink:href="#linearGradient1890"
       id="linearGradient1892"
       x1="459"
       y1="349"
       x2="381.67786"
       y2="225.50336"
       gradientUnits="userSpaceOnUse" />
    <linearGradient
       inkscape:collect="always"
       xlink:href="#linearGradient1890"
       id="linearGradient1993"
       gradientUnits="userSpaceOnUse"
       x1="459"
       y1="349"
       x2="347.44968"
       y2="153.02014" />
    <linearGradient
       inkscape:collect="always"
       xlink:href="#linearGradient1890"
       id="linearGradient1999"
       gradientUnits="userSpaceOnUse"
       x1="459"
       y1="349"
       x2="319.26175"
       y2="114.7651"
       gradientTransform="translate(0,180)" />
    <linearGradient
       inkscape:collect="always"
       xlink:href="#linearGradient1890"
       id="linearGradient2001"
       gradientUnits="userSpaceOnUse"
       x1="459"
       y1="349"
       x2="406"
       y2="230" />
  </defs>
  <sodipodi:namedview
     id="namedview15"
     pagecolor="#ffffff"
     bordercolor="#cccccc"
     borderopacity="1"
     inkscape:pageshadow="0"
     inkscape:pageopacity="1"
     inkscape:pagecheckerboard="0"
     showgrid="false"
     inkscape:current-layer="svg13"
     objecttolerance="1"
     gridtolerance="1"
     guidetolerance="1">
    <sodipodi:guide
       position="0,400"
       orientation="0,-1"
       id="guide22" />
  </sodipodi:namedview>
  <g
     transform="matrix(1,0,0,-1,0,1100)"
     id="g11"
     style="mix-blend-mode:overlay;fill:url(#linearGradient966);fill-opacity:1">
    <path
       d="M 140,-150 Z M 25,0 H 440 L 380,100 H 177 c -24,0 -55,13 -68,40 z M 456,550 Z M 406,-150 Z M 440,0 c 82,0 148,67 148,150 0,76 -41,144 -129,199 C 448,337 437,326 430,300 353,295 291,229 291,150 291,67 358,0 440,0 Z m 0,100 c -28,0 -50,22 -50,50 0,28 22,50 50,50 28,0 50,-22 50,-50 0,-28 -22,-50 -50,-50 z"
       id="path9"
       style="fill:url(#linearGradient1070);fill-opacity:1" />
  </g>
  <g
     transform="matrix(1,0,0,-1,0,1100)"
     id="g101"
     style="opacity:1;fill:#000000;fill-opacity:0.69">
    <path
       d="M 140,-150 Z M 25,0 H 440 L 380,100 H 177 c -24,0 -55,13 -68,40 z M 456,550 Z M 406,-150 Z M 440,0 c 82,0 148,67 148,150 0,76 -41,144 -129,199 C 448,337 437,326 430,300 353,295 291,229 291,150 291,67 358,0 440,0 Z m 0,100 c -28,0 -50,22 -50,50 0,28 22,50 50,50 28,0 50,-22 50,-50 0,-28 -22,-50 -50,-50 z"
       id="path99"
       style="fill:#000000;fill-opacity:0.69" />
  </g>
  <g
     transform="matrix(1,0,0,-1,0,1100)"
     id="g1884"
     style="fill:url(#linearGradient1892);fill-opacity:1">
    <path
       d="M 140,-150 Z M 25,0 H 440 L 380,100 H 177 c -24,0 -55,13 -68,40 z M 456,550 Z M 406,-150 Z M 440,0 c 82,0 148,67 148,150 0,76 -41,144 -129,199 C 448,337 437,326 430,300 353,295 291,229 291,150 291,67 358,0 440,0 Z m 0,100 c -28,0 -50,22 -50,50 0,28 22,50 50,50 28,0 50,-22 50,-50 0,-28 -22,-50 -50,-50 z"
       id="path1882"
       style="fill:url(#linearGradient1993);fill-opacity:1;opacity:0.5" />
  </g>
  <g
     transform="matrix(1,0,0,-1,0,1280)"
     id="g1997"
     style="fill:url(#linearGradient2001);fill-opacity:1">
    <path
       d="M 140,30 Z M 25,180 H 440 L 380,280 H 177 c -24,0 -55,13 -68,40 z M 456,730 Z M 406,30 Z m 34,150 c 82,0 148,67 148,150 0,76 -41,144 -129,199 -11,-12 -22,-23 -29,-49 -77,-5 -139,-71 -139,-150 0,-83 67,-150 149,-150 z m 0,100 c -28,0 -50,22 -50,50 0,28 22,50 50,50 28,0 50,-22 50,-50 0,-28 -22,-50 -50,-50 z"
       id="path1995"
       style="opacity:0.5;fill:url(#linearGradient1999);fill-opacity:1" />
  </g>
</svg>
