<?xml version="1.0" encoding="UTF-8" standalone="no"?>
<svg
   version="1.1"
   viewBox="0 0 490.0 1500.0"
   width="490.0"
   height="1500.0"
   id="svg189"
   sodipodi:docname="meem-ar.medi.svg"
   inkscape:version="1.2.1 (9c6d41e4, 2022-07-14)"
   xmlns:inkscape="http://www.inkscape.org/namespaces/inkscape"
   xmlns:sodipodi="http://sodipodi.sourceforge.net/DTD/sodipodi-0.dtd"
   xmlns:xlink="http://www.w3.org/1999/xlink"
   xmlns="http://www.w3.org/2000/svg"
   xmlns:svg="http://www.w3.org/2000/svg">
  <defs
     id="defs191">
    <linearGradient
       inkscape:collect="always"
       id="linearGradient5470">
      <stop
         style="stop-color:#000000;stop-opacity:1;"
         offset="0"
         id="stop5466" />
      <stop
         style="stop-color:#000000;stop-opacity:0;"
         offset="1"
         id="stop5468" />
    </linearGradient>
    <linearGradient
       inkscape:collect="always"
       id="linearGradient4167">
      <stop
         style="stop-color:#000000;stop-opacity:1;"
         offset="0"
         id="stop4163" />
      <stop
         style="stop-color:#000000;stop-opacity:0;"
         offset="1"
         id="stop4165" />
    </linearGradient>
    <radialGradient
       inkscape:collect="always"
       xlink:href="#linearGradient4167"
       id="radialGradient3058"
       cx="1854.3973"
       cy="1036.8955"
       fx="1854.3973"
       fy="1036.8955"
       r="132.5"
       gradientTransform="matrix(0.52739007,0.268096,-0.63127824,1.2418311,3.7433,-696.55067)"
       gradientUnits="userSpaceOnUse" />
    <linearGradient
       inkscape:collect="always"
       xlink:href="#linearGradient5470"
       id="linearGradient5472"
       x1="720.13849"
       y1="997.13605"
       x2="707.36328"
       y2="942.55011"
       gradientUnits="userSpaceOnUse"
       gradientTransform="translate(-560)" />
    <linearGradient
       inkscape:collect="always"
       xlink:href="#linearGradient4167"
       id="linearGradient5599"
       gradientUnits="userSpaceOnUse"
       gradientTransform="matrix(1,0,0,-1,-195,1100)"
       x1="439.76511"
       y1="342.95303"
       x2="441.24161"
       y2="286.57718" />
  </defs>
  <sodipodi:namedview
     objecttolerance="1"
     gridtolerance="1"
     guidetolerance="1"
     id="namedview183"
     pagecolor="#ffffff"
     bordercolor="#cccccc"
     borderopacity="1"
     inkscape:pageshadow="0"
     inkscape:pageopacity="1"
     inkscape:pagecheckerboard="0"
     showgrid="false"
     inkscape:current-layer="svg189"
     inkscape:showpageshadow="0"
     inkscape:deskcolor="#d1d1d1">
    <sodipodi:guide
       position="0,400"
       orientation="0,-1"
       id="guide181"
       inkscape:locked="false" />
  </sodipodi:namedview>
  <g
     transform="matrix(1 0 0 -1 0 1100.0)"
     id="g187">
    <path
       fill="#404040"
       d="M-20.0 0.0H245.0L180.0 100.0H-20.0V0.0ZM245.0 0.0H510.0V100.0H310.0L245.0 0.0ZM245.0 0.0C327.0 0.0 393.0 67.0 393.0 150.0C393.0 217.0 350.0 274.0 290.0 293.0C276.0 298.0 256.0 310.0 245.0 350.0C235.0 310.0 216.0 298.0 202.0 294.0C141.0 275.0 96.0 218.0 96.0 150.0C96.0 67.0 163.0 0.0 245.0 0.0ZM245.0 100.0C217.0 100.0 195.0 122.0 195.0 150.0C195.0 178.0 217.0 200.0 245.0 200.0C273.0 200.0 295.0 178.0 295.0 150.0C295.0 122.0 273.0 100.0 245.0 100.0Z"
       id="path185" />
  </g>
  <path
     style="fill:url(#linearGradient5599);fill-opacity:1"
     d="m 245,1100 c 82,0 148,-67 148,-150 0,-67 -43,-124 -103,-143 -14,-5 -34,-17 -45,-57 -10,40 -29,52 -43,56 -61,19 -106,76 -106,144 0,83 67,150 149,150 z"
     id="path5593" />
  <path
     id="path2830"
     style="fill:#404040;fill:url(#radialGradient3058);fill-opacity:1"
     inkscape:transform-center-x="14.090604"
     inkscape:transform-center-y="-12.412752"
     d="M 384.5938,1000 C 364.3496,1058.3208 309.6645,1100 245,1100 h 265 v -100 z" />
  <path
     id="path4708"
     d="m 245,750 c -10,40 -29,52 -43,56 -61,19 -106,76 -106,144 0,17.56989 3.15659,34.34783 8.66797,50 H 245 c -28,0 -50,-22 -50,-50 0,-28 22,-50 50,-50"
     style="fill:url(#linearGradient5472);fill-opacity:1"
     sodipodi:nodetypes="ccsccsc" />
</svg>
