<?xml version="1.0" standalone="no"?>
<svg
   version="1.1"
   viewBox="0 0 490.0 1500.0"
   width="490.0"
   height="1500.0"
   xmlns="http://www.w3.org/2000/svg"
   xmlns:sodipodi="http://sodipodi.sourceforge.net/DTD/sodipodi-0.dtd">
 <sodipodi:namedview objecttolerance="1" gridtolerance="1" guidetolerance="1">
  <sodipodi:guide position="0,400" orientation="0,-1"/>
 </sodipodi:namedview>
 <g transform="matrix(1 0 0 -1 0 1100.0)">
  <path d="M-20.0 0.0H180.0V100.0H-20.0V0.0ZM310.0 0.0H510.0V100.0H310.0V0.0ZM261.0 450.0ZM211.0 -250.0ZM245.0 -100.0C327.0 -100.0 393.0 -33.0 393.0 50.0C393.0 126.0 352.0 194.0 264.0 249.0C253.0 237.0 242.0 226.0 235.0 200.0C158.0 195.0 96.0 129.0 96.0 50.0C96.0 -33.0 163.0 -100.0 245.0 -100.0ZM245.0 0.0C217.0 0.0 195.0 22.0 195.0 50.0C195.0 78.0 217.0 100.0 245.0 100.0C273.0 100.0 295.0 78.0 295.0 50.0C295.0 22.0 273.0 0.0 245.0 0.0Z" />
 </g>
</svg>
