<?xml version="1.0" standalone="no"?>
<svg
   version="1.1"
   viewBox="0 0 460.0 1500.0"
   width="460.0"
   height="1500.0"
   xmlns="http://www.w3.org/2000/svg"
   xmlns:sodipodi="http://sodipodi.sourceforge.net/DTD/sodipodi-0.dtd">
 <sodipodi:namedview objecttolerance="1" gridtolerance="1" guidetolerance="1">
  <sodipodi:guide position="0,400" orientation="0,-1"/>
 </sodipodi:namedview>
 <g transform="matrix(1 0 0 -1 0 1100.0)">
  <path fill="#404040" d="M221.0 -204.0C354.0 -204.0 435.0 -108.0 435.0 5.0C435.0 122.0 387.0 200.0 337.0 262.0L285.0 158.0C305.0 134.0 346.0 77.0 350.0 20.0C355.0 -51.0 318.0 -136.0 216.0 -136.0C102.0 -136.0 55.0 -69.0 55.0 0.0C55.0 39.0 73.0 86.0 111.0 90.0C129.0 92.0 141.0 88.0 160.0 77.0C166.0 100.0 152.0 125.0 131.0 135.0C150.0 160.0 154.0 182.0 151.0 207.0C88.0 167.0 25.0 88.0 25.0 0.0C25.0 -62.0 64.0 -204.0 221.0 -204.0Z" />
 </g>
</svg>
