<?xml version="1.0" standalone="no"?>
<svg
   version="1.1"
   viewBox="0 0 600.0 1500.0"
   width="600.0"
   height="1500.0"
   xmlns="http://www.w3.org/2000/svg"
   xmlns:sodipodi="http://sodipodi.sourceforge.net/DTD/sodipodi-0.dtd">
 <sodipodi:namedview objecttolerance="1" gridtolerance="1" guidetolerance="1">
  <sodipodi:guide position="0,400" orientation="0,-1"/>
 </sodipodi:namedview>
 <g transform="matrix(1 0 0 -1 0 1100.0)">
  <path opacity="0.75" d="M342.0 0.0H620.0V100.0H342.0V0.0ZM340.0 500.0ZM340.0 500.0ZM247.0 -270.0ZM246.0 -215.0C477.0 -215.0 490.0 -3.0 490.0 50.0V150.0L390.0 78.0V10.0C390.0 -101.0 348.0 -148.0 246.0 -148.0C122.0 -148.0 55.0 -81.0 55.0 -5.0C55.0 28.0 64.0 64.0 83.0 76.0C97.0 85.0 114.0 87.0 142.0 83.0C135.0 120.0 105.0 126.0 94.0 125.0C113.0 150.0 110.0 173.0 107.0 198.0C59.0 155.0 25.0 83.0 25.0 -5.0C25.0 -97.0 93.0 -215.0 246.0 -215.0ZM342.0 0.0C424.0 0.0 490.0 67.0 490.0 150.0C490.0 233.0 424.0 300.0 342.0 300.0C260.0 300.0 193.0 233.0 193.0 150.0C193.0 67.0 260.0 0.0 342.0 0.0ZM342.0 100.0C314.0 100.0 292.0 122.0 292.0 150.0C292.0 178.0 314.0 200.0 342.0 200.0C370.0 200.0 392.0 178.0 392.0 150.0C392.0 122.0 370.0 100.0 342.0 100.0Z" />
 </g>
</svg>
