<?xml version="1.0" encoding="UTF-8" standalone="no"?>
<svg
   version="1.1"
   viewBox="0 0 300.0 1500.0"
   width="300.0"
   height="1500.0"
   id="svg1424"
   sodipodi:docname="reh-ar.fina.svg"
   inkscape:version="1.1.1 (c3084ef, 2021-09-22)"
   xmlns:inkscape="http://www.inkscape.org/namespaces/inkscape"
   xmlns:sodipodi="http://sodipodi.sourceforge.net/DTD/sodipodi-0.dtd"
   xmlns:xlink="http://www.w3.org/1999/xlink"
   xmlns="http://www.w3.org/2000/svg"
   xmlns:svg="http://www.w3.org/2000/svg">
  <defs
     id="defs1426">
    <linearGradient
       inkscape:collect="always"
       xlink:href="#linearGradient1523"
       id="linearGradient1525"
       x1="-82.98658"
       y1="-148.25418"
       x2="93.288589"
       y2="-130.13336"
       gradientUnits="userSpaceOnUse" />
    <linearGradient
       inkscape:collect="always"
       id="linearGradient1523">
      <stop
         style="stop-color:#000000;stop-opacity:1;"
         offset="0"
         id="stop1519" />
      <stop
         style="stop-color:#000000;stop-opacity:0;"
         offset="1"
         id="stop1521" />
    </linearGradient>
    <linearGradient
       inkscape:collect="always"
       xlink:href="#linearGradient1523"
       id="linearGradient1699"
       gradientUnits="userSpaceOnUse"
       x1="-82.98658"
       y1="-148.25418"
       x2="93.288589"
       y2="-130.13336" />
    <linearGradient
       inkscape:collect="always"
       xlink:href="#linearGradient1523"
       id="linearGradient141"
       gradientUnits="userSpaceOnUse"
       x1="144.5302"
       y1="286.64514"
       x2="153.69127"
       y2="105.43711"
       gradientTransform="matrix(1,0,0,-1,0,1100)" />
  </defs>
  <sodipodi:namedview
     objecttolerance="1"
     gridtolerance="1"
     guidetolerance="1"
     id="namedview1418"
     pagecolor="#ffffff"
     bordercolor="#cccccc"
     borderopacity="1"
     inkscape:pageshadow="0"
     inkscape:pageopacity="1"
     inkscape:pagecheckerboard="0"
     showgrid="false"
     inkscape:current-layer="svg1424">
    <sodipodi:guide
       position="0,400"
       orientation="0,-1"
       id="guide1416" />
  </sodipodi:namedview>
  <g
     transform="matrix(1 0 0 -1 0 1100.0)"
     id="g1422">
    <path
       fill="#404040"
       d="M174.0 0.0H320.0V100.0H174.0V0.0ZM-85.0 -150.0C-19.0 -244.0 200.0 -237.0 200.0 -60.0V300.0L100.0 278.0V-70.0C100.0 -127.0 68.0 -191.0 -85.0 -150.0Z"
       id="path1420" />
  </g>
  <g
     transform="matrix(1,0,0,-1,0,1100)"
     id="g1442"
     style="fill:url(#linearGradient1525);fill-opacity:1">
    <path
       fill="#404040"
       d="m -85,-150 c 66,-94 285,-87 285,90 V 300 L 100,278 V -70 c 0,-57 -32,-121 -185,-80 z"
       id="path1440"
       style="fill:url(#linearGradient1699);fill-opacity:1" />
  </g>
  <path
     fill="#404040"
     d="m -85,1250 c 66,94 285,87 285,-90 V 800 l -100,22 v 348 c 0,57 -32,121 -185,80 z"
     id="path116"
     style="fill:url(#linearGradient141);fill-opacity:1" />
</svg>
