<?xml version="1.0" standalone="no"?>
<svg
   version="1.1"
   viewBox="0 0 198.0 1500.0"
   width="198.0"
   height="1500.0"
   xmlns="http://www.w3.org/2000/svg"
   xmlns:sodipodi="http://sodipodi.sourceforge.net/DTD/sodipodi-0.dtd">
 <sodipodi:namedview objecttolerance="1" gridtolerance="1" guidetolerance="1">
  <sodipodi:guide position="0,400" orientation="0,-1"/>
 </sodipodi:namedview>
 <g transform="matrix(1 0 0 -1 0 1100.0)">
  <path fill="#404040" d="M98.0 -146.0C153.0 -146.0 198.0 -101.0 198.0 -46.0C198.0 9.0 153.0 54.0 98.0 54.0C44.0 54.0 0.0 9.0 0.0 -46.0C0.0 -101.0 44.0 -146.0 98.0 -146.0ZM99.0 -111.0C61.0 -111.0 33.0 -82.0 33.0 -45.0C33.0 -8.0 61.0 23.0 99.0 22.0C137.0 21.0 165.0 -8.0 165.0 -45.0C165.0 -82.0 136.0 -111.0 99.0 -111.0Z" />
 </g>
</svg>
