<?xml version="1.0" encoding="UTF-8" standalone="no"?>
<svg
   version="1.1"
   viewBox="0 0 1245.0 1500.0"
   width="1245.0"
   height="1500.0"
   id="svg17"
   sodipodi:docname="sad-ar.fina.svg"
   inkscape:version="1.1.1 (c3084ef, 2021-09-22)"
   xmlns:inkscape="http://www.inkscape.org/namespaces/inkscape"
   xmlns:sodipodi="http://sodipodi.sourceforge.net/DTD/sodipodi-0.dtd"
   xmlns:xlink="http://www.w3.org/1999/xlink"
   xmlns="http://www.w3.org/2000/svg"
   xmlns:svg="http://www.w3.org/2000/svg">
  <defs
     id="defs19">
    <linearGradient
       inkscape:collect="always"
       xlink:href="#linearGradient1596"
       id="linearGradient1598"
       x1="147.81879"
       y1="893.14429"
       x2="62.979866"
       y2="1036.0973"
       gradientUnits="userSpaceOnUse" />
    <linearGradient
       inkscape:collect="always"
       id="linearGradient1596">
      <stop
         style="stop-color:#000000;stop-opacity:1;"
         offset="0"
         id="stop1592" />
      <stop
         style="stop-color:#000000;stop-opacity:0;"
         offset="1"
         id="stop1594" />
    </linearGradient>
    <linearGradient
       inkscape:collect="always"
       xlink:href="#linearGradient1596"
       id="linearGradient980"
       x1="155.16779"
       y1="383.22147"
       x2="164.33167"
       y2="300.67114"
       gradientUnits="userSpaceOnUse" />
    <linearGradient
       inkscape:collect="always"
       xlink:href="#linearGradient1596"
       id="linearGradient1392"
       gradientUnits="userSpaceOnUse"
       x1="155.16779"
       y1="383.22147"
       x2="164.33167"
       y2="300.67114" />
  </defs>
  <sodipodi:namedview
     objecttolerance="1"
     gridtolerance="1"
     guidetolerance="1"
     id="namedview11"
     pagecolor="#ffffff"
     bordercolor="#cccccc"
     borderopacity="1"
     inkscape:pageshadow="0"
     inkscape:pageopacity="1"
     inkscape:pagecheckerboard="0"
     showgrid="false"
     inkscape:current-layer="svg17">
    <sodipodi:guide
       position="0,400"
       orientation="0,-1"
       id="guide9" />
  </sodipodi:namedview>
  <g
     transform="matrix(1 0 0 -1 0 1100.0)"
     id="g15">
    <path
       fill="#404040"
       d="M1080.0 0.0H1265.0V100.0H1080.0V0.0ZM345.0 240.0H445.0V400.0L345.0 378.0V240.0ZM216.0 -200.0C367.0 -200.0 444.0 -113.0 445.0 0.0V300.0L345.0 278.0V40.0C345.0 -71.0 318.0 -143.0 216.0 -143.0C92.0 -143.0 55.0 -76.0 55.0 0.0C55.0 39.0 73.0 86.0 111.0 90.0C129.0 92.0 141.0 88.0 160.0 77.0C166.0 100.0 152.0 125.0 131.0 135.0C150.0 160.0 154.0 182.0 151.0 207.0C88.0 167.0 25.0 88.0 25.0 0.0C25.0 -62.0 53.0 -200.0 216.0 -200.0ZM695.0 550.0ZM695.0 550.0ZM695.0 -150.0ZM390.0 0.0H1105.0C1105.0 0.0 1145.0 -2.0 1145.0 23.0C1145.0 143.0 1162.0 300.0 955.0 300.0H390.0V200.0H955.0C1030.0 200.0 1046.0 156.0 1045.0 100.0H390.0V0.0Z"
       id="path13" />
  </g>
  <path
     style="fill:url(#linearGradient1598);fill-opacity:1"
     d="m 216,1300 v -57 c -124,0 -161,-67 -161,-143 0,-39 18,-86 56,-90 18,-2 30,2 49,13 6,-23 -8,-48 -29,-58 19,-25 23,-47 20,-72 -63,40 -126,119 -126,207 0,62 28,200 191,200 z"
     id="path1380"
     sodipodi:nodetypes="ccsccccsc" />
  <g
     transform="matrix(1,0,0,-1,230,1100)"
     id="g139"
     style="fill:url(#linearGradient980);fill-opacity:1">
    <path
       fill="#404040"
       d="M 115,50 H 215 V 400 L 115,378 Z M -20,0 H 255 V 100 H -20 Z m 485,550 z m 0,0 z m 0,-700 z M 160,0 h 715 c 0,0 40,-2 40,23 0,120 17,277 -190,277 H 160 V 200 h 565 c 75,0 91,-44 90,-100 H 160 Z"
       id="path137"
       style="fill:url(#linearGradient1392);fill-opacity:1" />
  </g>
</svg>
