<?xml version="1.0" encoding="UTF-8" standalone="no"?>
<svg
   version="1.1"
   viewBox="0 0 700.0 1500.0"
   width="700.0"
   height="1500.0"
   id="svg121"
   sodipodi:docname="seen-ar.medi.svg"
   inkscape:version="1.1.1 (c3084ef, 2021-09-22)"
   xmlns:inkscape="http://www.inkscape.org/namespaces/inkscape"
   xmlns:sodipodi="http://sodipodi.sourceforge.net/DTD/sodipodi-0.dtd"
   xmlns:xlink="http://www.w3.org/1999/xlink"
   xmlns="http://www.w3.org/2000/svg"
   xmlns:svg="http://www.w3.org/2000/svg">
  <defs
     id="defs123">
    <linearGradient
       inkscape:collect="always"
       id="linearGradient2387">
      <stop
         style="stop-color:#000000;stop-opacity:1;"
         offset="0"
         id="stop2383" />
      <stop
         style="stop-color:#000000;stop-opacity:0;"
         offset="1"
         id="stop2385" />
    </linearGradient>
    <linearGradient
       inkscape:collect="always"
       xlink:href="#linearGradient2387"
       id="linearGradient2389"
       x1="344.42953"
       y1="334.89932"
       x2="720"
       y2="200"
       gradientUnits="userSpaceOnUse" />
    <linearGradient
       inkscape:collect="always"
       xlink:href="#linearGradient2387"
       id="linearGradient2448"
       gradientUnits="userSpaceOnUse"
       x1="344.42953"
       y1="334.89932"
       x2="379.73154"
       y2="212.08054" />
  </defs>
  <sodipodi:namedview
     objecttolerance="1"
     gridtolerance="1"
     guidetolerance="1"
     id="namedview115"
     pagecolor="#ffffff"
     bordercolor="#cccccc"
     borderopacity="1"
     inkscape:pageshadow="0"
     inkscape:pageopacity="1"
     inkscape:pagecheckerboard="0"
     showgrid="false"
     inkscape:current-layer="svg121">
    <sodipodi:guide
       position="0,400"
       orientation="0,-1"
       id="guide113" />
  </sodipodi:namedview>
  <g
     transform="matrix(1 0 0 -1 0 1100.0)"
     id="g119">
    <path
       fill="#404040"
       d="M-20.0 0.0H720.0V100.0H600.0V400.0L500.0 378.0V100.0H400.0V350.0L300.0 328.0V100.0H200.0V300.0L100.0 278.0V100.0H-20.0V0.0Z"
       id="path117" />
  </g>
  <g
     transform="matrix(1 0 0 -1 0 1100.0)"
     id="g2306"
     style="fill:url(#linearGradient2389);fill-opacity:1">
    <path
       fill="#404040"
       d="M-20.0 0.0H720.0V100.0H600.0V400.0L500.0 378.0V100.0H400.0V350.0L300.0 328.0V100.0H200.0V300.0L100.0 278.0V100.0H-20.0V0.0Z"
       id="path2304"
       style="fill:url(#linearGradient2448);fill-opacity:1" />
  </g>
</svg>
