<?xml version="1.0" standalone="no"?>
<svg
   version="1.1"
   viewBox="0 0 945.0 1500.0"
   width="945.0"
   height="1500.0"
   xmlns="http://www.w3.org/2000/svg"
   xmlns:sodipodi="http://sodipodi.sourceforge.net/DTD/sodipodi-0.dtd">
 <sodipodi:namedview objecttolerance="1" gridtolerance="1" guidetolerance="1">
  <sodipodi:guide position="0,400" orientation="0,-1"/>
 </sodipodi:namedview>
 <g transform="matrix(1 0 0 -1 0 1100.0)">
  <path fill="#404040" d="M745.0 98.0V0.0H965.0V100.0L745.0 98.0ZM345.0 190.0H445.0V350.0L345.0 328.0V190.0ZM545.0 190.0H645.0V350.0L545.0 328.0V190.0ZM745.0 190.0H845.0V350.0L745.0 328.0V190.0ZM590.0 550.0ZM590.0 550.0ZM590.0 -150.0ZM425.0 100.0V0.0H805.0C805.0 0.0 845.0 -2.0 845.0 23.0V300.0L745.0 278.0V100.0H645.0V300.0L545.0 278.0V100.0H425.0ZM216.0 -200.0C367.0 -200.0 444.0 -113.0 445.0 0.0V300.0L345.0 278.0V40.0C345.0 -71.0 318.0 -143.0 216.0 -143.0C92.0 -143.0 55.0 -76.0 55.0 0.0C55.0 39.0 73.0 86.0 111.0 90.0C129.0 92.0 141.0 88.0 160.0 77.0C166.0 100.0 152.0 125.0 131.0 135.0C150.0 160.0 154.0 182.0 151.0 207.0C88.0 167.0 25.0 88.0 25.0 0.0C25.0 -62.0 53.0 -200.0 216.0 -200.0Z" />
 </g>
</svg>
