<?xml version="1.0" standalone="no"?>
<svg
   version="1.1"
   viewBox="0 0 205.0 1500.0"
   width="205.0"
   height="1500.0"
   xmlns="http://www.w3.org/2000/svg"
   xmlns:sodipodi="http://sodipodi.sourceforge.net/DTD/sodipodi-0.dtd">
 <sodipodi:namedview objecttolerance="1" gridtolerance="1" guidetolerance="1">
  <sodipodi:guide position="0,400" orientation="0,-1"/>
 </sodipodi:namedview>
 <g transform="matrix(1 0 0 -1 0 1100.0)">
  <path opacity="0.75" d="M122.0 0.0C154.0 0.0 180.0 26.0 180.0 58.0C180.0 90.0 154.0 116.0 122.0 116.0C90.0 116.0 64.0 90.0 64.0 58.0C64.0 26.0 90.0 0.0 122.0 0.0ZM180.0 411.0 153.0 447.0C67.0 394.0 50.0 321.0 50.0 282.0C50.0 240.0 64.0 189.0 117.0 189.0C150.0 189.0 176.0 212.0 176.0 248.0C176.0 298.0 114.0 320.0 89.0 292.0L118.0 288.0C100.0 312.0 120.0 376.0 180.0 411.0Z" />
 </g>
</svg>
