<?xml version="1.0" standalone="no"?>
<svg
   version="1.1"
   viewBox="0 0 198.0 1500.0"
   width="198.0"
   height="1500.0"
   xmlns="http://www.w3.org/2000/svg"
   xmlns:sodipodi="http://sodipodi.sourceforge.net/DTD/sodipodi-0.dtd">
 <sodipodi:namedview objecttolerance="1" gridtolerance="1" guidetolerance="1">
  <sodipodi:guide position="0,400" orientation="0,-1"/>
 </sodipodi:namedview>
 <g transform="matrix(1 0 0 -1 0 1100.0)">
  <path fill="#404040" d="M98.0 74.0C153.0 74.0 198.0 119.0 198.0 174.0C198.0 229.0 153.0 274.0 98.0 274.0C44.0 274.0 0.0 229.0 0.0 174.0C0.0 119.0 44.0 74.0 98.0 74.0ZM99.0 109.0C61.0 109.0 33.0 138.0 33.0 175.0C33.0 212.0 61.0 243.0 99.0 242.0C137.0 241.0 165.0 212.0 165.0 175.0C165.0 138.0 136.0 109.0 99.0 109.0Z" />
 </g>
</svg>
