<?xml version="1.0" standalone="no"?>
<svg xmlns="http://www.w3.org/2000/svg" version="1.1" viewBox="0 0 940.0 1500.0" width="940.0" height="1500.0">
 <g transform="matrix(1 0 0 -1 0 1100.0)">
  <path d="M-60.0 0.0H35.0V100.0H-60.0V0.0ZM115.0 50.0H215.0V800.0L115.0 778.0V50.0ZM-45.0 0.0H275.0V100.0H15.0L-45.0 0.0ZM465.0 550.0ZM465.0 550.0ZM465.0 -150.0ZM160.0 0.0H875.0C875.0 0.0 915.0 -2.0 915.0 23.0C915.0 143.0 932.0 300.0 725.0 300.0H160.0V200.0H725.0C800.0 200.0 816.0 156.0 815.0 100.0H160.0V0.0Z" />
 </g>
</svg>
