<?xml version="1.0" encoding="UTF-8" standalone="no"?>
<svg
   version="1.1"
   viewBox="0 0 1085.0 1500.0"
   width="1085.0"
   height="1500.0"
   id="svg17"
   sodipodi:docname="tah-ar.fina.svg"
   inkscape:version="1.1.1 (c3084ef, 2021-09-22)"
   xmlns:inkscape="http://www.inkscape.org/namespaces/inkscape"
   xmlns:sodipodi="http://sodipodi.sourceforge.net/DTD/sodipodi-0.dtd"
   xmlns:xlink="http://www.w3.org/1999/xlink"
   xmlns="http://www.w3.org/2000/svg"
   xmlns:svg="http://www.w3.org/2000/svg">
  <defs
     id="defs19">
    <linearGradient
       inkscape:collect="always"
       xlink:href="#linearGradient978"
       id="linearGradient980"
       x1="228.3557"
       y1="784.54474"
       x2="234.33167"
       y2="591.25616"
       gradientUnits="userSpaceOnUse" />
    <linearGradient
       inkscape:collect="always"
       id="linearGradient978">
      <stop
         style="stop-color:#000000;stop-opacity:1;"
         offset="0"
         id="stop974" />
      <stop
         style="stop-color:#000000;stop-opacity:0;"
         offset="1"
         id="stop976" />
    </linearGradient>
    <linearGradient
       inkscape:collect="always"
       xlink:href="#linearGradient978"
       id="linearGradient1273"
       gradientUnits="userSpaceOnUse"
       x1="228.3557"
       y1="784.54474"
       x2="234.33167"
       y2="591.25616" />
    <linearGradient
       inkscape:collect="always"
       xlink:href="#linearGradient978"
       id="linearGradient1487"
       gradientUnits="userSpaceOnUse"
       x1="51.174488"
       y1="33.538025"
       x2="139.70079"
       y2="71.793076"
       gradientTransform="matrix(1,0,0,-1,0,1100)" />
  </defs>
  <sodipodi:namedview
     objecttolerance="1"
     gridtolerance="1"
     guidetolerance="1"
     id="namedview11"
     pagecolor="#ffffff"
     bordercolor="#cccccc"
     borderopacity="1"
     inkscape:pageshadow="0"
     inkscape:pageopacity="1"
     inkscape:pagecheckerboard="0"
     showgrid="false"
     inkscape:current-layer="svg17">
    <sodipodi:guide
       position="0,400"
       orientation="0,-1"
       id="guide9" />
  </sodipodi:namedview>
  <g
     transform="matrix(1 0 0 -1 0 1100.0)"
     id="g15">
    <path
       fill="#404040"
       d="M925.0 0.0H1105.0V100.0H925.0V0.0ZM185.0 50.0H285.0V800.0L185.0 778.0V50.0ZM25.0 0.0H345.0V100.0H85.0L25.0 0.0ZM230.0 0.0H945.0C945.0 0.0 985.0 -2.0 985.0 23.0C985.0 143.0 1002.0 300.0 795.0 300.0H230.0V200.0H795.0C870.0 200.0 886.0 156.0 885.0 100.0H230.0V0.0Z"
       id="path13" />
  </g>
  <g
     transform="matrix(1,0,0,-1,0,1100)"
     id="g954"
     style="fill:url(#linearGradient980);fill-opacity:1">
    <path
       fill="#404040"
       d="M 185,50 H 285 V 800 L 185,778 Z M 25,0 H 345 V 100 H 85 Z m 205,0 h 715 c 0,0 40,-2 40,23 0,120 17,277 -190,277 H 230 V 200 h 565 c 75,0 91,-44 90,-100 H 230 Z"
       id="path952"
       style="fill:url(#linearGradient1273);fill-opacity:1" />
  </g>
  <path
     fill="#404040"
     d="M 185,1050 H 285 V 300 L 185,322 Z M 25,1100 H 345 V 1000 H 85 Z m 205,0 h 715 c 0,0 40,2 40,-23 0,-120 17,-277 -190,-277 H 230 v 100 h 565 c 75,0 91,44 90,100 H 230 Z"
     id="path1363"
     style="fill:url(#linearGradient1487);fill-opacity:1" />
</svg>
