<?xml version="1.0" standalone="no"?>
<svg
   version="1.1"
   viewBox="0 0 289.0 1500.0"
   width="289.0"
   height="1500.0"
   xmlns="http://www.w3.org/2000/svg"
   xmlns:sodipodi="http://sodipodi.sourceforge.net/DTD/sodipodi-0.dtd">
 <sodipodi:namedview objecttolerance="1" gridtolerance="1" guidetolerance="1">
  <sodipodi:guide position="0,400" orientation="0,-1"/>
 </sodipodi:namedview>
 <g transform="matrix(1 0 0 -1 0 1100.0)">
  <path fill="#404040" d="M145.0 -58.0C174.0 -54.0 207.0 -28.0 207.0 8.0C207.0 29.0 194.0 50.0 174.0 50.0C157.0 50.0 148.0 33.0 145.0 24.0C142.0 33.0 133.0 50.0 116.0 50.0C96.0 50.0 83.0 29.0 83.0 8.0C83.0 -28.0 116.0 -54.0 145.0 -58.0ZM231.0 -208.0C260.0 -204.0 293.0 -178.0 293.0 -142.0C293.0 -121.0 280.0 -100.0 260.0 -100.0C243.0 -100.0 234.0 -117.0 231.0 -126.0C228.0 -117.0 219.0 -100.0 202.0 -100.0C182.0 -100.0 169.0 -121.0 169.0 -142.0C169.0 -178.0 202.0 -204.0 231.0 -208.0ZM58.0 -208.0C87.0 -204.0 120.0 -178.0 120.0 -142.0C120.0 -121.0 107.0 -100.0 87.0 -100.0C70.0 -100.0 61.0 -117.0 58.0 -126.0C55.0 -117.0 46.0 -100.0 29.0 -100.0C9.0 -100.0 -4.0 -121.0 -4.0 -142.0C-4.0 -178.0 29.0 -204.0 58.0 -208.0Z" />
 </g>
</svg>
