<?xml version="1.0" standalone="no"?>
<svg
   version="1.1"
   viewBox="0 0 116.0 1500.0"
   width="116.0"
   height="1500.0"
   xmlns="http://www.w3.org/2000/svg"
   xmlns:sodipodi="http://sodipodi.sourceforge.net/DTD/sodipodi-0.dtd">
 <sodipodi:namedview objecttolerance="1" gridtolerance="1" guidetolerance="1">
  <sodipodi:guide position="0,400" orientation="0,-1"/>
 </sodipodi:namedview>
 <g transform="matrix(1 0 0 -1 0 1100.0)">
  <path d="M58.0 -169.0ZM58.0 150.0ZM58.0 1.0ZM58.0 151.0ZM58.0 -57.0C90.0 -57.0 116.0 -31.0 116.0 1.0C116.0 33.0 90.0 59.0 58.0 59.0C26.0 59.0 0.0 33.0 0.0 1.0C0.0 -31.0 26.0 -57.0 58.0 -57.0ZM58.0 -169.0ZM58.0 -19.0ZM58.0 -227.0C90.0 -227.0 116.0 -201.0 116.0 -169.0C116.0 -137.0 90.0 -111.0 58.0 -111.0C26.0 -111.0 0.0 -137.0 0.0 -169.0C0.0 -201.0 26.0 -227.0 58.0 -227.0Z" />
 </g>
</svg>
