<?xml version="1.0" standalone="no"?>
<svg
   version="1.1"
   viewBox="0 0 116.0 1500.0"
   width="116.0"
   height="1500.0"
   xmlns="http://www.w3.org/2000/svg"
   xmlns:sodipodi="http://sodipodi.sourceforge.net/DTD/sodipodi-0.dtd">
 <sodipodi:namedview objecttolerance="1" gridtolerance="1" guidetolerance="1">
  <sodipodi:guide position="0,400" orientation="0,-1"/>
 </sodipodi:namedview>
 <g transform="matrix(1 0 0 -1 0 1100.0)">
  <path fill="#404040" d="M58.0 170.0ZM58.0 320.0ZM58.0 112.0C87.0 116.0 120.0 142.0 120.0 178.0C120.0 199.0 107.0 220.0 87.0 220.0C70.0 220.0 61.0 203.0 58.0 194.0C55.0 203.0 46.0 220.0 29.0 220.0C9.0 220.0 -4.0 199.0 -4.0 178.0C-4.0 142.0 29.0 116.0 58.0 112.0ZM58.0 0.0ZM58.0 150.0ZM58.0 -58.0C87.0 -54.0 120.0 -28.0 120.0 8.0C120.0 29.0 107.0 50.0 87.0 50.0C70.0 50.0 61.0 33.0 58.0 24.0C55.0 33.0 46.0 50.0 29.0 50.0C9.0 50.0 -4.0 29.0 -4.0 8.0C-4.0 -28.0 29.0 -54.0 58.0 -58.0Z" />
 </g>
</svg>
