<?xml version="1.0" standalone="no"?>
<svg
   version="1.1"
   viewBox="0 0 116.0 1500.0"
   width="116.0"
   height="1500.0"
   xmlns="http://www.w3.org/2000/svg"
   xmlns:sodipodi="http://sodipodi.sourceforge.net/DTD/sodipodi-0.dtd">
 <sodipodi:namedview objecttolerance="1" gridtolerance="1" guidetolerance="1">
  <sodipodi:guide position="0,400" orientation="0,-1"/>
 </sodipodi:namedview>
 <g transform="matrix(1 0 0 -1 0 1100.0)">
  <path fill="#404040" d="M58.0 170.0ZM58.0 320.0ZM58.0 112.0C90.0 112.0 116.0 138.0 116.0 170.0C116.0 202.0 90.0 228.0 58.0 228.0C26.0 228.0 0.0 202.0 0.0 170.0C0.0 138.0 26.0 112.0 58.0 112.0ZM58.0 0.0ZM58.0 150.0ZM58.0 -58.0C90.0 -58.0 116.0 -32.0 116.0 0.0C116.0 32.0 90.0 58.0 58.0 58.0C26.0 58.0 0.0 32.0 0.0 0.0C0.0 -32.0 26.0 -58.0 58.0 -58.0Z" />
 </g>
</svg>
