<?xml version="1.0" encoding="UTF-8" standalone="no"?>
<svg
   version="1.1"
   viewBox="0 0 400.0 1500.0"
   width="400.0"
   height="1500.0"
   id="svg109"
   sodipodi:docname="waw-ar.fina.svg"
   inkscape:version="1.1.1 (c3084ef, 2021-09-22)"
   xmlns:inkscape="http://www.inkscape.org/namespaces/inkscape"
   xmlns:sodipodi="http://sodipodi.sourceforge.net/DTD/sodipodi-0.dtd"
   xmlns:xlink="http://www.w3.org/1999/xlink"
   xmlns="http://www.w3.org/2000/svg"
   xmlns:svg="http://www.w3.org/2000/svg">
  <defs
     id="defs111">
    <radialGradient
       inkscape:collect="always"
       xlink:href="#linearGradient1463"
       id="radialGradient1465"
       cx="280.48465"
       cy="1008.7731"
       fx="280.48465"
       fy="1008.7731"
       r="149.5"
       gradientTransform="matrix(-0.50646363,0.23390015,-0.27681105,-0.5993785,667.0906,1566.527)"
       gradientUnits="userSpaceOnUse" />
    <linearGradient
       inkscape:collect="always"
       id="linearGradient1463">
      <stop
         style="stop-color:#000000;stop-opacity:1;"
         offset="0"
         id="stop1459" />
      <stop
         style="stop-color:#000000;stop-opacity:0;"
         offset="1"
         id="stop1461" />
    </linearGradient>
    <linearGradient
       inkscape:collect="always"
       xlink:href="#linearGradient1463"
       id="linearGradient968"
       x1="41.107384"
       y1="-132.36156"
       x2="112.59061"
       y2="-86.052834"
       gradientUnits="userSpaceOnUse"
       gradientTransform="matrix(1,0,0,-1,0,1100)" />
  </defs>
  <sodipodi:namedview
     objecttolerance="1"
     gridtolerance="1"
     guidetolerance="1"
     id="namedview103"
     pagecolor="#ffffff"
     bordercolor="#cccccc"
     borderopacity="1"
     inkscape:pageshadow="0"
     inkscape:pageopacity="1"
     inkscape:pagecheckerboard="0"
     showgrid="false"
     inkscape:current-layer="svg109">
    <sodipodi:guide
       position="0,400"
       orientation="0,-1"
       id="guide101" />
  </sodipodi:namedview>
  <g
     transform="matrix(1 0 0 -1 0 1100.0)"
     id="g107">
    <path
       fill="#404040"
       d="M173.0 0.0H420.0V100.0H223.0L173.0 0.0ZM39.0 -132.0C105.0 -226.0 324.0 -219.0 324.0 -42.0V150.0L224.0 128.0V-52.0C224.0 -109.0 192.0 -173.0 39.0 -132.0ZM324.0 150.0V346.0C297.0 294.0 210.0 300.0 175.0 300.0L324.0 150.0ZM175.0 0.0C257.0 0.0 324.0 67.0 324.0 150.0C324.0 233.0 257.0 300.0 175.0 300.0C93.0 300.0 25.0 233.0 25.0 150.0C25.0 67.0 93.0 0.0 175.0 0.0ZM175.0 100.0C147.0 100.0 125.0 122.0 125.0 150.0C125.0 178.0 147.0 200.0 175.0 200.0C203.0 200.0 225.0 178.0 225.0 150.0C225.0 122.0 203.0 100.0 175.0 100.0Z"
       id="path105" />
  </g>
  <path
     fill="#404040"
     d="m 39,1232 c 66,94 285,87 285,-90 V 950.00003 l -100,22 V 1152 c 0,57 -32,121 -185,80 z M 324,950.00003 v -196 c -27,52 -114,46 -149,46 z M 175,1100 c 82,0 149,-67 149,-149.99997 0,-83 -67,-150 -149,-150 -82,0 -150,67 -150,150 C 25,1033 93,1100 175,1100 Z m 0,-100 c -28,0 -50,-21.99997 -50,-49.99997 0,-28 22,-50 50,-50 28,0 50,22 50,50 0,28 -22,49.99997 -50,49.99997 z"
     id="path125"
     style="fill:url(#linearGradient968);fill-opacity:1" />
  <path
     id="path1082"
     style="display:inline;fill:url(#radialGradient1465);fill-opacity:1"
     d="m 175,800.00003 c -82,0 -150,67 -150,150 C 25,1033 93,1100 175,1100 c 17.15367,0 33.63519,-2.9662 49,-8.3633 V 960.18753 C 219.40625,983.15628 199.5,1000 175,1000 c -28,0 -50,-21.99997 -50,-49.99997 0,-28 22,-50 50,-50 24.5,0 44.40625,16.84375 49,39.8125 v -62.3125 h 81.42383 c -25.44779,-46.24526 -74.42888,-77.5 -130.42383,-77.5 z" />
</svg>
