<?xml version="1.0" standalone="no"?>
<svg
   version="1.1"
   viewBox="0 0 400.0 1500.0"
   width="400.0"
   height="1500.0"
   xmlns="http://www.w3.org/2000/svg"
   xmlns:sodipodi="http://sodipodi.sourceforge.net/DTD/sodipodi-0.dtd">
 <sodipodi:namedview objecttolerance="1" gridtolerance="1" guidetolerance="1">
  <sodipodi:guide position="0,400" orientation="0,-1"/>
 </sodipodi:namedview>
 <g transform="matrix(1 0 0 -1 0 1100.0)">
  <path fill="#404040" d="M154.0 -178.0C218.0 -174.0 288.0 -130.0 316.0 6.0C329.0 71.0 328.0 141.0 318.0 190.0L222.0 128.0C214.0 -18.0 205.0 -154.0 25.0 -125.0C59.0 -171.0 110.0 -181.0 154.0 -178.0ZM174.0 0.0H420.0V100.0H224.0L174.0 0.0ZM174.0 0.0C256.0 0.0 322.0 67.0 322.0 150.0C322.0 226.0 281.0 294.0 193.0 349.0C182.0 337.0 171.0 326.0 164.0 300.0C87.0 295.0 25.0 229.0 25.0 150.0C25.0 67.0 92.0 0.0 174.0 0.0ZM174.0 100.0C146.0 100.0 124.0 122.0 124.0 150.0C124.0 178.0 146.0 200.0 174.0 200.0C202.0 200.0 224.0 178.0 224.0 150.0C224.0 122.0 202.0 100.0 174.0 100.0Z" />
 </g>
</svg>
