<?xml version="1.0" standalone="no"?>
<svg xmlns="http://www.w3.org/2000/svg" version="1.1" viewBox="0 0 349.0 1500.0" width="349.0" height="1500.0">
 <g transform="matrix(1 0 0 -1 0 1100.0)">
  <path d="M39.0 -132.0C105.0 -226.0 324.0 -219.0 324.0 -42.0V150.0L224.0 128.0V-52.0C224.0 -109.0 192.0 -173.0 39.0 -132.0ZM180.0 500.0ZM174.0 450.0ZM180.0 550.0ZM174.0 -150.0ZM324.0 150.0V346.0C297.0 294.0 210.0 300.0 175.0 300.0L324.0 150.0ZM175.0 0.0C257.0 0.0 324.0 67.0 324.0 150.0C324.0 233.0 257.0 300.0 175.0 300.0C93.0 300.0 25.0 233.0 25.0 150.0C25.0 67.0 93.0 0.0 175.0 0.0ZM175.0 100.0C147.0 100.0 125.0 122.0 125.0 150.0C125.0 178.0 147.0 200.0 175.0 200.0C203.0 200.0 225.0 178.0 225.0 150.0C225.0 122.0 203.0 100.0 175.0 100.0Z" />
 </g>
</svg>
