<?xml version="1.0" encoding="UTF-8" standalone="no"?>
<svg
   version="1.1"
   viewBox="0 0 400.0 1500.0"
   width="400.0"
   height="1500.0"
   id="svg17"
   sodipodi:docname="waw-ar.fina.1.svg"
   inkscape:version="1.1.1 (c3084ef, 2021-09-22)"
   xmlns:inkscape="http://www.inkscape.org/namespaces/inkscape"
   xmlns:sodipodi="http://sodipodi.sourceforge.net/DTD/sodipodi-0.dtd"
   xmlns:xlink="http://www.w3.org/1999/xlink"
   xmlns="http://www.w3.org/2000/svg"
   xmlns:svg="http://www.w3.org/2000/svg">
  <defs
     id="defs19">
    <linearGradient
       inkscape:collect="always"
       id="linearGradient2632">
      <stop
         style="stop-color:#000000;stop-opacity:1;"
         offset="0"
         id="stop2628" />
      <stop
         style="stop-color:#000000;stop-opacity:0;"
         offset="1"
         id="stop2630" />
    </linearGradient>
    <radialGradient
       inkscape:collect="always"
       xlink:href="#linearGradient2632"
       id="radialGradient2636"
       cx="37.265102"
       cy="-74.561966"
       fx="37.265102"
       fy="-74.561966"
       r="197.5"
       gradientTransform="matrix(1,0,0,1.3354137,0,-28.595961)"
       gradientUnits="userSpaceOnUse" />
    <radialGradient
       inkscape:collect="always"
       xlink:href="#linearGradient2632"
       id="radialGradient2695"
       gradientUnits="userSpaceOnUse"
       gradientTransform="matrix(0.24186265,0.48645183,-0.86601792,0.43058197,-36.319933,-114.18967)"
       cx="37.265099"
       cy="-74.561966"
       fx="37.265099"
       fy="-74.561966"
       r="197.5" />
  </defs>
  <sodipodi:namedview
     objecttolerance="1"
     gridtolerance="1"
     guidetolerance="1"
     id="namedview11"
     pagecolor="#ffffff"
     bordercolor="#cccccc"
     borderopacity="1"
     inkscape:pageshadow="0"
     inkscape:pageopacity="1"
     inkscape:pagecheckerboard="0"
     showgrid="false"
     inkscape:current-layer="svg17">
    <sodipodi:guide
       position="0,400"
       orientation="0,-1"
       id="guide9" />
  </sodipodi:namedview>
  <g
     transform="matrix(1 0 0 -1 0 1100.0)"
     id="g15">
    <path
       fill="#404040"
       d="M154.0 -178.0C218.0 -174.0 288.0 -130.0 316.0 6.0C329.0 71.0 328.0 141.0 318.0 190.0L222.0 128.0C214.0 -18.0 205.0 -154.0 25.0 -125.0C59.0 -171.0 110.0 -181.0 154.0 -178.0ZM174.0 0.0H420.0V100.0H224.0L174.0 0.0ZM174.0 0.0C256.0 0.0 322.0 67.0 322.0 150.0C322.0 226.0 281.0 294.0 193.0 349.0C182.0 337.0 171.0 326.0 164.0 300.0C87.0 295.0 25.0 229.0 25.0 150.0C25.0 67.0 92.0 0.0 174.0 0.0ZM174.0 100.0C146.0 100.0 124.0 122.0 124.0 150.0C124.0 178.0 146.0 200.0 174.0 200.0C202.0 200.0 224.0 178.0 224.0 150.0C224.0 122.0 202.0 100.0 174.0 100.0Z"
       id="path13" />
  </g>
  <g
     transform="matrix(1 0 0 -1 0 1100.0)"
     id="g2551"
     style="fill:url(#radialGradient2636);fill-opacity:1">
    <path
       fill="#404040"
       d="M154.0 -178.0C218.0 -174.0 288.0 -130.0 316.0 6.0C329.0 71.0 328.0 141.0 318.0 190.0L222.0 128.0C214.0 -18.0 205.0 -154.0 25.0 -125.0C59.0 -171.0 110.0 -181.0 154.0 -178.0ZM174.0 0.0H420.0V100.0H224.0L174.0 0.0ZM174.0 0.0C256.0 0.0 322.0 67.0 322.0 150.0C322.0 226.0 281.0 294.0 193.0 349.0C182.0 337.0 171.0 326.0 164.0 300.0C87.0 295.0 25.0 229.0 25.0 150.0C25.0 67.0 92.0 0.0 174.0 0.0ZM174.0 100.0C146.0 100.0 124.0 122.0 124.0 150.0C124.0 178.0 146.0 200.0 174.0 200.0C202.0 200.0 224.0 178.0 224.0 150.0C224.0 122.0 202.0 100.0 174.0 100.0Z"
       id="path2549"
       style="fill:url(#radialGradient2695);fill-opacity:1" />
  </g>
</svg>
