<?xml version="1.0" standalone="no"?>
<svg
   version="1.1"
   viewBox="0 0 415.0 1500.0"
   width="415.0"
   height="1500.0"
   xmlns="http://www.w3.org/2000/svg"
   xmlns:sodipodi="http://sodipodi.sourceforge.net/DTD/sodipodi-0.dtd">
 <sodipodi:namedview objecttolerance="1" gridtolerance="1" guidetolerance="1">
  <sodipodi:guide position="0,400" orientation="0,-1"/>
 </sodipodi:namedview>
 <g transform="matrix(1 0 0 -1 0 1100.0)">
  <path opacity="0.75" d="M173.0 0.0H435.0V140.0H238.0L173.0 0.0ZM321.0 0.0H365.0V200.0H321.0V0.0ZM365.0 170.0V396.0C338.0 344.0 231.0 340.0 196.0 340.0L365.0 170.0ZM196.0 0.0C289.0 0.0 365.0 76.0 365.0 170.0C365.0 264.0 289.0 340.0 196.0 340.0C103.0 340.0 25.0 263.0 25.0 170.0C25.0 77.0 103.0 0.0 196.0 0.0ZM196.0 140.0C179.0 140.0 165.0 153.0 165.0 170.0C165.0 187.0 179.0 200.0 196.0 200.0C213.0 200.0 225.0 187.0 225.0 170.0C225.0 153.0 213.0 140.0 196.0 140.0Z" />
 </g>
</svg>
