<?xml version="1.0" standalone="no"?>
<svg
   version="1.1"
   viewBox="0 0 419.0 1500.0"
   width="419.0"
   height="1500.0"
   xmlns="http://www.w3.org/2000/svg"
   xmlns:sodipodi="http://sodipodi.sourceforge.net/DTD/sodipodi-0.dtd">
 <sodipodi:namedview objecttolerance="1" gridtolerance="1" guidetolerance="1">
  <sodipodi:guide position="0,400" orientation="0,-1"/>
 </sodipodi:namedview>
 <g transform="matrix(1 0 0 -1 0 1100.0)">
  <path opacity="0.75" d="M394.0 394.0V584.0L255.0 553.0V417.0L394.0 394.0ZM225.0 0.0C318.0 0.0 394.0 76.0 394.0 170.0C394.0 201.0 386.0 229.0 372.0 254.0H77.0C62.0 229.0 54.0 200.0 54.0 170.0C54.0 77.0 132.0 0.0 225.0 0.0ZM-20.0 0.0H245.0L180.0 140.0H-20.0V0.0ZM54.0 84.0H88.0V324.0H54.0V84.0ZM225.0 140.0C208.0 140.0 194.0 153.0 194.0 170.0C194.0 187.0 208.0 200.0 225.0 200.0C242.0 200.0 254.0 187.0 254.0 170.0C254.0 153.0 242.0 140.0 225.0 140.0ZM174.0 0.0H354.0C354.0 0.0 394.0 -2.0 394.0 23.0V324.0L254.0 293.0V140.0H174.0V0.0ZM225.0 294.0C208.0 294.0 194.0 307.0 194.0 324.0C194.0 341.0 208.0 354.0 225.0 354.0C242.0 354.0 254.0 341.0 254.0 324.0C254.0 307.0 242.0 294.0 225.0 294.0ZM77.0 240.0H372.0C386.0 265.0 394.0 293.0 394.0 324.0C394.0 418.0 318.0 494.0 225.0 494.0C132.0 494.0 54.0 417.0 54.0 324.0C54.0 294.0 62.0 265.0 77.0 240.0ZM394.0 324.0V550.0C367.0 498.0 260.0 494.0 225.0 494.0L394.0 324.0Z" />
 </g>
</svg>
