<?xml version="1.0" standalone="no"?>
<svg
   version="1.1"
   viewBox="0 0 479.0 1500.0"
   width="479.0"
   height="1500.0"
   xmlns="http://www.w3.org/2000/svg"
   xmlns:sodipodi="http://sodipodi.sourceforge.net/DTD/sodipodi-0.dtd">
 <sodipodi:namedview objecttolerance="1" gridtolerance="1" guidetolerance="1">
  <sodipodi:guide position="0,400" orientation="0,-1"/>
 </sodipodi:namedview>
 <g transform="matrix(1 0 0 -1 0 1100.0)">
  <path opacity="0.75" d="M25.0 0.0H284.0L113.0 170.0C113.0 115.0 114.0 32.0 25.0 10.0V0.0ZM284.0 0.0C377.0 0.0 454.0 76.0 454.0 170.0C454.0 264.0 407.0 332.0 298.0 398.0C289.0 388.0 264.0 361.0 257.0 338.0C186.0 326.0 113.0 263.0 113.0 170.0C113.0 77.0 191.0 0.0 284.0 0.0ZM284.0 140.0C267.0 140.0 253.0 153.0 253.0 170.0C253.0 187.0 267.0 200.0 284.0 200.0C301.0 200.0 313.0 187.0 313.0 170.0C313.0 153.0 301.0 140.0 284.0 140.0Z" />
 </g>
</svg>
