<?xml version="1.0" standalone="no"?>
<svg
   version="1.1"
   viewBox="0 0 419.0 1500.0"
   width="419.0"
   height="1500.0"
   xmlns="http://www.w3.org/2000/svg"
   xmlns:sodipodi="http://sodipodi.sourceforge.net/DTD/sodipodi-0.dtd">
 <sodipodi:namedview objecttolerance="1" gridtolerance="1" guidetolerance="1">
  <sodipodi:guide position="0,400" orientation="0,-1"/>
 </sodipodi:namedview>
 <g transform="matrix(1 0 0 -1 0 1100.0)">
  <path opacity="0.75" d="M-50.0 -181.0C5.0 -235.0 165.0 -200.0 165.0 -80.0V92.0L25.0 171.0V-80.0C25.0 -164.0 -44.0 -181.0 -50.0 -181.0ZM199.0 0.0H439.0V140.0H239.0L199.0 0.0ZM196.0 0.0C289.0 0.0 365.0 76.0 365.0 170.0C365.0 244.0 316.0 310.0 247.0 332.0C223.0 341.0 212.0 348.0 195.0 399.0C180.0 349.0 169.0 339.0 147.0 333.0C76.0 311.0 25.0 245.0 25.0 170.0C25.0 76.0 103.0 0.0 196.0 0.0ZM196.0 140.0C179.0 140.0 165.0 153.0 165.0 170.0C165.0 187.0 179.0 200.0 196.0 200.0C213.0 200.0 225.0 187.0 225.0 170.0C225.0 153.0 213.0 140.0 196.0 140.0Z" />
 </g>
</svg>
